<svg width="770" height="171" viewBox="0 0 770 171" fill="none" xmlns="http://www.w3.org/2000/svg">
<g filter="url(#filter0_i_1_501)">
<path d="M693.229 52.7549H1764.28V171H-979V52.7549H92.0327L122.876 0H662.226L693.229 52.7549Z" fill="url(#paint0_linear_1_501)"/>
</g>
<path d="M298 144H488L548 218H238L298 144Z" fill="white"/>
<g filter="url(#filter1_f_1_501)">
<path d="M353.161 113H432.839L458 144H328L353.161 113Z" fill="white"/>
</g>
<path d="M-109 75L894.243 75" stroke="#DAD8D8" stroke-width="0.432432"/>
<path d="M208 1L208 171" stroke="#DAD8D8" stroke-width="0.432432"/>
<path d="M564 1L564 171" stroke="#DAD8D8" stroke-width="0.432432"/>
<path d="M567 78H767V168H567V78Z" fill="url(#paint1_linear_1_501)" fill-opacity="0.27"/>
<rect x="5" y="78" width="200" height="90" fill="url(#paint2_linear_1_501)" fill-opacity="0.27"/>
<path d="M298 24H448L478 0H268L298 24Z" fill="white"/>
<defs>
<filter id="filter0_i_1_501" x="-979" y="0" width="2743.28" height="171" filterUnits="userSpaceOnUse" color-interpolation-filters="sRGB">
<feFlood flood-opacity="0" result="BackgroundImageFix"/>
<feBlend mode="normal" in="SourceGraphic" in2="BackgroundImageFix" result="shape"/>
<feColorMatrix in="SourceAlpha" type="matrix" values="0 0 0 0 0 0 0 0 0 0 0 0 0 0 0 0 0 0 127 0" result="hardAlpha"/>
<feOffset/>
<feGaussianBlur stdDeviation="27.4691"/>
<feComposite in2="hardAlpha" operator="arithmetic" k2="-1" k3="1"/>
<feColorMatrix type="matrix" values="0 0 0 0 1 0 0 0 0 1 0 0 0 0 1 0 0 0 1 0"/>
<feBlend mode="normal" in2="shape" result="effect1_innerShadow_1_501"/>
</filter>
<filter id="filter1_f_1_501" x="291.2" y="76.2" width="203.6" height="104.6" filterUnits="userSpaceOnUse" color-interpolation-filters="sRGB">
<feFlood flood-opacity="0" result="BackgroundImageFix"/>
<feBlend mode="normal" in="SourceGraphic" in2="BackgroundImageFix" result="shape"/>
<feGaussianBlur stdDeviation="0" result="effect1_foregroundBlur_1_501"/>
</filter>
<linearGradient id="paint0_linear_1_501" x1="392.639" y1="37.2926" x2="409.921" y2="1320.7" gradientUnits="userSpaceOnUse">
<stop stop-color="#BEC4FF"/>
<stop offset="1" stop-color="#2639ED"/>
</linearGradient>
<linearGradient id="paint1_linear_1_501" x1="753" y1="78" x2="531.5" y2="188" gradientUnits="userSpaceOnUse">
<stop offset="0.414488" stop-color="white" stop-opacity="0"/>
<stop offset="1" stop-color="white"/>
</linearGradient>
<linearGradient id="paint2_linear_1_501" x1="191" y1="78" x2="-30.5" y2="188" gradientUnits="userSpaceOnUse">
<stop stop-color="white"/>
<stop offset="0.585512" stop-color="white" stop-opacity="0"/>
</linearGradient>
</defs>
</svg>
