<svg preserveAspectRatio="none" overflow="visible" style="display: block;" width="48.9009" height="49.1338" viewBox="0 0 48.9009 49.1338" fill="none" xmlns="http://www.w3.org/2000/svg">
<path id="Vector 4723" opacity="0.6" d="M6.52012 16.5332H9.31446C12.9154 16.5332 15.8346 13.614 15.8346 10.013V6.52012C15.8346 2.91916 18.7537 0 22.3547 0H42.3808C45.9818 0 48.9009 2.91916 48.9009 6.52012V25.6148C48.9009 29.2157 45.9818 32.1349 42.3808 32.1349H38.8879C35.2869 32.1349 32.3677 35.054 32.3677 38.655V42.6137C32.3677 46.2146 29.4486 49.1338 25.8476 49.1338H6.52012C2.91916 49.1338 0 46.2146 0 42.6137V23.0533C0 19.4523 2.91915 16.5332 6.52012 16.5332Z" fill="white" fill-opacity="0.07"/>
</svg>
