<svg width="24" height="24" viewBox="0 0 24 24" fill="none" xmlns="http://www.w3.org/2000/svg">
<g clip-path="url(#clip0_2009_4447)">
<path d="M11.872 23.3866C18.2317 23.3866 23.3872 18.2311 23.3872 11.8714C23.3872 5.51182 18.2317 0.356323 11.872 0.356323C5.51243 0.356323 0.356934 5.51182 0.356934 11.8714C0.356934 18.2311 5.51243 23.3866 11.872 23.3866Z" fill="black"/>
<path d="M17.9302 15.1667L15.7841 17.4678C15.6903 17.5689 15.5587 17.6263 15.4209 17.6264H5.24738C5.10954 17.6264 4.99787 17.5146 4.99805 17.3767C4.99805 17.314 5.0218 17.2535 5.06446 17.2073L7.20808 14.9063C7.30188 14.8052 7.43349 14.7478 7.57133 14.7476H17.7447C17.8818 14.7449 17.9952 14.8536 17.998 14.9907C17.9995 15.0561 17.9751 15.1194 17.9302 15.1667ZM15.7841 10.5318C15.69 10.4313 15.5585 10.3739 15.4209 10.3732H5.24738C5.10954 10.3732 4.99787 10.485 4.99805 10.6228C4.99805 10.6856 5.0218 10.7461 5.06446 10.7922L7.20808 13.0945C7.30223 13.1951 7.43366 13.2525 7.57133 13.2532H17.7447C17.8825 13.2525 17.9935 13.1401 17.9928 13.0023C17.9924 12.9399 17.9687 12.8799 17.9264 12.8341L15.7841 10.5318ZM5.24738 8.87871H15.4207C15.5586 8.87854 15.6902 8.82115 15.784 8.72006L17.93 6.419C18.0243 6.3193 18.02 6.16204 17.9203 6.06771C17.9089 6.05696 17.8964 6.04725 17.8832 6.03876C17.8419 6.0124 17.7937 5.99905 17.7448 5.99992H7.5715C7.43366 6.00009 7.30206 6.05748 7.20825 6.15857L5.06463 8.45963C4.971 8.56072 4.97707 8.7185 5.07815 8.81213C5.1241 8.85496 5.18461 8.87871 5.24738 8.87871Z" fill="url(#paint0_linear_2009_4447)"/>
</g>
<defs>
<linearGradient id="paint0_linear_2009_4447" x1="6.09502" y1="17.9037" x2="16.7625" y2="5.87742" gradientUnits="userSpaceOnUse">
<stop offset="0.08" stop-color="#9945FF"/>
<stop offset="0.3" stop-color="#8752F3"/>
<stop offset="0.5" stop-color="#5497D5"/>
<stop offset="0.6" stop-color="#43B4CA"/>
<stop offset="0.72" stop-color="#28E0B9"/>
<stop offset="0.97" stop-color="#19FB9B"/>
</linearGradient>
<clipPath id="clip0_2009_4447">
<rect width="23.7425" height="23.7425" fill="white"/>
</clipPath>
</defs>
</svg>
