<svg width="97" height="24" viewBox="0 0 97 24" fill="none" xmlns="http://www.w3.org/2000/svg">
<g clip-path="url(#clip0_2009_4430)">
<path d="M11.8713 23.7431C18.4276 23.7431 23.7425 18.4282 23.7425 11.8719C23.7425 5.31558 18.4276 0.000640869 11.8713 0.000640869C5.31494 0.000640869 0 5.31558 0 11.8719C0 18.4282 5.31494 23.7431 11.8713 23.7431Z" fill="#FF914D"/>
<path fill-rule="evenodd" clip-rule="evenodd" d="M11.87 20.2249C7.25653 20.2249 3.51709 16.4855 3.51709 11.872C3.51709 7.25855 7.25653 3.5191 11.87 3.5191C16.4835 3.5191 20.2229 7.25855 20.2229 11.872C20.2229 16.4855 16.4835 20.2249 11.87 20.2249ZM11.87 19.7338C16.2119 19.7338 19.7317 16.2139 19.7317 11.872C19.7317 7.5301 16.2119 4.01028 11.87 4.01028C7.52809 4.01028 4.00826 7.5301 4.00826 11.872C4.00826 16.2139 7.52809 19.7338 11.87 19.7338Z" fill="white"/>
<path d="M10.4524 17.9056C10.6364 17.8299 11.3561 17.2749 12.0513 16.6777C12.913 15.9448 13.7418 15.1741 14.5354 14.368C15.2966 13.6067 15.5793 13.2795 15.6261 13.1104C15.7908 12.5161 13.9901 5.98316 13.6235 5.84293C13.4002 5.75686 11.4029 7.41809 9.63405 9.15723C8.5968 10.1767 8.30966 10.5157 8.28741 10.7376C8.27257 10.909 8.33192 11.3386 8.44247 11.8476C8.88245 13.8672 9.68302 16.6576 10.0881 17.5739C10.258 17.9627 10.2773 17.9798 10.4517 17.9056H10.4524Z" fill="white"/>
</g>
<g clip-path="url(#clip1_2009_4430)">
<circle cx="26.5226" cy="11.8716" r="11.8713" fill="white"/>
<path d="M21.9981 13.4271L22.4945 9.69752L18.189 6.70859L22.1229 8.04113L23.052 6.61568L26.4444 4.51068L33.922 8.63042L34.3096 14.9162L30.9782 19.5456L28.345 19.9491L29.7067 17.4565V15.0569L28.7166 13.1828L27.7106 12.5166L26.163 14.1119V15.8002L24.9552 16.931L23.4209 17.1168L22.7414 17.5017L21.6265 17.146L21.162 15.4737L21.9981 14.2977V13.4271Z" fill="white"/>
<path d="M28.8721 6.6767C28.0518 6.50681 27.1546 6.55194 27.1546 6.55194C27.1546 6.55194 26.86 7.91369 25.0337 8.27204C25.047 8.27204 27.4466 9.09227 28.8721 6.6767Z" fill="#94A6C3"/>
<path d="M29.6162 19.0334C30.6063 18.2583 31.3496 17.1912 31.692 15.9834C31.7079 15.9383 31.846 15.8587 31.9389 15.7976C32.0928 15.7047 32.2494 15.6277 32.2786 15.503C32.3397 15.1473 32.3715 14.7757 32.3715 14.404C32.3715 14.266 32.2308 14.1253 32.0928 13.9873C31.984 13.8944 31.8751 13.7855 31.8751 13.7086C31.7212 12.299 31.0708 10.9824 30.0329 10.0241L29.9241 10.133C30.9302 11.078 31.5805 12.3627 31.7212 13.7245C31.7371 13.8492 31.8592 13.9714 31.984 14.0961C32.0928 14.189 32.2176 14.3297 32.2176 14.3908C32.2176 14.7465 32.1857 15.1022 32.1247 15.4579C32.1087 15.5189 31.9707 15.5826 31.8619 15.6437C31.7079 15.7206 31.5672 15.7976 31.538 15.9224C31.1664 17.239 30.3143 18.3857 29.1835 19.129C29.3853 18.6963 30.0197 17.2868 30.3594 16.5727L30.2984 14.2819L28.3314 12.3787L27.2165 12.5326L25.9928 14.5155C25.9928 14.5155 26.5662 15.2428 25.7592 16.0949C24.9709 16.9311 24.3497 17.1169 24.3497 17.1169L23.7763 16.8063C23.9462 16.5887 24.2887 16.2648 24.5515 16.0472C25.0001 15.6755 25.4487 15.6437 25.4487 15.2428C25.4672 14.404 24.5674 14.635 24.5674 14.635L24.2409 14.9455L24.1028 16.0923L23.4233 16.9444L23.3463 16.9284L22.2314 16.6816C22.2314 16.6816 22.9136 16.3259 23.0225 15.9224C23.1313 15.5348 22.8048 14.2501 22.7889 14.1731C22.8048 14.189 23.1154 14.4518 23.2534 14.8845C23.5003 14.2023 23.8268 13.5519 23.9197 13.4909C24.0126 13.4298 25.2655 12.7636 25.2655 12.7636L24.8488 13.8625L25.1593 13.6926L25.9026 11.8664C25.9026 11.8664 26.6299 11.5107 27.1714 11.5107C28.1456 11.4947 29.587 10.3029 28.9366 8.16602C29.1225 8.243 32.3423 9.85426 32.8998 13.0131C33.3165 15.4419 31.9389 17.7168 29.6162 19.0334Z" fill="#94A6C3"/>
<path d="M25.9311 7.01687C26.2868 6.59747 26.1487 5.97897 26.1487 5.97897L25.1108 7.51326C25.0949 7.51326 25.4798 7.52919 25.9311 7.01687Z" fill="#1B314F"/>
<path d="M22.4457 15.3941L22.5704 14.7756C22.5704 14.7756 22.0581 15.6728 22.013 15.7975C21.9652 15.9382 22.0449 16.1851 22.2439 16.1692C22.4457 16.1532 22.6925 15.8586 22.6925 15.6436C22.6925 15.3649 22.4457 15.3941 22.4457 15.3941Z" fill="#1B314F"/>
<path d="M31.8705 5.28458C31.8705 5.28458 32.6578 5.31695 33.4748 5.41137C31.6332 3.96279 29.8886 3.53928 28.473 3.53928C26.5235 3.53928 25.2022 4.34315 25.1213 4.389L25.7361 3.4125C25.7361 3.4125 23.2824 3.17512 22.4169 5.77284C22.1957 5.22254 21.9935 4.41868 21.9935 4.41868C21.9935 4.41868 20.7181 5.53815 21.3167 7.39405C19.8526 6.85994 17.7628 6.11812 17.682 6.10463C17.5714 6.08845 17.539 6.137 17.539 6.137C17.539 6.137 17.5067 6.18286 17.6011 6.26379C17.7763 6.40136 21.0794 8.84262 21.8048 9.31469C21.6484 9.88117 21.6484 10.1482 21.8048 10.4153C22.0259 10.7768 22.0394 10.9656 22.0097 11.2326C21.9773 11.4997 21.6942 13.8142 21.6322 14.0974C21.5702 14.3807 20.9096 15.3868 20.9392 15.6863C20.9716 15.9857 21.3787 17.2589 21.7427 17.4019C22.0097 17.4963 22.6703 17.7013 23.1098 17.7013C23.2662 17.7013 23.4091 17.6689 23.4711 17.6069C23.7381 17.3722 23.8163 17.3237 24.005 17.3237C24.0212 17.3237 24.0374 17.3237 24.0509 17.3237C24.1291 17.3237 24.2234 17.3398 24.334 17.3398C24.5848 17.3398 24.9164 17.2913 25.151 17.0728C25.4962 16.7275 26.0948 16.2554 26.2835 16.0342C26.5208 15.7348 26.6448 15.3275 26.5828 14.9175C26.5343 14.5398 26.7392 14.208 26.9765 13.8789C27.2758 13.4851 27.8258 12.7783 27.8258 12.7783C28.9125 13.593 29.5893 14.8365 29.5893 16.2204C29.5893 18.6751 27.451 20.6578 24.8086 20.6578C24.3987 20.6578 24.0077 20.6119 23.6141 20.5175C24.8247 20.941 25.8467 21.084 26.6826 21.084C28.4595 21.084 29.4032 20.4393 29.4032 20.4393C29.4032 20.4393 29.0743 20.8655 28.5377 21.3511C28.5539 21.3511 28.5539 21.3511 28.5539 21.3511C31.4957 20.941 32.9275 18.5187 32.9275 18.5187C32.9275 18.5187 32.8169 19.3063 32.6767 19.8405C36.5892 16.8974 35.9286 13.2153 35.9124 13.0912C35.9447 13.1371 36.3384 13.6092 36.5406 13.8627C37.1716 7.37787 31.8705 5.28458 31.8705 5.28458ZM25.8467 15.6404C25.7847 15.7186 25.5177 15.956 25.329 16.1287C25.1402 16.3013 24.9353 16.4739 24.7789 16.6331C24.7169 16.6951 24.5902 16.7275 24.4014 16.7275C24.3394 16.7275 24.2747 16.7275 24.2288 16.7275C24.1965 16.7275 24.1668 16.7275 24.1345 16.7275C24.1021 16.7275 24.0859 16.7275 24.0724 16.7275C24.0239 16.7275 23.9781 16.7275 23.9295 16.7275C24.1668 16.4119 24.8571 15.689 25.0944 15.5325C25.3775 15.3437 25.5204 15.1548 25.3452 14.8257C25.1726 14.4939 24.7169 14.5749 24.7169 14.5749C24.7169 14.5749 24.9838 14.4643 25.2211 14.4643C24.9218 14.386 24.5443 14.4643 24.3717 14.6369C24.183 14.8096 24.2154 15.4246 24.1372 15.8157C24.059 16.2258 23.792 16.4308 23.3822 16.8084C23.1611 17.0134 23.0047 17.0755 22.8779 17.0755C22.611 17.0296 22.2955 16.9487 22.0744 16.8705C21.918 16.6655 21.6807 15.9884 21.6187 15.7051C21.6646 15.5487 21.8533 15.2169 21.9477 15.0281C22.1364 14.6666 22.247 14.4616 22.2793 14.2728C22.3414 14.0057 22.5463 12.3521 22.6245 11.6615C22.8294 11.9286 23.1125 12.371 23.0478 12.6542C23.5035 12.0095 23.1745 11.3783 23.0155 11.1274C22.8752 10.8766 22.6865 10.3721 22.8429 9.83801C22.9993 9.3039 23.5655 7.82296 23.5655 7.82296C23.5655 7.82296 23.7543 8.15475 24.0212 8.09001C24.2882 8.02797 26.4426 4.78554 26.4426 4.78554C26.4426 4.78554 27.025 6.05877 26.4102 6.98942C25.782 7.91737 25.1672 8.09001 25.1672 8.09001C25.1672 8.09001 26.0327 8.24647 26.8336 7.6638C27.1625 8.4353 27.478 9.23646 27.4942 9.34706C27.4457 9.45766 26.8174 10.9683 26.7554 11.0627C26.723 11.0951 26.5046 11.1571 26.3455 11.1895C26.0786 11.2677 25.9222 11.3163 25.8575 11.3621C25.7469 11.4565 25.2427 12.8404 25.0081 13.5174C24.725 13.5957 24.4419 13.7548 24.2369 14.0677C24.3475 13.9895 24.6926 13.941 24.9461 13.9113C25.1672 13.8951 25.8413 14.2566 26.0166 14.9336C26.0166 14.9498 26.0166 14.9498 26.0166 14.966C26.0516 15.2142 25.9734 15.4516 25.8467 15.6404ZM24.3691 15.8292C24.512 15.6242 24.4958 15.2789 24.512 15.1683C24.5281 15.0577 24.5578 14.8527 24.6845 14.823C24.8113 14.7907 25.1106 14.8392 25.1106 15.0577C25.1106 15.2627 24.8895 15.3086 24.7331 15.4516C24.6198 15.5595 24.3987 15.7969 24.3691 15.8292ZM30.6436 12.8215C30.8 12.0203 30.8162 11.327 30.7703 10.7606C31.3824 11.5779 31.7599 12.5706 31.8705 13.593C31.8866 13.7198 32.0107 13.8438 32.1374 13.9706C32.248 14.065 32.3747 14.1918 32.3747 14.2701C32.3747 14.6315 32.3423 14.993 32.2803 15.3572C32.2641 15.403 32.1239 15.4839 32.0134 15.546C31.857 15.6242 31.7141 15.7024 31.6844 15.8292C31.3393 17.0404 30.5978 18.1113 29.6082 18.8666C31.0696 17.3398 31.7761 14.8203 30.6436 12.8215ZM29.654 19.0069C30.676 18.2192 31.4633 17.1186 31.8084 15.8751C31.8246 15.8292 31.9648 15.7483 32.0592 15.6863C32.2156 15.608 32.3747 15.5136 32.4044 15.3868C32.4664 15.0254 32.4987 14.6477 32.4987 14.2701C32.4987 14.1298 32.3558 13.9868 32.2156 13.8465C32.1374 13.7521 32.0107 13.6415 32.0107 13.5633C31.8839 12.4142 31.4283 11.3297 30.7218 10.4315C30.4063 8.5432 29.1498 7.96053 29.1174 7.94435C29.1498 7.9929 29.9668 9.17172 29.4006 10.5556C28.8181 11.9556 27.3243 11.7371 27.1976 11.7506C27.0709 11.7506 26.5855 12.3791 25.9707 13.5444C25.8925 13.512 25.5609 13.4338 25.1834 13.4986C25.4665 12.7109 25.8925 11.5941 25.9707 11.4997C26.0031 11.4673 26.2377 11.4053 26.3968 11.3594C26.6961 11.2812 26.8363 11.2326 26.8848 11.1706C26.9172 11.122 27.0736 10.7606 27.2299 10.3829C27.3729 10.3829 27.7342 10.3505 27.7638 10.3344C27.7962 10.302 28.0955 9.53319 28.0955 9.43878C28.0955 9.36055 27.4807 7.83375 27.2461 7.25108C27.3567 7.1243 27.4672 6.96784 27.5751 6.7952C30.8 7.14318 33.3184 9.88117 33.3184 13.1991C33.3184 15.7483 31.8246 17.9684 29.654 19.0069Z" fill="#1B314F"/>
<path d="M25.3426 10.688C25.6372 10.3482 25.4832 9.71376 24.9391 9.60493C25.0798 9.28108 25.2789 8.63074 25.2789 8.63074C25.2789 8.63074 23.6994 11.1074 23.5614 11.1551C23.4207 11.2029 23.2827 10.6588 23.2827 10.6588C22.988 11.7896 23.7791 11.9435 23.872 11.5878C24.3047 11.4763 25.0479 11.0118 25.3426 10.688Z" fill="#1B314F"/>
<path d="M23.9937 11.2902L24.798 9.91254C24.798 9.91254 25.2625 10.1461 25.0289 10.5178C24.7369 10.9504 23.9937 11.2902 23.9937 11.2902Z" fill="#FFD923"/>
<path d="M33.9513 17.6718C33.7177 17.9824 33.4549 18.3062 33.147 18.6168C35.1431 14.7758 33.2399 11.2613 33.1629 11.1232C33.3036 11.2639 33.4416 11.4179 33.5664 11.5559C35.098 13.2574 35.2838 15.8137 33.9513 17.6718Z" fill="#D82122"/>
<path d="M35.8085 12.7318C35.1104 10.8577 34.1202 9.26239 31.9383 7.82367C29.8333 6.43007 27.5717 6.5389 27.4469 6.55483C27.431 6.55483 27.415 6.55483 27.415 6.55483C27.492 6.52298 27.569 6.50705 27.646 6.49378C28.1264 6.33982 28.7449 6.21506 29.3661 6.13808C31.0092 5.90183 32.6656 6.45927 33.7964 7.65378C33.8123 7.66971 33.8123 7.66971 33.8282 7.68563C35.113 9.04738 35.7793 10.7489 35.8085 12.7318Z" fill="#D82122"/>
<path d="M31.4422 5.06569C29.1355 4.63301 27.649 4.84803 26.5792 5.2515C26.5474 5.12674 26.4386 4.87988 26.3456 4.67814C26.0245 5.06569 25.682 5.53022 25.467 5.82487C24.8777 6.22835 24.6309 6.6159 24.6309 6.6159C24.9706 5.45325 25.9634 4.58789 27.1712 4.37022C27.511 4.30917 27.8826 4.27731 28.2861 4.27731C29.3532 4.29324 30.4203 4.55603 31.4422 5.06569Z" fill="#D82122"/>
<path d="M22.9115 8.03892C21.1012 7.97786 21.7038 5.87021 21.7356 5.74811C21.7356 5.76403 21.8577 7.4045 22.9115 8.03892Z" fill="#D82122"/>
<path d="M24.6911 4.24554C23.2975 5.0817 23.5763 7.07787 23.5763 7.07787C22.2437 5.0525 24.5823 4.29332 24.6911 4.24554Z" fill="#D82122"/>
<path d="M22.4009 8.59605C22.4938 8.67303 22.5867 8.81372 22.4778 9.01546C22.4168 9.12429 22.3239 9.10837 22.1832 9.04731C21.9974 8.95441 20.8825 8.30406 19.8765 7.63779C21.0232 8.04127 22.1832 8.47395 22.369 8.56685C22.369 8.56685 22.3849 8.58278 22.4009 8.59605Z" fill="white"/>
</g>
<g clip-path="url(#clip2_2009_4430)">
<path d="M41.1745 23.7431C47.7308 23.7431 53.0457 18.4282 53.0457 11.8719C53.0457 5.31558 47.7308 0.000640869 41.1745 0.000640869C34.6182 0.000640869 29.3032 5.31558 29.3032 11.8719C29.3032 18.4282 34.6182 23.7431 41.1745 23.7431Z" fill="#F1CB60"/>
<path d="M40.6254 18.4428V19.5283H41.1722V17.9041H40.0867V18.4428H40.6254V18.4428ZM35.1817 12.4849H34.643V15.1945H35.1817V14.1091H35.7285V13.0236H35.1817V12.4849ZM41.719 15.7332H42.2577V17.3573H41.719V15.7332ZM41.1722 17.3573H41.719V17.9041H41.1722V17.3573ZM35.7285 16.8187H37.3608V18.4428H35.7285V16.8187ZM34.643 11.3994H35.1898V11.9381H34.643V11.3994ZM37.9076 10.314H38.4544V10.8608H37.9076V10.314V10.314ZM41.1722 9.76714H41.719V10.8526H41.1722V9.76714V9.76714ZM34.0962 8.14301H35.7285V9.76714H34.0962V8.14301V8.14301ZM38.9931 18.4428H39.5399V19.5283H38.9931V18.4428ZM39.5399 9.76714H39.0012V10.8526H39.5399V10.314H40.0867V9.22848H39.5399V9.76714V9.76714ZM40.0867 8.68983H40.6254V9.22848H40.0867V8.68983ZM40.0867 10.314H40.6254V10.8526H40.0867V10.314V10.314ZM37.3608 11.3994H38.9931V11.9381H37.3608V11.3994Z" fill="white"/>
<path d="M39.5409 9.22816V8.6895H40.0796V8.14268H39.5409V7.06537H37.9086V7.60403H38.9941V8.14268H38.4473V8.68134H37.9086V9.22H37.37V8.6895H36.815V8.15085H37.3618V8.68134H37.9086V8.14268H37.37V7.06537H33.0117V10.8605H37.37V10.3136H37.9086V9.22816H38.4554V9.76682H39.0022V9.22816H39.5409V9.22816ZM36.2763 10.3136H33.5585V7.60403H36.2763V10.3136ZM36.815 10.3136V9.22816H37.3618V10.3136H36.815ZM38.9941 8.68134V8.15085H39.5409V8.68134H38.9941ZM43.3523 14.6474V14.1087H42.2587V13.0233H41.72V13.5619H41.1814V13.0233H41.72V11.391H40.6345V11.9378H40.0796V13.0233H39.5409V13.5619H40.0877V13.0233H40.6264V14.6474H39.5409V14.1087H38.9941V13.0233H38.4554V12.4846H37.3618V11.9459H36.815V11.4073H35.7295V11.9459H35.1827V12.4846H35.7295V13.0233H36.2763V12.4846H36.8231V13.0233H36.2763V13.5619H36.8231V14.1006H37.3618V13.5619H37.9086V13.0233H38.4473V13.5619H37.9086V14.1006H37.37V15.186H38.4554V15.7329H37.3618V15.1942H36.815V15.7329H35.7295V15.1942H35.1908V15.7329H34.644V19.528H38.4554V16.2715H38.9941V17.9038H40.0877V17.3652H40.6345V16.2715H40.0877V15.7329H39.5409V16.2715H39.0022V15.186H40.6345V15.7247H41.1814V14.6474H42.2587V15.1942H42.8055V14.6474H43.3523V14.6474ZM37.9086 18.9811H35.1908V16.2715H37.9086V18.9811ZM38.4554 14.6474H37.9086V14.1087H38.4554V14.6474ZM39.5409 16.8183H40.0877V17.357H39.5409V16.8183ZM43.3523 7.06537H43.891V8.14268H43.3523V7.06537V7.06537ZM42.2587 7.06537H41.72V8.6895H41.1732V9.22816H41.72V9.76682H42.2587V10.8523H42.8055V9.76682H43.3523V10.8605H43.891V10.3136H44.4378V9.22816H43.3523V8.14268H42.2587V7.06537V7.06537Z" fill="white"/>
<path fill-rule="evenodd" clip-rule="evenodd" d="M47.1543 13.0233H46.0688V13.5619H45.522V14.1088H44.9833V12.4846H45.522V11.9378H44.9833V12.4765H44.4365V13.0233H43.8897V11.9378H43.351V13.0233H42.8042V13.5701L43.351 13.5619H43.8897V14.6474H45.522V15.1942H43.8897V15.7329H43.351V16.2715H42.8042V16.8184H43.351V17.357H42.8042V17.9038H43.351V18.4425H43.8897V18.9812H43.351V19.528H47.7011V16.2715H47.1543V18.9812H44.4365V16.2715H46.0688V14.1088H46.6156V14.6474H47.7011V13.5701H47.1624V13.0233H47.7011V11.3991H47.1543V13.0233Z" fill="white"/>
<path d="M42.8061 15.1945H43.3529V15.7332H42.8061V15.1945ZM45.5238 12.4849H46.0707V13.0236H45.5238V12.4849ZM46.6175 15.1945H47.703V15.7413H46.6175V15.1945ZM46.6175 8.15117H48.2498V9.7753H46.6175V8.15117ZM44.4384 10.314H44.9852V10.8608H44.4384V10.314ZM42.2593 11.3994H42.8061V11.9381H42.2593V11.3994ZM46.0707 11.3994H46.6175V11.9381H46.0707V11.3994V11.3994ZM44.9852 16.8187H46.6175V18.4428H44.9852V16.8187ZM44.4384 11.3994H44.9852V11.9381H44.4384V11.3994V11.3994ZM40.627 8.14301H41.1738V8.68983H40.627V8.14301V8.14301Z" fill="white"/>
<path d="M44.4381 7.06582V7.60448H45.5236V8.14314H44.9768V8.68179H44.4381V8.14314H43.8913V8.68996H44.4381V9.22045H44.985V9.75911H45.5318V10.8446H49.335V7.06582H44.4381ZM48.7882 10.3141H46.0704V7.60448H48.7882V10.3141V10.3141ZM36.6113 6.11093C36.9867 6.36393 37.4111 6.4129 37.7457 6.42922C38.0314 6.44555 38.5129 6.44555 39.0189 6.44555C39.9575 6.44555 41.0593 6.46187 41.1735 6.46187C41.4755 6.47003 42.3978 6.47003 43.2139 6.47003C43.7199 6.47003 44.1933 6.46187 44.4871 6.45371C44.8217 6.43738 45.2461 6.38025 45.6216 6.13541C46.0949 5.81711 46.3316 5.29478 46.3316 4.58473C46.3316 4.01342 46.0949 3.67064 45.899 3.47477C45.3685 2.96059 44.5524 2.99324 44.2831 3.0014H44.2504C44.0872 3.0014 43.4996 3.09118 42.8058 3.48293C42.1937 3.82571 41.6632 4.3154 41.2307 4.92751L41.1817 5.04993L41.1409 4.98464C40.6839 4.29908 40.0881 3.83387 39.427 3.45844C38.7414 3.06669 38.1538 2.98508 37.9906 2.98508H37.9579C37.6886 2.97691 36.8724 2.94427 36.3419 3.45844C35.9828 3.80122 35.9094 4.25011 35.9094 4.5684C35.9012 5.27029 36.1379 5.79263 36.6113 6.11093V6.11093ZM43.2058 4.28275C43.7852 3.94813 44.2259 3.89916 44.2586 3.89916H44.3157C44.7809 3.88284 45.1074 3.95629 45.2788 4.11952C45.3849 4.22562 45.442 4.37253 45.442 4.58473C45.442 5.36007 45.0747 5.53146 44.4463 5.56411C43.9158 5.58859 42.6834 5.58043 41.8836 5.57227C42.2127 5.04113 42.6666 4.59845 43.2058 4.28275V4.28275ZM36.9541 4.09504C37.1091 3.94813 37.3866 3.87468 37.7865 3.87468H37.9824C38.015 3.87468 38.4558 3.92365 39.0352 4.25827C39.5576 4.56024 40.0064 4.9928 40.3656 5.54778C39.5576 5.55594 38.3252 5.56411 37.7947 5.53962C37.1663 5.50698 36.799 5.33558 36.799 4.56024C36.799 4.34804 36.848 4.20114 36.9541 4.09504V4.09504ZM42.259 18.4429H41.7204V19.5284H42.2672V18.4429H42.8058V17.9043H42.259V18.4429Z" fill="white"/>
</g>
<g clip-path="url(#clip3_2009_4430)">
<path d="M55.8288 23.7431C62.3851 23.7431 67.7 18.4282 67.7 11.8719C67.7 5.31558 62.3851 0.000640869 55.8288 0.000640869C49.2725 0.000640869 43.9575 5.31558 43.9575 11.8719C43.9575 18.4282 49.2725 23.7431 55.8288 23.7431Z" fill="#F5EB16"/>
<path d="M55.7805 2.96845C50.8888 2.96919 46.9253 6.93567 46.9253 11.8274C46.926 16.7183 50.8925 20.6833 55.7842 20.6826C60.6752 20.6811 64.6402 16.7154 64.6394 11.8237C64.6392 10.6605 64.4099 9.5088 63.9646 8.43429C63.5193 7.35977 62.8667 6.38349 62.044 5.5612C61.2214 4.73891 60.2449 4.08671 59.1702 3.64184C58.0955 3.19697 56.9436 2.96815 55.7805 2.96845ZM52.1843 6.84886C52.1848 6.82479 52.1949 6.80192 52.2123 6.78524C52.2297 6.76856 52.2529 6.75943 52.277 6.75983H55.9667C56.7408 6.74532 57.5082 6.90454 58.2126 7.22577C58.3462 7.29106 58.4775 7.36378 58.6044 7.44242L56.2027 8.81726H54.9495C54.9375 8.81755 54.9257 8.8202 54.9148 8.82505C54.9038 8.82991 54.8939 8.83688 54.8856 8.84556C54.8774 8.85424 54.8709 8.86447 54.8666 8.87565C54.8623 8.88684 54.8602 8.89876 54.8605 8.91075V9.60225L52.1843 11.15V6.84886V6.84886ZM51.1908 14.623L49.5867 13.0026L54.8694 9.95468V11.9298C54.87 11.9538 54.88 11.9767 54.8974 11.9934C54.9148 12.0101 54.9381 12.0192 54.9621 12.0188H55.7167L51.196 14.623H51.1908ZM59.1015 13.1169C58.3269 13.7639 57.2637 14.0874 55.9118 14.0874H54.9495C54.9253 14.0874 54.9021 14.097 54.885 14.1141C54.8679 14.1312 54.8583 14.1544 54.8583 14.1786V16.173L53.5153 16.9461L52.2614 17.671L52.182 17.7155V14.4101L56.3392 12.018C56.6945 12.0072 57.0349 11.8726 57.3015 11.6374C57.3963 11.5434 57.4758 11.4353 57.5374 11.3169L60.1922 9.78032C60.2367 10.0237 60.2589 10.27 60.2582 10.5178C60.2612 11.6033 59.8753 12.4692 59.1007 13.1169H59.1015ZM57.6769 10.8769C57.6947 10.7634 57.7036 10.6477 57.7044 10.5327C57.7268 10.0808 57.5776 9.63712 57.2867 9.29063C57.1236 9.10967 56.9147 8.97612 56.682 8.90407L60.3717 6.77392L61.9907 8.39361L57.6769 10.8769V10.8769Z" fill="white"/>
</g>
<g clip-path="url(#clip4_2009_4430)">
<g opacity="0.98">
<path opacity="0.98" d="M70.4797 23.7431C68.1317 23.7431 65.8366 23.0469 63.8843 21.7425C61.9321 20.4381 60.4106 18.584 59.512 16.4148C58.6135 14.2456 58.3785 11.8587 58.8365 9.55593C59.2946 7.25313 60.4252 5.13788 62.0854 3.47766C63.7456 1.81743 65.8609 0.686804 68.1637 0.228749C70.4665 -0.229306 72.8534 0.00578446 75.0226 0.904291C77.1918 1.8028 79.0458 3.32437 80.3502 5.27658C81.6547 7.2288 82.3509 9.52399 82.3509 11.8719C82.3509 15.0203 81.1002 18.0398 78.8739 20.2661C76.6476 22.4924 73.6281 23.7431 70.4797 23.7431V23.7431Z" fill="#112451"/>
</g>
<path d="M70.9611 13.5409C70.9611 13.5409 69.403 14.357 69.4772 15.6406C69.5514 16.9242 71.2727 18.8755 72.3114 18.4897C73.3502 18.1039 76.2438 16.4271 76.5406 14.7799C76.8374 13.1328 73.9586 12.3167 73.9586 12.3167L70.9611 13.5409Z" fill="#2844AD"/>
<path d="M74.9817 6.54464C74.0301 5.77015 72.8799 5.27877 71.6625 5.12659C70.445 4.97441 69.2093 5.16755 68.0963 5.68398L66.4121 8.0879C66.4927 8.35824 66.6394 8.60425 66.8389 8.80373C67.0384 9.00321 67.2844 9.14989 67.5547 9.23051C68.5193 9.54955 72.6965 7.93951 72.6965 7.93951L74.9817 6.54464Z" fill="#2844AD"/>
<path d="M64.0088 8.90349C64.0088 8.90349 65.4185 6.31407 67.3031 5.71309C69.1876 5.11211 68.9205 6.99667 67.3031 7.76088C65.6856 8.52509 64.6691 8.96284 64.0088 8.90349Z" fill="#5493F7"/>
<path d="M63.7412 9.7052C63.7412 9.7052 61.5747 15.7818 67.5103 18.5493C67.5103 18.5493 67.9704 16.1231 67.132 14.5873C66.5099 13.3585 65.7587 12.1995 64.8913 11.1298C64.4774 10.6803 64.0933 10.2045 63.7412 9.7052V9.7052Z" fill="#5493F7"/>
<path d="M76.7407 15.5814C76.7407 15.5814 75.19 18.5492 72.9493 18.5492C72.892 18.5312 72.8391 18.5014 72.7941 18.4618C72.749 18.4221 72.7127 18.3735 72.6876 18.319C72.6624 18.2645 72.6489 18.2053 72.648 18.1453C72.6471 18.0853 72.6587 18.0257 72.6822 17.9704C72.8231 17.5401 74.2254 16.0117 76.7407 15.5814Z" fill="#5493F7"/>
<path d="M75.0342 6.58937C75.9009 7.25106 76.5789 8.12857 77.0004 9.13427C77.6871 10.7819 77.7867 12.6156 77.2823 14.3279C76.9039 15.3296 76.3178 15.0699 75.0564 14.8028C73.7951 14.5357 68.9947 13.1853 67.7556 11.5382C66.5166 9.89106 67.4737 8.57039 69.0763 7.71714C70.6789 6.86389 73.9732 5.93645 75.0342 6.58937Z" fill="#5493F7"/>
<path d="M68.3637 16.8357L68.2524 14.1795L71.8435 13.9644C71.8435 14.0831 71.8435 14.2018 71.8435 14.3205C71.8435 14.4392 71.8435 14.5728 71.8435 14.6989C71.8435 14.825 71.8435 14.9586 71.8435 15.0847C71.8435 15.2108 71.8435 15.337 71.8435 15.4631C71.8435 15.5892 71.8435 15.7228 71.8435 15.8489C71.8435 15.975 71.8435 16.1086 71.8435 16.2347C71.8435 16.3609 71.8435 16.4722 71.8435 16.5834C71.8435 16.6947 71.8435 16.5834 71.8435 16.5834L68.3563 16.7912C68.3563 16.7912 68.386 16.8506 68.3637 16.8357Z" fill="#3C3B6E"/>
<path d="M77.4684 18.2075C77.4684 18.3262 77.4684 18.4524 77.4684 18.5711C77.4684 18.6898 77.4684 18.5711 77.4684 18.5711L68.4907 19.1127C68.4907 19.1127 68.4907 18.8753 68.4907 18.7566H68.5501L77.4535 18.2224C77.4535 18.2224 77.4461 18.1927 77.4684 18.2075Z" fill="#B12234"/>
<path d="M77.4682 18.2078H77.4311L68.4683 18.7495V18.3636H68.5276L77.4311 17.8294C77.4503 17.8226 77.4712 17.8226 77.4904 17.8294L77.4682 18.2078Z" fill="#FEFEFE"/>
<path d="M77.4233 17.0652V17.4511H77.3788L68.4754 17.9927C68.4562 17.9995 68.4352 17.9995 68.416 17.9927V17.6069H68.4828L77.3862 17.0652C77.3862 17.0652 77.4085 17.0652 77.4233 17.0652Z" fill="#FEFEFE"/>
<path d="M77.4239 17.0656L68.4463 17.6072V17.2288L77.3497 16.6872C77.3497 16.6872 77.3942 16.6872 77.4165 16.6872L77.4239 17.0656Z" fill="#B12234"/>
<path d="M77.415 16.6716H77.3779L68.4077 17.2132V16.8274L71.9617 16.6196H72.0507L77.3557 16.3006C77.3557 16.3006 77.3928 16.3006 77.415 16.3006V16.6716Z" fill="#FEFEFE"/>
<path d="M68.4077 17.9849L77.3779 17.4433V17.8217L68.4077 18.3633V17.9849Z" fill="#B12234"/>
<path d="M71.9038 14.3198V13.934L77.2978 13.6075C77.2978 13.6075 77.2978 13.8524 77.2978 13.9711H77.231L71.9632 14.3198C71.9632 14.3198 71.9186 14.3346 71.9038 14.3198Z" fill="#B12234"/>
<path d="M71.9038 14.32L72.5567 14.2755L77.283 13.9936V14.372L71.9632 14.7059C71.955 14.7132 71.9444 14.7172 71.9335 14.7172C71.9225 14.7172 71.912 14.7132 71.9038 14.7059V14.32Z" fill="#FEFEFE"/>
<path d="M71.9624 16.2341V15.8483H72.0218L77.3193 15.5219C77.3193 15.5219 77.3638 15.5219 77.3787 15.5219V15.9077L72.0663 16.2267C72.0663 16.2267 71.9624 16.249 71.9624 16.2341Z" fill="#FEFEFE"/>
<path d="M77.3712 15.5222L71.9624 15.8487V15.4628H72.0218L77.3193 15.1438C77.3193 15.1438 77.3638 15.1438 77.3787 15.1438L77.3712 15.5222Z" fill="#B12234"/>
<path d="M77.3564 15.1363L76.2731 15.2031L71.9624 15.4628V15.0844L77.2822 14.7653H77.3341L77.3564 15.1363Z" fill="#FEFEFE"/>
<path d="M71.9624 16.2344L77.3416 15.908V16.2864L71.9772 16.6054L71.9624 16.2344Z" fill="#B12234"/>
<path d="M77.349 14.7505H77.3119L71.9624 15.0844V14.6986L73.6244 14.6021L77.3341 14.3721L77.349 14.7505Z" fill="#B12234"/>
<path d="M70.9695 15.9967V15.9077C70.9695 15.9077 70.9695 15.9077 70.9695 15.8706C70.9464 15.8608 70.9261 15.8455 70.9102 15.8261H70.9918V15.7371C70.9918 15.7371 70.9918 15.7816 70.9918 15.8038C70.9918 15.8261 70.9918 15.8409 71.0437 15.8038H71.1031L71.0437 15.8558C71.0417 15.8829 71.0417 15.9102 71.0437 15.9374L70.9695 15.8929V15.9967Z" fill="#FDFDFD"/>
<path d="M69.1137 15.9373H69.1804C69.1804 15.9373 69.1804 15.9373 69.2175 15.9373C69.2118 15.9129 69.2118 15.8875 69.2175 15.8631C69.2175 15.8631 69.2175 15.915 69.2175 15.9447C69.2175 15.9744 69.2175 15.9447 69.2175 15.9447H69.3066C69.3066 15.9447 69.3066 15.9818 69.2472 15.9892C69.1878 15.9966 69.2472 15.9892 69.2472 16.0486C69.2494 16.0708 69.2494 16.0932 69.2472 16.1154L69.1804 16.0708C69.1616 16.0921 69.1389 16.1097 69.1137 16.1228C69.117 16.0957 69.117 16.0683 69.1137 16.0412C69.1137 16.0412 69.1137 16.0412 69.1137 16.0041L69.0469 15.9596L69.1137 15.9373Z" fill="#FDFDFD"/>
<path d="M70.2052 15.233L70.1384 15.1885L70.0717 15.2478C70.0699 15.2182 70.0699 15.1884 70.0717 15.1588C70.0717 15.1588 70.0717 15.1588 70.0717 15.1588L70.0049 15.1069H70.0865C70.0844 15.0772 70.0844 15.0475 70.0865 15.0178V15.0846C70.0865 15.0846 70.0865 15.0846 70.131 15.0846H70.1978L70.1384 15.1365C70.1358 15.1424 70.1344 15.1487 70.1344 15.1551C70.1344 15.1615 70.1358 15.1678 70.1384 15.1736C70.1639 15.1895 70.1864 15.2096 70.2052 15.233V15.233Z" fill="#FDFDFD"/>
<path d="M71.1235 14.2086L71.0715 14.2457C71.0669 14.2492 71.0632 14.2536 71.0606 14.2588C71.058 14.2639 71.0567 14.2696 71.0567 14.2754C71.0567 14.2811 71.058 14.2868 71.0606 14.292C71.0632 14.2971 71.0669 14.3016 71.0715 14.3051V14.3718L70.9973 14.3273L70.9305 14.3867V14.2976L70.8638 14.2457H70.938C70.938 14.2457 70.938 14.2457 70.9751 14.2457C70.9716 14.2211 70.9716 14.1961 70.9751 14.1715C70.9751 14.1715 70.9751 14.1715 70.9751 14.216C70.9751 14.2605 70.9751 14.268 71.0418 14.2605H71.0938L71.1235 14.2086Z" fill="#FDFDFD"/>
<path d="M68.7784 15.1508H68.86V15.0692C68.8631 15.0963 68.8631 15.1237 68.86 15.1508C68.86 15.1508 68.86 15.1508 68.86 15.1508H68.9416C68.9252 15.1697 68.9049 15.1848 68.8823 15.1953V15.2473V15.3215L68.8155 15.277C68.8155 15.277 68.8155 15.277 68.7784 15.277L68.7116 15.3289C68.7073 15.3044 68.7073 15.2792 68.7116 15.2547C68.7116 15.2547 68.7116 15.2176 68.7116 15.2028H68.6597L68.7784 15.1508Z" fill="#FDFDFD"/>
<path d="M70.85 15.0325L70.7832 15.0844C70.7886 15.1114 70.7886 15.1391 70.7832 15.1661L70.7165 15.1215C70.7165 15.1215 70.7165 15.1215 70.6794 15.1215C70.6606 15.1449 70.638 15.165 70.6126 15.1809C70.6126 15.1438 70.6126 15.1141 70.6126 15.0919C70.6126 15.0696 70.6126 15.0919 70.6126 15.0919C70.5895 15.0787 70.5694 15.061 70.5532 15.0399H70.6274C70.6245 15.0128 70.6245 14.9854 70.6274 14.9583V15.0177C70.6274 15.0622 70.6274 15.0622 70.6794 15.0548H70.7387L70.85 15.0325Z" fill="#FDFDFD"/>
<path d="M71.6433 15.6776C71.6453 15.7048 71.6453 15.7321 71.6433 15.7592H71.7249L71.6656 15.8037C71.6656 15.8037 71.6656 15.8037 71.6656 15.8483C71.673 15.8724 71.673 15.8983 71.6656 15.9225L71.5988 15.8779C71.5815 15.9008 71.5584 15.9187 71.532 15.9299V15.8557C71.532 15.8557 71.532 15.8557 71.532 15.8112C71.5089 15.8013 71.4886 15.786 71.4727 15.7666H71.5543L71.6433 15.6776Z" fill="#FDFDFE"/>
<path d="M69.7367 15.9009H69.8109C69.8076 15.8738 69.8076 15.8464 69.8109 15.8193V15.8935H69.8554H69.9222L69.8628 15.9454C69.8628 15.9454 69.8628 15.9454 69.8628 15.9825C69.8647 16.0097 69.8647 16.0369 69.8628 16.0641L69.7961 16.0196L69.7293 16.079V15.9899C69.7319 15.9841 69.7333 15.9778 69.7333 15.9714C69.7333 15.965 69.7319 15.9586 69.7293 15.9528H69.6699L69.7367 15.9009Z" fill="#FDFDFE"/>
<path d="M68.5786 14.2532C68.5774 14.2779 68.5774 14.3027 68.5786 14.3274H68.6528L68.6009 14.3719C68.6009 14.3719 68.6009 14.3719 68.6009 14.4238C68.6021 14.4485 68.6021 14.4733 68.6009 14.498L68.5267 14.4461L68.4599 14.4906V14.4164L68.3857 14.3719H68.4674C68.4674 14.3719 68.4674 14.3719 68.5045 14.3719C68.522 14.3283 68.5471 14.2881 68.5786 14.2532V14.2532Z" fill="#FDFDFD"/>
<path d="M69.8702 14.4464L69.8035 14.4019L69.7367 14.4613C69.7349 14.4316 69.7349 14.4019 69.7367 14.3722L69.6699 14.3203H69.7367V14.2461C69.7398 14.2732 69.7398 14.3006 69.7367 14.3277H69.8183L69.7515 14.3796C69.7515 14.3796 69.7515 14.3796 69.7515 14.4167C69.7931 14.4149 69.8344 14.4252 69.8702 14.4464V14.4464Z" fill="#FDFDFD"/>
<path d="M70.3831 14.1418C70.3851 14.169 70.3851 14.1962 70.3831 14.2234H70.4648L70.398 14.2828C70.398 14.2828 70.398 14.3347 70.398 14.3644L70.3386 14.3199C70.3386 14.3199 70.3015 14.3199 70.2867 14.3199L70.2347 14.3644C70.2306 14.3398 70.2306 14.3147 70.2347 14.2902V14.2457L70.168 14.2011H70.257L70.3831 14.1418Z" fill="#FDFDFD"/>
<path d="M71.5469 14.2088C71.541 14.1819 71.541 14.1541 71.5469 14.1272C71.5427 14.1542 71.5427 14.1818 71.5469 14.2088Z" fill="#FDFDFD"/>
<path d="M70.3666 16.0189V15.9447L70.2924 15.8928H70.374V15.8112C70.374 15.8112 70.374 15.8705 70.374 15.8928C70.374 15.915 70.374 15.8928 70.374 15.8928H70.463L70.3962 15.9521C70.3943 15.9793 70.3943 16.0066 70.3962 16.0337L70.3221 15.9892L70.2627 16.0412L70.3666 16.0189Z" fill="#FDFDFD"/>
<path d="M69.5059 15.0022C69.5059 15.069 69.5059 15.069 69.6023 15.069L69.543 15.1209C69.5472 15.148 69.5472 15.1755 69.543 15.2025L69.4762 15.158C69.4762 15.158 69.4762 15.158 69.4391 15.158L69.3798 15.2099C69.3756 15.1829 69.3756 15.1554 69.3798 15.1283C69.3798 15.1283 69.3798 15.1283 69.3798 15.1283L69.313 15.0764H69.3872L69.5059 15.0022Z" fill="#FDFDFD"/>
<path d="M68.5195 16.5086H68.6086V16.4196C68.6073 16.4443 68.6073 16.469 68.6086 16.4938H68.6902L68.6234 16.5531C68.6214 16.5803 68.6214 16.6076 68.6234 16.6347L68.5492 16.5902L68.4824 16.6421V16.5605L68.5195 16.5086Z" fill="#FDFDFE"/>
<path d="M70.3896 16.5607C70.3896 16.5607 70.3896 16.5088 70.3896 16.4865C70.3896 16.4643 70.3896 16.4865 70.3896 16.4865L70.3154 16.4346H70.4045L70.4787 16.3233C70.4817 16.3504 70.4817 16.3778 70.4787 16.4049C70.5028 16.3975 70.5287 16.3975 70.5529 16.4049L70.4861 16.4569C70.4891 16.484 70.4891 16.5114 70.4861 16.5385L70.4787 16.5088C70.4787 16.5088 70.4787 16.5088 70.4416 16.5088L70.3822 16.5533L70.3896 16.5607Z" fill="#FDFDFE"/>
<path d="M71.6668 16.2119C71.6668 16.2119 71.6668 16.2713 71.6668 16.3009C71.6668 16.3306 71.6668 16.3009 71.6668 16.3009H71.7558L71.689 16.3603C71.689 16.3603 71.689 16.3603 71.689 16.3974V16.479L71.6148 16.4271L71.548 16.4864V16.3974L71.5332 16.3232H71.6148C71.6277 16.2842 71.6451 16.2468 71.6668 16.2119Z" fill="#FDFDFE"/>
<path d="M69.3445 14.8392C69.3191 14.8551 69.2965 14.8752 69.2778 14.8986C69.2778 14.8986 69.2778 14.8986 69.2778 14.8986C69.2808 14.9257 69.2808 14.9531 69.2778 14.9802L69.2036 14.9357L69.1294 14.995C69.1319 14.9654 69.1319 14.9356 69.1294 14.906C69.1294 14.906 69.1294 14.906 69.1294 14.906L69.0552 14.8541C69.0823 14.8504 69.1097 14.8504 69.1368 14.8541C69.1368 14.8541 69.1368 14.8541 69.1739 14.817C69.1704 14.7948 69.1704 14.7723 69.1739 14.7502C69.1799 14.7746 69.1799 14.8 69.1739 14.8244C69.1739 14.8244 69.1739 14.8244 69.1739 14.8244L69.3445 14.8392Z" fill="#FEFEFE"/>
<path d="M71.1009 14.9134L71.0267 14.8614L70.9599 14.9208V14.8317L70.8857 14.7798H70.9451C70.9896 14.7798 70.9896 14.7798 71.0045 14.7279V14.6685V14.7576H71.0861L71.0193 14.8169L71.1009 14.9134Z" fill="#FEFEFE"/>
<path d="M68.9939 15.8407V15.7962C68.9939 15.7962 68.9939 15.7962 68.9494 15.7962L68.89 15.8481C68.89 15.811 68.89 15.7888 68.89 15.7591C68.89 15.7294 68.89 15.7591 68.89 15.7591L68.8232 15.7071H68.9049C68.8982 15.6778 68.8982 15.6474 68.9049 15.6181C68.9049 15.6181 68.9049 15.6775 68.9049 15.6997H68.9939L68.9197 15.7591C68.9461 15.7847 68.9709 15.8119 68.9939 15.8407V15.8407Z" fill="#FEFEFE"/>
<path d="M70.5975 15.5812H70.6866V15.4921C70.6885 15.5193 70.6885 15.5466 70.6866 15.5737C70.6866 15.5737 70.6866 15.5737 70.6866 15.5737H70.7682L70.7014 15.6331C70.6993 15.6627 70.6993 15.6925 70.7014 15.7221L70.6346 15.6702C70.6346 15.6702 70.6346 15.6702 70.5975 15.6702L70.5308 15.7221V15.6405C70.5308 15.6405 70.5308 15.6405 70.5308 15.6034L70.5975 15.5812Z" fill="#FEFEFE"/>
<path d="M69.6621 14.8393H69.7363C69.7363 14.8393 69.7734 14.8393 69.7808 14.8022V14.728C69.7808 14.728 69.7808 14.7873 69.7808 14.817C69.7808 14.8467 69.7808 14.817 69.7808 14.817H69.8699L69.8031 14.8764C69.8061 14.9035 69.8061 14.9309 69.8031 14.958L69.7363 14.9135C69.7175 14.9368 69.695 14.9569 69.6695 14.9728C69.6695 14.9357 69.6695 14.9135 69.6695 14.8838C69.6695 14.8541 69.6695 14.8838 69.6695 14.8838L69.6621 14.8393Z" fill="#FEFEFE"/>
<path d="M69.1212 16.4714H69.1954C69.1954 16.4714 69.2325 16.4714 69.2399 16.4343C69.2371 16.4097 69.2371 16.3848 69.2399 16.3601C69.2419 16.3873 69.2419 16.4146 69.2399 16.4417C69.2399 16.4417 69.2399 16.4417 69.2399 16.4417H69.3215L69.2547 16.5011C69.2528 16.5282 69.2528 16.5555 69.2547 16.5827L69.1805 16.5382L69.1138 16.5975V16.5159C69.1138 16.5159 69.1138 16.5159 69.1138 16.4714H69.1212Z" fill="#FDFDFE"/>
<path d="M71.1532 16.5238L71.0864 16.4718L71.0122 16.5312C71.0122 16.5312 71.0122 16.4718 71.0122 16.4496C71.0122 16.4273 71.0122 16.4496 71.0122 16.4125L70.938 16.3605H71.027C71.0204 16.3337 71.0204 16.3057 71.027 16.2789V16.3309C71.027 16.3754 71.027 16.3754 71.0938 16.3754H71.2199L71.1532 16.4347C71.1532 16.4347 71.1532 16.4347 71.1532 16.4718C71.1539 16.4891 71.1539 16.5065 71.1532 16.5238V16.5238Z" fill="#FDFDFE"/>
<path d="M69.3961 15.6483H69.4703C69.4703 15.6483 69.4703 15.6483 69.4703 15.6112V15.537C69.4703 15.537 69.4703 15.5963 69.4703 15.626C69.4703 15.6557 69.4703 15.626 69.4703 15.626H69.5593L69.4925 15.6854C69.4906 15.7125 69.4906 15.7398 69.4925 15.767L69.4183 15.7225C69.3975 15.7415 69.3752 15.7589 69.3516 15.7744V15.6928L69.3961 15.6483Z" fill="#FEFEFE"/>
<path d="M69.997 15.5812H70.086C70.086 15.5812 70.086 15.5292 70.086 15.4921V15.5737H70.1676L70.1008 15.6331V15.7073L70.034 15.6702H69.9895L69.9302 15.7221C69.9302 15.685 69.9302 15.6628 69.9302 15.6331C69.9302 15.6034 69.9302 15.6331 69.9302 15.6331L69.997 15.5812Z" fill="#FEFEFE"/>
<path d="M71.428 15.6999L71.3612 15.6479C71.3612 15.6479 71.3612 15.6479 71.3241 15.6479L71.2573 15.6999C71.2555 15.6727 71.2555 15.6454 71.2573 15.6183C71.2573 15.6183 71.2573 15.6183 71.2573 15.6183L71.2202 15.5812H71.3092C71.3092 15.5812 71.3092 15.5292 71.3092 15.4921V15.5589C71.3092 15.5589 71.3092 15.6034 71.3538 15.596H71.4205L71.3612 15.6479C71.3612 15.6479 71.3612 15.6479 71.3612 15.6925L71.428 15.6999Z" fill="#FEFEFE"/>
<path d="M70.5449 14.7727L70.4781 14.8395V14.9285L70.4114 14.8766H70.3669L70.3075 14.9285C70.3032 14.9015 70.3032 14.8739 70.3075 14.8469C70.3075 14.8469 70.3075 14.8469 70.3075 14.8098L70.2407 14.7653H70.3149V14.6837C70.3149 14.6837 70.3149 14.743 70.3149 14.7653L70.5449 14.7727Z" fill="#FEFEFE"/>
<path d="M68.5263 15.0616C68.5228 15.0345 68.5228 15.007 68.5263 14.9799L68.4521 14.928H68.5189C68.556 14.928 68.556 14.928 68.5709 14.8761C68.5689 14.8563 68.5689 14.8364 68.5709 14.8167V14.8983H68.6599L68.5857 14.9577C68.5899 14.9847 68.5899 15.0123 68.5857 15.0393L68.5189 14.9948C68.5189 14.9948 68.5189 14.9948 68.4818 14.9948C68.501 15.0138 68.5162 15.0365 68.5263 15.0616V15.0616Z" fill="#FEFEFE"/>
<path d="M70.2862 16.1373C70.2862 16.1373 70.2195 16.1744 70.212 16.2041C70.2098 16.2362 70.2098 16.2684 70.212 16.3006L70.1453 16.2486C70.1453 16.2486 70.1453 16.2486 70.1082 16.2486L70.0414 16.3006C70.0414 16.3006 70.0414 16.2412 70.0414 16.2115C70.0414 16.1818 70.0414 16.2115 70.0414 16.2115L69.9746 16.167H70.0562V16.0854C70.0592 16.11 70.0592 16.1349 70.0562 16.1596C70.0562 16.1596 70.0562 16.1596 70.0933 16.1596L70.2862 16.1373Z" fill="#FEFEFE"/>
<path d="M69.0835 15.4032H69.1651V15.3142C69.1672 15.3438 69.1672 15.3736 69.1651 15.4032C69.1651 15.4032 69.1651 15.4032 69.1651 15.4032H69.2541L69.1874 15.4626C69.1852 15.4922 69.1852 15.522 69.1874 15.5516L69.1206 15.4997C69.1206 15.4997 69.1206 15.4997 69.0835 15.4997L69.1429 15.5813V15.4923L69.0835 15.4032Z" fill="#FEFEFE"/>
<path d="M69.6254 14.565L69.5661 14.6169C69.5661 14.6169 69.5661 14.6169 69.5661 14.654V14.7357L69.4919 14.6837L69.4325 14.7357V14.6466L69.3657 14.6021H69.4473C69.4473 14.6021 69.4473 14.5502 69.4473 14.5131C69.4473 14.476 69.4473 14.5724 69.4473 14.6021C69.4473 14.6318 69.4473 14.6021 69.4473 14.6021H69.529L69.6254 14.565Z" fill="#FEFEFE"/>
<path d="M71.4279 14.461L71.376 14.5055C71.376 14.5055 71.376 14.5055 71.376 14.55C71.3802 14.5746 71.3802 14.5996 71.376 14.6242L71.3092 14.5797C71.3092 14.5797 71.3092 14.5797 71.2721 14.5797L71.2054 14.639C71.2036 14.6094 71.2036 14.5797 71.2054 14.55V14.5129L71.146 14.4684H71.2202V14.3868C71.2233 14.4139 71.2233 14.4413 71.2202 14.4684C71.2202 14.4684 71.2202 14.4684 71.2202 14.4684H71.2944L71.4279 14.461Z" fill="#FEFEFE"/>
<path d="M68.5414 15.581C68.5414 15.5439 68.5414 15.5216 68.5414 15.4919C68.5414 15.4622 68.5414 15.4919 68.5414 15.4919L68.4746 15.4474H68.5562C68.5562 15.4474 68.5562 15.3955 68.5562 15.3584C68.5562 15.3213 68.5562 15.4177 68.5562 15.44C68.5562 15.4622 68.5562 15.44 68.5562 15.44H68.6304C68.6304 15.44 68.6304 15.44 68.5933 15.4845C68.5562 15.529 68.5933 15.4845 68.5933 15.5587V15.6181L68.5191 15.5661L68.5414 15.581Z" fill="#FEFEFE"/>
<path d="M70.3456 15.492V15.4104C70.3456 15.4104 70.3456 15.4104 70.3456 15.3733C70.3202 15.3637 70.2974 15.3485 70.2788 15.3287H70.353C70.3549 15.3016 70.3549 15.2743 70.353 15.2471V15.3362H70.442L70.3678 15.3955C70.3678 15.3955 70.3678 15.4475 70.3678 15.4846L70.4791 15.4326L70.3456 15.492Z" fill="#FEFEFE"/>
<path d="M71.2206 16.079H71.2874V16.0048C71.2874 16.0048 71.2874 16.0567 71.2874 16.0864C71.2874 16.1161 71.2874 16.0864 71.2874 16.0864H71.3616C71.3503 16.1071 71.3318 16.1229 71.3096 16.1309C71.3096 16.1309 71.3096 16.1309 71.3096 16.1828C71.3109 16.2075 71.3109 16.2323 71.3096 16.257L71.2503 16.2199C71.2503 16.2199 71.2132 16.2199 71.1909 16.2199L71.139 16.2644C71.1347 16.2399 71.1347 16.2148 71.139 16.1902V16.1457L71.2206 16.0864V16.079Z" fill="#FEFEFE"/>
<path d="M70.8861 16.1008L70.8268 16.1528C70.8268 16.1528 70.8268 16.1528 70.8268 16.1899C70.8248 16.217 70.8248 16.2443 70.8268 16.2715L70.76 16.227C70.76 16.227 70.76 16.227 70.7155 16.227L70.6561 16.2789V16.1899C70.6317 16.1786 70.6092 16.1635 70.5894 16.1453H70.671C70.6685 16.1182 70.6685 16.0909 70.671 16.0637C70.6742 16.0883 70.6742 16.1133 70.671 16.1379H70.7155L70.8861 16.1008Z" fill="#FEFEFE"/>
<path d="M69.6928 16.1678L69.626 16.2272C69.626 16.2272 69.626 16.2272 69.626 16.2643C69.6314 16.2912 69.6314 16.319 69.626 16.3459L69.5815 16.3236C69.5815 16.3236 69.5815 16.3236 69.537 16.3236L69.4702 16.3756V16.294C69.4702 16.294 69.4702 16.294 69.4702 16.2569L69.396 16.2124H69.4776C69.4795 16.1852 69.4795 16.1579 69.4776 16.1307C69.4807 16.1579 69.4807 16.1852 69.4776 16.2124C69.4776 16.2124 69.4776 16.2124 69.5147 16.2124L69.6928 16.1678Z" fill="#FEFEFE"/>
<path d="M68.9425 16.1081C68.9447 16.1377 68.9447 16.1675 68.9425 16.1971H69.0242L68.9574 16.2565C68.9595 16.2861 68.9595 16.3159 68.9574 16.3455L68.9945 16.3233C68.9757 16.3467 68.9531 16.3667 68.9277 16.3826C68.9277 16.3455 68.9277 16.3233 68.9277 16.2936C68.9277 16.2639 68.9277 16.2936 68.9277 16.2936L68.8535 16.2491H68.9425C68.9425 16.2491 68.9351 16.1452 68.9425 16.1081Z" fill="#FEFEFE"/>
<path d="M70.0479 14.543C70.0455 14.5158 70.0455 14.4885 70.0479 14.4614C70.051 14.4885 70.051 14.5159 70.0479 14.543Z" fill="#FEFEFE"/>
<path d="M70.694 14.3868C70.6961 14.4164 70.6961 14.4462 70.694 14.4758H70.7756L70.7163 14.5278C70.7163 14.5278 70.7163 14.5797 70.7163 14.6094L70.6495 14.5648L70.5827 14.6168C70.5784 14.5922 70.5784 14.5671 70.5827 14.5426C70.5827 14.5426 70.5827 14.5055 70.5827 14.4907L70.5308 14.4536H70.605C70.605 14.4536 70.6866 14.4239 70.694 14.3868Z" fill="#FEFEFE"/>
<path d="M69.6915 15.366H69.7731V15.2769C69.7731 15.2769 69.7731 15.314 69.7731 15.3363C69.7738 15.343 69.7761 15.3494 69.7797 15.3551C69.7832 15.3608 69.7881 15.3657 69.7938 15.3692C69.7995 15.3728 69.806 15.375 69.8127 15.3758C69.8194 15.3765 69.8261 15.3757 69.8325 15.3734C69.8325 15.3734 69.8325 15.3734 69.8844 15.3734L69.8251 15.4253C69.8273 15.4525 69.8273 15.4798 69.8251 15.5069L69.7509 15.455L69.6841 15.5143V15.4253L69.6915 15.366Z" fill="#FEFEFE"/>
<path d="M71.763 15.2478L71.7037 15.2923C71.7037 15.2923 71.7037 15.2923 71.7037 15.3294V15.411L71.6369 15.3665L71.5775 15.4184C71.5732 15.3914 71.5732 15.3638 71.5775 15.3368C71.5802 15.331 71.5816 15.3247 71.5816 15.3183C71.5816 15.3119 71.5802 15.3055 71.5775 15.2997C71.5522 15.2902 71.5293 15.2749 71.5107 15.2552H71.5924C71.5865 15.2283 71.5865 15.2005 71.5924 15.1736V15.2478C71.5924 15.2478 71.5924 15.2478 71.6295 15.2478H71.7037H71.763Z" fill="#FEFEFE"/>
</g>
<g clip-path="url(#clip5_2009_4430)">
<path d="M85.1294 23.3865C91.489 23.3865 96.6445 18.231 96.6445 11.8714C96.6445 5.51175 91.489 0.356262 85.1294 0.356262C78.7698 0.356262 73.6143 5.51175 73.6143 11.8714C73.6143 18.231 78.7698 23.3865 85.1294 23.3865Z" fill="url(#paint0_linear_2009_4430)"/>
<path d="M90.1679 16.4592L86.2741 7.04528C86.0545 6.55856 85.7281 6.32114 85.2977 6.32114H84.9535C84.5231 6.32114 84.1967 6.55856 83.9771 7.04528L82.2824 11.1468H81.0003C80.6175 11.1498 80.3059 11.4584 80.3029 11.8442V11.8531C80.3059 12.236 80.6175 12.5476 81.0003 12.5506H81.6889L80.0714 16.4592C80.0417 16.5453 80.0239 16.6343 80.0239 16.7263C80.0239 16.9459 80.0922 17.118 80.2139 17.2516C80.3355 17.3851 80.5106 17.4504 80.7303 17.4504C80.8757 17.4475 81.0152 17.403 81.1309 17.3169C81.2556 17.2308 81.3416 17.1062 81.4099 16.9637L83.1906 12.5476H84.4252C84.808 12.5446 85.1197 12.236 85.1226 11.8502V11.8324C85.1197 11.4495 84.808 11.1379 84.4252 11.1349H83.7663L85.1256 7.74865L88.8294 16.9607C88.8977 17.1032 88.9838 17.2279 89.1084 17.3139C89.2241 17.4 89.3666 17.4445 89.5091 17.4475C89.7287 17.4475 89.9008 17.3822 90.0255 17.2486C90.1501 17.1151 90.2154 16.9429 90.2154 16.7233C90.2184 16.6343 90.2035 16.5423 90.1679 16.4592Z" fill="white"/>
</g>
<defs>
<linearGradient id="paint0_linear_2009_4430" x1="93.7149" y1="4.64732" x2="76.5804" y2="19.0642" gradientUnits="userSpaceOnUse">
<stop stop-color="#B6509E"/>
<stop offset="1" stop-color="#2EBAC6"/>
</linearGradient>
<clipPath id="clip0_2009_4430">
<rect width="23.7425" height="23.7425" fill="white"/>
</clipPath>
<clipPath id="clip1_2009_4430">
<rect width="23.7425" height="23.7425" fill="white" transform="translate(14.6514)"/>
</clipPath>
<clipPath id="clip2_2009_4430">
<rect width="23.7425" height="23.7425" fill="white" transform="translate(29.3032)"/>
</clipPath>
<clipPath id="clip3_2009_4430">
<rect width="23.7425" height="23.7425" fill="white" transform="translate(43.9546)"/>
</clipPath>
<clipPath id="clip4_2009_4430">
<rect width="23.7425" height="23.7425" fill="white" transform="translate(58.606)"/>
</clipPath>
<clipPath id="clip5_2009_4430">
<rect width="23.7425" height="23.7425" fill="white" transform="translate(73.2573)"/>
</clipPath>
</defs>
</svg>
