<svg width="148" height="48" viewBox="0 0 148 48" fill="none" xmlns="http://www.w3.org/2000/svg">
<g clip-path="url(#clip0_2009_4361)">
<g clip-path="url(#clip1_2009_4361)">
<g clip-path="url(#clip2_2009_4361)">
<path d="M25.9161 13.1205V3.6378C25.9161 0.857522 22.8876 -0.929792 20.4549 0.509993C14.6957 3.83639 5.85844 8.95012 1.98591 11.1843C0.744717 11.8793 0 13.1702 0 14.61C0 19.1279 0 29.3057 0 35.9585C0 38.7388 3.02851 40.5261 5.46125 39.0863L12.9581 34.767L22.0933 29.405C24.4763 28.0148 25.9658 25.4828 25.9658 22.7025L25.9161 13.1205Z" fill="#FDC651"/>
<path d="M33.4615 8.80127L25.9647 13.1206C22.3404 15.2058 18.9643 17.1917 16.3827 18.6811C14.0492 20.0216 12.6094 22.504 12.6094 25.185L12.957 34.767V44.2994C12.957 47.0797 15.9855 48.867 18.4182 47.4272L36.7382 36.8522C38.0787 36.1075 38.8731 34.6677 38.8731 33.1286V11.9787C38.8731 9.1488 35.8446 7.36148 33.4615 8.80127Z" fill="#9457F6"/>
<path d="M25.9647 22.7021C25.9647 25.4823 24.4752 28.0144 22.0922 29.4045L12.957 34.7665L12.6094 25.1845C12.6094 22.5035 14.0492 20.0211 16.3827 18.6806C18.9643 17.1912 22.2907 15.2549 25.9647 13.1201V22.7021Z" fill="#976B7A"/>
<path d="M44.5312 24.1418V7.50977H55.7517V10.6376H48.2549V13.9144H54.9076V16.9925H48.2549V21.014H56.2978V24.1418H44.5312Z" fill="#070707"/>
<path d="M70.2031 24.1426C69.1108 22.256 67.9689 20.3693 66.7277 18.4827C65.4865 16.6458 64.146 14.8584 62.7559 13.2201V24.0929H59.082V7.46094H62.1105C62.6566 8.00706 63.2027 8.65248 63.8482 9.3972C64.4936 10.1419 65.139 10.9859 65.7844 11.8796C66.4298 12.7732 67.1249 13.6669 67.7703 14.6102C68.4158 15.5535 69.0612 16.4472 69.6073 17.2912V7.46094H73.3309V24.0929H70.2031V24.1426Z" fill="#070707"/>
<path d="M91.7499 15.8013C91.7499 17.2411 91.5016 18.4823 91.0548 19.5745C90.608 20.6668 89.9626 21.5108 89.1682 22.2555C88.3242 22.9506 87.3312 23.4967 86.1397 23.8442C84.9481 24.1918 83.6076 24.3904 82.1678 24.3904C81.4728 24.3904 80.7281 24.3407 79.8344 24.2911C78.9407 24.2414 78.0471 24.1421 77.2031 23.9435V7.75835C78.0471 7.60941 78.9904 7.51012 79.884 7.41083C80.8274 7.36118 81.6217 7.31152 82.3168 7.31152C83.7566 7.31152 85.0474 7.46047 86.1893 7.808C87.3312 8.15554 88.3242 8.65201 89.1682 9.29743C90.0122 9.9925 90.6576 10.8862 91.1044 11.9288C91.5513 13.021 91.7499 14.3119 91.7499 15.8013ZM80.9267 21.064C81.1252 21.064 81.3238 21.1136 81.5224 21.1136C81.7707 21.1136 82.0189 21.1136 82.3664 21.1136C84.2531 21.1136 85.6432 20.6171 86.5368 19.6738C87.4305 18.7305 87.8773 17.4397 87.8773 15.7516C87.8773 14.014 87.4305 12.6735 86.5865 11.7798C85.7425 10.8862 84.3524 10.4393 82.4657 10.4393C82.2175 10.4393 81.9693 10.4393 81.6714 10.4393C81.4231 10.4393 81.1252 10.489 80.9267 10.489V21.064Z" fill="#070707"/>
<path d="M106 20.9147V24.1418H94.8789V7.50977H98.6024V20.9147H106Z" fill="#070707"/>
<path d="M108.383 24.1418V7.50977H119.603V10.6376H112.106V13.9143H118.759V16.9925H112.106V21.014H120.149V24.1418H108.383Z" fill="#070707"/>
<path d="M127.446 21.2629C127.992 21.2629 128.389 21.2133 128.737 21.114C129.085 21.0147 129.333 20.9154 129.581 20.7664C129.78 20.6175 129.929 20.4189 130.028 20.2203C130.127 20.0217 130.127 19.7735 130.127 19.5252C130.127 18.9791 129.879 18.5323 129.382 18.1847C128.886 17.8372 127.992 17.44 126.751 17.0428C126.205 16.8442 125.659 16.6457 125.113 16.3974C124.567 16.1492 124.07 15.8513 123.673 15.4541C123.226 15.0569 122.879 14.6101 122.63 14.064C122.382 13.5178 122.233 12.8724 122.233 12.1277C122.233 11.383 122.382 10.6879 122.68 10.0425C122.978 9.44672 123.375 8.90061 123.921 8.45378C124.467 8.00695 125.113 7.70906 125.857 7.46082C126.602 7.21258 127.446 7.11328 128.389 7.11328C129.531 7.11328 130.475 7.21258 131.269 7.46082C132.063 7.70906 132.758 7.95729 133.305 8.25517L132.212 11.1844C131.766 10.9362 131.219 10.7376 130.673 10.539C130.127 10.3404 129.432 10.2411 128.638 10.2411C127.744 10.2411 127.099 10.3404 126.701 10.5886C126.304 10.8369 126.106 11.234 126.106 11.7305C126.106 12.0284 126.155 12.2766 126.304 12.4752C126.453 12.6738 126.652 12.8724 126.9 13.0214C127.148 13.1703 127.446 13.3192 127.794 13.4682C128.141 13.6171 128.538 13.7661 128.936 13.8654C129.78 14.1633 130.574 14.5108 131.17 14.8087C131.815 15.1066 132.361 15.5038 132.758 15.9009C133.205 16.2981 133.503 16.7946 133.702 17.3407C133.9 17.8869 134 18.5819 134 19.3763C134 20.9154 133.454 22.1069 132.361 23.0006C131.269 23.8446 129.631 24.2914 127.446 24.2914C126.701 24.2914 126.056 24.2418 125.46 24.1425C124.865 24.0432 124.368 23.9439 123.872 23.7949C123.425 23.646 123.028 23.5467 122.68 23.3977C122.332 23.2488 122.084 23.0999 121.836 23.0006L122.879 20.0217C123.375 20.2699 123.971 20.5182 124.716 20.7664C125.51 21.1636 126.404 21.2629 127.446 21.2629Z" fill="#070707"/>
<path d="M141.446 21.2629C141.992 21.2629 142.389 21.2133 142.737 21.114C143.085 21.0147 143.333 20.9154 143.581 20.7664C143.78 20.6175 143.929 20.4189 144.028 20.2203C144.127 20.0217 144.127 19.7735 144.127 19.5252C144.127 18.9791 143.879 18.5323 143.382 18.1847C142.886 17.8372 141.992 17.44 140.751 17.0428C140.205 16.8442 139.659 16.6457 139.113 16.3974C138.567 16.1492 138.07 15.8513 137.673 15.4541C137.226 15.0569 136.879 14.6101 136.63 14.064C136.382 13.5178 136.233 12.8724 136.233 12.1277C136.233 11.383 136.382 10.6879 136.68 10.0425C136.978 9.44672 137.375 8.90061 137.921 8.45378C138.467 8.00695 139.113 7.70906 139.857 7.46082C140.602 7.21258 141.446 7.11328 142.389 7.11328C143.531 7.11328 144.475 7.21258 145.269 7.46082C146.063 7.70906 146.758 7.95729 147.305 8.25517L146.212 11.1844C145.765 10.9362 145.219 10.7376 144.673 10.539C144.127 10.3404 143.432 10.2411 142.638 10.2411C141.744 10.2411 141.099 10.3404 140.701 10.5886C140.304 10.8369 140.106 11.234 140.106 11.7305C140.106 12.0284 140.155 12.2766 140.304 12.4752C140.453 12.6738 140.652 12.8724 140.9 13.0214C141.148 13.1703 141.446 13.3192 141.794 13.4682C142.141 13.6171 142.538 13.7661 142.936 13.8654C143.78 14.1633 144.574 14.5108 145.17 14.8087C145.815 15.1066 146.361 15.5038 146.758 15.9009C147.205 16.2981 147.503 16.7946 147.702 17.3407C147.9 17.8869 148 18.5819 148 19.3763C148 20.9154 147.454 22.1069 146.361 23.0006C145.269 23.8446 143.631 24.2914 141.446 24.2914C140.701 24.2914 140.056 24.2418 139.46 24.1425C138.864 24.0432 138.368 23.9439 137.871 23.7949C137.425 23.646 137.027 23.5467 136.68 23.3977C136.332 23.2488 136.084 23.0999 135.836 23.0006L136.879 20.0217C137.375 20.2699 137.971 20.5182 138.716 20.7664C139.51 21.1636 140.354 21.2629 141.446 21.2629Z" fill="#070707"/>
<path d="M54.3619 34.5186C54.3619 35.5612 54.213 36.5046 53.8655 37.2493C53.5179 38.0436 53.0711 38.689 52.4753 39.1855C51.8796 39.682 51.1348 40.0792 50.2908 40.3274C49.4468 40.5757 48.5035 40.7246 47.4609 40.7246C46.9644 40.7246 46.4183 40.7246 45.8225 40.675C45.2267 40.6253 44.631 40.526 44.0352 40.4267V28.6602C44.5813 28.5113 45.1771 28.4616 45.8225 28.412C46.4679 28.3623 47.0141 28.3623 47.5106 28.3623C48.5035 28.3623 49.4468 28.4616 50.2908 28.7098C51.1348 28.9581 51.8299 29.3056 52.4753 29.8517C53.0711 30.3482 53.5179 30.9936 53.8655 31.788C54.1633 32.5327 54.3619 33.476 54.3619 34.5186ZM46.2694 38.7883C46.4183 38.7883 46.5672 38.7883 46.7658 38.838C46.9644 38.838 47.2623 38.838 47.6098 38.838C49.0993 38.838 50.1915 38.4408 50.9362 37.6961C51.681 36.9514 52.0285 35.9088 52.0285 34.5186C52.0285 33.1285 51.681 32.0859 50.9362 31.3412C50.2412 30.5965 49.0993 30.2489 47.6098 30.2489C46.9644 30.2489 46.4679 30.2489 46.2197 30.2986V38.7883H46.2694Z" fill="#070707"/>
<path d="M68.0192 34.5192C68.0192 35.5618 67.8703 36.4554 67.5724 37.2498C67.2745 38.0441 66.8277 38.6896 66.3312 39.2357C65.7851 39.7818 65.1893 40.179 64.4446 40.4272C63.6999 40.6755 62.9552 40.8244 62.1608 40.8244C61.3664 40.8244 60.5721 40.6755 59.877 40.4272C59.1819 40.179 58.5365 39.7818 57.9904 39.2357C57.4443 38.6896 57.0471 38.0441 56.6995 37.2498C56.4017 36.4554 56.2031 35.5618 56.2031 34.5192C56.2031 33.4765 56.352 32.5829 56.6995 31.7885C57.0471 30.9942 57.4443 30.3487 57.9904 29.8026C58.5365 29.2565 59.1819 28.8593 59.877 28.6111C60.5721 28.3628 61.3168 28.2139 62.1112 28.2139C62.9055 28.2139 63.6502 28.3628 64.3453 28.6111C65.0404 28.8593 65.6858 29.3061 66.2319 29.8026C66.778 30.3487 67.1752 30.9942 67.5228 31.7885C67.8703 32.5829 68.0192 33.5262 68.0192 34.5192ZM58.5365 34.5192C58.5365 35.1646 58.6358 35.81 58.7847 36.3065C58.9337 36.8526 59.1819 37.2994 59.4798 37.6966C59.7777 38.0938 60.1749 38.3917 60.6217 38.5903C61.0686 38.7889 61.565 38.8881 62.1112 38.8881C62.6573 38.8881 63.1538 38.7889 63.6006 38.5903C64.0474 38.3917 64.4446 38.0938 64.7425 37.6966C65.0404 37.2994 65.2886 36.8526 65.4375 36.3065C65.5865 35.7603 65.6858 35.1646 65.6858 34.5192C65.6858 33.8737 65.5865 33.2283 65.4375 32.7318C65.2886 32.1857 65.0404 31.7389 64.7425 31.3417C64.4446 30.9445 64.0474 30.6466 63.6006 30.448C63.1538 30.2494 62.6573 30.1501 62.1112 30.1501C61.565 30.1501 61.0686 30.2494 60.6217 30.448C60.1749 30.6466 59.7777 30.9445 59.4798 31.3417C59.1819 31.7389 58.9337 32.1857 58.7847 32.7318C58.6358 33.278 58.5365 33.8737 58.5365 34.5192Z" fill="#070707"/>
<path d="M73.0804 28.5107C73.3287 28.9576 73.6265 29.5037 73.9244 30.1491C74.2223 30.7945 74.5698 31.4399 74.8677 32.1847C75.2153 32.8797 75.5132 33.6244 75.8607 34.3195C76.1586 35.0642 76.4565 35.7097 76.7544 36.3551C77.0026 35.7593 77.3005 35.0642 77.648 34.3195C77.9459 33.5748 78.2934 32.8797 78.5913 32.1847C78.9389 31.4896 79.2368 30.7945 79.5346 30.1491C79.8325 29.5037 80.1304 28.9576 80.3786 28.5107H82.3646C82.4638 29.4044 82.5631 30.3477 82.6624 31.3406C82.7617 32.3336 82.861 33.3762 82.9107 34.4188C83.01 35.4614 83.0596 36.504 83.1093 37.5466C83.1589 38.5892 83.2086 39.6318 83.2582 40.6248H81.0737C81.0241 39.2346 80.9744 37.7452 80.9248 36.2558C80.8751 34.7664 80.7758 33.3266 80.6269 31.9364C80.4779 32.1847 80.329 32.5322 80.1801 32.8797C79.9815 33.2769 79.8325 33.6741 79.6339 34.0713C79.4353 34.5181 79.2368 34.9649 79.0382 35.4118C78.8396 35.8586 78.641 36.3551 78.4424 36.7523C78.2438 37.1991 78.0948 37.5963 77.8963 37.9935C77.7473 38.3906 77.5984 38.6885 77.4991 38.9864H75.8607C75.7614 38.7382 75.6125 38.3906 75.4635 37.9935C75.3146 37.5963 75.116 37.1991 74.9174 36.7523C74.7188 36.3054 74.5202 35.8586 74.3216 35.4118C74.123 34.9649 73.9244 34.5181 73.7258 34.0713C73.5273 33.6244 73.3287 33.2273 73.1797 32.8797C72.9811 32.4825 72.8322 32.1847 72.7329 31.9364C72.5839 33.3266 72.4846 34.7664 72.435 36.2558C72.3854 37.7452 72.3357 39.185 72.2861 40.6248H70.1016C70.1512 39.6318 70.2009 38.5892 70.2505 37.497C70.3001 36.4047 70.3994 35.3621 70.4491 34.3195C70.5484 33.2769 70.598 32.2343 70.6973 31.2414C70.7966 30.2484 70.8959 29.3547 70.9952 28.5107H73.0804Z" fill="#070707"/>
<path d="M93.9811 40.6256C93.8322 40.1291 93.6336 39.6823 93.4847 39.1858C93.3357 38.6893 93.1371 38.2425 92.9882 37.746H87.8745C87.7255 38.2425 87.5269 38.739 87.378 39.1858C87.229 39.6823 87.0305 40.1291 86.8815 40.5759H84.5977C85.0445 39.2851 85.4914 38.0935 85.8886 37.0013C86.2857 35.909 86.6829 34.8664 87.0801 33.8735C87.4773 32.8805 87.8745 31.9372 88.222 31.0932C88.6192 30.1995 89.0164 29.3555 89.4135 28.4619H91.4987C91.8959 29.3059 92.2931 30.1995 92.6903 31.0932C93.0875 31.9869 93.4847 32.9302 93.8322 33.8735C94.1797 34.8168 94.6266 35.909 95.0237 37.0013C95.4209 38.0935 95.8678 39.2851 96.3146 40.5759H93.9811V40.6256ZM90.4065 30.845C90.1583 31.4407 89.8107 32.2351 89.5128 33.0791C89.1653 33.9728 88.8178 34.9161 88.4206 35.9587H92.3924C91.9952 34.9161 91.6477 33.9728 91.3002 33.0295C90.9526 32.1855 90.6547 31.4407 90.4065 30.845Z" fill="#070707"/>
<path d="M97.8555 28.5107H100.04V40.6248H97.8555V28.5107Z" fill="#070707"/>
<path d="M111.161 40.6248C110.763 39.9794 110.317 39.2347 109.82 38.4899C109.324 37.7452 108.827 36.9508 108.281 36.1565C107.735 35.3621 107.238 34.6174 106.692 33.9223C106.146 33.1776 105.65 32.5322 105.153 31.9364V40.6248H102.969V28.5107H104.756C105.203 29.0072 105.699 29.603 106.246 30.2484C106.792 30.9435 107.338 31.6385 107.884 32.3336C108.43 33.0783 108.926 33.7734 109.473 34.5181C109.969 35.2628 110.416 35.9082 110.813 36.5537V28.5107H112.998V40.6248H111.161Z" fill="#070707"/>
<path d="M118.857 38.9875C119.651 38.9875 120.247 38.8385 120.595 38.5903C120.942 38.342 121.141 37.9448 121.141 37.4484C121.141 37.1505 121.091 36.9022 120.942 36.7037C120.843 36.5051 120.644 36.3065 120.396 36.1575C120.148 36.0086 119.899 35.81 119.552 35.661C119.204 35.5121 118.857 35.3632 118.41 35.2142C118.013 35.0653 117.566 34.9163 117.219 34.7177C116.821 34.5191 116.474 34.3206 116.176 34.0227C115.878 33.7744 115.63 33.4269 115.481 33.0794C115.282 32.6822 115.233 32.2354 115.233 31.7389C115.233 30.6466 115.63 29.8026 116.375 29.1572C117.119 28.5118 118.162 28.2139 119.453 28.2139C120.197 28.2139 120.892 28.3132 121.488 28.4621C122.084 28.6111 122.531 28.8097 122.878 29.0082L122.183 30.7956C121.786 30.597 121.339 30.3984 120.892 30.2991C120.396 30.1998 119.949 30.1005 119.453 30.1005C118.857 30.1005 118.41 30.1998 118.063 30.448C117.715 30.6963 117.566 31.0438 117.566 31.4906C117.566 31.7389 117.616 31.9871 117.715 32.1857C117.814 32.3843 117.963 32.5332 118.211 32.6822C118.41 32.8311 118.658 32.9801 118.907 33.0794C119.204 33.2283 119.502 33.3276 119.8 33.4269C120.396 33.6255 120.892 33.8737 121.339 34.0723C121.786 34.2709 122.183 34.5688 122.481 34.817C122.779 35.1149 123.027 35.4625 123.176 35.8596C123.325 36.2568 123.424 36.7533 123.424 37.2994C123.424 38.3917 123.027 39.2357 122.283 39.8315C121.538 40.4272 120.396 40.7251 118.857 40.7251C118.36 40.7251 117.914 40.6755 117.467 40.6258C117.07 40.5762 116.672 40.4769 116.375 40.3776C116.077 40.2783 115.779 40.179 115.531 40.0797C115.282 39.9804 115.133 39.8811 114.984 39.8315L115.63 38.0441C115.928 38.2427 116.375 38.3917 116.921 38.5903C117.467 38.8881 118.112 38.9875 118.857 38.9875Z" fill="#070707"/>
</g>
</g>
</g>
<defs>
<clipPath id="clip0_2009_4361">
<rect width="148" height="48" fill="white"/>
</clipPath>
<clipPath id="clip1_2009_4361">
<rect width="148" height="48" fill="white"/>
</clipPath>
<clipPath id="clip2_2009_4361">
<rect width="148" height="48" fill="white"/>
</clipPath>
</defs>
</svg>
