<svg preserveAspectRatio="none" width="100%" height="100%" overflow="visible" style="display: block;" viewBox="0 0 17 17" fill="none" xmlns="http://www.w3.org/2000/svg">
<g id="Eye">
<path id="Vector" d="M16.6698 8.1766C16.6452 8.12281 16.0635 6.83121 14.7785 5.54625C13.0593 3.82965 10.8924 2.92188 8.50182 2.92188C6.11119 2.92188 3.94436 3.82965 2.22709 5.54625C0.94213 6.83121 0.360411 8.12281 0.333848 8.1766C0.28886 8.2786 0.265625 8.38885 0.265625 8.50033C0.265625 8.61181 0.28886 8.72207 0.333848 8.82406C0.358419 8.87852 0.940138 10.1695 2.22576 11.4544C3.94436 13.171 6.11119 14.0781 8.50182 14.0781C10.8924 14.0781 13.0593 13.171 14.7759 11.4544C16.0615 10.1695 16.6432 8.87852 16.6678 8.82406C16.7131 8.7222 16.7367 8.61202 16.737 8.50054C16.7374 8.38906 16.7145 8.27874 16.6698 8.1766ZM13.6111 10.368C12.1854 11.7718 10.4668 12.4844 8.50182 12.4844C6.53686 12.4844 4.81826 11.7718 3.39451 10.3673C2.83427 9.813 2.35236 9.18475 1.96213 8.5C2.35247 7.81552 2.83438 7.18751 3.39451 6.63332C4.81893 5.22816 6.53686 4.51562 8.50182 4.51562C10.4668 4.51562 12.1847 5.22816 13.6091 6.63332C14.1693 7.18746 14.6512 7.81548 15.0415 8.5C14.6512 9.18471 14.1693 9.81295 13.6091 10.3673L13.6111 10.368ZM8.50182 5.57812C7.92393 5.57812 7.35901 5.74949 6.87851 6.07055C6.39801 6.39161 6.02351 6.84794 5.80236 7.38185C5.58121 7.91575 5.52334 8.50324 5.63609 9.07003C5.74883 9.63682 6.02711 10.1574 6.43574 10.5661C6.84437 10.9747 7.365 11.253 7.93179 11.3657C8.49858 11.4785 9.08607 11.4206 9.61997 11.1995C10.1539 10.9783 10.6102 10.6038 10.9313 10.1233C11.2523 9.64281 11.4237 9.07789 11.4237 8.5C11.4228 7.72534 11.1147 6.98266 10.5669 6.43489C10.0192 5.88713 9.27648 5.579 8.50182 5.57812ZM8.50182 9.82812C8.23914 9.82812 7.98236 9.75023 7.76395 9.6043C7.54554 9.45836 7.37531 9.25093 7.27479 9.00825C7.17427 8.76557 7.14797 8.49853 7.19921 8.2409C7.25046 7.98326 7.37695 7.74662 7.56269 7.56087C7.74843 7.37513 7.98508 7.24864 8.24271 7.19739C8.50034 7.14615 8.76739 7.17245 9.01007 7.27297C9.25275 7.3735 9.46018 7.54372 9.60611 7.76213C9.75205 7.98054 9.82994 8.23732 9.82994 8.5C9.82994 8.85224 9.69002 9.19005 9.44094 9.43913C9.19187 9.6882 8.85406 9.82812 8.50182 9.82812Z" fill="var(--fill-0, #868686)"/>
</g>
</svg>
