<svg width="277" height="35" viewBox="0 0 277 35" fill="none" xmlns="http://www.w3.org/2000/svg">
<path d="M23.2312 17.0759C23.2312 19.5886 22.742 21.7344 21.7636 23.5132C20.7963 25.2921 19.451 26.6541 17.7277 27.5991C16.0156 28.533 14.0365 29 11.7907 29H2.28476V5.50199H10.7901C14.7481 5.50199 17.8111 6.50261 19.9791 8.50386C22.1472 10.494 23.2312 13.3513 23.2312 17.0759ZM18.2781 17.0759C18.2781 14.5521 17.6221 12.6287 16.3102 11.3056C14.9983 9.97145 13.1249 9.30436 10.69 9.30436H7.2045V25.1976H11.3738C12.7858 25.1976 14.0032 24.8696 15.0261 24.2137C16.06 23.5466 16.8605 22.6071 17.4276 21.3952C17.9946 20.1834 18.2781 18.7436 18.2781 17.0759ZM48.9606 17.1426C48.9606 19.5886 48.4658 21.7288 47.4763 23.5633C46.4979 25.3866 45.1137 26.8042 43.3237 27.8159C41.5448 28.8277 39.4546 29.3335 37.0531 29.3335C34.5961 29.3335 32.4836 28.8443 30.7159 27.866C28.9481 26.8765 27.5917 25.47 26.6466 23.6467C25.7016 21.8233 25.2291 19.6553 25.2291 17.1426C25.2291 14.6299 25.696 12.4786 26.63 10.6886C27.575 8.89856 28.9314 7.53103 30.6992 6.586C32.4781 5.62985 34.6072 5.15177 37.0865 5.15177C39.5769 5.15177 41.7061 5.63541 43.4738 6.60268C45.2416 7.55883 46.598 8.93191 47.543 10.7219C48.4881 12.5119 48.9606 14.6521 48.9606 17.1426ZM43.9408 17.1426C43.9408 14.6077 43.3404 12.6231 42.1397 11.1889C40.9389 9.74353 39.2545 9.02085 37.0865 9.02085C34.8851 9.02085 33.1841 9.73797 31.9833 11.1722C30.7826 12.5953 30.1822 14.5854 30.1822 17.1426C30.1822 18.8548 30.4601 20.3335 31.016 21.5787C31.5719 22.8239 32.3613 23.7856 33.3842 24.4638C34.4182 25.1309 35.6412 25.4645 37.0531 25.4645C39.2545 25.4645 40.95 24.7418 42.1397 23.2964C43.3404 21.8511 43.9408 19.7998 43.9408 17.1426ZM56.2118 14.7578V29H51.8424V5.50199H58.4298L62.6325 18.6435C62.8215 19.3773 63.016 20.1167 63.2161 20.8616C63.4163 21.5954 63.6108 22.3292 63.7998 23.063C63.9221 22.6405 64.0389 22.2235 64.1501 21.8122C64.2612 21.3897 64.3724 20.9672 64.4836 20.5447C64.6059 20.1222 64.7282 19.7053 64.8505 19.2939L69.1699 5.50199H75.724V29H71.3546V14.7578C71.3546 14.4353 71.3657 13.7905 71.3879 12.8232C71.4213 11.8448 71.4657 10.7831 71.5213 9.63791C71.1322 11.1277 70.7875 12.3952 70.4874 13.4403C70.1983 14.4854 69.9592 15.3026 69.7702 15.8918L65.5343 29H62.0321L57.7961 15.8918L56.0116 9.63791C56.0784 10.9276 56.1284 12.0005 56.1617 12.8566C56.1951 13.7016 56.2118 14.3353 56.2118 14.7578ZM85.0098 22.9962L82.9251 29H78.0054L86.5774 5.50199H92.381L100.92 29H96.05L93.9654 22.9962H85.0098ZM89.4792 9.12092C89.368 9.56564 89.2124 10.0993 89.0123 10.7219C88.8121 11.3445 88.6676 11.7837 88.5787 12.0394L86.1105 19.2939H92.8647L90.3298 11.8893C90.1741 11.4335 90.0296 10.9721 89.8962 10.5051C89.7627 10.0382 89.6238 9.57676 89.4792 9.12092ZM108.188 5.50199V29H103.268V5.50199H108.188ZM116.289 15.1413V29H111.92V5.50199H117.54L127.93 23.7467C127.73 22.0568 127.63 20.528 127.63 19.1605V5.50199H131.999V29H126.229L115.989 10.9054C116.089 11.7837 116.161 12.5786 116.206 13.2902C116.262 13.9906 116.289 14.6077 116.289 15.1413ZM154.91 25.1976V29H135.748V5.50199H154.226V9.30436H140.668V15.2081H153.209V19.0104H140.668V25.1976H154.91ZM162.595 20.0778V29H157.675V5.50199H169.416C172.218 5.50199 174.38 6.10792 175.903 7.31979C177.426 8.52054 178.188 10.2494 178.188 12.5064C178.188 14.1518 177.721 15.5749 176.787 16.7757C175.853 17.9653 174.591 18.7492 173.001 19.1272L179.355 29H173.819L168.365 20.0778H162.595ZM173.235 12.7065C173.235 11.5836 172.874 10.7386 172.151 10.1716C171.428 9.60455 170.344 9.32104 168.899 9.32104H162.595V16.2587H169.032C170.411 16.2587 171.456 15.9474 172.168 15.3248C172.879 14.7022 173.235 13.8294 173.235 12.7065Z" fill="black"/>
<path d="M205.028 25.1976V29H185.866V5.50199H204.344V9.30436H190.786V15.2081H203.327V19.0104H190.786V25.1976H205.028ZM216.915 19.6442L211.012 29H205.809L213.947 16.6423L206.492 5.50199H211.696L216.915 13.8072L222.135 5.50199H227.305L220.167 16.6423L227.989 29H222.819L216.915 19.6442ZM249.049 12.94C249.049 14.4631 248.699 15.814 247.998 16.9925C247.309 18.1599 246.325 19.0771 245.046 19.7442C243.768 20.4002 242.245 20.7282 240.477 20.7282H234.64V29H229.72V5.50199H240.277C243.09 5.50199 245.252 6.1524 246.764 7.45321C248.287 8.7429 249.049 10.5718 249.049 12.94ZM244.096 13.0234C244.096 10.5551 242.639 9.32104 239.726 9.32104H234.64V16.9425H239.86C241.216 16.9425 242.261 16.6089 242.995 15.9418C243.729 15.2636 244.096 14.2908 244.096 13.0234ZM274.495 17.1426C274.495 19.5886 274 21.7288 273.01 23.5633C272.032 25.3866 270.648 26.8042 268.858 27.8159C267.079 28.8277 264.989 29.3335 262.587 29.3335C260.13 29.3335 258.018 28.8443 256.25 27.866C254.482 26.8765 253.126 25.47 252.181 23.6467C251.236 21.8233 250.763 19.6553 250.763 17.1426C250.763 14.6299 251.23 12.4786 252.164 10.6886C253.109 8.89856 254.466 7.53103 256.233 6.586C258.012 5.62985 260.141 5.15177 262.621 5.15177C265.111 5.15177 267.24 5.63541 269.008 6.60268C270.776 7.55883 272.132 8.93191 273.077 10.7219C274.022 12.5119 274.495 14.6521 274.495 17.1426ZM269.475 17.1426C269.475 14.6077 268.875 12.6231 267.674 11.1889C266.473 9.74353 264.789 9.02085 262.621 9.02085C260.419 9.02085 258.718 9.73797 257.517 11.1722C256.317 12.5953 255.716 14.5854 255.716 17.1426C255.716 18.8548 255.994 20.3335 256.55 21.5787C257.106 22.8239 257.895 23.7856 258.918 24.4638C259.952 25.1309 261.175 25.4645 262.587 25.4645C264.789 25.4645 266.484 24.7418 267.674 23.2964C268.875 21.8511 269.475 19.7998 269.475 17.1426Z" fill="#C94A0E"/>
</svg>
