<svg width="222" height="57" viewBox="0 0 222 57" fill="none" xmlns="http://www.w3.org/2000/svg">
<mask id="mask0_4_117" style="mask-type:luminance" maskUnits="userSpaceOnUse" x="0" y="0" width="72" height="57">
<path d="M71.9046 0H0V56.9244H71.9046V0Z" fill="white"/>
</mask>
<g mask="url(#mask0_4_117)">
<path opacity="0.4" d="M62.0148 40.6546C61.9576 40.604 61.9004 40.5533 61.8464 40.5059L62.0705 40.5545C62.0541 40.59 62.0344 40.6224 62.0148 40.6546Z" fill="white"/>
<path d="M60.9706 41.5529L60.9319 41.5662L60.8448 41.6089L51.5481 45.5523C51.4515 45.5918 51.3516 45.6284 51.2515 45.6649C51.2064 45.6847 51.1549 45.6982 51.1033 45.7179C51.055 45.7346 51.0066 45.7512 50.9615 45.7647C50.8875 45.7881 50.8166 45.8081 50.7425 45.8315C50.7167 45.8382 50.6941 45.8481 50.6716 45.8516C50.5783 45.8751 50.485 45.8988 50.3948 45.919C50.3916 45.9223 50.3852 45.9224 50.3852 45.9224C49.0948 46.2106 47.7641 46.1077 46.5313 45.609L46.5089 45.5998L41.0055 43.3966L40.734 43.2874L36.4667 41.5863L32.3697 43.3491L31.1405 43.8805L26.5789 45.848C25.3338 46.3763 24.0003 46.5111 22.7196 46.2568C22.7165 46.2536 22.71 46.2538 22.7067 46.2505C22.6139 46.2357 22.5211 46.2142 22.4315 46.1897C22.4059 46.1835 22.3803 46.1774 22.3547 46.1714C22.2843 46.153 22.2139 46.1345 22.1403 46.113C22.0924 46.0974 22.0445 46.082 21.9965 46.0665C21.9454 46.0478 21.9007 46.0355 21.8494 46.0169C21.7535 45.9859 21.6545 45.9455 21.5588 45.908L13.8039 42.7723L12.2964 42.1612L12.2325 42.1363C11.6321 41.8932 11.1759 41.3917 10.9909 40.7648L10.7317 39.8949L10.6885 39.7478L7.94007 30.4703C7.75803 29.8595 8.03882 29.1919 8.61378 28.8833L16.3372 24.7245L17.4225 24.1403L17.9329 23.8645C18.5273 23.5429 19.0177 23.0524 19.3426 22.4549L19.6249 21.9315L20.2257 20.8107L24.3614 13.1357C24.6732 12.5639 25.3377 12.2799 25.9484 12.462L34.4487 14.979L35.3634 15.2505L35.9358 15.4202C36.5755 15.6115 37.2656 15.6 37.9101 15.3934L38.4544 15.2231L38.9666 15.0598L47.9614 12.1984C48.5768 12.0017 49.2347 12.2698 49.5328 12.8343L54.057 21.5096L54.0694 21.5351L54.3298 22.0359C54.6373 22.6228 55.1162 23.1017 55.7063 23.4122L56.2292 23.6885L57.1351 24.159L64.9045 28.2125C65.4691 28.5043 65.7373 29.1685 65.5404 29.7839L63.0325 37.6769L62.5222 39.2844L62.2455 40.1512C62.0454 40.7826 61.5771 41.2952 60.9706 41.5529Z" fill="url(#paint0_linear_4_117)"/>
<path d="M62.2455 40.1525L62.5222 39.2859L63.0326 37.6784L65.5404 29.7854C65.7373 29.17 65.4691 28.5056 64.9045 28.214L57.1351 24.1605L56.2292 23.69L55.7063 23.4138C55.1162 23.1031 54.6373 22.6243 54.3299 22.0374L54.0694 21.5366L54.057 21.5111L49.5328 12.8358C49.2347 12.2713 48.5768 12.0032 47.9615 12.1999L38.9666 15.0613L38.4544 15.2246L37.91 15.3947C37.2656 15.6015 36.5755 15.613 35.936 15.4217L35.3634 15.252L34.4489 14.9805L25.9484 12.4634C25.3377 12.2814 24.6732 12.5654 24.3614 13.1372L20.2257 20.8122L19.6249 21.933L19.3426 22.4562C19.0177 23.0539 18.5273 23.5444 17.9329 23.866L17.4225 24.1418L16.3372 24.726L8.61378 28.8848C8.03882 29.1932 7.75803 29.861 7.94007 30.4718L10.6885 39.7493L10.7317 39.8964L10.9909 40.7663C11.1759 41.393 11.6321 41.8947 12.2325 42.1378L12.2964 42.1627L13.8039 42.7738L21.5588 45.9095C21.6545 45.9468 21.7535 45.9874 21.8496 46.0183C21.9006 46.037 21.9454 46.0493 21.9965 46.0679C22.0444 46.0835 22.0924 46.0989 22.1405 46.1143C22.214 46.1359 22.2843 46.1543 22.3547 46.1727C22.3803 46.1789 22.4059 46.185 22.4315 46.1912C22.5211 46.2157 22.614 46.237 22.7069 46.252C22.71 46.2551 22.7165 46.2551 22.7196 46.2583C24.0002 46.5125 25.3338 46.3778 26.5789 45.8495L31.1405 43.882L32.3696 43.3506L36.4667 41.5878L40.7341 43.2889L41.0055 43.398L46.5089 45.6011L46.5312 45.6105C47.7641 46.1092 49.0948 46.2121 50.3852 45.9238C50.3852 45.9238 50.3916 45.9238 50.3948 45.9205C50.4849 45.9001 50.5783 45.8766 50.6716 45.8531C50.6942 45.8495 50.7167 45.8396 50.7425 45.8328C50.8166 45.8095 50.8875 45.7894 50.9615 45.766C51.0066 45.7527 51.0549 45.7361 51.1033 45.7194C51.1549 45.6995 51.2064 45.6862 51.2516 45.6663C51.3516 45.6299 51.4515 45.5933 51.5482 45.5536L60.8448 41.6104L60.9319 41.5676L60.9706 41.5544C61.5771 41.2967 62.0454 40.7841 62.2455 40.1525ZM54.8729 24.393C55.192 24.2769 55.5288 24.2953 55.8191 24.449L64.4944 28.973C64.7048 29.0797 64.8014 29.3192 64.7282 29.5448L61.7134 39.0229C61.6132 39.345 61.3855 39.6044 61.0822 39.7493C60.7787 39.8941 60.4415 39.9078 60.135 39.7831L50.4255 35.8555C50.0358 35.6997 49.855 35.2525 50.0234 34.8559L50.575 33.5559C50.5849 33.5333 50.5948 33.5171 50.6013 33.4978L54.1847 25.0431C54.32 24.7366 54.5634 24.5058 54.8729 24.393ZM53.399 24.7251C53.399 24.7251 53.3957 24.7348 53.3924 24.738L49.7893 33.2314C49.1721 34.6607 48.0513 35.7876 46.6316 36.4208L37.9673 40.0935C37.832 40.14 37.7429 40.0704 37.7081 40.0355C37.6732 40.0006 37.5941 39.9022 37.6536 39.7538L41.2765 31.2152C41.2765 31.2152 41.2897 31.1829 41.2931 31.1669C41.9301 29.699 43.0896 28.5522 44.5606 27.9249L45.7767 27.4128L53.0152 24.3415C53.2636 24.239 53.5046 24.48 53.399 24.7251ZM38.7176 16.0271L48.1988 13.0154C48.376 12.9588 48.5616 13.0079 48.6852 13.1316C48.717 13.1633 48.7486 13.2014 48.7706 13.2429L53.2978 21.9214C53.4483 22.2149 53.4667 22.5516 53.3539 22.8674C53.2345 23.1834 53.0006 23.4301 52.6909 23.5622L44.2459 27.1423L42.8813 27.7202C42.4878 27.8855 42.0407 27.7047 41.8817 27.3117L41.3519 26.0023C41.3519 26.0023 41.3424 25.98 41.3393 25.9704L37.9605 17.6087C37.8357 17.302 37.8495 16.965 37.9944 16.6615C38.1424 16.3548 38.3987 16.1303 38.7176 16.0271ZM37.1639 17.936L37.1702 17.9423L40.5582 26.3392C41.1347 27.7924 41.1188 29.3878 40.5106 30.8521C40.5008 30.8683 40.4943 30.8812 40.4908 30.8972L36.8679 39.4359L36.8712 39.439C36.8053 39.581 36.6799 39.5986 36.6285 39.5992C36.5771 39.5998 36.4522 39.5852 36.3897 39.4447L32.9735 30.9872C32.9672 30.9681 32.9578 30.9522 32.9483 30.9362C32.3785 29.4764 32.4042 27.8649 33.0252 26.394L36.6117 17.9426C36.7175 17.6973 37.0641 17.6931 37.1639 17.936ZM35.5382 40.0616C35.5024 40.0973 35.3988 40.1756 35.2583 40.1194L26.8008 36.7032C26.8008 36.7032 26.7689 36.6908 26.7497 36.6846C25.3029 36.0826 24.1805 34.9534 23.588 33.497L20.2124 25.1321L20.2061 25.1258C20.1096 24.8799 20.3565 24.633 20.6025 24.7295C20.6056 24.7326 20.6088 24.7359 20.612 24.7326L29.0247 28.1365C30.4586 28.7323 31.5654 29.8456 32.158 31.2762C32.1643 31.2889 32.1704 31.3081 32.1767 31.3274L35.5994 39.7783C35.6522 39.9221 35.5739 40.0258 35.5382 40.0616ZM25.1142 13.5261C25.2258 13.3194 25.4677 13.217 25.6915 13.2849L35.1034 16.0703C35.2888 16.1258 35.4514 16.2234 35.5845 16.3566C35.6765 16.4486 35.7554 16.5599 35.8116 16.6877C35.9493 16.9877 35.9548 17.3246 35.8227 17.6343L31.6648 27.4373C31.4932 27.8309 31.0415 28.0225 30.6519 27.8667L29.3616 27.3429C29.3616 27.3429 29.3264 27.3273 29.3073 27.3212L20.9328 23.936C20.6327 23.8112 20.4109 23.57 20.299 23.2632C20.1905 22.9468 20.2202 22.6126 20.3778 22.3156L25.1142 13.5261ZM13.1045 40.3462C12.798 40.4751 12.4643 40.4727 12.1611 40.3318C11.8611 40.1942 11.6426 39.9433 11.5502 39.6234L8.75835 30.2117C8.69361 29.9911 8.79924 29.7458 9.00598 29.6342L17.7922 24.9011C18.0892 24.7435 18.4235 24.7139 18.7398 24.8223C18.9028 24.8814 19.0526 24.9727 19.1699 25.09C19.2746 25.1947 19.3597 25.3252 19.4189 25.469L22.7978 33.8306L23.3401 35.1785C23.4959 35.5682 23.3074 36.023 22.9107 36.1913L21.5914 36.7497C21.5914 36.7497 21.5657 36.7562 21.5526 36.7628L13.1045 40.3462ZM32.0485 42.5681L30.8226 43.0963C30.8226 43.0963 30.8129 43.0996 30.8096 43.1029L26.261 45.0638C26.261 45.0638 26.2545 45.0702 26.2512 45.0735C25.5093 45.384 24.7373 45.5344 23.9703 45.5276C23.9671 45.5308 23.9607 45.531 23.9576 45.5277C23.598 45.5256 23.2487 45.4882 22.9061 45.4183C22.8197 45.4034 22.7364 45.3851 22.6565 45.3637C22.6405 45.3607 22.6213 45.3544 22.6053 45.3514C22.538 45.3361 22.4709 45.3145 22.4037 45.2993C22.3686 45.2837 22.3334 45.2744 22.2951 45.2621C22.2471 45.2465 22.199 45.2311 22.1511 45.2157C22.0681 45.1845 21.9785 45.1535 21.8988 45.1192L13.4126 41.6872C13.1698 41.5875 13.174 41.2408 13.4223 41.1384L13.432 41.1349L21.9125 37.5385C23.3736 36.9272 24.9689 36.9113 26.4159 37.4813C26.4351 37.4876 26.4479 37.4937 26.467 37.5L34.9247 40.9162L35.0938 40.988C35.2088 41.0316 35.3239 41.075 35.4422 41.109L32.0516 42.5714L32.0485 42.5681ZM59.8011 41.1318L51.2335 44.7648C51.1463 44.801 51.0626 44.8341 50.9723 44.8674C50.9336 44.8807 50.8917 44.8972 50.8466 44.9105C50.8046 44.9271 50.7595 44.9405 50.7209 44.9538C50.6565 44.9739 50.5954 44.9907 50.5341 45.0074C50.5116 45.0173 50.489 45.0208 50.4665 45.0307C50.3892 45.0509 50.3088 45.0678 50.2315 45.088C50.225 45.088 50.2186 45.0882 50.2155 45.0915C49.8744 45.1661 49.524 45.2121 49.1707 45.2227C49.1707 45.2227 49.158 45.2229 49.1547 45.2262C48.4869 45.247 47.8237 45.149 47.1812 44.9288C47.0758 44.8948 46.9735 44.8575 46.8681 44.817L41.3041 42.592L41.09 42.508L37.6212 41.1182C37.7983 41.0743 37.9659 41.0145 38.1304 40.9451L38.2787 40.8857C38.2787 40.8857 38.298 40.8789 38.3078 40.8756L46.8463 37.2527C46.8786 37.2395 46.9141 37.223 46.9496 37.2065L46.9561 37.2001C48.3722 36.6022 49.9257 36.5837 51.3246 37.151L59.8077 40.5798C60.0504 40.6795 60.0463 41.0262 59.8011 41.1318Z" fill="white"/>
<path opacity="0.4" d="M8.81517 29.812L8.72437 29.8901L8.76908 29.9088C8.78229 29.8766 8.79877 29.8411 8.81517 29.812ZM62.0712 40.5547L61.8472 40.506C61.9012 40.5537 61.9584 40.6043 62.0155 40.6549C62.0351 40.6226 62.0547 40.5902 62.0712 40.5547Z" fill="white"/>
<path opacity="0.4" d="M46.6383 36.4205L37.9739 40.093C37.8386 40.1396 37.7495 40.0701 37.7146 40.0352L53.3453 24.4045L53.3486 24.4014C53.4278 24.4806 53.4584 24.6022 53.4057 24.7248C53.4055 24.7312 53.4024 24.7344 53.3991 24.7377L49.7959 33.2311C49.1787 34.6602 48.0579 35.7873 46.6383 36.4205Z" fill="white"/>
<path opacity="0.4" d="M59.8054 41.1313L51.2379 44.7643C51.1508 44.8007 51.0669 44.8337 50.9768 44.8669C50.9381 44.8803 50.8962 44.8967 50.8511 44.9101C50.8091 44.9267 50.764 44.94 50.7254 44.9534C50.661 44.9734 50.5997 44.9902 50.5386 45.007C50.516 45.0169 50.4935 45.0203 50.4709 45.0302C50.3936 45.0504 50.3131 45.0674 50.236 45.0876C50.2327 45.0909 50.2231 45.0877 50.2198 45.091C49.8787 45.1656 49.5283 45.2116 49.1753 45.2223C49.1688 45.2224 49.1624 45.2224 49.1591 45.2257C48.4913 45.2465 47.8281 45.1486 47.1857 44.9284C47.0803 44.8943 46.978 44.857 46.8725 44.8166L41.3084 42.5918L41.0944 42.5076L37.6257 41.1177L59.9888 40.834C59.997 40.9526 59.9377 41.0753 59.8054 41.1313Z" fill="white"/>
<path opacity="0.4" d="M36.6333 39.5981L36.8755 17.7587C36.9945 17.7476 37.1157 17.8039 37.1687 17.9349L37.175 17.9411L40.563 26.3381C41.1395 27.7915 41.1236 29.3867 40.5155 30.851C40.5057 30.8672 40.4991 30.8801 40.4956 30.8963L36.8728 39.4348L36.876 39.4379C36.8101 39.5799 36.6847 39.5975 36.6333 39.5981Z" fill="white"/>
<path opacity="0.4" d="M35.5432 40.0611L20.2759 24.8004C20.3571 24.7192 20.4828 24.6823 20.6074 24.7291C20.6105 24.7322 20.6137 24.7353 20.617 24.732L29.0297 28.136C30.4636 28.7317 31.5703 29.8451 32.1662 31.2725C32.1725 31.2852 32.1786 31.3044 32.1848 31.3236L35.6076 39.7746C35.6603 39.9184 35.5821 40.0221 35.5463 40.0578L35.5432 40.0611Z" fill="white"/>
<path opacity="0.4" d="M35.4447 41.1046L13.2354 41.4121C13.2367 41.2966 13.2991 41.1835 13.4248 41.1339L13.4345 41.1305L21.9149 37.534C23.3761 36.9227 24.9715 36.9068 26.4184 37.4768C26.4376 37.4831 26.4503 37.4893 26.4695 37.4955L34.9271 40.9118L35.0962 40.9835C35.2113 41.0271 35.3263 41.0706 35.4447 41.1046Z" fill="white"/>
<path opacity="0.4" d="M12.1618 40.3313C11.8617 40.1938 11.6433 39.9427 11.5508 39.6229L8.75903 30.2112C8.73135 30.112 8.73581 30.0061 8.76907 29.9093L8.72437 29.8906L8.81516 29.8126C8.86094 29.7414 8.92591 29.6764 9.00665 29.6337L9.08414 29.5943L17.7928 24.9006C18.09 24.743 18.4241 24.7133 18.7405 24.8219L15.461 32.5541L15.4478 32.5863L12.1618 40.3313Z" fill="white"/>
<path opacity="0.4" d="M53.3522 22.8681L45.6932 19.776L37.9927 16.6621C38.1407 16.3555 38.397 16.1309 38.7159 16.0276L48.1971 13.0161C48.3099 12.9794 48.4286 12.9876 48.5274 13.0346C48.5883 13.0563 48.6392 13.0878 48.6835 13.1322C48.7153 13.1639 48.7502 13.1988 48.7689 13.2435L53.2961 21.922C53.4466 22.2154 53.465 22.5522 53.3522 22.8681Z" fill="white"/>
<path opacity="0.4" d="M23.3402 35.7478L15.4478 32.5847L8.76907 29.9079L8.72437 29.8892L8.81516 29.811L9.08414 29.5927L17.7928 24.8992C18.09 24.7416 18.4241 24.7119 18.7404 24.8204C18.9034 24.8794 19.0532 24.9706 19.1705 25.0881C19.2752 25.1926 19.3603 25.3232 19.4196 25.4669L22.7984 33.8287L23.3407 35.1766C23.4187 35.3649 23.413 35.5672 23.3402 35.7478Z" fill="white"/>
<path opacity="0.4" d="M53.3513 22.8668C53.232 23.1827 52.9979 23.4294 52.6883 23.5614L44.2432 27.1415L42.8788 27.7196C42.7013 27.7954 42.512 27.8009 42.3425 27.7419L45.6922 19.7747L48.5266 13.0332C48.5873 13.0549 48.6384 13.0864 48.6827 13.1308C48.7145 13.1625 48.7492 13.1974 48.768 13.2421L53.2952 21.9206C53.4458 22.2141 53.4642 22.5509 53.3513 22.8668Z" fill="white"/>
<path opacity="0.4" d="M30.0759 25.0352L20.299 23.2619C20.1904 22.9455 20.2201 22.6113 20.3776 22.3143L25.1141 13.5248C25.1633 13.4311 25.2379 13.3628 25.3284 13.3168L25.4283 13.2803C25.5152 13.2568 25.6051 13.2557 25.6914 13.2836L35.1032 16.069C35.2887 16.1245 35.4512 16.222 35.5844 16.3553C35.6764 16.4473 35.7553 16.5586 35.8115 16.6864L30.0759 25.0352Z" fill="white"/>
<path opacity="0.4" d="M61.7142 39.0219C61.6142 39.3441 61.3863 39.6035 61.083 39.7484L52.8911 34.2461L52.8879 34.2429L54.8737 24.392C55.1929 24.2759 55.5297 24.2943 55.8198 24.448L64.4951 28.9722C64.6259 29.0379 64.7111 29.1557 64.7417 29.2902C64.76 29.3733 64.7556 29.4601 64.729 29.5438L61.7142 39.0219Z" fill="white"/>
<path opacity="0.4" d="M61.7142 39.0219C61.6142 39.3441 61.3863 39.6035 61.083 39.7484L52.8911 34.2461L52.8879 34.2429L54.8737 24.392C55.1929 24.2759 55.5297 24.2943 55.8198 24.448L64.4951 28.9722C64.6259 29.0379 64.7111 29.1557 64.7417 29.2902C64.76 29.3733 64.7556 29.4601 64.729 29.5438L61.7142 39.0219Z" fill="#FAD9A1"/>
<path opacity="0.4" d="M31.2212 27.8599L30.0739 25.0366L25.3264 13.3183L25.4263 13.2818C25.5132 13.2583 25.6031 13.2572 25.6894 13.2851L35.1012 16.0704C35.2867 16.126 35.4492 16.2235 35.5824 16.3567C35.6744 16.4487 35.7533 16.5601 35.8097 16.6877C35.9472 16.9878 35.9529 17.3247 35.8207 17.6345L31.6627 27.4375C31.5737 27.6408 31.4113 27.7903 31.2212 27.8599Z" fill="white"/>
<path opacity="0.4" d="M61.0827 39.7502C60.7792 39.8951 60.4421 39.9087 60.1355 39.7841L50.426 35.8564C50.2312 35.7785 50.0886 35.6295 50.0168 35.4473L52.8876 34.2449L52.8908 34.248L64.7414 29.292C64.7597 29.3753 64.7553 29.462 64.7287 29.5458L61.7139 39.0238C61.6139 39.3459 61.386 39.6054 61.0827 39.7502Z" fill="#FFFACC" fill-opacity="0.79"/>
<path d="M62.1414 40.2206L65.4364 29.8533C65.6696 29.1316 65.3581 28.3587 64.6946 28.0136L55.4962 23.2134C54.9413 22.9247 54.4973 22.4808 54.2149 21.9321L49.418 12.7305C49.3427 12.5902 49.251 12.4726 49.1433 12.3647C48.7436 11.9651 48.1453 11.8086 47.5783 11.9887L37.5268 15.1837C36.9147 15.3771 36.276 15.388 35.6844 15.2122L25.6968 12.2539C24.9869 12.0378 24.2063 12.368 23.8422 13.0367L18.8234 22.3559C18.5182 22.9148 18.0634 23.3695 17.5078 23.6715L8.18872 28.6901C7.52009 29.048 7.18981 29.8286 7.40588 30.5449L10.4567 40.8393C10.6539 41.5237 11.1639 42.0858 11.8282 42.3538L21.2566 46.1692C21.3206 46.1941 21.3877 46.2158 21.442 46.2311L21.7553 46.3365C21.8128 46.3551 21.8736 46.3704 21.944 46.3888L22.1007 46.4287C22.1455 46.4409 22.1967 46.4532 22.2448 46.4622L22.3536 46.4866C23.6919 46.753 25.0705 46.605 26.3447 46.0601L32.129 43.5677C32.2935 43.4984 37.0203 41.4013 37.0897 41.2367C37.1559 41.0755 36.5574 41.3568 36.492 41.2003C36.4329 41.0373 36.2942 40.6686 36.1345 40.6063C35.9747 40.544 31.8008 42.2976 31.6428 42.3669L25.781 44.8923C25.0878 45.1733 24.3735 45.3102 23.6548 45.2996L23.5713 45.3006C23.2665 45.2947 22.9492 45.263 22.6291 45.1964C22.5458 45.1781 22.4689 45.1661 22.3825 45.1447L22.2481 45.1079C22.2162 45.1019 22.1937 45.0924 22.1681 45.0863L22.1202 45.0709C22.1202 45.0709 22.0818 45.0584 22.0531 45.0491L21.8453 44.9778C21.7942 44.9593 21.7431 44.9405 21.6888 44.9188L13.0237 41.4184L21.672 37.7492C23.0686 37.1645 24.6093 37.1459 26.0053 37.6909L26.0532 37.7128L34.6864 41.2007C35.6988 41.6091 36.8672 41.595 37.8898 41.1624L46.7219 37.4172C48.08 36.8393 49.5693 36.8215 50.9172 37.3637L59.5567 40.858L50.7632 44.5898C50.702 44.6131 50.6407 44.6363 50.5827 44.6562L50.4377 44.7061C50.4377 44.7061 50.4055 44.7194 50.3474 44.7393L50.1736 44.7864L49.81 44.8644L49.7873 44.8872L49.7551 44.8941C49.4655 44.9552 49.1634 44.991 48.8552 45.001L48.6978 45.0061C48.101 45.0069 47.5051 44.9113 46.933 44.716C46.8371 44.6851 46.7348 44.6478 46.6389 44.6104L37.4146 40.9119C37.108 40.7873 36.6526 40.9256 36.492 41.2003C36.3315 41.4621 36.076 41.1976 36.2854 41.4069C36.3488 41.4702 36.364 41.5375 36.4439 41.5655L46.1237 45.8233C47.3789 46.3314 48.748 46.4466 50.077 46.1578L50.1636 46.1536L50.183 46.1341L50.2636 46.1108C50.299 46.1007 50.3409 46.0906 50.373 46.0837C50.4021 46.0802 50.431 46.0702 50.4858 46.0535L50.7499 45.9733C50.7821 45.9601 50.8176 45.95 50.8596 45.9336L51.1076 45.8438C51.1753 45.8206 51.2463 45.7941 51.3107 45.7676L60.7299 41.7715C61.4075 41.481 61.9213 40.9164 62.1414 40.2206ZM38.4608 16.2476L47.9422 13.236C48.0451 13.2091 48.1411 13.24 48.2298 13.3289L48.2455 13.3576L52.7695 22.0329C52.8952 22.2624 52.9144 22.5351 52.8246 22.7896C52.7253 23.0475 52.5367 23.2489 52.2884 23.3576L42.4789 27.5158C42.3466 27.5718 42.1989 27.5736 42.0616 27.5207C41.9945 27.4926 41.9372 27.4548 41.8865 27.4041C41.839 27.3566 41.7979 27.296 41.7698 27.2289L37.8486 17.5259C37.7521 17.2734 37.7618 17.0038 37.877 16.7617C37.9987 16.5131 38.2063 16.3309 38.4608 16.2476ZM24.9935 13.6359C25.0526 13.5261 25.1752 13.4733 25.2999 13.5071L34.715 16.2893C34.9772 16.3695 35.1773 16.5501 35.2835 16.7927C35.3962 17.0288 35.4026 17.3016 35.2936 17.5564L31.1357 27.3531C31.0136 27.6337 30.6942 27.7691 30.4195 27.6634L20.7068 23.7326C20.5919 23.6827 20.4932 23.6165 20.4077 23.5308C20.3124 23.4357 20.2432 23.3209 20.1935 23.1867C20.1099 22.9341 20.1322 22.6708 20.2571 22.4254L24.9935 13.6359ZM22.5082 35.9869L12.702 40.1416C12.4536 40.2506 12.1808 40.2443 11.9384 40.1252C11.8362 40.0814 11.7471 40.0184 11.671 39.9423C11.5663 39.8375 11.4876 39.7069 11.4477 39.5565L8.65266 30.1481C8.61878 30.0298 8.68135 29.8973 8.79117 29.8383L17.5773 25.1052C17.8196 24.9771 18.0831 24.9547 18.3356 25.0384C18.588 25.1284 18.7784 25.3058 18.8878 25.5581L22.8121 35.2707C22.921 35.5487 22.7856 35.868 22.5082 35.9869ZM26.5811 36.4998L26.5396 36.4842C25.8371 36.1909 25.2163 35.7779 24.6993 35.261C24.1824 34.744 23.7631 34.1168 23.4762 33.4142L20.1599 25.1865L20.3418 25.0047L28.6108 28.3493C29.984 28.9235 31.0591 29.9985 31.6299 31.375L34.9964 39.7047L35.045 39.9223L26.5811 36.4998ZM32.8741 30.9236C32.8617 30.898 32.8491 30.8661 32.843 30.8534C32.2918 29.4318 32.3232 27.8845 32.9146 26.4813L36.5703 17.8718L40.0303 26.4314C40.5784 27.8241 40.5666 29.3584 39.9882 30.755C39.9717 30.7905 39.9618 30.8066 39.9617 30.8194L36.3091 39.4257L32.8741 30.9236ZM46.2228 36.2164L37.51 39.912L41.189 31.2412C41.7996 29.8379 42.9136 28.7365 44.3233 28.1387L52.9359 24.4861L49.2634 33.1504C48.6726 34.5151 47.594 35.6063 46.2228 36.2164ZM60.6667 39.545C60.4278 39.6698 60.1549 39.6762 59.9026 39.5797L50.1931 35.6523C50.1228 35.6209 50.0687 35.5799 50.018 35.5291C49.9705 35.4816 49.9326 35.4243 49.9077 35.3604C49.8515 35.2262 49.8533 35.0787 49.9127 34.9431L54.074 25.1368C54.1764 24.8884 54.3743 24.7031 54.6259 24.6103C54.8837 24.5172 55.1594 24.5333 55.3891 24.6589L64.0708 29.1828C64.0996 29.1921 64.1217 29.2144 64.1345 29.227C64.2011 29.2936 64.2224 29.3928 64.1956 29.483L61.1744 38.9677C61.131 39.1125 61.0523 39.2418 60.9452 39.349C60.8574 39.4367 60.7668 39.502 60.6667 39.545Z" fill="white"/>
<path opacity="0.38" d="M61.6837 39.0648C61.5836 39.3869 61.3558 39.6465 61.0524 39.7914L52.8606 34.289L52.8574 34.2859L54.8432 24.4349C55.1623 24.3189 55.499 24.3373 55.7893 24.491L64.4646 29.0151C64.5954 29.0809 64.6806 29.1986 64.7112 29.3331C64.7295 29.4163 64.7251 29.503 64.6985 29.5868L61.6837 39.0648Z" fill="#FFFA87" fill-opacity="0.19"/>
</g>
<path d="M81.5753 17.1035H86.3439L82.3423 40.4465H77.6069L81.5753 17.1035ZM92.716 28.5749L93.0829 26.4406H96.651C97.2957 26.4406 97.8848 26.3295 98.4184 26.1072C98.9741 25.8627 99.43 25.5403 99.7856 25.1402C100.164 24.7178 100.408 24.2065 100.519 23.6063C100.653 22.7614 100.453 22.1056 99.9189 21.6388C99.4077 21.1497 98.7073 20.905 97.8181 20.905H95.2504L92.5159 36.645H95.3504C96.1063 36.645 96.8288 36.5226 97.518 36.2781C98.2071 36.0113 98.7852 35.6333 99.252 35.1442C99.7411 34.633 100.052 33.9771 100.186 33.1768C100.297 32.4432 100.208 31.8429 99.9189 31.376C99.6523 30.887 99.2298 30.5202 98.6518 30.2756C98.096 30.0311 97.4625 29.9088 96.7511 29.9088L92.4826 29.8754L92.9494 27.3077H97.3513C98.3962 27.3077 99.3966 27.4412 100.352 27.7078C101.331 27.9524 102.187 28.3415 102.92 28.8751C103.654 29.4087 104.199 30.0867 104.554 30.9092C104.932 31.7318 105.043 32.6989 104.888 33.8104C104.665 35.3444 104.099 36.6005 103.187 37.5787C102.298 38.5569 101.175 39.2794 99.819 39.7461C98.485 40.2131 97.0179 40.4465 95.4171 40.4465H87.1804L91.1821 17.1035H98.6185C99.6189 17.1035 100.564 17.2258 101.453 17.4704C102.342 17.7149 103.109 18.0817 103.754 18.5708C104.421 19.0599 104.899 19.6824 105.188 20.4383C105.499 21.1718 105.588 22.0278 105.455 23.006C105.255 24.2509 104.732 25.2846 103.887 26.1072C103.065 26.9297 102.042 27.5523 100.819 27.9746C99.6189 28.3749 98.3294 28.5749 96.9511 28.5749H92.716ZM129.553 31.7429L136.656 17.1035H142.258L128.886 41.8137L124.117 26.4741L114.547 41.8471L108.845 17.1035H114.247L116.781 31.7096L125.651 15.8696L129.553 31.7429ZM139.315 40.4465L151.287 29.3753C151.843 28.8195 152.376 28.2748 152.887 27.7412C153.42 27.2076 153.865 26.6519 154.222 26.0739C154.599 25.4737 154.833 24.8289 154.921 24.1397C155.011 23.6063 154.954 23.0838 154.755 22.5725C154.554 22.0611 154.232 21.6499 153.787 21.3386C153.344 21.0274 152.766 20.8606 152.054 20.8384C151.209 20.8162 150.465 21.0274 149.819 21.472C149.197 21.9167 148.686 22.4946 148.286 23.206C147.908 23.9174 147.63 24.6844 147.452 25.5069H142.85C143.117 23.9063 143.661 22.439 144.484 21.1052C145.329 19.749 146.429 18.6709 147.785 17.8705C149.141 17.0701 150.731 16.67 152.554 16.67C154.154 16.67 155.522 17.0146 156.656 17.7038C157.811 18.3929 158.668 19.2933 159.224 20.4049C159.802 21.4942 159.991 22.6502 159.79 23.8729C159.613 25.1624 159.134 26.3518 158.356 27.4412C157.579 28.5304 156.689 29.4975 155.688 30.3424L148.952 36.0447L158.356 36.078L157.657 40.4465H139.315ZM166.571 28.775C166.483 29.4419 166.427 30.1422 166.405 30.8758C166.405 31.6095 166.448 32.3209 166.538 33.01C166.627 33.6993 166.793 34.3217 167.039 34.8775C167.283 35.411 167.617 35.8446 168.039 36.178C168.462 36.4893 169.006 36.645 169.672 36.645C170.517 36.6671 171.284 36.4559 171.973 36.0113C172.662 35.5667 173.263 34.9664 173.774 34.2105C174.286 33.4325 174.708 32.5765 175.041 31.6428C175.398 30.6869 175.631 29.7309 175.742 28.775C175.808 28.1081 175.853 27.4078 175.875 26.6742C175.898 25.9405 175.863 25.2291 175.775 24.54C175.687 23.8507 175.519 23.2394 175.275 22.7058C175.053 22.15 174.719 21.7165 174.274 21.4052C173.852 21.0718 173.318 20.894 172.674 20.8718C171.807 20.8718 171.029 21.0941 170.34 21.5387C169.672 21.9833 169.073 22.5947 168.538 23.3727C168.027 24.1286 167.605 24.9846 167.272 25.9405C166.938 26.8742 166.705 27.8191 166.571 28.775ZM162.037 28.775C162.236 27.1521 162.636 25.6181 163.237 24.1731C163.86 22.7281 164.648 21.4497 165.604 20.3382C166.582 19.2044 167.695 18.3151 168.94 17.6704C170.185 17.0256 171.563 16.7034 173.074 16.7034C174.297 16.7034 175.353 16.9257 176.242 17.3703C177.153 17.8149 177.898 18.4263 178.476 19.2044C179.077 19.9824 179.532 20.894 179.844 21.9388C180.176 22.9615 180.377 24.062 180.444 25.2401C180.51 26.3963 180.465 27.5745 180.311 28.775C180.088 30.3979 179.677 31.9319 179.077 33.3769C178.476 34.8219 177.699 36.1114 176.743 37.2452C175.786 38.3567 174.674 39.2349 173.408 39.8796C172.162 40.5242 170.773 40.8466 169.239 40.8466C168.017 40.8466 166.961 40.6243 166.071 40.1797C165.204 39.7351 164.471 39.1237 163.87 38.3456C163.27 37.5453 162.804 36.6337 162.47 35.6112C162.158 34.5885 161.959 33.4991 161.869 32.3431C161.803 31.1649 161.859 29.9755 162.037 28.775ZM180.477 40.4465L192.449 29.3753C193.005 28.8195 193.539 28.2748 194.051 27.7412C194.584 27.2076 195.029 26.6519 195.384 26.0739C195.762 25.4737 195.995 24.8289 196.084 24.1397C196.174 23.6063 196.118 23.0838 195.917 22.5725C195.718 22.0611 195.395 21.6499 194.951 21.3386C194.506 21.0274 193.928 20.8606 193.216 20.8384C192.372 20.8162 191.627 21.0274 190.983 21.472C190.36 21.9167 189.849 22.4946 189.449 23.206C189.07 23.9174 188.793 24.6844 188.615 25.5069H184.013C184.279 23.9063 184.825 22.439 185.647 21.1052C186.492 19.749 187.591 18.6709 188.949 17.8705C190.304 17.0701 191.894 16.67 193.717 16.67C195.317 16.67 196.684 17.0146 197.818 17.7038C198.975 18.3929 199.83 19.2933 200.386 20.4049C200.964 21.4942 201.153 22.6502 200.954 23.8729C200.775 25.1624 200.298 26.3518 199.519 27.4412C198.741 28.5304 197.851 29.4975 196.851 30.3424L190.116 36.0447L199.519 36.078L198.819 40.4465H180.477ZM201.132 36.1114L217.304 17.1369L220.573 17.1035L216.57 40.4465H211.736L212.736 34.5774L213.236 34.2105L214.804 24.9067L208.301 32.5432H216.138L216.804 32.0763H221.607L220.906 36.1446L201.132 36.1114Z" fill="black"/>
<defs>
<linearGradient id="paint0_linear_4_117" x1="63.7439" y1="21.9586" x2="9.34309" y2="35.9266" gradientUnits="userSpaceOnUse">
<stop offset="0.1" stop-color="#FFF42F"/>
<stop offset="0.3125" stop-color="#FFA232"/>
<stop offset="0.46875" stop-color="#F450B2"/>
<stop offset="0.71" stop-color="#3FCBFF"/>
<stop offset="0.96" stop-color="#D0D81D"/>
</linearGradient>
</defs>
</svg>
