<svg width="228" height="86" viewBox="0 0 228 86" fill="none" xmlns="http://www.w3.org/2000/svg">
<path fill-rule="evenodd" clip-rule="evenodd" d="M54.097 22.8943C49.9011 18.6984 42.2539 19.1996 34.2859 23.4957C33.0962 24.1361 33.1853 26.766 34.3115 27.4539C40.4999 31.2816 45.7104 36.4999 49.5288 42.694C50.2136 43.8211 52.874 43.8598 53.4956 42.7054C53.3493 42.4333 53.1988 42.1617 53.0439 41.8905C53.198 42.1617 53.3486 42.4333 53.4956 42.7054C57.7917 34.7374 58.2929 27.0902 54.097 22.8943ZM45.2296 31.7617C42.9507 29.4707 40.4538 27.4074 37.7745 25.601C40.8593 24.1745 43.7977 23.4097 46.2867 23.4097C48.5122 23.4097 50.3796 24.0199 51.674 25.3144C54.4206 28.061 54.0942 33.3769 51.3906 39.2171C49.5818 36.5393 47.5185 34.0426 45.2296 31.7617Z" fill="#FFC750"/>
<path fill-rule="evenodd" clip-rule="evenodd" d="M55.9491 48.4511C55.3136 46.463 54.4917 44.5393 53.4945 42.7057C52.8644 41.5342 50.2103 41.5695 49.5277 42.6943C47.6353 45.7893 45.3784 48.6462 42.8055 51.2037C40.2531 53.7778 37.4011 56.0366 34.3107 57.9316C33.1842 58.6195 33.1335 61.271 34.2851 61.8895C38.5265 64.1779 42.6769 65.3895 46.2657 65.3895C49.4162 65.3895 52.134 64.456 54.0959 62.4938C57.1664 59.4236 57.8222 54.4373 55.9491 48.4511ZM51.6729 60.0708C48.9263 62.8174 43.6133 62.4881 37.7734 59.7845C40.4527 57.978 42.9496 55.9147 45.2285 53.6238C47.5182 51.3469 49.5824 48.854 51.3923 46.1798C54.0931 52.0171 54.4195 57.327 51.6729 60.0708Z" fill="#FF6895"/>
<path fill-rule="evenodd" clip-rule="evenodd" d="M34.2854 23.495C32.4515 22.4964 30.5267 21.6745 28.5372 21.0404C22.5541 19.1676 17.5675 19.8231 14.4973 22.8933C12.5354 24.8555 11.6016 27.5737 11.6016 30.7244C11.6016 34.3132 12.8132 38.4661 15.0987 42.7079C15.7203 43.8595 18.3719 43.8074 19.0598 42.6794C22.8886 36.4857 28.1111 31.2719 34.3113 27.4535C35.4307 26.7733 35.454 24.1226 34.2857 23.4953M17.2069 39.2167C14.503 33.3765 14.174 28.0606 16.9206 25.314C19.043 23.1916 22.8066 22.8336 27.5151 24.3116C28.6425 24.6686 29.7464 25.0962 30.8201 25.5918C25.4636 29.2341 20.8446 33.857 17.2069 39.2167Z" fill="#5FC5A6"/>
<path fill-rule="evenodd" clip-rule="evenodd" d="M34.312 57.9312C31.211 56.039 28.3491 53.7803 25.7882 51.2039C23.2115 48.643 20.9526 45.7812 19.0603 42.6803C18.3777 41.5617 15.7265 41.5404 15.0992 42.7087C14.1028 44.5414 13.2819 46.4641 12.6474 48.4513C10.7715 54.4375 11.4301 59.4238 14.4975 62.494C16.4224 64.416 19.0975 65.3926 22.2995 65.3926C24.4199 65.3605 26.5232 65.007 28.5376 64.3443C30.5267 63.7089 32.4513 62.8871 34.2858 61.8897C35.2109 61.3945 35.43 58.614 34.3114 57.9315M27.5147 61.0766C22.8062 62.5512 19.0429 62.1934 16.9205 60.071C14.798 57.9486 14.44 54.185 15.9152 49.4765C16.2715 48.3498 16.6991 47.2468 17.1954 46.1743C19.0076 48.8509 21.0746 51.3457 23.3674 53.624C25.6449 55.918 28.141 57.9842 30.82 59.7932C29.7469 60.2913 28.643 60.7198 27.515 61.0763" fill="#5666F6"/>
<path fill-rule="evenodd" clip-rule="evenodd" d="M26.6543 42.4871L34.2987 30.4746L41.9431 42.4871L34.2987 46.8555L26.6543 42.4871Z" fill="#1F294F"/>
<path fill-rule="evenodd" clip-rule="evenodd" d="M26.6543 44.5391L34.2987 48.9072L41.9431 44.5391L34.2987 54.9135L26.6543 44.5391Z" fill="#1F294F"/>
<path fill-rule="evenodd" clip-rule="evenodd" d="M37.7745 25.6002C36.5873 26.1542 35.4313 26.7728 34.3118 27.4534C33.1852 26.7654 32.0194 26.1438 30.8203 25.5919C31.9397 24.8355 33.0964 24.1357 34.2859 23.4951C35.4545 24.1224 36.6174 24.8241 37.7745 25.6002Z" fill="#5F9A34"/>
<path fill-rule="evenodd" clip-rule="evenodd" d="M53.4961 42.7061C52.8528 43.8979 52.1512 45.0574 51.3939 46.1802C50.8364 44.9852 50.2139 43.8217 49.5293 42.6947C50.2116 41.5699 50.833 40.4093 51.3907 39.2178C52.1641 40.3718 52.8659 41.5346 53.4961 42.7061Z" fill="#FF512F"/>
<path fill-rule="evenodd" clip-rule="evenodd" d="M37.7745 59.7836C37.534 59.9469 37.2935 60.1043 37.0527 60.2589C36.1526 60.8388 35.2297 61.3825 34.2862 61.8886C33.1346 61.27 31.9793 60.5712 30.8203 59.7921C32.0194 59.2402 33.1852 58.6186 34.3118 57.9307C35.4301 58.6131 36.5862 59.2317 37.7745 59.7836Z" fill="#552990"/>
<path fill-rule="evenodd" clip-rule="evenodd" d="M19.0607 42.6785C18.3727 43.8066 17.7501 44.9733 17.1961 46.1728C16.4418 45.0522 15.7421 43.8956 15.0996 42.7073C15.7439 41.5092 16.4474 40.3439 17.2075 39.2158C17.7593 40.4041 18.3782 41.5602 19.0607 42.6785Z" fill="#204FA0"/>
<path d="M211.953 52.2424V54.1397C211.622 54.3341 211.245 54.435 210.862 54.4317C210.102 54.4499 209.358 54.2113 208.75 53.7544C208.143 53.2975 207.707 52.6491 207.514 51.914C206.493 53.0159 205.166 53.7877 203.704 54.1304C202.241 54.4731 200.71 54.3712 199.306 53.8376C197.902 53.304 196.689 52.3631 195.823 51.1356C194.958 49.908 194.478 48.4499 194.447 46.9482C194.416 45.4464 194.834 43.9696 195.648 42.7071C196.461 41.4445 197.634 40.4539 199.014 39.8623C200.395 39.2706 201.921 39.1049 203.396 39.3864C204.872 39.6679 206.229 40.3837 207.295 41.4421V39.5448H209.551V50.3451C209.551 51.6951 210.243 52.2424 211.043 52.2424H211.953ZM207.295 46.8423C207.292 45.7921 206.978 44.7664 206.393 43.8946C205.807 43.0229 204.977 42.3442 204.006 41.9443C203.035 41.5444 201.967 41.4413 200.937 41.6479C199.908 41.8545 198.962 42.3617 198.221 43.1052C197.479 43.8488 196.975 44.7955 196.771 45.8256C196.567 46.8558 196.673 47.9233 197.076 48.8932C197.478 49.8632 198.159 50.6921 199.032 51.2752C199.906 51.8583 200.932 52.1695 201.983 52.1695C202.681 52.1687 203.373 52.0301 204.018 51.7619C204.663 51.4937 205.249 51.101 205.742 50.6063C206.236 50.1116 206.627 49.5246 206.893 48.8788C207.16 48.2329 207.296 47.5409 207.295 46.8423ZM214.798 32.1373H217.168V54.4326H214.798V32.1373ZM191.094 46.7441C191.1 48.253 190.661 49.7302 189.833 50.9916C189.005 52.2531 187.824 53.2429 186.437 53.8377C185.057 54.4222 183.533 54.5799 182.062 54.2906C180.592 54.0013 179.241 53.2782 178.185 52.2145V54.1369H175.924V31.6631H178.185V41.2734C179.241 40.2097 180.592 39.4866 182.062 39.1973C183.533 38.908 185.057 39.0657 186.437 39.6502C187.824 40.245 189.005 41.2349 189.833 42.4963C190.661 43.7578 191.1 45.2351 191.094 46.7441ZM188.833 46.7441C188.819 45.6941 188.495 44.6717 187.901 43.8056C187.308 42.9394 186.471 42.2681 185.497 41.8761C184.523 41.484 183.454 41.3888 182.426 41.6023C181.398 41.8159 180.456 42.3286 179.719 43.0761C178.981 43.8236 178.481 44.7725 178.281 45.8034C178.082 46.8344 178.191 47.9013 178.597 48.8701C179.002 49.8389 179.684 50.6662 180.558 51.2482C181.432 51.8301 182.459 52.1405 183.509 52.1405C184.211 52.142 184.906 52.0034 185.553 51.7329C186.2 51.4624 186.787 51.0654 187.279 50.5651C188.281 49.5463 188.839 48.1729 188.833 46.7441ZM156.487 46.8428C156.489 45.0891 157.099 43.3902 158.213 42.0355C159.327 40.6809 160.876 39.7543 162.596 39.4136C164.316 39.0728 166.102 39.339 167.648 40.1668C169.194 40.9947 170.405 42.3329 171.075 43.9535C171.746 45.5742 171.833 47.3771 171.323 49.0551C170.814 50.7331 169.738 52.1825 168.279 53.1563C166.821 54.1302 165.07 54.5682 163.324 54.3959C161.579 54.2236 159.947 53.4516 158.707 52.2114C158.003 51.5062 157.444 50.6691 157.063 49.748C156.682 48.8268 156.487 47.8397 156.487 46.8428ZM169.396 46.8428C169.396 45.79 169.083 44.7609 168.497 43.8858C167.912 43.0107 167.08 42.3289 166.107 41.9264C165.134 41.524 164.064 41.419 163.031 41.6248C161.999 41.8307 161.051 42.338 160.306 43.0827C159.562 43.8275 159.055 44.7761 158.85 45.8088C158.645 46.8415 158.751 47.9118 159.154 48.8845C159.557 49.8572 160.239 50.6885 161.115 51.2734C161.99 51.8582 163.019 52.1704 164.072 52.1704C164.772 52.1703 165.464 52.0323 166.11 51.7645C166.756 51.4967 167.343 51.1042 167.838 50.6095C168.332 50.1147 168.724 49.5275 168.992 48.8812C169.259 48.2349 169.397 47.5423 169.396 46.8428ZM145.11 42.3097V42.9703C145.148 48.694 141.021 53.5568 135.471 54.3278C129.921 55.0989 124.673 51.5391 123.214 46.0129C121.756 40.4867 124.54 34.7125 129.716 32.5272C132.228 31.4758 135.039 31.391 137.61 32.289C140.18 33.1871 142.327 35.0045 143.637 37.3911L141.661 38.529C140.669 36.7011 139.055 35.2892 137.111 34.5493C135.167 33.8094 133.023 33.7904 131.066 34.4959C129.102 35.2329 127.456 36.6329 126.414 38.4541C125.372 40.2753 125 42.4033 125.36 44.4702C125.67 46.5403 126.712 48.4308 128.296 49.7988C129.88 51.1668 131.902 51.9217 133.995 51.9268C136.089 51.9319 138.114 51.1867 139.705 49.8263C141.296 48.466 142.347 46.5806 142.667 44.5121H134.01V42.3097H145.11ZM149.85 32.1373H152.221V54.4326H149.85V32.1373ZM119.036 32.1373V54.4326H114.259V45.4402H105.361V54.4326H100.547V32.1373H105.361V41.0926H114.259V32.137L119.036 32.1373ZM98.651 36.4849H93.2079V54.4326H88.486V36.4849H83.0067V32.1373H98.651V36.4849ZM73.1642 36.4479V41.1299H80.3708V45.4402H73.1642V50.1223H81.5845V54.4326H68.3105V32.1373H81.5845V36.4476L73.1642 36.4479Z" fill="#1F294F"/>
</svg>
