<svg width="94" height="60" viewBox="0 0 94 60" fill="none" xmlns="http://www.w3.org/2000/svg">
<g clip-path="url(#clip0_4_99)">
<path d="M31.5454 0.182885H28.8313V0.181641L25.4277 4.55891V7.11035L28.84 11.4876H31.5528L27.089 5.83463L31.5454 0.182885Z" fill="black"/>
<path d="M24.9883 0.181641H22.8789V11.4876H24.9883V0.181641Z" fill="black"/>
<path d="M36.125 6.79175H40.4693V4.75684H36.125H34.0155V11.4876H40.6196V9.45397H36.125V6.79175Z" fill="black"/>
<path d="M-0.00012207 2.21657H2.30755V11.4876H4.41697V2.21657H6.72343V0.181641H-0.00012207V2.21657Z" fill="black"/>
<path d="M14.262 0C11.1404 0 8.39062 2.56638 8.39062 5.77371C8.39062 9.07937 11.0369 11.6694 14.2768 11.6694C17.5167 11.6694 20.1334 9.07316 20.1334 5.8347C20.1334 2.57756 17.444 0 14.262 0ZM14.278 9.63572C13.7805 9.63572 13.288 9.53615 12.8286 9.34447C12.3693 9.15157 11.9531 8.86904 11.6022 8.51308C11.2512 8.15713 10.9729 7.73521 10.7845 7.26973C10.5948 6.80549 10.4988 6.30639 10.5013 5.80484C10.5013 3.74625 12.2437 2.03368 14.2633 2.03368C16.2828 2.03368 18.0252 3.75747 18.0252 5.84964C18.0252 7.94181 16.3086 9.63572 14.278 9.63572Z" fill="black"/>
<path d="M82.7863 4.47428H81.7101V8.31138H77.3645L81.4637 0.181641H80.3814L76.2832 8.31138V9.28839H81.7101V11.2922H82.7863V9.28839H83.7652V8.31138H82.7863V4.47428Z" fill="black"/>
<path d="M89.8705 0.181641C87.8472 0.181641 86.1934 1.90915 86.1934 4.01004C86.1934 6.11094 87.7992 7.80607 89.661 7.80607C90.0625 7.80607 90.3839 7.74136 90.8494 7.54595L88.3608 11.2922H89.581L92.263 7.26842C93.3392 5.6554 93.5635 5.06919 93.5635 4.02623C93.5635 1.89173 91.9256 0.181641 89.8705 0.181641ZM89.8705 6.81288C88.4579 6.81288 87.2696 5.52597 87.2696 3.9951C87.2696 2.46424 88.4419 1.1599 89.8705 1.1599C91.2989 1.1599 92.4873 2.44682 92.4873 4.05981C92.4873 5.55832 91.2989 6.81288 89.8705 6.81288Z" fill="black"/>
<path d="M40.6196 0.181641H34.0155V2.21532H40.6196V0.181641Z" fill="black"/>
<path d="M70.2209 0.181641C69.7185 0.18413 69.2232 0.299877 68.7702 0.518927C68.3171 0.739222 67.9192 1.05784 67.6029 1.45238C67.0093 2.16927 66.752 2.98324 66.752 4.09094V7.34932C66.752 8.457 66.9292 9.22243 67.3146 9.85844C67.9734 10.9014 69.0165 11.4876 70.2209 11.4876C71.3292 11.4876 72.292 10.9985 72.9668 10.0862C73.4804 9.38547 73.6896 8.58769 73.6896 7.34932V4.09094C73.6896 1.82701 72.2279 0.181641 70.2209 0.181641ZM72.6134 7.17133C72.6134 8.16453 72.4855 8.88141 72.2279 9.322C71.7787 10.0874 71.0716 10.5106 70.2209 10.5106C69.434 10.5106 68.8083 10.1683 68.327 9.50123C67.9734 9.01211 67.8295 8.2952 67.8295 7.17133V4.33613C67.8295 3.5545 68.0067 2.73929 68.2469 2.33231C68.6644 1.64778 69.4831 1.15865 70.2219 1.15865C70.897 1.15865 71.6518 1.56564 72.0851 2.15309C72.4227 2.60862 72.6147 3.42383 72.6147 4.33613V7.17009L72.6134 7.17133Z" fill="black"/>
<path d="M63.8137 3.50472C63.8137 1.66396 62.32 0.181641 60.4729 0.181641C58.4335 0.181641 57.0039 1.64778 57.0039 3.74991V3.89679H58.0641C58.0801 3.21225 58.1442 2.78908 58.3535 2.39828C58.7389 1.64903 59.5578 1.1599 60.4088 1.1599C61.6772 1.1599 62.7375 2.21906 62.7375 3.47238C62.7375 4.05859 62.4812 4.6622 61.9826 5.28078C61.7093 5.62305 61.485 5.8508 60.6981 6.61624L56.9238 10.3152V11.2922H63.7644V10.3152H58.3682L61.8532 6.94357C63.3148 5.54215 63.8124 4.64604 63.8124 3.50597L63.8137 3.50472Z" fill="black"/>
<path d="M50.7371 7.36299L45.9507 0.181641H43.7402V11.4876H45.8497V3.78726L50.9957 11.4876H52.8466V0.181641H50.7371V7.36299Z" fill="black"/>
<path d="M87.3848 43.7267V15.7295H93.563V43.7267H87.3848Z" fill="black"/>
<path d="M44.3177 43.7267V15.7295H51.6006C52.7971 15.7295 53.9252 15.8217 54.9831 16.006C56.0644 16.1904 57.0191 16.548 57.8477 17.0777C58.6761 17.584 59.3203 18.3214 59.7805 19.2898C60.2641 20.2349 60.5059 21.4909 60.5059 23.0578C60.5059 24.1872 60.333 25.1434 59.988 25.9263C59.6653 26.6871 59.194 27.2977 58.5728 27.7586C57.9741 28.2196 57.25 28.5303 56.3982 28.6914C57.4793 28.8302 58.3888 29.1866 59.1253 29.763C59.8616 30.316 60.4138 31.0646 60.782 32.0096C61.1735 32.9548 61.3688 34.0951 61.3688 35.431C61.3688 36.8826 61.1735 38.1385 60.782 39.1989C60.4138 40.2362 59.8728 41.0891 59.1596 41.7566C58.4465 42.425 57.5604 42.9205 56.5012 43.2424C55.4654 43.5656 54.2687 43.7267 52.9112 43.7267H44.3164H44.3177ZM50.4972 39.4054H51.8093C53.1665 39.4054 54.0993 39.0602 54.605 38.3684C55.1341 37.6763 55.3991 36.6636 55.3991 35.3265C55.3991 34.2661 55.2836 33.4254 55.0543 32.8036C54.8234 32.1816 54.4444 31.7318 53.9153 31.4553C53.3864 31.1554 52.6733 31.0055 51.7748 31.0055H50.4972V39.4042V39.4054ZM50.4972 26.9278H51.7048C52.6486 26.9278 53.3618 26.789 53.8453 26.5125C54.3289 26.2127 54.6506 25.7862 54.8112 25.2331C54.9953 24.68 55.0873 24.0115 55.0873 23.2287C55.0873 22.4913 54.9488 21.8805 54.6724 21.3963C54.4197 20.8887 54.0282 20.5089 53.4993 20.2558C52.9936 20.0026 52.3494 19.876 51.5663 19.876H50.4959V26.9278H50.4972Z" fill="black"/>
<path d="M30.2043 44.1419C28.0638 44.1419 26.3848 43.7967 25.1649 43.1046C23.9683 42.3908 23.1288 41.3644 22.6453 40.0285C22.1617 38.6693 21.9199 37.0102 21.9199 35.0512V15.7295H28.0295V35.984C28.0295 36.5604 28.076 37.1357 28.1681 37.7121C28.2601 38.2885 28.4554 38.7603 28.7549 39.1289C29.0775 39.4978 29.5598 39.682 30.2043 39.682C30.8486 39.682 31.3556 39.4978 31.6538 39.1289C31.9533 38.7603 32.1374 38.2885 32.206 37.7121C32.2981 37.1357 32.3446 36.5604 32.3446 35.984V15.7295H38.4887V35.0512C38.4887 37.0102 38.2358 38.6693 37.7291 40.0285C37.2455 41.3644 36.406 42.3908 35.2092 43.1046C34.0127 43.7967 32.3446 44.1419 30.2043 44.1419Z" fill="black"/>
<path d="M0 43.7267V15.7295H7.0767C9.51659 15.7295 11.414 16.0404 12.7727 16.6623C14.1301 17.2608 15.0849 18.2181 15.6372 19.5307C16.1895 20.8211 16.4657 22.5036 16.4657 24.5768V34.7392C16.4657 36.8356 16.1895 38.5526 15.6372 39.8897C15.0849 41.2035 14.1301 42.1706 12.7727 42.7939C11.4373 43.4157 9.56202 43.7267 7.14664 43.7267H0ZM6.17954 39.4412H7.14664C8.09046 39.4412 8.76918 39.3022 9.18276 39.0257C9.59637 38.7492 9.85044 38.3339 9.94248 37.7821C10.0579 37.2291 10.1143 36.537 10.1143 35.7075V23.5064C10.1143 22.6768 10.0456 22.0083 9.90688 21.5019C9.7915 20.9944 9.52765 20.6269 9.11282 20.3959C8.69799 20.1648 8.03155 20.0505 7.11105 20.0505H6.17954V39.4412Z" fill="black"/>
<path d="M65.0957 43.7267L70.3769 15.7295H77.4193L82.6317 43.7267H76.9358L76.0042 37.8164H71.8963L70.9292 43.7267H65.0957ZM72.4473 34.1172H75.4161L73.9323 23.1942L72.4473 34.1172Z" fill="black"/>
</g>
<defs>
<clipPath id="clip0_4_99">
<rect width="93.5631" height="59.6154" fill="white"/>
</clipPath>
</defs>
</svg>
