<svg width="1297" height="2578" viewBox="0 0 1297 2578" fill="none" xmlns="http://www.w3.org/2000/svg">
<g filter="url(#filter0_i_8_715)">
<path d="M14.3453 129.997C14.3455 89.7637 801.371 0.496826 801.371 0.496826C801.371 0.496826 85.5509 93.4345 75.3453 135.497C65.1397 177.559 1278.6 367.997 1294.76 428.315C1310.92 488.633 46.256 544.279 91.5509 681.888C99.9405 707.376 145.046 728.709 213.247 747.446C323.431 771.279 463.732 793.596 604.076 815.966C920.947 859.204 1271.35 899.023 1294.76 976.683C1337.18 1117.37 82.256 1416.81 101.551 1551.41C120.846 1686 1294.76 1792 1294.76 1860.21C1294.76 1928.42 63.7743 2154 91.5509 2181.77C119.327 2209.55 1310.35 2426 1294.76 2498.62C1279.18 2571.25 399.231 2577 399.231 2577C399.231 2577 1148.76 2554.91 1208.56 2489.45C1268.35 2424 -14.1551 2245.38 5.34528 2172.6C24.8457 2099.83 1197.26 1896.58 1208.56 1851.04C1219.85 1805.5 24.3457 1681 15.3453 1542.23C6.34485 1403.47 1266.27 1084.53 1208.56 967.512C1179.11 907.811 891.504 861.78 604.076 815.966C453.24 795.384 310.002 774.028 213.247 747.446C106.793 724.421 28.4512 699.982 5.34528 672.717C-90.6552 559.437 1272.35 449.639 1218.35 425.497C1164.35 401.354 14.3451 170.23 14.3453 129.997Z" fill="#2639ED"/>
</g>
<path d="M801.371 0.496826C801.371 0.496826 14.3455 89.7637 14.3453 129.997C14.3451 170.23 1164.35 401.354 1218.35 425.497C1272.35 449.639 -90.6552 559.437 5.34528 672.717C101.346 785.997 1150.84 850.497 1208.56 967.512C1266.27 1084.53 6.34485 1403.47 15.3453 1542.23C24.3457 1681 1219.85 1805.5 1208.56 1851.04C1197.26 1896.58 24.8457 2099.83 5.34528 2172.6C-14.1551 2245.38 1268.35 2424 1208.56 2489.45C1148.76 2554.91 399.231 2577 399.231 2577C399.231 2577 1279.18 2571.25 1294.76 2498.62C1310.35 2426 119.327 2209.55 91.5509 2181.77C63.7743 2154 1294.76 1928.42 1294.76 1860.21C1294.76 1792 120.846 1686 101.551 1551.41C82.256 1416.81 1337.18 1117.37 1294.76 976.683C1252.34 835.997 136.846 819.497 91.5509 681.888C46.256 544.279 1310.92 488.633 1294.76 428.315C1278.6 367.997 65.1397 177.559 75.3453 135.497C85.5509 93.4345 801.371 0.496826 801.371 0.496826Z" stroke="url(#paint0_linear_8_715)" stroke-opacity="0.25"/>
<defs>
<filter id="filter0_i_8_715" x="0" y="0" width="1296.31" height="2577.5" filterUnits="userSpaceOnUse" color-interpolation-filters="sRGB">
<feFlood flood-opacity="0" result="BackgroundImageFix"/>
<feBlend mode="normal" in="SourceGraphic" in2="BackgroundImageFix" result="shape"/>
<feColorMatrix in="SourceAlpha" type="matrix" values="0 0 0 0 0 0 0 0 0 0 0 0 0 0 0 0 0 0 127 0" result="hardAlpha"/>
<feOffset/>
<feGaussianBlur stdDeviation="25.2"/>
<feComposite in2="hardAlpha" operator="arithmetic" k2="-1" k3="1"/>
<feColorMatrix type="matrix" values="0 0 0 0 1 0 0 0 0 1 0 0 0 0 1 0 0 0 1 0"/>
<feBlend mode="normal" in2="shape" result="effect1_innerShadow_8_715"/>
</filter>
<linearGradient id="paint0_linear_8_715" x1="653.945" y1="7.06267" x2="653.945" y2="2508.03" gradientUnits="userSpaceOnUse">
<stop stop-color="#2639ED" stop-opacity="0"/>
<stop offset="1" stop-color="#2639ED"/>
</linearGradient>
</defs>
</svg>
