<svg width="29" height="32" viewBox="0 0 29 32" fill="none" xmlns="http://www.w3.org/2000/svg">
<path d="M26.8343 7.07194L15.2183 0.326738C14.8415 0.111626 14.4311 0 14.0137 0C13.5962 0 13.1858 0.110463 12.816 0.326738L1.19765 7.07776C0.460456 7.50798 0 8.30215 0 9.16027V22.6635C0 23.5216 0.460456 24.3251 1.19765 24.753L3.28714 25.9669L6.33475 27.7366L7.01729 25.8564L13.2939 8.54517C13.3509 8.37657 13.23 8.19517 13.0416 8.19517H10.0986C9.88002 8.19517 9.6777 8.33354 9.60794 8.53819L3.97317 24.0867L2.18367 23.0472C2.04879 22.9693 1.96508 22.8251 1.96508 22.6704V9.16143C1.96508 9.00679 2.04879 8.8626 2.18367 8.7847L13.8032 2.03368C13.8671 1.99298 13.9451 1.9767 14.0183 1.9767C14.0916 1.9767 14.166 1.99647 14.2369 2.03368L25.8588 8.7847C25.9936 8.8626 26.0774 9.00679 26.0774 9.16143V22.6646C26.0774 22.8193 25.9936 22.9635 25.8588 23.0414L24.089 24.0704L19.4333 11.2242C19.3496 10.9881 19.0263 10.9881 18.9426 11.2242L17.4089 15.4497C17.3647 15.5671 17.3647 15.6985 17.4089 15.8125L21.0414 25.8401L19.8333 26.5436L16.8601 18.3322C16.7764 18.0961 16.4531 18.0961 16.3694 18.3322L14.8357 22.5577C14.7915 22.6751 14.7915 22.8065 14.8357 22.9204L16.7903 28.3134L14.2404 29.797C14.1764 29.8377 14.0997 29.854 14.0218 29.854C13.9439 29.854 13.8741 29.8342 13.8032 29.797L11.2835 28.3308L18.4519 8.55098C18.5159 8.37657 18.388 8.19052 18.2066 8.19052H15.2636C15.045 8.19052 14.8427 8.32889 14.7729 8.53354L8.23703 26.5576L7.55449 28.4378L10.6021 30.2075L12.8253 31.4993C13.1951 31.7144 13.609 31.8261 14.023 31.8261C14.4369 31.8261 14.8508 31.7156 15.2206 31.4993L26.8425 24.7483C27.5855 24.3181 28.0401 23.5239 28.0401 22.6588V9.1626C28.0401 8.30447 27.5796 7.501 26.8425 7.07311H26.8355L26.8343 7.07194Z" fill="white"/>
</svg>
