<svg width="30" height="35" viewBox="0 0 30 35" fill="none" xmlns="http://www.w3.org/2000/svg">
<path d="M5.73598 5.26635L14.8598 0L23.9837 5.26635L20.6293 7.21189L14.8598 3.89106L9.09036 7.21189L5.73598 5.26635ZM23.9837 11.908L20.6293 9.96246L14.8598 13.2833L9.09036 9.96246L5.73598 11.908V15.7991L11.5055 19.1198V25.7615L14.8598 27.7071L18.2143 25.7615V19.1198L23.9837 15.7991V11.908ZM23.9837 22.4407V18.5496L20.6293 20.4951V24.3862L23.9837 22.4407ZM26.3653 23.816L20.5958 27.1367V31.0278L29.7197 25.7615V15.2287L26.3653 17.1743V23.816ZM23.011 8.58717L26.3653 10.5327V14.4238L29.7197 12.4782V8.58717L26.3653 6.64164L23.011 8.58717ZM11.5055 28.5457V32.4368L14.8598 34.3822L18.2143 32.4368V28.5457L14.8598 30.4912L11.5055 28.5457ZM5.73598 22.4407L9.09036 24.3862V20.4951L5.73598 18.5496V22.4407ZM11.5055 8.58717L14.8598 10.5327L18.2143 8.58717L14.8598 6.64164L11.5055 8.58717ZM3.35436 10.5327L6.70873 8.58717L3.35436 6.64164L0 8.58717V12.4782L3.35436 14.4238V10.5327ZM3.35436 17.1743L0 15.2287V25.7615L9.12385 31.0278V27.1367L3.35436 23.816V17.1743Z" fill="white"/>
</svg>
