<svg width="16" height="16" viewBox="0 0 16 16" fill="none" xmlns="http://www.w3.org/2000/svg">
<g clip-path="url(#clip0_1_720)">
<path d="M15.01 6.19227L13.5305 4.95832C13.2987 4.76491 13.0223 4.64592 12.7522 4.62315C12.4383 4.59793 12.1565 4.70443 11.9781 4.91817L10.8266 6.29877L6.43312 11.5673L6.43606 11.5697C6.38048 11.6363 6.3462 11.7198 6.34816 11.8102L6.40619 14.6676C6.40839 14.7765 6.45883 14.8789 6.54403 14.9469C6.60964 14.9996 6.69068 15.0275 6.77343 15.0275C6.79792 15.0275 6.8224 15.025 6.84664 15.0201L9.59536 14.4612C9.6786 14.4443 9.74911 14.3973 9.8015 14.3344L9.8042 14.3366L14.1769 9.09328L15.3283 7.71267C15.6743 7.29719 15.5342 6.62954 15.01 6.19227ZM7.13138 14.2122L7.09833 12.5909L8.69095 13.8949L7.13138 14.2122ZM9.4727 13.5862L7.23421 11.7531L11.1554 7.05138L13.3773 8.90427L9.4727 13.5862ZM14.764 7.24186L13.8478 8.34017L11.626 6.48729L12.5421 5.38874C12.5642 5.36229 12.622 5.34956 12.6905 5.35519C12.8097 5.36523 12.9444 5.4262 13.0597 5.52241L14.5392 6.75636C14.7696 6.94831 14.8159 7.17992 14.764 7.24186Z" fill="white"/>
<path d="M5.13484 12.0966C5.11623 12.0846 5.09689 12.0753 5.0773 12.067C5.0751 12.066 5.07314 12.0646 5.07094 12.0638C5.02834 12.0467 4.98378 12.0389 4.93947 12.0384C4.93702 12.0384 4.93481 12.0379 4.93261 12.0379C4.88756 12.0381 4.843 12.0472 4.80114 12.0633C4.79893 12.0641 4.79697 12.0646 4.79477 12.0653C4.75095 12.0834 4.7103 12.1099 4.67554 12.1444C4.67529 12.1446 4.67505 12.1446 4.6748 12.1449L4.67407 12.1456C4.67358 12.1461 4.67284 12.1468 4.67235 12.1473L3.74273 13.0767C3.53756 13.2806 3.20533 13.2806 3.00187 13.0777L2.7448 12.8206C2.54159 12.6174 2.54208 12.2849 2.7448 12.081L3.67565 11.1501C3.67589 11.1499 3.67614 11.1496 3.67663 11.1491L3.67785 11.1479C3.6781 11.1477 3.67834 11.1472 3.67859 11.1467C3.71286 11.1122 3.7393 11.0718 3.75742 11.0282C3.7584 11.026 3.75864 11.0235 3.75962 11.0213C3.77578 10.9795 3.78484 10.9352 3.78509 10.8904C3.78509 10.8881 3.7846 10.8859 3.7846 10.8835C3.78411 10.8389 3.77603 10.7944 3.75889 10.7518C3.75816 10.7501 3.75693 10.7486 3.7562 10.7469C3.74787 10.7268 3.73832 10.7072 3.72608 10.6884C3.42029 10.2178 3.20582 9.70072 3.08854 9.15156C3.08732 9.14593 3.08487 9.14103 3.0834 9.1354C3.07875 9.11753 3.07361 9.09941 3.06651 9.08276C3.06283 9.07419 3.05745 9.0666 3.05329 9.05828C3.04643 9.0453 3.04007 9.03233 3.03199 9.02033C3.0266 9.0125 3.01999 9.00589 3.01411 8.99879C3.00505 8.98752 2.99624 8.97602 2.98596 8.96598C2.98057 8.96059 2.97421 8.95643 2.96858 8.95153C2.95633 8.94101 2.94409 8.93023 2.93063 8.92142C2.92573 8.91824 2.92034 8.91603 2.9152 8.91309C2.90002 8.90404 2.8846 8.89522 2.86795 8.88861C2.86183 8.88616 2.85546 8.88494 2.84934 8.88274C2.83318 8.8771 2.81727 8.87147 2.80038 8.86829C2.78862 8.86609 2.77663 8.86584 2.76463 8.86462C2.75312 8.86339 2.74186 8.86119 2.72986 8.86119H1.41145C1.12206 8.86119 0.886776 8.62591 0.886776 8.33676V7.97686C0.886776 7.68772 1.12206 7.45243 1.41145 7.45243H2.72913H2.73035C2.73109 7.45243 2.73182 7.45194 2.73256 7.45194C2.77075 7.4517 2.80699 7.44411 2.84151 7.43309C2.84738 7.43113 2.85326 7.42991 2.85914 7.42771C2.89268 7.41497 2.92353 7.39759 2.95168 7.37629C2.95707 7.37237 2.96172 7.36821 2.96686 7.3638C2.99428 7.3403 3.01901 7.31386 3.0386 7.2835C3.04104 7.27958 3.04276 7.27542 3.04496 7.2715C3.06455 7.23845 3.07997 7.20246 3.08854 7.16378C3.08879 7.16304 3.08903 7.16255 3.08928 7.16182C3.20655 6.61291 3.42102 6.09582 3.72682 5.62477C3.73906 5.60592 3.74861 5.58633 3.75693 5.56625C3.75767 5.56454 3.75864 5.56307 3.75938 5.56136C3.77652 5.51851 3.7846 5.47395 3.78509 5.42939C3.78509 5.42719 3.78558 5.42499 3.78558 5.42278C3.78533 5.37773 3.77627 5.33342 3.76011 5.29155C3.75938 5.28935 3.75889 5.28715 3.75791 5.28494C3.73979 5.24112 3.71335 5.20048 3.67883 5.16571C3.67859 5.16547 3.67859 5.16522 3.67834 5.16498L3.67761 5.16424C3.67687 5.16351 3.67614 5.16277 3.6754 5.16204L2.74627 4.2329C2.54257 4.02774 2.54208 3.69526 2.74529 3.49205L3.00236 3.23497C3.20582 3.03176 3.53805 3.03225 3.74224 3.23497L4.67529 4.16802C4.67676 4.16949 4.67896 4.16998 4.68043 4.17145C4.71177 4.20181 4.74752 4.22458 4.7862 4.24172C4.79501 4.24564 4.80358 4.24857 4.8124 4.25176C4.85182 4.26571 4.89246 4.27526 4.93432 4.2755H4.93506C4.97643 4.2755 5.01806 4.26596 5.05821 4.25151C5.07021 4.24735 5.08098 4.24123 5.09248 4.23584C5.10668 4.22899 5.12162 4.22507 5.13509 4.21626C5.60565 3.91046 6.12273 3.69599 6.67164 3.57872C6.67605 3.57774 6.67997 3.57578 6.68438 3.57455C6.70372 3.56966 6.72257 3.56427 6.74044 3.55668C6.74975 3.55276 6.75783 3.54713 6.76639 3.54248C6.77864 3.53587 6.79112 3.52999 6.80263 3.52216C6.81242 3.5153 6.82099 3.50723 6.83005 3.49939C6.83886 3.4918 6.84841 3.48495 6.85649 3.47662C6.86482 3.4683 6.87143 3.45875 6.87877 3.44944C6.88636 3.44014 6.89444 3.43157 6.90081 3.42153C6.90717 3.41199 6.91158 3.4017 6.91697 3.39142C6.9226 3.38065 6.92921 3.37036 6.93386 3.3591C6.93876 3.34686 6.94194 3.33413 6.94561 3.3214C6.94855 3.31136 6.95247 3.30157 6.95467 3.29104C6.9581 3.27366 6.95908 3.25554 6.96006 3.23767C6.9603 3.23155 6.96201 3.22567 6.96201 3.2193V3.21734C6.96201 3.21686 6.96201 3.21661 6.96201 3.21612V1.90113C6.96201 1.61199 7.1973 1.37671 7.48669 1.37671H7.84634C8.13574 1.37671 8.37102 1.61199 8.37102 1.90113V3.21686V3.2171V3.21955C8.37102 3.22763 8.37298 3.23497 8.37347 3.24305C8.37445 3.25921 8.37518 3.27537 8.37836 3.29104C8.38081 3.30304 8.38497 3.31405 8.38865 3.32556C8.39207 3.33682 8.39452 3.34833 8.39893 3.3591C8.40383 3.37134 8.41068 3.38236 8.41705 3.39387C8.42219 3.40317 8.42635 3.41297 8.43223 3.42178C8.43908 3.43206 8.44716 3.44112 8.455 3.45042C8.4621 3.45924 8.46871 3.46854 8.47678 3.47687C8.48486 3.48519 8.49417 3.49205 8.50323 3.49939C8.51253 3.50723 8.5211 3.51555 8.53114 3.5224C8.54191 3.52975 8.55391 3.53538 8.56541 3.54175C8.57472 3.54689 8.58353 3.55276 8.59332 3.55693C8.60973 3.56403 8.62736 3.56892 8.64498 3.57357C8.65086 3.57504 8.656 3.57774 8.66188 3.57896C9.21054 3.69623 9.72787 3.91071 10.1989 4.2165C10.2121 4.22507 10.2271 4.22899 10.2408 4.23584C10.2525 4.24147 10.2636 4.24759 10.2756 4.25176C10.3157 4.2662 10.3568 4.27575 10.3985 4.27575C10.4406 4.27575 10.4817 4.26596 10.5211 4.252C10.5299 4.24882 10.5385 4.24588 10.5473 4.24196C10.586 4.22482 10.6217 4.20206 10.6531 4.1717C10.6546 4.17023 10.6568 4.16974 10.6585 4.16827L11.5903 3.2362C11.7955 3.03299 12.128 3.03201 12.3312 3.23522L12.5882 3.49229C12.7283 3.63233 12.7692 3.8331 12.7163 4.01158C12.7447 4.01231 12.7726 4.01133 12.8012 4.01354C13.0138 4.03141 13.2255 4.0909 13.4278 4.18173C13.5374 3.76283 13.4341 3.29936 13.1075 2.973L12.8504 2.71593C12.3618 2.22725 11.5644 2.22676 11.0718 2.71593L10.3395 3.44847C9.95042 3.22591 9.53788 3.05453 9.10576 2.93677V1.90113C9.10576 1.20704 8.54093 0.642212 7.84659 0.642212H7.48693C6.79284 0.642212 6.22777 1.20704 6.22777 1.90113V2.93652C5.79564 3.05453 5.38285 3.22567 4.99406 3.44822L4.26055 2.71471C3.76917 2.22651 2.97127 2.227 2.48307 2.71569L2.226 2.97276C1.73732 3.4612 1.73707 4.25861 2.226 4.75146L2.95829 5.48375C2.73574 5.87278 2.5646 6.28532 2.44659 6.71745H1.41145C0.717353 6.71745 0.152283 7.28228 0.152283 7.97637V8.33627C0.152283 9.03037 0.717108 9.59519 1.41145 9.59519H2.44659C2.5646 10.0276 2.73574 10.4401 2.95829 10.8289L2.22502 11.5624C1.73683 12.0538 1.73732 12.8512 2.226 13.3399L2.48307 13.597C2.72742 13.8413 3.04912 13.9635 3.37108 13.9635C3.69303 13.9635 4.01547 13.8415 4.26153 13.597L4.99406 12.8647C5.2411 13.0062 5.4989 13.1242 5.76406 13.2238L5.7479 12.4269C5.53685 12.3317 5.33119 12.2239 5.13484 12.0966Z" fill="white"/>
<path d="M4.9931 8.15634C4.9931 6.68197 6.19253 5.48254 7.6669 5.48254C8.54388 5.48254 9.32147 5.90904 9.80942 6.56322L10.2917 5.98493C9.66595 5.22987 8.72188 4.74805 7.6669 4.74805C5.78758 4.74805 4.25861 6.27702 4.25861 8.15634C4.25861 9.43118 4.96323 10.5432 6.00254 11.1279L6.48388 10.5508C5.60199 10.113 4.9931 9.20569 4.9931 8.15634Z" fill="white"/>
</g>
<defs>
<clipPath id="clip0_1_720">
<rect width="15.6692" height="15.6692" fill="white"/>
</clipPath>
</defs>
</svg>
