<svg width="16" height="16" viewBox="0 0 16 16" fill="none" xmlns="http://www.w3.org/2000/svg">
<g clip-path="url(#clip0_1_741)">
<path d="M12.1396 5.11123H3.19491C3.01826 5.11123 2.87546 5.25434 2.87546 5.43068V11.1808C2.87546 11.3571 3.01826 11.5003 3.19491 11.5003H5.43108V12.6088C5.43108 12.7749 5.47484 12.9388 5.55726 13.0835L6.75105 15.1727C6.80791 15.2723 6.91397 15.3337 7.02833 15.3337H10.8618C10.9924 15.3337 11.1096 15.2541 11.1585 15.1331L11.7521 13.6492C11.7974 13.5352 11.8201 13.416 11.8201 13.2943V11.5003H12.1396C12.3162 11.5003 12.459 11.3571 12.459 11.1808V5.43068C12.459 5.25434 12.3162 5.11123 12.1396 5.11123ZM11.1812 13.2943C11.1812 13.3349 11.1735 13.3748 11.1585 13.4125L10.6455 14.6948H7.21362L6.11183 12.7666C6.08435 12.7186 6.06998 12.664 6.06998 12.6088V10.9358C6.06998 10.8147 6.13738 10.7055 6.246 10.6512L6.70888 10.4199V11.5003C6.70888 11.6766 6.85168 11.8197 7.02833 11.8197C7.20499 11.8197 7.34779 11.6766 7.34779 11.5003V7.34739C7.34779 7.17137 7.4909 7.02794 7.66724 7.02794C7.84357 7.02794 7.98669 7.17137 7.98669 7.34739V9.58355C7.98669 9.75989 8.12948 9.903 8.30614 9.903H10.8627C11.0384 9.903 11.1812 10.0458 11.1812 10.2215V13.2943ZM11.8201 10.2215C11.8201 9.69344 11.3904 9.2641 10.8627 9.2641H8.62559V7.34739C8.62559 6.81902 8.19561 6.38903 7.66724 6.38903C7.13886 6.38903 6.70888 6.81902 6.70888 7.34739V9.70558L5.96009 10.08C5.65629 10.2317 5.46174 10.5272 5.43619 10.8614H3.51437V5.75013H11.8201V10.2215ZM4.47272 4.47232H10.8618C11.0384 4.47232 11.1812 4.32921 11.1812 4.15287V2.87506C11.1812 2.69873 11.0384 2.55561 10.8618 2.55561H4.47272C4.29606 2.55561 4.15327 2.69873 4.15327 2.87506V4.15287C4.15327 4.32921 4.29606 4.47232 4.47272 4.47232ZM4.79217 3.19452H10.5423V3.83342H4.79217V3.19452ZM7.02833 1.91671H8.30614C8.4828 1.91671 8.62559 1.7736 8.62559 1.59726V0.319452C8.62559 0.143114 8.4828 0 8.30614 0H7.02833C6.85168 0 6.70888 0.143114 6.70888 0.319452V1.59726C6.70888 1.7736 6.85168 1.91671 7.02833 1.91671ZM7.34779 0.638903H7.98669V1.27781H7.34779V0.638903ZM9.58395 1.91671H10.8618C11.0384 1.91671 11.1812 1.7736 11.1812 1.59726V0.319452C11.1812 0.143114 11.0384 0 10.8618 0H9.58395C9.40729 0 9.2645 0.143114 9.2645 0.319452V1.59726C9.2645 1.7736 9.40729 1.91671 9.58395 1.91671ZM9.9034 0.638903H10.5423V1.27781H9.9034V0.638903ZM13.4174 0H12.1396C11.9629 0 11.8201 0.143114 11.8201 0.319452V1.59726C11.8201 1.7736 11.9629 1.91671 12.1396 1.91671H13.4174C13.594 1.91671 13.7368 1.7736 13.7368 1.59726V0.319452C13.7368 0.143114 13.594 0 13.4174 0ZM13.0979 1.27781H12.459V0.638903H13.0979V1.27781ZM4.47272 1.91671H5.75053C5.92718 1.91671 6.06998 1.7736 6.06998 1.59726V0.319452C6.06998 0.143114 5.92718 0 5.75053 0H4.47272C4.29606 0 4.15327 0.143114 4.15327 0.319452V1.59726C4.15327 1.7736 4.29606 1.91671 4.47272 1.91671ZM4.79217 0.638903H5.43108V1.27781H4.79217V0.638903ZM1.91711 1.91671H3.19491C3.37157 1.91671 3.51437 1.7736 3.51437 1.59726V0.319452C3.51437 0.143114 3.37157 0 3.19491 0H1.91711C1.74045 0 1.59766 0.143114 1.59766 0.319452V1.59726C1.59766 1.7736 1.74045 1.91671 1.91711 1.91671ZM2.23656 0.638903H2.87546V1.27781H2.23656V0.638903ZM13.4174 2.55561H12.1396C11.9629 2.55561 11.8201 2.69873 11.8201 2.87506V4.15287C11.8201 4.32921 11.9629 4.47232 12.1396 4.47232H13.4174C13.594 4.47232 13.7368 4.32921 13.7368 4.15287V2.87506C13.7368 2.69873 13.594 2.55561 13.4174 2.55561ZM13.0979 3.83342H12.459V3.19452H13.0979V3.83342ZM3.51437 4.15287V2.87506C3.51437 2.69873 3.37157 2.55561 3.19491 2.55561H1.91711C1.74045 2.55561 1.59766 2.69873 1.59766 2.87506V4.15287C1.59766 4.32921 1.74045 4.47232 1.91711 4.47232H3.19491C3.37157 4.47232 3.51437 4.32921 3.51437 4.15287ZM2.87546 3.83342H2.23656V3.19452H2.87546V3.83342Z" fill="white"/>
</g>
<defs>
<clipPath id="clip0_1_741">
<rect width="15.3337" height="15.3337" fill="white"/>
</clipPath>
</defs>
</svg>
