<svg width="14" height="13" viewBox="0 0 14 13" fill="none" xmlns="http://www.w3.org/2000/svg">
<path d="M13.8181 9.9444C13.744 9.66482 13.6153 9.40269 13.4392 9.17319C13.2632 8.9437 13.0434 8.75139 12.7926 8.60741L11.3518 7.78184C10.8458 7.49165 10.2456 7.41354 9.68228 7.56459C9.11895 7.71564 8.63832 8.08356 8.34546 8.58794C8.31442 8.64727 8.30751 8.7163 8.32617 8.78061C8.34482 8.84491 8.3876 8.89953 8.44558 8.93303C8.50355 8.96654 8.57222 8.97636 8.63726 8.96043C8.7023 8.9445 8.75867 8.90405 8.79459 8.84755C9.01872 8.46241 9.3861 8.18157 9.81654 8.0663C10.247 7.95103 10.7055 8.01069 11.0921 8.23227L12.533 9.06432C12.9178 9.28845 13.1984 9.65559 13.3136 10.0857C13.4289 10.5158 13.3694 10.9741 13.1483 11.3606C12.9241 11.7457 12.5568 12.0266 12.1263 12.1418C11.6959 12.2571 11.2373 12.1974 10.8507 11.9759L9.40987 11.1438C9.2347 11.043 9.07941 10.911 8.95165 10.7544L10.3938 9.91195C10.4332 9.88919 10.466 9.85646 10.4887 9.81704C10.5115 9.77763 10.5236 9.73291 10.5236 9.68739V8.82029C10.5236 8.75143 10.4962 8.6854 10.4476 8.63671C10.3989 8.58803 10.3328 8.56068 10.264 8.56068C10.1951 8.56068 10.1291 8.58803 10.0804 8.63671C10.0317 8.6854 10.0044 8.75143 10.0044 8.82029V9.53811L7.14865 11.1879V7.89348L10.0044 6.30855V6.7434C10.0044 6.81225 10.0317 6.87829 10.0804 6.92697C10.1291 6.97566 10.1951 7.00301 10.264 7.00301C10.3328 7.00301 10.3989 6.97566 10.4476 6.92697C10.4962 6.87829 10.5236 6.81225 10.5236 6.7434V5.79192C10.5236 5.7464 10.5115 5.70168 10.4887 5.66227C10.466 5.62285 10.4332 5.59012 10.3938 5.56736L8.9166 4.71324C9.03275 4.44289 9.09365 4.15205 9.09574 3.85782V2.2002C9.09574 1.61667 8.86393 1.05704 8.45131 0.644425C8.03869 0.231807 7.47906 0 6.89553 0C6.312 0 5.75237 0.231807 5.33975 0.644425C4.92713 1.05704 4.69533 1.61667 4.69533 2.2002V3.85782C4.69533 4.44307 4.92782 5.00435 5.34165 5.41819C5.75549 5.83203 6.31677 6.06452 6.90202 6.06452C6.97088 6.06452 7.03691 6.03716 7.0856 5.98848C7.13428 5.93979 7.16163 5.87376 7.16163 5.8049C7.16163 5.73605 7.13428 5.67002 7.0856 5.62133C7.03691 5.57265 6.97088 5.54529 6.90202 5.54529C6.45448 5.54529 6.02526 5.36751 5.7088 5.05104C5.39234 4.73458 5.21455 4.30537 5.21455 3.85782V2.2002C5.25152 1.77988 5.44462 1.38865 5.75578 1.10366C6.06694 0.81867 6.47358 0.660591 6.89553 0.660591C7.31748 0.660591 7.72412 0.81867 8.03528 1.10366C8.34644 1.38865 8.53954 1.77988 8.57651 2.2002V3.85782C8.57575 4.06047 8.53883 4.26136 8.46748 4.45103L7.01885 3.61898C6.97938 3.59619 6.93461 3.5842 6.88904 3.5842C6.84347 3.5842 6.7987 3.59619 6.75924 3.61898L5.99338 4.06162C5.96236 4.07785 5.93494 4.10018 5.91277 4.12729C5.8906 4.15439 5.87414 4.18569 5.86439 4.21932C5.85463 4.25295 5.85178 4.2882 5.856 4.32296C5.86022 4.35772 5.87143 4.39126 5.88896 4.42157C5.90648 4.45189 5.92995 4.47834 5.95796 4.49935C5.98598 4.52036 6.01795 4.53548 6.05196 4.54381C6.08596 4.55214 6.1213 4.55351 6.15585 4.54782C6.1904 4.54214 6.22345 4.52953 6.25299 4.51074L6.88904 4.14729L9.80447 5.83476L6.88904 7.44175L4.03332 5.79322L4.43182 5.56217C4.48833 5.52625 4.52877 5.46988 4.5447 5.40484C4.56064 5.33981 4.55082 5.27113 4.51731 5.21316C4.4838 5.15519 4.42919 5.1124 4.36488 5.09375C4.30057 5.07509 4.23154 5.082 4.17221 5.11304L3.38429 5.57515C3.34486 5.59791 3.31212 5.63064 3.28933 5.67006C3.26655 5.70947 3.25453 5.75419 3.25449 5.79971V7.49887C2.96237 7.53723 2.68084 7.63343 2.42633 7.78184L0.985485 8.6139C0.517661 8.92474 0.185975 9.40227 0.0580244 9.94918C-0.0699259 10.4961 0.0154902 11.0712 0.296865 11.5573C0.578239 12.0434 1.03439 12.404 1.57236 12.5654C2.11033 12.7269 2.68962 12.6771 3.19218 12.4263L4.63302 11.5942C4.8833 11.4497 5.10266 11.2573 5.27857 11.028C5.45447 10.7987 5.58348 10.537 5.65821 10.2578C5.73295 9.97863 5.75195 9.68747 5.71413 9.40095C5.67632 9.11443 5.58242 8.83816 5.43782 8.58794C5.42159 8.55691 5.39925 8.52949 5.37215 8.50732C5.34504 8.48515 5.31374 8.4687 5.28011 8.45894C5.24648 8.44919 5.21123 8.44633 5.17647 8.45055C5.14172 8.45478 5.10817 8.46599 5.07786 8.48351C5.04754 8.50103 5.02109 8.5245 5.00008 8.55252C4.97907 8.58053 4.96395 8.6125 4.95562 8.64651C4.94729 8.68052 4.94593 8.71586 4.95161 8.75041C4.95729 8.78496 4.9699 8.818 4.98869 8.84755C5.20986 9.23404 5.26929 9.69229 5.15404 10.1224C5.03879 10.5525 4.75819 10.9197 4.37341 11.1438L2.93257 11.9759C2.64423 12.1395 2.31408 12.2146 1.98334 12.1917C1.65259 12.1689 1.33591 12.0491 1.07283 11.8473C0.809743 11.6456 0.611915 11.3708 0.504041 11.0573C0.396167 10.7438 0.383027 10.4055 0.466263 10.0846C0.521937 9.87138 0.619468 9.67137 0.753178 9.49621C0.886888 9.32105 1.05411 9.17424 1.2451 9.06432L2.68594 8.23227C2.86137 8.12904 3.05396 8.05825 3.25449 8.02328V9.68869C3.25453 9.73421 3.26655 9.77893 3.28933 9.81834C3.31212 9.85776 3.34486 9.89049 3.38429 9.91325L4.15534 10.365C4.19465 10.3883 4.23943 10.4008 4.28514 10.4013C4.33067 10.4013 4.37538 10.3893 4.4148 10.3665C4.45421 10.3437 4.48694 10.3109 4.50971 10.2715C4.54474 10.2129 4.55526 10.1428 4.53898 10.0765C4.5227 10.0101 4.48093 9.9529 4.42274 9.91714L3.77371 9.54071V6.24235L6.62943 7.89088V11.1879L6.19458 10.9374C6.16503 10.9186 6.13199 10.906 6.09744 10.9003C6.06289 10.8947 6.02755 10.896 5.99354 10.9043C5.95953 10.9127 5.92756 10.9278 5.89955 10.9488C5.87154 10.9698 5.84807 10.9963 5.83054 11.0266C5.81302 11.0569 5.80181 11.0904 5.79759 11.1252C5.79337 11.16 5.79622 11.1952 5.80598 11.2288C5.81573 11.2625 5.83219 11.2938 5.85436 11.3209C5.87652 11.348 5.90395 11.3703 5.93497 11.3865L6.75924 11.8616C6.7987 11.8844 6.84347 11.8964 6.88904 11.8964C6.93461 11.8964 6.97938 11.8844 7.01885 11.8616L8.49603 11.0088C8.67208 11.2427 8.89266 11.4395 9.14506 11.5877L10.5859 12.4198C10.9632 12.6346 11.3954 12.7334 11.8286 12.7037C12.2617 12.6741 12.6765 12.5173 13.0209 12.2531C13.3654 11.9888 13.6243 11.6289 13.7651 11.2182C13.906 10.8075 13.9226 10.3645 13.8129 9.9444H13.8181Z" fill="white"/>
</svg>
