<svg width="135" height="162" viewBox="0 0 135 162" fill="none" xmlns="http://www.w3.org/2000/svg">
<path d="M75.7905 87.8013L78.5942 151.286H56.1644L58.9682 87.8013H75.7905Z" fill="url(#paint0_linear_15_1008)"/>
<g filter="url(#filter0_dd_15_1008)">
<path d="M52.0776 109.417H83.2618V124.684L67.6697 132.48L52.0776 124.684V109.417Z" fill="url(#paint1_radial_15_1008)"/>
<path opacity="0.8" d="M56.3013 110.394C60.0022 118.684 63.9731 127.984 73.1333 129.751L67.6694 132.483L52.0776 124.688V110.394H56.3013Z" fill="url(#paint2_linear_15_1008)"/>
<g opacity="0.8" filter="url(#filter1_f_15_1008)">
<path d="M67.832 121.597L83.0993 113.801V110.877H52.4023V113.801L67.832 121.597Z" fill="#0E3060"/>
</g>
<g filter="url(#filter2_f_15_1008)">
<path d="M57.1133 117.374C55.5977 119.791 55.5975 120.461 57.1134 121.922C56.8427 121.922 56.6586 122.799 61.9859 126.308C68.645 130.693 74.4921 126.47 78.5525 121.922C82.613 117.375 81.3136 117.375 80.3391 118.674C79.3646 119.973 77.0907 124.521 69.2947 126.308C61.4986 128.094 63.1226 107.792 57.1133 117.374Z" fill="url(#paint3_linear_15_1008)"/>
</g>
<g filter="url(#filter3_d_15_1008)">
<g filter="url(#filter4_i_15_1008)">
<path d="M67.6697 131.505L52.0776 124.033V125.17L67.6697 132.642L83.2618 125.17V124.196L67.6697 131.505Z" fill="url(#paint4_linear_15_1008)"/>
</g>
<g filter="url(#filter5_i_15_1008)">
<path d="M67.6697 130.533L52.0776 123.062V124.524L67.6697 131.67L83.2618 124.524V123.225L67.6697 130.533Z" fill="url(#paint5_linear_15_1008)"/>
</g>
<path fill-rule="evenodd" clip-rule="evenodd" d="M83.2628 123.223L67.5076 130.711L52.0786 123.223V122.898L67.5091 130.351L83.2628 122.898V123.223Z" fill="#F8EDC0"/>
</g>
<g filter="url(#filter6_i_15_1008)">
<path fill-rule="evenodd" clip-rule="evenodd" d="M82.1242 111.367V121.567L81.997 121.595C81.4593 121.715 81.0431 122.052 80.7591 122.425C80.6174 122.61 80.5109 122.802 80.4402 122.974C80.3684 123.149 80.3376 123.293 80.3376 123.386V123.492L67.5052 129.086L54.8649 123.34L54.8443 123.268C54.7252 122.851 54.4488 122.482 54.141 122.188C53.8338 121.893 53.5062 121.683 53.3036 121.582L53.2139 121.537V111.692H53.5387V121.339C53.7657 121.464 54.0746 121.674 54.3657 121.953C54.6802 122.254 54.9841 122.645 55.1343 123.106L67.508 128.73L80.02 123.276C80.0359 123.148 80.0777 123.001 80.1397 122.851C80.2213 122.652 80.3421 122.436 80.5009 122.228C80.7962 121.84 81.2305 121.472 81.7994 121.311V111.367H82.1242Z" fill="url(#paint6_linear_15_1008)"/>
</g>
<g filter="url(#filter7_i_15_1008)">
<path fill-rule="evenodd" clip-rule="evenodd" d="M67.6691 121.76V128.095H67.3442V121.76H67.6691Z" fill="url(#paint7_linear_15_1008)"/>
</g>
<g filter="url(#filter8_i_15_1008)">
<path fill-rule="evenodd" clip-rule="evenodd" d="M66.5337 126.135C65.8872 126.88 65.0995 127.046 64.5571 126.956L64.6105 126.635C65.0427 126.707 65.7167 126.581 66.2883 125.922C66.8622 125.26 67.3449 124.046 67.3449 121.923H67.6698C67.6698 124.088 67.178 125.392 66.5337 126.135Z" fill="url(#paint8_linear_15_1008)"/>
</g>
<g filter="url(#filter9_i_15_1008)">
<path fill-rule="evenodd" clip-rule="evenodd" d="M68.4809 126.135C69.1274 126.88 69.9151 127.046 70.4575 126.956L70.4041 126.635C69.972 126.707 69.2979 126.581 68.7263 125.922C68.1525 125.26 67.6697 124.046 67.6697 121.923H67.3449C67.3449 124.088 67.8366 125.392 68.4809 126.135Z" fill="url(#paint9_linear_15_1008)"/>
</g>
<g opacity="0.8" filter="url(#filter10_f_15_1008)">
<path d="M67.6696 115.265L83.0993 113.803V110.88H52.4023V113.803L67.6696 115.265Z" fill="#0E3060"/>
</g>
<g filter="url(#filter11_i_15_1008)">
<path fill-rule="evenodd" clip-rule="evenodd" d="M67.4394 128.244L63.7715 126.634L64.5836 126.634L67.5073 127.917L70.4306 126.62H71.1474L67.5742 128.244C67.5314 128.263 67.4822 128.263 67.4394 128.244Z" fill="url(#paint10_linear_15_1008)"/>
</g>
<g filter="url(#filter12_ddi_15_1008)">
<path d="M67.3442 24.9573L26.7398 47.0457L26.7397 97.2352L67.3442 119.324L107.949 97.2352L107.949 47.0457L67.3442 24.9573Z" fill="#FFB779"/>
<path d="M107.767 47.1536V97.1262L67.3442 119.116L26.9214 97.1262V47.1536L67.3442 25.1633L107.767 47.1536Z" stroke="white" stroke-opacity="0.5" stroke-width="0.363192"/>
</g>
<g filter="url(#filter13_ddi_15_1008)">
<path d="M67.295 32.1035L32.9111 50.808L32.9111 93.3086L67.295 112.013L101.679 93.3086L101.679 50.808L67.295 32.1035Z" fill="#FFB779"/>
<path d="M101.497 50.916V93.2002L67.2949 111.806L33.0928 93.2002V50.916L67.2949 32.3096L101.497 50.916Z" stroke="white" stroke-opacity="0.5" stroke-width="0.363192"/>
</g>
<g filter="url(#filter14_f_15_1008)">
<path d="M64.6661 33.5336L35.7837 49.2454C34.0132 50.2085 32.9111 52.0626 32.9111 54.078L32.9111 90.0386C32.9111 92.054 34.0132 93.9081 35.7836 94.8712L64.6661 110.583C66.3053 111.475 68.2848 111.475 69.9239 110.583L98.8064 94.8712C100.577 93.9081 101.679 92.054 101.679 90.0386L101.679 54.078C101.679 52.0626 100.577 50.2085 98.8064 49.2454L69.9239 33.5336C68.2848 32.6419 66.3053 32.6419 64.6661 33.5336Z" stroke="url(#paint11_linear_15_1008)" stroke-width="0.324836"/>
</g>
<g opacity="0.5">
<mask id="mask0_15_1008" style="mask-type:alpha" maskUnits="userSpaceOnUse" x="35" y="36" width="65" height="73">
<path d="M65.0085 36.7105L38.5701 51.0798C36.885 51.9956 35.8359 53.7598 35.8359 55.6776L35.8359 88.5666C35.8359 90.4844 36.885 92.2486 38.5701 93.1644L65.0085 107.534C66.5668 108.381 68.448 108.381 70.0063 107.534L96.4447 93.1644C98.1298 92.2486 99.1789 90.4844 99.1789 88.5666L99.1789 55.6776C99.1789 53.7598 98.1298 51.9956 96.4447 51.0798L70.0063 36.7105C68.448 35.8635 66.5668 35.8635 65.0085 36.7105Z" fill="#A6D3DE"/>
</mask>
<g mask="url(#mask0_15_1008)">
<path d="M65.0085 36.7105L38.5701 51.0798C36.885 51.9956 35.8359 53.7598 35.8359 55.6776L35.8359 88.5666C35.8359 90.4844 36.885 92.2486 38.5701 93.1644L65.0085 107.534C66.5668 108.381 68.448 108.381 70.0063 107.534L96.4447 93.1644C98.1298 92.2486 99.1789 90.4844 99.1789 88.5666L99.1789 55.6776C99.1789 53.7598 98.1298 51.9956 96.4447 51.0798L70.0063 36.7105C68.448 35.8635 66.5668 35.8635 65.0085 36.7105Z" fill="url(#paint12_radial_15_1008)"/>
<path opacity="0.5" d="M62.2132 110.343L60.9551 33.8943H74.0605L72.8024 110.343H62.2132Z" fill="url(#paint13_linear_15_1008)"/>
<path opacity="0.5" d="M62.0442 109.666L22.7305 44.0889L34.0801 37.5362L71.2148 104.371L62.0442 109.666Z" fill="url(#paint14_linear_15_1008)"/>
<rect x="35.8364" y="67.7498" width="63.3429" height="41.1365" fill="url(#paint15_linear_15_1008)"/>
</g>
</g>
<g filter="url(#filter15_d_15_1008)">
<path d="M65.0085 36.7105L38.5701 51.0798C36.885 51.9956 35.8359 53.7598 35.8359 55.6776L35.8359 88.5666C35.8359 90.4844 36.885 92.2486 38.5701 93.1644L65.0085 107.534C66.5668 108.381 68.448 108.381 70.0063 107.534L96.4447 93.1644C98.1298 92.2486 99.1789 90.4844 99.1789 88.5666L99.1789 55.6776C99.1789 53.7598 98.1298 51.9956 96.4447 51.0798L70.0063 36.7105C68.448 35.8635 66.5668 35.8635 65.0085 36.7105Z" fill="black"/>
<mask id="mask1_15_1008" style="mask-type:luminance" maskUnits="userSpaceOnUse" x="35" y="36" width="65" height="73">
<path d="M65.0085 36.71L38.5701 51.0793C36.885 51.9951 35.8359 53.7593 35.8359 55.6771L35.8359 88.5661C35.8359 90.4839 36.885 92.2481 38.5701 93.1639L65.0085 107.533C66.5668 108.38 68.448 108.38 70.0063 107.533L96.4447 93.1639C98.1298 92.2481 99.1789 90.4839 99.1789 88.5661L99.1789 55.6771C99.1789 53.7593 98.1298 51.9951 96.4447 51.0793L70.0063 36.71C68.448 35.863 66.5668 35.863 65.0085 36.71Z" fill="white"/>
</mask>
<g mask="url(#mask1_15_1008)">
<path d="M67.6701 46.2331C67.6701 43.5045 63.3389 39.3575 61.1733 37.625H67.6701V46.2331Z" fill="url(#paint16_linear_15_1008)"/>
<path d="M67.6703 46.2331C67.6703 43.5045 72.0014 39.3575 74.167 37.625H67.6703V46.2331Z" fill="url(#paint17_linear_15_1008)"/>
<rect x="67.6738" y="33.0774" width="6.43624" height="6.43624" transform="rotate(45 67.6738 33.0774)" fill="url(#paint18_linear_15_1008)"/>
<path fill-rule="evenodd" clip-rule="evenodd" d="M67.6738 42.0877L72.179 37.5826L72.2709 37.6744L67.6738 42.2715L63.0768 37.6744L63.1687 37.5826L67.6738 42.0877Z" fill="url(#paint19_linear_15_1008)"/>
<g filter="url(#filter16_d_15_1008)">
<path d="M64.9091 36.8137L62.1479 38.2755V35.0271H73.1924V38.4379L70.4313 36.8137C67.9625 35.7742 65.7211 36.3806 64.9091 36.8137Z" fill="#C4C4C4"/>
</g>
</g>
</g>
<g filter="url(#filter17_d_15_1008)">
<path d="M102.776 56.4512C105.039 59.3826 107.889 65.2491 106.819 69.4013" stroke="url(#paint20_linear_15_1008)" stroke-width="0.584704"/>
<g filter="url(#filter18_d_15_1008)">
<g filter="url(#filter19_i_15_1008)">
<path d="M87.8087 94.3557C111.356 77.5598 108.733 65.1489 103.103 56.9489C103.003 56.8035 102.789 56.8087 102.693 56.9568C102.644 57.0321 102.64 57.1282 102.681 57.2078C107.784 67.0556 108.005 77.5111 86.2456 92.6111C57.4335 111.087 61.5231 117.605 61.9804 119.735C62.4476 121.912 64.7794 119.114 65.513 117.012C66.8911 113.064 71.2492 107.581 87.8087 94.3557Z" fill="url(#paint21_linear_15_1008)"/>
</g>
<g filter="url(#filter20_i_15_1008)">
<path d="M87.8087 94.3557C111.366 77.5522 108.73 65.1378 103.095 56.9378C102.999 56.7978 102.792 56.8029 102.7 56.9455C102.648 57.0262 102.65 57.1307 102.703 57.2106C108.936 66.5257 109.643 77.6068 86.2456 92.6111C57.4335 111.087 61.5231 117.605 61.9804 119.735C62.3485 121.45 63.6496 118.892 64.0929 117.195C65.1076 113.312 71.018 106.332 87.8087 94.3557Z" fill="url(#paint22_linear_15_1008)"/>
</g>
<g filter="url(#filter21_i_15_1008)">
<path fill-rule="evenodd" clip-rule="evenodd" d="M89.0312 90.7557C88.0695 91.4203 88.372 92.8473 89.5409 92.8371C89.8032 92.8348 90.0971 92.7428 90.3056 92.5837C94.9812 89.0152 98.4864 85.6155 101.004 82.4986C101.55 81.74 101.129 80.8499 100.293 81.2659C100.27 81.2773 100.246 81.289 100.223 81.3011C100.097 81.3665 99.9878 81.4572 99.8919 81.5616C97.2512 84.4367 93.712 87.5207 89.0312 90.7557Z" fill="url(#paint23_linear_15_1008)"/>
</g>
</g>
</g>
<g filter="url(#filter22_d_15_1008)">
<path d="M31.6924 56.4521C29.4288 59.3836 26.5797 65.2501 27.6497 69.4023" stroke="url(#paint24_linear_15_1008)" stroke-width="0.584704"/>
<g filter="url(#filter23_d_15_1008)">
<g filter="url(#filter24_i_15_1008)">
<path d="M46.659 94.3566C23.112 77.5608 25.735 65.1499 31.365 56.9499C31.4648 56.8045 31.6791 56.8097 31.7748 56.9578C31.8235 57.0331 31.8275 57.1292 31.7863 57.2088C26.6834 67.0566 26.4627 77.5121 48.2221 92.612C77.0343 111.088 72.9447 117.606 72.4873 119.736C72.0201 121.913 69.6883 119.115 68.9547 117.013C67.5767 113.065 63.2186 107.582 46.659 94.3566Z" fill="url(#paint25_linear_15_1008)"/>
</g>
<g filter="url(#filter25_i_15_1008)">
<path d="M46.659 94.3566C23.1014 77.5532 25.7374 65.1388 31.3726 56.9388C31.4688 56.7988 31.6753 56.8039 31.7675 56.9465C31.8197 57.0272 31.8182 57.1317 31.7648 57.2116C25.5322 66.5267 24.8243 77.6078 48.2221 92.612C77.0343 111.088 72.9447 117.606 72.4873 119.736C72.1193 121.451 70.8181 118.893 70.3748 117.196C69.3601 113.313 63.4497 106.333 46.659 94.3566Z" fill="url(#paint26_linear_15_1008)"/>
</g>
<g filter="url(#filter26_i_15_1008)">
<path fill-rule="evenodd" clip-rule="evenodd" d="M45.437 90.7579C46.3987 91.4226 46.0963 92.8495 44.9273 92.8393C44.6651 92.837 44.3711 92.745 44.1626 92.5859C39.487 89.0175 35.9819 85.6177 33.4639 82.5008C32.9186 81.7422 33.3391 80.8521 34.1757 81.2681C34.1987 81.2795 34.2218 81.2913 34.245 81.3033C34.3708 81.3687 34.4805 81.4594 34.5764 81.5638C37.2171 84.4389 40.7562 87.523 45.437 90.7579Z" fill="url(#paint27_linear_15_1008)"/>
</g>
<g filter="url(#filter27_f_15_1008)">
<path d="M72.1441 115.798C70.3037 109.698 62.623 102.933 58.9544 100.412C55.1252 97.4853 46.425 91.3635 42.7243 89.4994" stroke="#EED7B5" stroke-width="0.324836"/>
</g>
</g>
</g>
<g filter="url(#filter28_d_15_1008)">
<mask id="mask2_15_1008" style="mask-type:alpha" maskUnits="userSpaceOnUse" x="59" y="103" width="17" height="17">
<path d="M67.6776 119.915C67.6776 119.907 67.6729 119.901 67.6659 119.898L59.9682 117.012C59.5857 116.869 59.4288 116.412 59.6426 116.064L67.5933 103.112C67.6172 103.073 67.6773 103.09 67.6776 103.136C67.6776 103.09 67.7371 103.074 67.7608 103.112L75.7124 116.067C75.9255 116.414 75.7701 116.869 75.3892 117.014L67.793 119.897C67.7858 119.9 67.7811 119.906 67.7811 119.914C67.7811 119.927 67.7684 119.936 67.7563 119.932L67.7397 119.926C67.733 119.923 67.7256 119.923 67.7189 119.926L67.7017 119.932C67.6899 119.936 67.6776 119.927 67.6776 119.915Z" fill="url(#paint28_linear_15_1008)"/>
</mask>
<g mask="url(#mask2_15_1008)">
<path d="M67.7217 120.22L76.0933 116.782L67.7217 101.683L67.7217 120.22Z" fill="url(#paint29_linear_15_1008)"/>
<path d="M67.7212 120.22L59.3496 116.782L67.7212 101.683L67.7212 120.22Z" fill="url(#paint30_linear_15_1008)"/>
<path d="M67.6699 107.467L71.2431 108.766L69.4565 105.843L67.6699 103.082L65.8833 105.843L64.0967 108.766L67.6699 107.467Z" fill="url(#paint31_linear_15_1008)"/>
<path d="M67.6475 107.473L64.0967 108.765L67.6475 103.116V107.473Z" fill="#EED6B3"/>
</g>
</g>
</g>
<defs>
<filter id="filter0_dd_15_1008" x="-0.000188828" y="2.74181e-06" width="134.689" height="161.164" filterUnits="userSpaceOnUse" color-interpolation-filters="sRGB">
<feFlood flood-opacity="0" result="BackgroundImageFix"/>
<feColorMatrix in="SourceAlpha" type="matrix" values="0 0 0 0 0 0 0 0 0 0 0 0 0 0 0 0 0 0 127 0" result="hardAlpha"/>
<feOffset/>
<feGaussianBlur stdDeviation="4.45666"/>
<feColorMatrix type="matrix" values="0 0 0 0 1 0 0 0 0 1 0 0 0 0 1 0 0 0 1 0"/>
<feBlend mode="normal" in2="BackgroundImageFix" result="effect1_dropShadow_15_1008"/>
<feColorMatrix in="SourceAlpha" type="matrix" values="0 0 0 0 0 0 0 0 0 0 0 0 0 0 0 0 0 0 127 0" result="hardAlpha"/>
<feOffset dy="1.78266"/>
<feGaussianBlur stdDeviation="13.37"/>
<feColorMatrix type="matrix" values="0 0 0 0 1 0 0 0 0 0.792744 0 0 0 0 0.567308 0 0 0 1 0"/>
<feBlend mode="normal" in2="effect1_dropShadow_15_1008" result="effect2_dropShadow_15_1008"/>
<feBlend mode="normal" in="SourceGraphic" in2="effect2_dropShadow_15_1008" result="shape"/>
</filter>
<filter id="filter1_f_15_1008" x="51.103" y="109.578" width="33.2955" height="13.3182" filterUnits="userSpaceOnUse" color-interpolation-filters="sRGB">
<feFlood flood-opacity="0" result="BackgroundImageFix"/>
<feBlend mode="normal" in="SourceGraphic" in2="BackgroundImageFix" result="shape"/>
<feGaussianBlur stdDeviation="0.649671" result="effect1_foregroundBlur_15_1008"/>
</filter>
<filter id="filter2_f_15_1008" x="53.3779" y="112.193" width="30.5592" height="18.5592" filterUnits="userSpaceOnUse" color-interpolation-filters="sRGB">
<feFlood flood-opacity="0" result="BackgroundImageFix"/>
<feBlend mode="normal" in="SourceGraphic" in2="BackgroundImageFix" result="shape"/>
<feGaussianBlur stdDeviation="1.29934" result="effect1_foregroundBlur_15_1008"/>
</filter>
<filter id="filter3_d_15_1008" x="51.1031" y="120.624" width="33.1341" height="12.0177" filterUnits="userSpaceOnUse" color-interpolation-filters="sRGB">
<feFlood flood-opacity="0" result="BackgroundImageFix"/>
<feColorMatrix in="SourceAlpha" type="matrix" values="0 0 0 0 0 0 0 0 0 0 0 0 0 0 0 0 0 0 127 0" result="hardAlpha"/>
<feOffset dy="-1.29934"/>
<feGaussianBlur stdDeviation="0.487253"/>
<feColorMatrix type="matrix" values="0 0 0 0 0 0 0 0 0 0 0 0 0 0 0 0 0 0 0.25 0"/>
<feBlend mode="normal" in2="BackgroundImageFix" result="effect1_dropShadow_15_1008"/>
<feBlend mode="normal" in="SourceGraphic" in2="effect1_dropShadow_15_1008" result="shape"/>
</filter>
<filter id="filter4_i_15_1008" x="52.0776" y="124.033" width="31.1841" height="8.60815" filterUnits="userSpaceOnUse" color-interpolation-filters="sRGB">
<feFlood flood-opacity="0" result="BackgroundImageFix"/>
<feBlend mode="normal" in="SourceGraphic" in2="BackgroundImageFix" result="shape"/>
<feColorMatrix in="SourceAlpha" type="matrix" values="0 0 0 0 0 0 0 0 0 0 0 0 0 0 0 0 0 0 127 0" result="hardAlpha"/>
<feOffset/>
<feGaussianBlur stdDeviation="7.4"/>
<feComposite in2="hardAlpha" operator="arithmetic" k2="-1" k3="1"/>
<feColorMatrix type="matrix" values="0 0 0 0 1 0 0 0 0 1 0 0 0 0 1 0 0 0 1 0"/>
<feBlend mode="normal" in2="shape" result="effect1_innerShadow_15_1008"/>
</filter>
<filter id="filter5_i_15_1008" x="52.0776" y="123.062" width="31.1841" height="8.60815" filterUnits="userSpaceOnUse" color-interpolation-filters="sRGB">
<feFlood flood-opacity="0" result="BackgroundImageFix"/>
<feBlend mode="normal" in="SourceGraphic" in2="BackgroundImageFix" result="shape"/>
<feColorMatrix in="SourceAlpha" type="matrix" values="0 0 0 0 0 0 0 0 0 0 0 0 0 0 0 0 0 0 127 0" result="hardAlpha"/>
<feOffset/>
<feGaussianBlur stdDeviation="7.4"/>
<feComposite in2="hardAlpha" operator="arithmetic" k2="-1" k3="1"/>
<feColorMatrix type="matrix" values="0 0 0 0 1 0 0 0 0 1 0 0 0 0 1 0 0 0 1 0"/>
<feBlend mode="normal" in2="shape" result="effect1_innerShadow_15_1008"/>
</filter>
<filter id="filter6_i_15_1008" x="53.2139" y="111.367" width="28.9102" height="17.719" filterUnits="userSpaceOnUse" color-interpolation-filters="sRGB">
<feFlood flood-opacity="0" result="BackgroundImageFix"/>
<feBlend mode="normal" in="SourceGraphic" in2="BackgroundImageFix" result="shape"/>
<feColorMatrix in="SourceAlpha" type="matrix" values="0 0 0 0 0 0 0 0 0 0 0 0 0 0 0 0 0 0 127 0" result="hardAlpha"/>
<feOffset/>
<feGaussianBlur stdDeviation="7.4"/>
<feComposite in2="hardAlpha" operator="arithmetic" k2="-1" k3="1"/>
<feColorMatrix type="matrix" values="0 0 0 0 1 0 0 0 0 1 0 0 0 0 1 0 0 0 1 0"/>
<feBlend mode="normal" in2="shape" result="effect1_innerShadow_15_1008"/>
</filter>
<filter id="filter7_i_15_1008" x="67.3442" y="121.76" width="0.324707" height="6.33423" filterUnits="userSpaceOnUse" color-interpolation-filters="sRGB">
<feFlood flood-opacity="0" result="BackgroundImageFix"/>
<feBlend mode="normal" in="SourceGraphic" in2="BackgroundImageFix" result="shape"/>
<feColorMatrix in="SourceAlpha" type="matrix" values="0 0 0 0 0 0 0 0 0 0 0 0 0 0 0 0 0 0 127 0" result="hardAlpha"/>
<feOffset/>
<feGaussianBlur stdDeviation="7.4"/>
<feComposite in2="hardAlpha" operator="arithmetic" k2="-1" k3="1"/>
<feColorMatrix type="matrix" values="0 0 0 0 1 0 0 0 0 1 0 0 0 0 1 0 0 0 1 0"/>
<feBlend mode="normal" in2="shape" result="effect1_innerShadow_15_1008"/>
</filter>
<filter id="filter8_i_15_1008" x="64.5571" y="121.923" width="3.11279" height="5.05518" filterUnits="userSpaceOnUse" color-interpolation-filters="sRGB">
<feFlood flood-opacity="0" result="BackgroundImageFix"/>
<feBlend mode="normal" in="SourceGraphic" in2="BackgroundImageFix" result="shape"/>
<feColorMatrix in="SourceAlpha" type="matrix" values="0 0 0 0 0 0 0 0 0 0 0 0 0 0 0 0 0 0 127 0" result="hardAlpha"/>
<feOffset/>
<feGaussianBlur stdDeviation="7.4"/>
<feComposite in2="hardAlpha" operator="arithmetic" k2="-1" k3="1"/>
<feColorMatrix type="matrix" values="0 0 0 0 1 0 0 0 0 1 0 0 0 0 1 0 0 0 1 0"/>
<feBlend mode="normal" in2="shape" result="effect1_innerShadow_15_1008"/>
</filter>
<filter id="filter9_i_15_1008" x="67.3447" y="121.923" width="3.11279" height="5.05518" filterUnits="userSpaceOnUse" color-interpolation-filters="sRGB">
<feFlood flood-opacity="0" result="BackgroundImageFix"/>
<feBlend mode="normal" in="SourceGraphic" in2="BackgroundImageFix" result="shape"/>
<feColorMatrix in="SourceAlpha" type="matrix" values="0 0 0 0 0 0 0 0 0 0 0 0 0 0 0 0 0 0 127 0" result="hardAlpha"/>
<feOffset/>
<feGaussianBlur stdDeviation="7.4"/>
<feComposite in2="hardAlpha" operator="arithmetic" k2="-1" k3="1"/>
<feColorMatrix type="matrix" values="0 0 0 0 1 0 0 0 0 1 0 0 0 0 1 0 0 0 1 0"/>
<feBlend mode="normal" in2="shape" result="effect1_innerShadow_15_1008"/>
</filter>
<filter id="filter10_f_15_1008" x="51.103" y="109.58" width="33.2955" height="6.98394" filterUnits="userSpaceOnUse" color-interpolation-filters="sRGB">
<feFlood flood-opacity="0" result="BackgroundImageFix"/>
<feBlend mode="normal" in="SourceGraphic" in2="BackgroundImageFix" result="shape"/>
<feGaussianBlur stdDeviation="0.649671" result="effect1_foregroundBlur_15_1008"/>
</filter>
<filter id="filter11_i_15_1008" x="63.7715" y="126.62" width="7.37598" height="1.63867" filterUnits="userSpaceOnUse" color-interpolation-filters="sRGB">
<feFlood flood-opacity="0" result="BackgroundImageFix"/>
<feBlend mode="normal" in="SourceGraphic" in2="BackgroundImageFix" result="shape"/>
<feColorMatrix in="SourceAlpha" type="matrix" values="0 0 0 0 0 0 0 0 0 0 0 0 0 0 0 0 0 0 127 0" result="hardAlpha"/>
<feOffset/>
<feGaussianBlur stdDeviation="7.4"/>
<feComposite in2="hardAlpha" operator="arithmetic" k2="-1" k3="1"/>
<feColorMatrix type="matrix" values="0 0 0 0 1 0 0 0 0 1 0 0 0 0 1 0 0 0 1 0"/>
<feBlend mode="normal" in2="shape" result="effect1_innerShadow_15_1008"/>
</filter>
<filter id="filter12_ddi_15_1008" x="24.5606" y="24.9573" width="85.5673" height="100.904" filterUnits="userSpaceOnUse" color-interpolation-filters="sRGB">
<feFlood flood-opacity="0" result="BackgroundImageFix"/>
<feColorMatrix in="SourceAlpha" type="matrix" values="0 0 0 0 0 0 0 0 0 0 0 0 0 0 0 0 0 0 127 0" result="hardAlpha"/>
<feOffset dy="1.45277"/>
<feComposite in2="hardAlpha" operator="out"/>
<feColorMatrix type="matrix" values="0 0 0 0 0.860934 0 0 0 0 0.787766 0 0 0 0 0.641432 0 0 0 1 0"/>
<feBlend mode="normal" in2="BackgroundImageFix" result="effect1_dropShadow_15_1008"/>
<feColorMatrix in="SourceAlpha" type="matrix" values="0 0 0 0 0 0 0 0 0 0 0 0 0 0 0 0 0 0 127 0" result="hardAlpha"/>
<feOffset dy="4.35831"/>
<feGaussianBlur stdDeviation="1.08958"/>
<feComposite in2="hardAlpha" operator="out"/>
<feColorMatrix type="matrix" values="0 0 0 0 1 0 0 0 0 0.753595 0 0 0 0 0.490196 0 0 0 0.4 0"/>
<feBlend mode="normal" in2="effect1_dropShadow_15_1008" result="effect2_dropShadow_15_1008"/>
<feBlend mode="normal" in="SourceGraphic" in2="effect2_dropShadow_15_1008" result="shape"/>
<feColorMatrix in="SourceAlpha" type="matrix" values="0 0 0 0 0 0 0 0 0 0 0 0 0 0 0 0 0 0 127 0" result="hardAlpha"/>
<feOffset/>
<feGaussianBlur stdDeviation="3.63192"/>
<feComposite in2="hardAlpha" operator="arithmetic" k2="-1" k3="1"/>
<feColorMatrix type="matrix" values="0 0 0 0 1 0 0 0 0 1 0 0 0 0 1 0 0 0 0.7 0"/>
<feBlend mode="normal" in2="shape" result="effect3_innerShadow_15_1008"/>
</filter>
<filter id="filter13_ddi_15_1008" x="30.732" y="32.1035" width="73.1259" height="86.4471" filterUnits="userSpaceOnUse" color-interpolation-filters="sRGB">
<feFlood flood-opacity="0" result="BackgroundImageFix"/>
<feColorMatrix in="SourceAlpha" type="matrix" values="0 0 0 0 0 0 0 0 0 0 0 0 0 0 0 0 0 0 127 0" result="hardAlpha"/>
<feOffset dy="1.45277"/>
<feComposite in2="hardAlpha" operator="out"/>
<feColorMatrix type="matrix" values="0 0 0 0 0.860934 0 0 0 0 0.787766 0 0 0 0 0.641432 0 0 0 1 0"/>
<feBlend mode="normal" in2="BackgroundImageFix" result="effect1_dropShadow_15_1008"/>
<feColorMatrix in="SourceAlpha" type="matrix" values="0 0 0 0 0 0 0 0 0 0 0 0 0 0 0 0 0 0 127 0" result="hardAlpha"/>
<feOffset dy="4.35831"/>
<feGaussianBlur stdDeviation="1.08958"/>
<feComposite in2="hardAlpha" operator="out"/>
<feColorMatrix type="matrix" values="0 0 0 0 1 0 0 0 0 0.753595 0 0 0 0 0.490196 0 0 0 0.4 0"/>
<feBlend mode="normal" in2="effect1_dropShadow_15_1008" result="effect2_dropShadow_15_1008"/>
<feBlend mode="normal" in="SourceGraphic" in2="effect2_dropShadow_15_1008" result="shape"/>
<feColorMatrix in="SourceAlpha" type="matrix" values="0 0 0 0 0 0 0 0 0 0 0 0 0 0 0 0 0 0 127 0" result="hardAlpha"/>
<feOffset/>
<feGaussianBlur stdDeviation="3.63192"/>
<feComposite in2="hardAlpha" operator="arithmetic" k2="-1" k3="1"/>
<feColorMatrix type="matrix" values="0 0 0 0 1 0 0 0 0 1 0 0 0 0 1 0 0 0 0.7 0"/>
<feBlend mode="normal" in2="shape" result="effect3_innerShadow_15_1008"/>
</filter>
<filter id="filter14_f_15_1008" x="32.6511" y="32.6049" width="69.2877" height="78.9066" filterUnits="userSpaceOnUse" color-interpolation-filters="sRGB">
<feFlood flood-opacity="0" result="BackgroundImageFix"/>
<feBlend mode="normal" in="SourceGraphic" in2="BackgroundImageFix" result="shape"/>
<feGaussianBlur stdDeviation="0.0487253" result="effect1_foregroundBlur_15_1008"/>
</filter>
<filter id="filter15_d_15_1008" x="34.8614" y="34.7026" width="65.2918" height="75.4886" filterUnits="userSpaceOnUse" color-interpolation-filters="sRGB">
<feFlood flood-opacity="0" result="BackgroundImageFix"/>
<feColorMatrix in="SourceAlpha" type="matrix" values="0 0 0 0 0 0 0 0 0 0 0 0 0 0 0 0 0 0 127 0" result="hardAlpha"/>
<feOffset dy="0.324836"/>
<feGaussianBlur stdDeviation="0.487253"/>
<feColorMatrix type="matrix" values="0 0 0 0 0.188125 0 0 0 0 0.223738 0 0 0 0 0.35 0 0 0 0.55 0"/>
<feBlend mode="normal" in2="BackgroundImageFix" result="effect1_dropShadow_15_1008"/>
<feBlend mode="normal" in="SourceGraphic" in2="effect1_dropShadow_15_1008" result="shape"/>
</filter>
<filter id="filter16_d_15_1008" x="61.4983" y="35.0271" width="12.3438" height="5.03507" filterUnits="userSpaceOnUse" color-interpolation-filters="sRGB">
<feFlood flood-opacity="0" result="BackgroundImageFix"/>
<feColorMatrix in="SourceAlpha" type="matrix" values="0 0 0 0 0 0 0 0 0 0 0 0 0 0 0 0 0 0 127 0" result="hardAlpha"/>
<feOffset dy="0.974507"/>
<feGaussianBlur stdDeviation="0.324836"/>
<feColorMatrix type="matrix" values="0 0 0 0 0.308611 0 0 0 0 0.319833 0 0 0 0 0.420833 0 0 0 0.36 0"/>
<feBlend mode="normal" in2="BackgroundImageFix" result="effect1_dropShadow_15_1008"/>
<feBlend mode="normal" in="SourceGraphic" in2="effect1_dropShadow_15_1008" result="shape"/>
</filter>
<filter id="filter17_d_15_1008" x="60.228" y="56.2725" width="48.4146" height="66.8501" filterUnits="userSpaceOnUse" color-interpolation-filters="sRGB">
<feFlood flood-opacity="0" result="BackgroundImageFix"/>
<feColorMatrix in="SourceAlpha" type="matrix" values="0 0 0 0 0 0 0 0 0 0 0 0 0 0 0 0 0 0 127 0" result="hardAlpha"/>
<feOffset dy="1.29934"/>
<feGaussianBlur stdDeviation="0.649671"/>
<feColorMatrix type="matrix" values="0 0 0 0 0.38125 0 0 0 0 0.416833 0 0 0 0 0.508333 0 0 0 0.38 0"/>
<feBlend mode="normal" in2="BackgroundImageFix" result="effect1_dropShadow_15_1008"/>
<feBlend mode="normal" in="SourceGraphic" in2="effect1_dropShadow_15_1008" result="shape"/>
</filter>
<filter id="filter18_d_15_1008" x="60.8777" y="56.8357" width="47.3689" height="65.6372" filterUnits="userSpaceOnUse" color-interpolation-filters="sRGB">
<feFlood flood-opacity="0" result="BackgroundImageFix"/>
<feColorMatrix in="SourceAlpha" type="matrix" values="0 0 0 0 0 0 0 0 0 0 0 0 0 0 0 0 0 0 127 0" result="hardAlpha"/>
<feOffset dx="0.324836" dy="0.974507"/>
<feGaussianBlur stdDeviation="0.487253"/>
<feColorMatrix type="matrix" values="0 0 0 0 0.7 0 0 0 0 0.526167 0 0 0 0 0.265417 0 0 0 0.5 0"/>
<feBlend mode="normal" in2="BackgroundImageFix" result="effect1_dropShadow_15_1008"/>
<feBlend mode="normal" in="SourceGraphic" in2="effect1_dropShadow_15_1008" result="shape"/>
</filter>
<filter id="filter19_i_15_1008" x="61.5273" y="56.8428" width="45.4199" height="63.6812" filterUnits="userSpaceOnUse" color-interpolation-filters="sRGB">
<feFlood flood-opacity="0" result="BackgroundImageFix"/>
<feBlend mode="normal" in="SourceGraphic" in2="BackgroundImageFix" result="shape"/>
<feColorMatrix in="SourceAlpha" type="matrix" values="0 0 0 0 0 0 0 0 0 0 0 0 0 0 0 0 0 0 127 0" result="hardAlpha"/>
<feOffset/>
<feGaussianBlur stdDeviation="7.4"/>
<feComposite in2="hardAlpha" operator="arithmetic" k2="-1" k3="1"/>
<feColorMatrix type="matrix" values="0 0 0 0 1 0 0 0 0 1 0 0 0 0 1 0 0 0 1 0"/>
<feBlend mode="normal" in2="shape" result="effect1_innerShadow_15_1008"/>
</filter>
<filter id="filter20_i_15_1008" x="61.5273" y="56.8357" width="45.4199" height="63.467" filterUnits="userSpaceOnUse" color-interpolation-filters="sRGB">
<feFlood flood-opacity="0" result="BackgroundImageFix"/>
<feBlend mode="normal" in="SourceGraphic" in2="BackgroundImageFix" result="shape"/>
<feColorMatrix in="SourceAlpha" type="matrix" values="0 0 0 0 0 0 0 0 0 0 0 0 0 0 0 0 0 0 127 0" result="hardAlpha"/>
<feOffset/>
<feGaussianBlur stdDeviation="7.4"/>
<feComposite in2="hardAlpha" operator="arithmetic" k2="-1" k3="1"/>
<feColorMatrix type="matrix" values="0 0 0 0 1 0 0 0 0 1 0 0 0 0 1 0 0 0 1 0"/>
<feBlend mode="normal" in2="shape" result="effect1_innerShadow_15_1008"/>
</filter>
<filter id="filter21_i_15_1008" x="88.4585" y="81.1597" width="12.791" height="11.6775" filterUnits="userSpaceOnUse" color-interpolation-filters="sRGB">
<feFlood flood-opacity="0" result="BackgroundImageFix"/>
<feBlend mode="normal" in="SourceGraphic" in2="BackgroundImageFix" result="shape"/>
<feColorMatrix in="SourceAlpha" type="matrix" values="0 0 0 0 0 0 0 0 0 0 0 0 0 0 0 0 0 0 127 0" result="hardAlpha"/>
<feOffset/>
<feGaussianBlur stdDeviation="7.4"/>
<feComposite in2="hardAlpha" operator="arithmetic" k2="-1" k3="1"/>
<feColorMatrix type="matrix" values="0 0 0 0 1 0 0 0 0 1 0 0 0 0 1 0 0 0 1 0"/>
<feBlend mode="normal" in2="shape" result="effect1_innerShadow_15_1008"/>
</filter>
<filter id="filter22_d_15_1008" x="25.8257" y="56.2734" width="48.4141" height="66.8501" filterUnits="userSpaceOnUse" color-interpolation-filters="sRGB">
<feFlood flood-opacity="0" result="BackgroundImageFix"/>
<feColorMatrix in="SourceAlpha" type="matrix" values="0 0 0 0 0 0 0 0 0 0 0 0 0 0 0 0 0 0 127 0" result="hardAlpha"/>
<feOffset dy="1.29934"/>
<feGaussianBlur stdDeviation="0.649671"/>
<feColorMatrix type="matrix" values="0 0 0 0 0.38125 0 0 0 0 0.416833 0 0 0 0 0.508333 0 0 0 0.38 0"/>
<feBlend mode="normal" in2="BackgroundImageFix" result="effect1_dropShadow_15_1008"/>
<feBlend mode="normal" in="SourceGraphic" in2="effect1_dropShadow_15_1008" result="shape"/>
</filter>
<filter id="filter23_d_15_1008" x="26.8708" y="56.8367" width="47.3689" height="65.6372" filterUnits="userSpaceOnUse" color-interpolation-filters="sRGB">
<feFlood flood-opacity="0" result="BackgroundImageFix"/>
<feColorMatrix in="SourceAlpha" type="matrix" values="0 0 0 0 0 0 0 0 0 0 0 0 0 0 0 0 0 0 127 0" result="hardAlpha"/>
<feOffset dx="0.324836" dy="0.974507"/>
<feGaussianBlur stdDeviation="0.487253"/>
<feColorMatrix type="matrix" values="0 0 0 0 0.7 0 0 0 0 0.526167 0 0 0 0 0.265417 0 0 0 0.5 0"/>
<feBlend mode="normal" in2="BackgroundImageFix" result="effect1_dropShadow_15_1008"/>
<feBlend mode="normal" in="SourceGraphic" in2="effect1_dropShadow_15_1008" result="shape"/>
</filter>
<filter id="filter24_i_15_1008" x="27.5205" y="56.8438" width="45.4199" height="63.6812" filterUnits="userSpaceOnUse" color-interpolation-filters="sRGB">
<feFlood flood-opacity="0" result="BackgroundImageFix"/>
<feBlend mode="normal" in="SourceGraphic" in2="BackgroundImageFix" result="shape"/>
<feColorMatrix in="SourceAlpha" type="matrix" values="0 0 0 0 0 0 0 0 0 0 0 0 0 0 0 0 0 0 127 0" result="hardAlpha"/>
<feOffset/>
<feGaussianBlur stdDeviation="7.4"/>
<feComposite in2="hardAlpha" operator="arithmetic" k2="-1" k3="1"/>
<feColorMatrix type="matrix" values="0 0 0 0 1 0 0 0 0 1 0 0 0 0 1 0 0 0 1 0"/>
<feBlend mode="normal" in2="shape" result="effect1_innerShadow_15_1008"/>
</filter>
<filter id="filter25_i_15_1008" x="27.5205" y="56.8367" width="45.4199" height="63.467" filterUnits="userSpaceOnUse" color-interpolation-filters="sRGB">
<feFlood flood-opacity="0" result="BackgroundImageFix"/>
<feBlend mode="normal" in="SourceGraphic" in2="BackgroundImageFix" result="shape"/>
<feColorMatrix in="SourceAlpha" type="matrix" values="0 0 0 0 0 0 0 0 0 0 0 0 0 0 0 0 0 0 127 0" result="hardAlpha"/>
<feOffset/>
<feGaussianBlur stdDeviation="7.4"/>
<feComposite in2="hardAlpha" operator="arithmetic" k2="-1" k3="1"/>
<feColorMatrix type="matrix" values="0 0 0 0 1 0 0 0 0 1 0 0 0 0 1 0 0 0 1 0"/>
<feBlend mode="normal" in2="shape" result="effect1_innerShadow_15_1008"/>
</filter>
<filter id="filter26_i_15_1008" x="33.2188" y="81.1619" width="12.791" height="11.6775" filterUnits="userSpaceOnUse" color-interpolation-filters="sRGB">
<feFlood flood-opacity="0" result="BackgroundImageFix"/>
<feBlend mode="normal" in="SourceGraphic" in2="BackgroundImageFix" result="shape"/>
<feColorMatrix in="SourceAlpha" type="matrix" values="0 0 0 0 0 0 0 0 0 0 0 0 0 0 0 0 0 0 127 0" result="hardAlpha"/>
<feOffset/>
<feGaussianBlur stdDeviation="7.4"/>
<feComposite in2="hardAlpha" operator="arithmetic" k2="-1" k3="1"/>
<feColorMatrix type="matrix" values="0 0 0 0 1 0 0 0 0 1 0 0 0 0 1 0 0 0 1 0"/>
<feBlend mode="normal" in2="shape" result="effect1_innerShadow_15_1008"/>
</filter>
<filter id="filter27_f_15_1008" x="41.352" y="88.0549" width="32.2471" height="29.0897" filterUnits="userSpaceOnUse" color-interpolation-filters="sRGB">
<feFlood flood-opacity="0" result="BackgroundImageFix"/>
<feBlend mode="normal" in="SourceGraphic" in2="BackgroundImageFix" result="shape"/>
<feGaussianBlur stdDeviation="0.649671" result="effect1_foregroundBlur_15_1008"/>
</filter>
<filter id="filter28_d_15_1008" x="59.2216" y="103.09" width="18.2112" height="19.4412" filterUnits="userSpaceOnUse" color-interpolation-filters="sRGB">
<feFlood flood-opacity="0" result="BackgroundImageFix"/>
<feColorMatrix in="SourceAlpha" type="matrix" values="0 0 0 0 0 0 0 0 0 0 0 0 0 0 0 0 0 0 127 0" result="hardAlpha"/>
<feOffset dx="0.649671" dy="1.62418"/>
<feGaussianBlur stdDeviation="0.487253"/>
<feColorMatrix type="matrix" values="0 0 0 0 0.0504688 0 0 0 0 0.0958375 0 0 0 0 0.2125 0 0 0 0.36 0"/>
<feBlend mode="normal" in2="BackgroundImageFix" result="effect1_dropShadow_15_1008"/>
<feBlend mode="normal" in="SourceGraphic" in2="effect1_dropShadow_15_1008" result="shape"/>
</filter>
<linearGradient id="paint0_linear_15_1008" x1="67.3793" y1="151.286" x2="67.3793" y2="87.8013" gradientUnits="userSpaceOnUse">
<stop stop-color="#FFF6D6" stop-opacity="0"/>
<stop offset="1" stop-color="#FFEFC5" stop-opacity="0.4"/>
</linearGradient>
<radialGradient id="paint1_radial_15_1008" cx="0" cy="0" r="1" gradientUnits="userSpaceOnUse" gradientTransform="translate(59.0616 115.426) rotate(46.4666) scale(17.0485 19.2446)">
<stop offset="0.432002" stop-color="#267FFF"/>
<stop offset="1" stop-color="#0D3D78"/>
</radialGradient>
<linearGradient id="paint2_linear_15_1008" x1="62.4738" y1="113.967" x2="51.5234" y2="124.164" gradientUnits="userSpaceOnUse">
<stop offset="0.213533" stop-color="#042861"/>
<stop offset="0.574194" stop-color="#195294"/>
<stop offset="1" stop-color="#063988"/>
<stop offset="1" stop-color="#063988"/>
<stop offset="1" stop-color="#063988"/>
</linearGradient>
<linearGradient id="paint3_linear_15_1008" x1="58.0877" y1="119.811" x2="78.0651" y2="126.145" gradientUnits="userSpaceOnUse">
<stop stop-color="#4680B6" stop-opacity="0.1"/>
<stop offset="0.421859" stop-color="#5693CB"/>
<stop offset="1" stop-color="#4680B6" stop-opacity="0.45"/>
</linearGradient>
<linearGradient id="paint4_linear_15_1008" x1="67.6697" y1="124.033" x2="67.6697" y2="132.642" gradientUnits="userSpaceOnUse">
<stop stop-color="#FFB779"/>
<stop offset="1" stop-color="#FFF1E4"/>
</linearGradient>
<linearGradient id="paint5_linear_15_1008" x1="67.6697" y1="123.062" x2="67.6697" y2="131.67" gradientUnits="userSpaceOnUse">
<stop stop-color="#FFB779"/>
<stop offset="1" stop-color="#FFF1E4"/>
</linearGradient>
<linearGradient id="paint6_linear_15_1008" x1="67.6691" y1="111.367" x2="67.6691" y2="129.086" gradientUnits="userSpaceOnUse">
<stop stop-color="#FFB779"/>
<stop offset="1" stop-color="#FFF1E4"/>
</linearGradient>
<linearGradient id="paint7_linear_15_1008" x1="67.5067" y1="121.76" x2="67.5067" y2="128.095" gradientUnits="userSpaceOnUse">
<stop stop-color="#FFB779"/>
<stop offset="1" stop-color="#FFF1E4"/>
</linearGradient>
<linearGradient id="paint8_linear_15_1008" x1="66.1134" y1="121.923" x2="66.1134" y2="126.978" gradientUnits="userSpaceOnUse">
<stop stop-color="#FFB779"/>
<stop offset="1" stop-color="#FFF1E4"/>
</linearGradient>
<linearGradient id="paint9_linear_15_1008" x1="68.9012" y1="121.923" x2="68.9012" y2="126.978" gradientUnits="userSpaceOnUse">
<stop stop-color="#FFB779"/>
<stop offset="1" stop-color="#FFF1E4"/>
</linearGradient>
<linearGradient id="paint10_linear_15_1008" x1="67.4595" y1="126.62" x2="67.4595" y2="128.258" gradientUnits="userSpaceOnUse">
<stop stop-color="#FFB779"/>
<stop offset="1" stop-color="#FFF1E4"/>
</linearGradient>
<linearGradient id="paint11_linear_15_1008" x1="53.3758" y1="40.2244" x2="87.3211" y2="101.294" gradientUnits="userSpaceOnUse">
<stop stop-color="#DDDFE2"/>
<stop offset="1" stop-color="white"/>
</linearGradient>
<radialGradient id="paint12_radial_15_1008" cx="0" cy="0" r="1" gradientUnits="userSpaceOnUse" gradientTransform="translate(67.5074 72.1221) rotate(90) scale(36.7698 31.6715)">
<stop stop-color="#F5F7FF"/>
<stop offset="1" stop-color="#B3B5C5"/>
</radialGradient>
<linearGradient id="paint13_linear_15_1008" x1="67.5078" y1="33.8943" x2="67.5078" y2="110.343" gradientUnits="userSpaceOnUse">
<stop stop-color="white"/>
<stop offset="1" stop-color="#F2EDED" stop-opacity="0"/>
</linearGradient>
<linearGradient id="paint14_linear_15_1008" x1="28.4053" y1="40.8125" x2="66.6294" y2="107.019" gradientUnits="userSpaceOnUse">
<stop stop-color="white"/>
<stop offset="1" stop-color="#F2EDED" stop-opacity="0"/>
</linearGradient>
<linearGradient id="paint15_linear_15_1008" x1="67.5079" y1="85.5877" x2="67.3168" y2="106.338" gradientUnits="userSpaceOnUse">
<stop stop-color="white" stop-opacity="0"/>
<stop offset="1" stop-color="#D0DBFF"/>
</linearGradient>
<linearGradient id="paint16_linear_15_1008" x1="61.9854" y1="38.2747" x2="67.0204" y2="45.0962" gradientUnits="userSpaceOnUse">
<stop offset="0.0245272" stop-color="#DBBA8F"/>
<stop offset="0.344022" stop-color="#FFEFBE"/>
<stop offset="1" stop-color="#DEBD84"/>
</linearGradient>
<linearGradient id="paint17_linear_15_1008" x1="73.0301" y1="37.9498" x2="67.9951" y2="44.1217" gradientUnits="userSpaceOnUse">
<stop stop-color="#A06E48"/>
<stop offset="0.368198" stop-color="#BD9666"/>
<stop offset="1" stop-color="#A88255"/>
</linearGradient>
<linearGradient id="paint18_linear_15_1008" x1="67.3268" y1="35.7213" x2="74.2176" y2="35.7213" gradientUnits="userSpaceOnUse">
<stop stop-color="#C08D4E"/>
<stop offset="1" stop-color="#E2C69F"/>
</linearGradient>
<linearGradient id="paint19_linear_15_1008" x1="63.4475" y1="37.6251" x2="68.1576" y2="42.0104" gradientUnits="userSpaceOnUse">
<stop stop-color="#C49357"/>
<stop offset="0.483067" stop-color="white" stop-opacity="0.87"/>
<stop offset="1" stop-color="#DFC299"/>
</linearGradient>
<linearGradient id="paint20_linear_15_1008" x1="106.274" y1="57.5204" x2="103.437" y2="68.5299" gradientUnits="userSpaceOnUse">
<stop stop-color="white"/>
<stop offset="1" stop-color="white" stop-opacity="0"/>
</linearGradient>
<linearGradient id="paint21_linear_15_1008" x1="94.2614" y1="54.423" x2="76.254" y2="124.302" gradientUnits="userSpaceOnUse">
<stop stop-color="#FFB779"/>
<stop offset="1" stop-color="#FFF1E4"/>
</linearGradient>
<linearGradient id="paint22_linear_15_1008" x1="94.2614" y1="54.423" x2="76.254" y2="124.302" gradientUnits="userSpaceOnUse">
<stop stop-color="#FFB779"/>
<stop offset="1" stop-color="#FFF1E4"/>
</linearGradient>
<linearGradient id="paint23_linear_15_1008" x1="96.1109" y1="79.3866" x2="92.3011" y2="94.1708" gradientUnits="userSpaceOnUse">
<stop stop-color="#FFB779"/>
<stop offset="1" stop-color="#FFF1E4"/>
</linearGradient>
<linearGradient id="paint24_linear_15_1008" x1="28.1941" y1="57.5214" x2="31.0312" y2="68.5309" gradientUnits="userSpaceOnUse">
<stop stop-color="white"/>
<stop offset="1" stop-color="white" stop-opacity="0"/>
</linearGradient>
<linearGradient id="paint25_linear_15_1008" x1="40.2063" y1="54.4239" x2="58.2139" y2="124.303" gradientUnits="userSpaceOnUse">
<stop stop-color="#FFB779"/>
<stop offset="1" stop-color="#FFF1E4"/>
</linearGradient>
<linearGradient id="paint26_linear_15_1008" x1="40.2063" y1="54.4239" x2="58.2139" y2="124.303" gradientUnits="userSpaceOnUse">
<stop stop-color="#FFB779"/>
<stop offset="1" stop-color="#FFF1E4"/>
</linearGradient>
<linearGradient id="paint27_linear_15_1008" x1="38.3573" y1="79.3888" x2="42.1672" y2="94.173" gradientUnits="userSpaceOnUse">
<stop stop-color="#FFB779"/>
<stop offset="1" stop-color="#FFF1E4"/>
</linearGradient>
<linearGradient id="paint28_linear_15_1008" x1="68.4872" y1="107.665" x2="62.9174" y2="115.665" gradientUnits="userSpaceOnUse">
<stop stop-color="#D5D7D9"/>
<stop offset="1" stop-color="#E2E3E7"/>
</linearGradient>
<linearGradient id="paint29_linear_15_1008" x1="66.9742" y1="117.828" x2="76.4909" y2="117.175" gradientUnits="userSpaceOnUse">
<stop stop-color="#9A9CA5"/>
<stop offset="0.259135" stop-color="#C4C6CF"/>
<stop offset="0.878536" stop-color="#E2E3E7"/>
</linearGradient>
<linearGradient id="paint30_linear_15_1008" x1="62.4282" y1="105.839" x2="69.7768" y2="104.646" gradientUnits="userSpaceOnUse">
<stop stop-color="#F4F5F8"/>
<stop offset="1" stop-color="#F5F6F7"/>
</linearGradient>
<linearGradient id="paint31_linear_15_1008" x1="67.1826" y1="105.031" x2="70.5934" y2="105.355" gradientUnits="userSpaceOnUse">
<stop stop-color="#916437"/>
<stop offset="0.522184" stop-color="#AF8356"/>
<stop offset="1" stop-color="#AF8356"/>
</linearGradient>
</defs>
</svg>
