<svg width="92" height="115" viewBox="0 0 92 115" fill="none" xmlns="http://www.w3.org/2000/svg">
<g filter="url(#filter0_i_115_1406)">
<path d="M52.9254 114.639C49.9866 112.931 63.5341 120.806 24.3677 98.0391L2.10591 85.0964L2.03796 27.252C35.5866 46.7477 -5.28378 23.0099 52.8574 56.7835L52.9254 114.639Z" fill="url(#paint0_linear_115_1406)"/>
</g>
<g filter="url(#filter1_i_115_1406)">
<path d="M89.367 93.5989L52.9396 114.638L52.8717 56.782C75.9875 43.4388 45.6254 60.9723 89.2991 35.7545L89.367 93.5989Z" fill="url(#paint1_linear_115_1406)"/>
</g>
<path d="M2.03796 27.2514L52.8573 56.7844L89.2819 35.7547L38.4626 6.22168L2.03796 27.2514Z" fill="#E3E7F0"/>
<path d="M30.7282 101.73L24.3758 98.0384C24.3601 85.7723 24.4165 129.853 24.2965 36.1516L30.6489 39.8091C30.7689 133.54 30.7125 89.4748 30.7282 101.73Z" fill="#E9E7FC"/>
<g filter="url(#filter2_i_115_1406)">
<path d="M0 22.0293L0.0209359 29.4137L53.2585 60.352L53.2376 52.9676L0 22.0293Z" fill="url(#paint2_linear_115_1406)"/>
</g>
<path d="M74.3366 102.286L68.0069 105.932C67.9991 99.8903 68.0357 128.29 67.9276 44.4868L74.2574 40.8293C74.3654 124.633 74.3288 96.2515 74.3366 102.286Z" fill="#F3F1FC"/>
<g filter="url(#filter3_i_115_1406)">
<path d="M53.2256 52.9686L53.2465 60.3529L91.4044 38.3224L91.3835 30.9381L53.2256 52.9686Z" fill="url(#paint3_linear_115_1406)"/>
</g>
<g filter="url(#filter4_i_115_1406)">
<path d="M91.3912 30.9356L53.2313 52.9709L30.5505 39.7905C-10.5778 15.8878 2.76309 23.6412 0 22.0354C58.0053 -11.4695 -26.6023 37.4054 38.1485 0C41.2935 1.82711 78.3294 23.3462 91.3912 30.9356Z" fill="url(#paint4_linear_115_1406)"/>
</g>
<path d="M68.7708 17.7966L30.6846 39.7894L30.6393 39.812L24.2869 36.1546C83.0405 2.24551 54.1352 18.9279 62.4523 14.1278L68.7708 17.7966Z" fill="#E9E7FC"/>
<path d="M30.6649 47.2293L24.3125 43.5378C24.312 43.3857 24.2852 35.662 24.2869 36.1529L30.6394 39.8103C30.6399 39.9624 30.6666 47.7201 30.6649 47.2293Z" fill="#DEDFFB"/>
<path d="M74.2512 40.8314L67.9215 44.4889L14.6801 13.5599L21.0099 9.90247L74.2512 40.8314Z" fill="#F3F1FC"/>
<path d="M74.276 48.2116L67.9463 51.8578C67.9457 51.7056 67.9171 43.996 67.9189 44.4869L74.2486 40.8294C74.2492 40.9815 74.2779 48.7025 74.276 48.2116Z" fill="#DEDFFB"/>
<path d="M38.9032 2.76065C39.2921 2.98515 39.2941 3.34891 38.9084 3.57308C38.5221 3.79758 37.8941 3.79758 37.5052 3.57309C37.117 3.34892 37.1149 2.98516 37.5012 2.76066C37.887 2.53649 38.515 2.53649 38.9032 2.76065Z" fill="#F3F1FC"/>
<path d="M29.1426 8.07775C29.6021 8.34308 29.6046 8.773 29.1487 9.03794C28.6921 9.30327 27.9499 9.30328 27.4903 9.03795C27.0314 8.77302 27.029 8.3431 27.4856 8.07776C27.9415 7.81283 28.6837 7.81282 29.1426 8.07775Z" fill="#F3F1FC"/>
<path d="M46.9428 10.2079C47.4023 10.4733 47.4047 10.9032 46.9488 11.1681C46.4923 11.4335 45.75 11.4335 45.2905 11.1681C44.8316 10.9032 44.8292 10.4733 45.2858 10.208C45.7417 9.94301 46.4839 9.94301 46.9428 10.2079Z" fill="#F3F1FC"/>
<path d="M39.252 7.75939C39.8368 8.09701 39.8398 8.64407 39.2597 8.98119C38.6788 9.31881 37.7343 9.31882 37.1496 8.9812C36.5657 8.64408 36.5626 8.09703 37.1435 7.7594C37.7236 7.42228 38.6681 7.42228 39.252 7.75939Z" fill="#F3F1FC"/>
<path d="M69.0485 21.047C68.6597 21.2715 68.6577 21.6353 69.0434 21.8595C69.4297 22.084 70.0577 22.084 70.4466 21.8595C70.8348 21.6353 70.8369 21.2715 70.4506 21.047C70.0648 20.8229 69.4368 20.8229 69.0485 21.047Z" fill="#F3F1FC"/>
<path d="M78.804 26.3642C78.3444 26.6296 78.342 27.0595 78.7979 27.3244C79.2545 27.5897 79.9967 27.5897 80.4563 27.3244C80.9151 27.0595 80.9176 26.6296 80.461 26.3642C80.0051 26.0993 79.2629 26.0993 78.804 26.3642Z" fill="#F3F1FC"/>
<path d="M72.3295 35.2778C71.8699 35.5432 71.8675 35.9731 72.3234 36.238C72.78 36.5033 73.5222 36.5034 73.9818 36.238C74.4407 35.9731 74.4431 35.5432 73.9865 35.2778C73.5306 35.0129 72.7884 35.0129 72.3295 35.2778Z" fill="#F3F1FC"/>
<path d="M71.331 28.3712C70.9671 28.5813 70.9652 28.9218 71.3262 29.1316C71.6878 29.3417 72.2755 29.3417 72.6394 29.1316C73.0028 28.9218 73.0047 28.5813 72.6432 28.3712C72.2822 28.1614 71.6944 28.1614 71.331 28.3712Z" fill="#F3F1FC"/>
<path d="M25.9726 22.3754C26.3614 22.5999 26.3635 22.9637 25.9777 23.1878C25.5914 23.4123 24.9634 23.4123 24.5746 23.1878C24.1863 22.9637 24.1843 22.5999 24.5706 22.3754C24.9563 22.1512 25.5843 22.1512 25.9726 22.3754Z" fill="#F3F1FC"/>
<path d="M6.74219 21.0417C7.20175 21.307 7.20417 21.7369 6.74828 22.0018C6.2917 22.2672 5.54949 22.2672 5.08992 22.0018C4.63105 21.7369 4.62863 21.307 5.0852 21.0417C5.5411 20.7767 6.28331 20.7767 6.74219 21.0417Z" fill="#F3F1FC"/>
<path d="M18.7612 28.8882C19.2208 29.1535 19.2232 29.5834 18.7673 29.8484C18.3107 30.1137 17.5685 30.1137 17.109 29.8484C16.6501 29.5834 16.6477 29.1535 17.1042 28.8882C17.5601 28.6233 18.3024 28.6232 18.7612 28.8882Z" fill="#F3F1FC"/>
<path d="M16.3141 19.9783C16.8989 20.3159 16.902 20.863 16.3219 21.2001C15.7409 21.5377 14.7965 21.5377 14.2117 21.2001C13.6278 20.863 13.6247 20.3159 14.2057 19.9783C14.7858 19.6412 15.7302 19.6412 16.3141 19.9783Z" fill="#F3F1FC"/>
<path d="M44.9909 36.056C44.2953 36.4575 44.2917 37.1082 44.9816 37.5092C45.6727 37.9108 46.796 37.9108 47.4915 37.5092C48.186 37.1082 48.1897 36.4576 47.4987 36.056C46.8087 35.655 45.6853 35.655 44.9909 36.056Z" fill="#F3F1FC"/>
<path d="M38.2161 40.7088C37.7565 40.9742 37.7541 41.4041 38.21 41.669C38.6666 41.9343 39.4088 41.9344 39.8684 41.669C40.3272 41.4041 40.3297 40.9742 39.8731 40.7088C39.4172 40.4439 38.675 40.4439 38.2161 40.7088Z" fill="#F3F1FC"/>
<path d="M52.789 41.8894C52.3294 42.1547 52.327 42.5846 52.7829 42.8496C53.2395 43.1149 53.9817 43.1149 54.4412 42.8496C54.9001 42.5846 54.9025 42.1547 54.446 41.8894C53.9901 41.6244 53.2479 41.6244 52.789 41.8894Z" fill="#F3F1FC"/>
<path d="M52.5819 47.9569C52.0126 48.2856 52.0096 48.8183 52.5744 49.1465C53.1401 49.4753 54.0597 49.4753 54.6291 49.1466C55.1976 48.8183 55.2006 48.2857 54.6349 47.9569C54.0701 47.6287 53.1505 47.6287 52.5819 47.9569Z" fill="#F3F1FC"/>
<path d="M88.5381 34.819C88.9928 34.5565 89.3564 34.7718 89.3578 35.2943C89.3593 35.8005 88.9981 36.4342 88.5434 36.6967C88.0958 36.9551 87.7323 36.7398 87.7308 36.2336C87.7294 35.7112 88.0905 35.0774 88.5381 34.819Z" fill="#F3F1FC"/>
<path d="M78.6944 41.5246C79.0352 41.3278 79.3077 41.4892 79.3088 41.8809C79.3099 42.2603 79.0392 42.7353 78.6984 42.9321C78.3628 43.1258 78.0903 42.9644 78.0892 42.585C78.0881 42.1934 78.3588 41.7183 78.6944 41.5246Z" fill="#F3F1FC"/>
<path d="M57.7149 53.9684C58.2426 53.6637 58.6645 53.9137 58.6663 54.5201C58.6679 55.1075 58.2488 55.843 57.7211 56.1477C57.2016 56.4476 56.7796 56.1977 56.778 55.6103C56.7762 55.0039 57.1954 54.2683 57.7149 53.9684Z" fill="#F3F1FC"/>
<path d="M63.732 49.1084C64.0728 48.9116 64.3453 49.073 64.3464 49.4646C64.3475 49.8441 64.0768 50.3191 63.736 50.5159C63.4004 50.7096 63.1279 50.5482 63.1268 50.1688C63.1257 49.7771 63.3964 49.3021 63.732 49.1084Z" fill="#F3F1FC"/>
<path d="M60.8018 59.2626C61.3295 58.9579 61.7514 59.2078 61.7532 59.8142C61.7548 60.4017 61.3357 61.1372 60.808 61.4419C60.2885 61.7418 59.8665 61.4919 59.8649 60.9044C59.8631 60.298 60.2823 59.5625 60.8018 59.2626Z" fill="#F3F1FC"/>
<path d="M58.1007 89.5344C58.7855 89.139 59.3331 89.4633 59.3353 90.2502C59.3375 91.0126 58.7936 91.967 58.1087 92.3624C57.4346 92.7516 56.8871 92.4273 56.8849 91.665C56.8827 90.8781 57.4266 89.9236 58.1007 89.5344Z" fill="#F3F1FC"/>
<path d="M81.2096 68.1453C81.8944 67.7499 82.442 68.0742 82.4442 68.8611C82.4463 69.6235 81.9024 70.5779 81.2176 70.9733C80.5435 71.3625 79.9959 71.0382 79.9938 70.2759C79.9915 69.489 80.5355 68.5345 81.2096 68.1453Z" fill="#F3F1FC"/>
<path d="M83.9237 87.3653C84.4781 87.0452 84.9214 87.3078 84.9232 87.9449C84.9249 88.5621 84.4846 89.3348 83.9302 89.6549C83.3844 89.97 82.9411 89.7075 82.9393 89.0903C82.9375 88.4532 83.3779 87.6804 83.9237 87.3653Z" fill="#F3F1FC"/>
<path d="M35.3717 53.9685C34.8439 53.6638 34.422 53.9137 34.4203 54.5201C34.4186 55.1076 34.8378 55.8431 35.3655 56.1478C35.885 56.4477 36.3069 56.1978 36.3086 55.6103C36.3103 55.0039 35.8912 54.2684 35.3717 53.9685Z" fill="#F3F1FC"/>
<path d="M17.0263 61.6758C16.4986 61.3712 16.0767 61.6211 16.075 62.2275C16.0733 62.815 16.4924 63.5504 17.0202 63.8551C17.5396 64.1551 17.9616 63.9052 17.9632 63.3177C17.965 62.7113 17.5458 61.9758 17.0263 61.6758Z" fill="#F3F1FC"/>
<path d="M38.6411 79.4143C38.1134 79.1096 37.6914 79.3595 37.6897 79.9659C37.688 80.5534 38.1072 81.2889 38.6349 81.5936C39.1544 81.8935 39.5763 81.6436 39.578 81.0561C39.5797 80.4497 39.1606 79.7142 38.6411 79.4143Z" fill="#F3F1FC"/>
<path d="M14.6865 75.328C14.1588 75.0234 13.7368 75.2733 13.7351 75.8797C13.7334 76.4672 14.1526 77.2026 14.6803 77.5073C15.1998 77.8073 15.6217 77.5573 15.6234 76.9699C15.6251 76.3635 15.206 75.628 14.6865 75.328Z" fill="#F3F1FC"/>
<path d="M42.4181 89.4957C41.8903 89.191 41.4684 89.4409 41.4667 90.0473C41.465 90.6348 41.8842 91.3703 42.4119 91.675C42.9314 91.9749 43.3533 91.725 43.355 91.1375C43.3567 90.5311 42.9375 89.7956 42.4181 89.4957Z" fill="#F3F1FC"/>
<path d="M37.0964 68.6551C36.6583 68.4022 36.3079 68.6097 36.3065 69.1131C36.3051 69.6009 36.6531 70.2115 37.0913 70.4644C37.5226 70.7134 37.8729 70.506 37.8742 70.0182C37.8757 69.5148 37.5277 68.9041 37.0964 68.6551Z" fill="#F3F1FC"/>
<path d="M6.50727 65.4036C6.06914 65.1506 5.71883 65.3581 5.71741 65.8616C5.71603 66.3493 6.06401 66.9599 6.50215 67.2129C6.93344 67.4619 7.28375 67.2544 7.28513 66.7667C7.28656 66.2632 6.93857 65.6526 6.50727 65.4036Z" fill="#F3F1FC"/>
<path d="M11.0607 52.0705C10.6226 51.8176 10.2723 52.0251 10.2709 52.5285C10.2695 53.0163 10.6175 53.6269 11.0556 53.8798C11.4869 54.1288 11.8372 53.9214 11.8386 53.4336C11.84 52.9302 11.492 52.3195 11.0607 52.0705Z" fill="#F3F1FC"/>
<path d="M18.3778 86.5945C17.9396 86.3416 17.5893 86.5491 17.5879 87.0525C17.5865 87.5403 17.9345 88.1509 18.3726 88.4039C18.8039 88.6529 19.1542 88.4454 19.1556 87.9577C19.157 87.4542 18.8091 86.8436 18.3778 86.5945Z" fill="#F3F1FC"/>
<path d="M48.0794 78.3785C47.6413 78.1255 47.291 78.333 47.2896 78.8365C47.2882 79.3242 47.6362 79.9348 48.0743 80.1878C48.5056 80.4368 48.8559 80.2293 48.8573 79.7416C48.8587 79.2381 48.5107 78.6275 48.0794 78.3785Z" fill="#F3F1FC"/>
<path d="M35.0731 95.8262C34.6349 95.5732 34.2846 95.7807 34.2832 96.2842C34.2818 96.7719 34.6298 97.3825 35.0679 97.6355C35.4992 97.8845 35.8495 97.677 35.8509 97.1893C35.8524 96.6858 35.5044 96.0752 35.0731 95.8262Z" fill="#F3F1FC"/>
<path d="M8.95353 43.0307C8.57236 42.8106 8.2676 42.9911 8.26636 43.4291C8.26516 43.8534 8.5679 44.3847 8.94907 44.6047C9.32429 44.8214 9.62905 44.6409 9.63025 44.2165C9.63149 43.7785 9.32875 43.2473 8.95353 43.0307Z" fill="#F3F1FC"/>
<path d="M17.9512 44.5883C17.57 44.3682 17.2653 44.5487 17.264 44.9867C17.2628 45.4111 17.5656 45.9423 17.9467 46.1624C18.322 46.379 18.6267 46.1985 18.6279 45.7742C18.6292 45.3362 18.3264 44.8049 17.9512 44.5883Z" fill="#F3F1FC"/>
<path d="M45.7016 64.3931C45.3204 64.173 45.0156 64.3535 45.0144 64.7915C45.0132 65.2158 45.3159 65.7471 45.6971 65.9672C46.0723 66.1838 46.3771 66.0033 46.3783 65.579C46.3795 65.141 46.0768 64.6097 45.7016 64.3931Z" fill="#F3F1FC"/>
<path d="M79.0288 53.1835C79.5566 52.8788 79.9785 53.1287 79.9802 53.7351C79.9819 54.3226 79.5627 55.0581 79.035 55.3628C78.5155 55.6627 78.0936 55.4128 78.0919 54.8253C78.0902 54.2189 78.5094 53.4834 79.0288 53.1835Z" fill="#F3F1FC"/>
<path d="M84.3181 47.5345C84.659 47.3377 84.9315 47.4991 84.9326 47.8908C84.9337 48.2702 84.663 48.7453 84.3221 48.942C83.9866 49.1357 83.7141 48.9743 83.713 48.5949C83.7119 48.2033 83.9826 47.7282 84.3181 47.5345Z" fill="#F3F1FC"/>
<path d="M57.1547 66.1408C57.4955 65.944 57.768 66.1055 57.7691 66.4971C57.7702 66.8765 57.4995 67.3516 57.1587 67.5484C56.8232 67.7421 56.5506 67.5807 56.5496 67.2012C56.5485 66.8096 56.8192 66.3345 57.1547 66.1408Z" fill="#F3F1FC"/>
<path d="M63.7325 78.3545C64.0733 78.1577 64.3458 78.3192 64.3469 78.7108C64.348 79.0902 64.0773 79.5653 63.7364 79.762C63.4009 79.9557 63.1284 79.7944 63.1273 79.4149C63.1262 79.0233 63.3969 78.5482 63.7325 78.3545Z" fill="#F3F1FC"/>
<path d="M59.3345 101.027C59.6753 100.83 59.9478 100.992 59.949 101.383C59.95 101.763 59.6793 102.238 59.3385 102.434C59.003 102.628 58.7304 102.467 58.7294 102.087C58.7283 101.696 58.999 101.221 59.3345 101.027Z" fill="#F3F1FC"/>
<path d="M79.3872 79.1424C79.7281 78.9456 80.0006 79.107 80.0017 79.4987C80.0028 79.8781 79.7321 80.3531 79.3912 80.5499C79.0557 80.7436 78.7832 80.5822 78.7821 80.2028C78.781 79.8112 79.0517 79.3361 79.3872 79.1424Z" fill="#F3F1FC"/>
<path d="M84.928 60.4399C85.2688 60.2431 85.5414 60.4045 85.5425 60.7962C85.5435 61.1756 85.2728 61.6506 84.932 61.8474C84.5965 62.0411 84.324 61.8797 84.3229 61.5003C84.3218 61.1086 84.5925 60.6336 84.928 60.4399Z" fill="#F3F1FC"/>
<path d="M57.7266 74.497C58.0674 74.3002 58.3399 74.4616 58.341 74.8533C58.3421 75.2327 58.0714 75.7077 57.7306 75.9045C57.3951 76.0982 57.1225 75.9368 57.1215 75.5574C57.1203 75.1658 57.3911 74.6907 57.7266 74.497Z" fill="#F3F1FC"/>
<path d="M78.0876 94.2352C78.4284 94.0384 78.7009 94.1998 78.702 94.5915C78.7031 94.9709 78.4324 95.4459 78.0915 95.6427C77.756 95.8364 77.4835 95.675 77.4824 95.2956C77.4813 94.9039 77.752 94.4289 78.0876 94.2352Z" fill="#F3F1FC"/>
<path d="M63.6329 13.4405L59.0104 10.9089C59.3145 14.5009 55.9909 18.183 52.9985 20.0657L57.621 22.5973C60.6186 20.7112 63.9368 17.0317 63.6329 13.4405Z" fill="#EBF2FF"/>
<path d="M62.899 11.9981L58.2766 9.46652C58.6755 9.68495 58.9695 10.1207 59.0139 10.911L63.6363 13.4426C63.5919 12.6522 63.2979 12.2165 62.899 11.9981Z" fill="#EBF2FF"/>
<path d="M57.6298 22.5979L53.0074 20.0664L44.4851 25.2796L49.1075 27.8111L57.6298 22.5979Z" fill="#EBF2FF"/>
<path d="M63.5164 10.8714L58.894 8.33986C58.1054 7.90793 56.9681 8.08154 55.8837 8.54281C52.3309 10.1047 50.3916 13.4417 48.6423 16.9276C47.4837 19.2569 45.2251 22.4714 43.7991 24.1155L48.4215 26.6471C49.8476 25.0029 52.1061 21.7885 53.2647 19.4592C55.0277 15.9459 56.9654 12.631 60.5062 11.0744C61.5905 10.6131 62.7278 10.4395 63.5164 10.8714Z" fill="#EBF2FF"/>
<path d="M48.635 16.9279L53.2546 19.4587C55.0467 15.8934 56.9451 12.6702 60.5057 11.0695C61.5918 10.6166 62.7261 10.4369 63.5054 10.8698L58.8858 8.33897C58.1065 7.90594 56.9585 8.08608 55.8723 8.539C52.331 10.131 50.402 13.4126 48.635 16.9279Z" fill="#DBE6FA"/>
<path d="M48.1435 26.9669L43.5211 24.4354L43.5907 26.9009L48.2132 29.4324L48.1435 26.9669Z" fill="#EBF2FF"/>
<path d="M48.4157 26.646L43.7933 24.1144L43.5211 24.4352L48.1435 26.9668L48.4157 26.646Z" fill="#EBF2FF"/>
<path d="M53.2665 19.4579C55.0295 15.9447 56.9672 12.6297 60.508 11.0732C62.3717 10.2804 64.3917 10.3373 64.5291 12.8578C64.936 16.9644 61.2022 21.408 57.67 23.6519L48.2207 29.4321L48.1511 26.9666L48.4233 26.6458C49.8494 25.0017 52.1079 21.7873 53.2665 19.4579ZM49.1015 27.8129L57.6238 22.5997C60.6214 20.7136 63.9397 17.0342 63.6357 13.4429C63.5079 11.1689 61.2486 11.5848 59.315 12.7676C57.0868 14.1306 55.6606 16.3536 53.9694 19.7419C52.7951 22.1 50.5848 25.2657 49.0806 27.0733L49.1015 27.8129Z" fill="#BBCFEF"/>
<path d="M27.4354 14.3625L31.9234 11.5997C31.8021 15.2025 35.3083 18.7111 38.3924 20.4396L33.9045 23.2025C30.8149 21.4709 27.3142 17.9646 27.4354 14.3625Z" fill="#EBF2FF"/>
<path d="M28.0913 12.8801L32.5792 10.1172C32.1919 10.3556 31.9204 10.8057 31.9162 11.5973L27.4282 14.3601C27.4324 13.5686 27.704 13.1185 28.0913 12.8801Z" fill="#EBF2FF"/>
<path d="M33.9069 23.2008L38.3948 20.4379L47.1707 25.212L42.6828 27.9748L33.9069 23.2008Z" fill="#EBF2FF"/>
<path d="M27.4324 11.7884L31.9203 9.02557C32.686 8.55418 33.8306 8.66986 34.937 9.07551C38.5645 10.4551 40.6708 13.6894 42.5948 17.0821C43.8701 19.3496 46.289 22.4453 47.7966 24.0149L43.3087 26.7778C41.801 25.2081 39.3822 22.1125 38.1068 19.8449C36.1283 16.356 34.3096 13.8336 31.6833 12.405C30.469 11.7444 28.6095 11.0638 27.4324 11.7884Z" fill="#EBF2FF"/>
<path d="M42.5924 17.0787L38.1112 19.8383C37.2724 18.3546 36.4505 17.0526 35.5721 15.9219C34.1471 14.036 32.6012 12.6887 30.4435 11.8284C29.3289 11.4318 28.1973 11.3149 27.4324 11.7834L31.9258 9.02344C32.6785 8.55526 33.8345 8.67155 34.9369 9.06841C36.942 9.86788 38.4243 11.0795 39.7897 12.8169C40.767 14.0179 41.6648 15.4394 42.5924 17.0787Z" fill="#DBE6FA"/>
<path d="M43.5673 27.0831L48.0552 24.3202L48.1108 26.7861L43.6229 29.5489L43.5673 27.0831Z" fill="#EBF2FF"/>
<path d="M43.2889 26.7743L47.7769 24.0115L48.065 24.318L43.5771 27.0809L43.2889 26.7743Z" fill="#EBF2FF"/>
<path d="M43.2908 26.7783L43.579 27.0848L43.6346 29.5507L33.904 24.2574C30.2652 22.1971 26.3079 17.9483 26.5058 13.8252C26.5163 10.9486 29.1457 11.0348 31.6654 12.4055C34.2917 13.8341 36.1104 16.3565 38.089 19.8454C39.3643 22.113 41.7831 25.2086 43.2908 26.7783ZM42.6728 27.9783L42.6561 27.2385C41.0621 25.5096 38.6939 22.4602 37.4014 20.1646C35.5404 16.8665 34.0031 14.7188 31.7086 13.4706C29.7175 12.3874 27.4399 12.0867 27.4278 14.3643C27.3065 17.9671 30.8127 21.4757 33.8968 23.2042L42.6728 27.9783Z" fill="#BBCFEF"/>
<path d="M44.1849 29.0362L39.5625 26.5047L39.5834 27.2443L44.2058 29.7759L44.1849 29.0362Z" fill="#EBF2FF"/>
<path d="M45.0593 27.8168L40.4369 25.2852L40.1724 25.2928L44.7948 27.8243L45.0593 27.8168Z" fill="#EBF2FF"/>
<path d="M44.176 29.7794L39.5536 27.2478L31.015 32.471L35.6374 35.0026L44.176 29.7794Z" fill="#EBF2FF"/>
<path d="M35.3782 24.3687L40.0006 26.9003C41.3124 27.6188 43.4317 27.9422 44.7895 27.825L40.167 25.2935C38.8093 25.4106 36.69 25.0872 35.3782 24.3687Z" fill="#EBF2FF"/>
<path d="M38.2556 27.329L33.6332 24.7974C33.8978 24.9423 34.1665 25.1087 34.4426 25.2934C34.7146 25.4795 39.587 28.1337 39.4235 28.0439C39.1142 27.8745 38.8061 27.6305 38.2556 27.329Z" fill="#EBF2FF"/>
<path d="M25.859 33.4729L30.4814 36.0045C31.6111 36.6232 33.5288 36.2632 35.6531 35.0011L31.0306 32.4696C28.9064 33.7316 26.9887 34.0916 25.859 33.4729Z" fill="#EBF2FF"/>
<path d="M29.8456 37.1301C28.7127 36.5092 28.4111 35.1674 28.4451 33.8865L23.8226 31.3549C23.7826 32.8651 24.2104 33.9539 25.0866 34.5176C25.2393 34.6152 29.9984 37.2138 29.8456 37.1301Z" fill="#EBF2FF"/>
<path d="M38.8525 26.1989L34.2302 23.6673C32.3519 22.6386 30.448 22.5606 27.6056 24.793C25.7774 26.2586 23.8129 28.753 23.8201 31.353L28.4425 33.8846C28.4353 31.2845 30.3998 28.7902 32.228 27.3246C35.0696 25.0928 36.9734 25.1697 38.8525 26.1989Z" fill="#DBE6FA"/>
<path d="M32.2382 27.3246C35.3167 24.9068 37.342 25.1117 39.6992 26.7156C40.964 27.5625 43.3244 27.9515 44.7933 27.8247L45.0578 27.8172L45.1274 30.2827C44.889 30.4286 35.4013 36.2323 35.6781 36.063C31.9507 38.2554 28.3388 38.1744 28.4527 33.8846C28.4455 31.2846 30.41 28.7902 32.2382 27.3246ZM30.3637 35.9376C31.4757 36.6465 33.4514 36.3061 35.6481 35.001L44.1866 29.7778L44.1657 29.0382C42.6123 29.1009 40.3176 28.6911 39.0522 27.8253C36.8158 26.33 35.1445 26.143 32.414 28.2781C31.6859 28.8586 29.3453 30.927 29.3651 33.3845C29.3175 34.629 29.6559 35.4831 30.3637 35.9376Z" fill="#BBCFEF"/>
<path d="M46.0111 28.9902L50.499 26.2274L50.5157 26.9671L46.0278 29.73L46.0111 28.9902Z" fill="#EBF2FF"/>
<path d="M45.0471 27.8167L49.5351 25.0539L49.7996 25.048L45.3117 27.8108L45.0471 27.8167Z" fill="#EBF2FF"/>
<path d="M46.0226 29.7295L50.5105 26.9666L59.3033 31.7498L54.8153 34.5127L46.0226 29.7295Z" fill="#EBF2FF"/>
<path d="M54.53 23.8819L50.042 26.6448C48.7684 27.4288 46.6682 27.8594 45.3063 27.8112L49.7942 25.0484C51.1561 25.0965 53.2563 24.6659 54.53 23.8819Z" fill="#EBF2FF"/>
<path d="M51.8401 26.9819L56.328 24.2191C55.7842 24.5538 55.5191 24.7946 55.1979 24.9923L50.71 27.7552C51.0103 27.5703 51.3057 27.3109 51.8401 26.9819Z" fill="#EBF2FF"/>
<path d="M64.522 32.4917L60.034 35.2546C58.9372 35.9298 57.0037 35.6676 54.8181 34.5149L59.3061 31.752C61.4916 32.9047 63.4251 33.1669 64.522 32.4917Z" fill="#EBF2FF"/>
<path d="M60.7055 36.343C61.8054 35.6655 62.0386 34.3101 61.9396 33.0326L66.4275 30.2697C66.5442 31.7759 66.1722 32.885 65.3257 33.4925C65.1738 33.6007 60.5543 36.4362 60.7055 36.343Z" fill="#EBF2FF"/>
<path d="M51.1483 25.8862L55.6362 23.1234C57.4601 22.0005 59.3576 21.8263 62.3094 23.9114C64.2097 25.2824 66.2983 27.6738 66.4231 30.2709L61.9351 33.0338C61.8104 30.4367 59.7217 28.0452 57.8215 26.6743C54.8703 24.5897 52.9729 24.7629 51.1483 25.8862Z" fill="#DBE6FA"/>
<path d="M61.9388 33.0346C62.2703 37.3123 58.6676 37.5774 54.8334 35.5768C54.5281 35.4107 44.9415 30.1957 45.1028 30.2834L45.0471 27.8175L45.3117 27.8116C46.7851 27.8637 49.1227 27.3555 50.3428 26.4454C52.6213 24.7197 54.6315 24.4191 57.8252 26.6751C59.7254 28.046 61.8141 30.4375 61.9388 33.0346ZM60.1345 35.1819C60.8183 34.692 61.1129 33.8219 61.0022 32.5813C60.8972 30.126 58.4546 28.179 57.698 27.6363C54.8855 25.6585 53.2229 25.8992 51.0453 27.5209C49.8256 28.4498 47.5546 28.9755 46 28.9916L46.0167 29.7314L54.8094 34.5146C57.0695 35.7065 59.06 35.9463 60.1345 35.1819Z" fill="#BBCFEF"/>
<path d="M39.7794 12.8164C39.2168 14.0808 37.1421 15.5414 35.5618 15.9214C34.1367 14.0355 32.5908 12.6882 30.4331 11.8279C29.3186 11.4313 28.1869 11.3144 27.422 11.7829L31.9154 9.02295C32.6681 8.55478 33.8241 8.67107 34.9265 9.06792C36.9317 9.8674 38.414 11.079 39.7794 12.8164Z" fill="#CBDBF4"/>
<path d="M51.2506 12.5245C51.8767 13.7588 54.0229 15.1121 55.6204 15.4115C56.9479 13.4557 58.4234 12.0317 60.5347 11.063C61.6276 10.6104 62.7519 10.4362 63.5396 10.8653L58.9119 8.33692C58.1363 7.90754 56.9877 8.08234 55.9069 8.53462C53.9449 9.43481 52.526 10.7201 51.2506 12.5245Z" fill="#CBDBF4"/>
<path d="M30.932 26.6669C29.6724 27.3843 29.1411 28.323 28.3383 28.2302C27.585 28.1848 27.5944 26.8699 29.0338 25.5294C30.6666 24.0086 32.1194 23.8085 32.8549 24.7644C33.4757 25.593 32.1433 25.9627 30.932 26.6669Z" fill="#CBDBF4"/>
<path d="M59.955 25.6644C61.2493 26.317 61.8276 27.2275 62.6247 27.094C63.3747 27.0105 63.2985 25.6978 61.793 24.432C60.085 22.9961 58.624 22.87 57.938 23.8619C57.36 24.7209 58.7094 25.0225 59.955 25.6644Z" fill="#CBDBF4"/>
<path d="M48.1331 26.6167C46.9741 27.3328 45.0625 27.3814 43.8588 26.7252C42.6652 26.0786 42.6273 24.9711 43.7862 24.255C44.9455 23.5487 46.8473 23.5004 48.0508 24.1468C49.2445 24.8031 49.2825 25.9106 48.1331 26.6167Z" fill="#CBDBF4"/>
<defs>
<filter id="filter0_i_115_1406" x="2.03796" y="27.252" width="50.895" height="87.3915" filterUnits="userSpaceOnUse" color-interpolation-filters="sRGB">
<feFlood flood-opacity="0" result="BackgroundImageFix"/>
<feBlend mode="normal" in="SourceGraphic" in2="BackgroundImageFix" result="shape"/>
<feColorMatrix in="SourceAlpha" type="matrix" values="0 0 0 0 0 0 0 0 0 0 0 0 0 0 0 0 0 0 127 0" result="hardAlpha"/>
<feOffset/>
<feGaussianBlur stdDeviation="8.68626"/>
<feComposite in2="hardAlpha" operator="arithmetic" k2="-1" k3="1"/>
<feColorMatrix type="matrix" values="0 0 0 0 1 0 0 0 0 1 0 0 0 0 1 0 0 0 1 0"/>
<feBlend mode="normal" in2="shape" result="effect1_innerShadow_115_1406"/>
</filter>
<filter id="filter1_i_115_1406" x="52.8716" y="35.7545" width="36.4951" height="78.8833" filterUnits="userSpaceOnUse" color-interpolation-filters="sRGB">
<feFlood flood-opacity="0" result="BackgroundImageFix"/>
<feBlend mode="normal" in="SourceGraphic" in2="BackgroundImageFix" result="shape"/>
<feColorMatrix in="SourceAlpha" type="matrix" values="0 0 0 0 0 0 0 0 0 0 0 0 0 0 0 0 0 0 127 0" result="hardAlpha"/>
<feOffset/>
<feGaussianBlur stdDeviation="8.68626"/>
<feComposite in2="hardAlpha" operator="arithmetic" k2="-1" k3="1"/>
<feColorMatrix type="matrix" values="0 0 0 0 1 0 0 0 0 1 0 0 0 0 1 0 0 0 1 0"/>
<feBlend mode="normal" in2="shape" result="effect1_innerShadow_115_1406"/>
</filter>
<filter id="filter2_i_115_1406" x="0" y="22.0293" width="53.2583" height="38.3226" filterUnits="userSpaceOnUse" color-interpolation-filters="sRGB">
<feFlood flood-opacity="0" result="BackgroundImageFix"/>
<feBlend mode="normal" in="SourceGraphic" in2="BackgroundImageFix" result="shape"/>
<feColorMatrix in="SourceAlpha" type="matrix" values="0 0 0 0 0 0 0 0 0 0 0 0 0 0 0 0 0 0 127 0" result="hardAlpha"/>
<feOffset/>
<feGaussianBlur stdDeviation="8.68626"/>
<feComposite in2="hardAlpha" operator="arithmetic" k2="-1" k3="1"/>
<feColorMatrix type="matrix" values="0 0 0 0 1 0 0 0 0 1 0 0 0 0 1 0 0 0 1 0"/>
<feBlend mode="normal" in2="shape" result="effect1_innerShadow_115_1406"/>
</filter>
<filter id="filter3_i_115_1406" x="53.2256" y="30.9381" width="38.1787" height="29.4148" filterUnits="userSpaceOnUse" color-interpolation-filters="sRGB">
<feFlood flood-opacity="0" result="BackgroundImageFix"/>
<feBlend mode="normal" in="SourceGraphic" in2="BackgroundImageFix" result="shape"/>
<feColorMatrix in="SourceAlpha" type="matrix" values="0 0 0 0 0 0 0 0 0 0 0 0 0 0 0 0 0 0 127 0" result="hardAlpha"/>
<feOffset/>
<feGaussianBlur stdDeviation="8.68626"/>
<feComposite in2="hardAlpha" operator="arithmetic" k2="-1" k3="1"/>
<feColorMatrix type="matrix" values="0 0 0 0 1 0 0 0 0 1 0 0 0 0 1 0 0 0 1 0"/>
<feBlend mode="normal" in2="shape" result="effect1_innerShadow_115_1406"/>
</filter>
<filter id="filter4_i_115_1406" x="0" y="0" width="91.3911" height="52.9709" filterUnits="userSpaceOnUse" color-interpolation-filters="sRGB">
<feFlood flood-opacity="0" result="BackgroundImageFix"/>
<feBlend mode="normal" in="SourceGraphic" in2="BackgroundImageFix" result="shape"/>
<feColorMatrix in="SourceAlpha" type="matrix" values="0 0 0 0 0 0 0 0 0 0 0 0 0 0 0 0 0 0 127 0" result="hardAlpha"/>
<feOffset/>
<feGaussianBlur stdDeviation="8.68626"/>
<feComposite in2="hardAlpha" operator="arithmetic" k2="-1" k3="1"/>
<feColorMatrix type="matrix" values="0 0 0 0 1 0 0 0 0 1 0 0 0 0 1 0 0 0 1 0"/>
<feBlend mode="normal" in2="shape" result="effect1_innerShadow_115_1406"/>
</filter>
<linearGradient id="paint0_linear_115_1406" x1="55.2218" y1="74.3093" x2="-0.451807" y2="73.9164" gradientUnits="userSpaceOnUse">
<stop stop-color="#2639ED"/>
<stop offset="1" stop-color="#2639ED"/>
</linearGradient>
<linearGradient id="paint1_linear_115_1406" x1="91.0084" y1="78.2303" x2="51.0856" y2="78.0065" gradientUnits="userSpaceOnUse">
<stop stop-color="#2639ED"/>
<stop offset="1" stop-color="#2639ED"/>
</linearGradient>
<linearGradient id="paint2_linear_115_1406" x1="55.6537" y1="42.6647" x2="-2.59178" y2="41.6839" gradientUnits="userSpaceOnUse">
<stop stop-color="#2639ED"/>
<stop offset="1" stop-color="#2639ED"/>
</linearGradient>
<linearGradient id="paint3_linear_115_1406" x1="93.1214" y1="46.7769" x2="51.3661" y2="46.1203" gradientUnits="userSpaceOnUse">
<stop stop-color="#2639ED"/>
<stop offset="1" stop-color="#2639ED"/>
</linearGradient>
<linearGradient id="paint4_linear_115_1406" x1="95.5014" y1="28.523" x2="-4.43215" y2="26.4339" gradientUnits="userSpaceOnUse">
<stop stop-color="#2639ED"/>
<stop offset="1" stop-color="#2639ED"/>
</linearGradient>
</defs>
</svg>
