<svg width="109" height="116" viewBox="0 0 109 116" fill="none" xmlns="http://www.w3.org/2000/svg">
<path d="M26.8233 67.4629C27.0835 67.5705 29.2018 70.3079 30.2284 71.6631L31.0589 73.3393C29.627 72.811 26.5849 71.5408 25.8713 70.6874C25.1578 69.8339 24.5823 67.5099 24.3838 66.4546L26.8233 67.4629Z" fill="url(#paint0_linear_83_1212)"/>
<path d="M22.9894 25.1222C22.6135 23.6974 23.233 21.9224 23.7143 19.8365C24.0028 19.7526 25.6681 21.4056 25.4318 28.7341L25.0457 31.0501C25.0949 32.4667 24.5131 30.9568 23.8828 29.8711C23.2388 27.1295 23.4592 26.9033 22.9894 25.1222Z" fill="url(#paint1_linear_83_1212)"/>
<path d="M29.2005 19.9555C29.5966 19.6114 31.28 18.1492 34.1337 17.2341L34.1337 17.2341C33.9544 17.6679 33.439 18.9147 31.0907 21.3715C30.6852 21.5847 28.6295 22.2584 27.4969 22.2345C27.3026 22.4589 27.4737 22.0345 27.4911 21.7878C27.9479 20.5802 28.8044 20.2995 29.2005 19.9555Z" fill="url(#paint2_linear_83_1212)"/>
<path fill-rule="evenodd" clip-rule="evenodd" d="M23.0879 46.3425C22.8052 33.2347 26.9286 21.1029 30.6019 13.7634L30.8729 13.8754C27.2552 21.1041 23.7474 33.3934 24.0262 46.3223C24.3048 59.2382 28.6826 72.8991 41.4507 83.2274L40.8604 83.9571C27.8277 73.4148 23.3709 59.4634 23.0879 46.3425Z" fill="url(#paint3_linear_83_1212)"/>
<path d="M28.3721 16.5554L25.8936 11.3418L25.423 12.4802C24.5961 15.2486 25.8863 16.7339 26.0909 18.8496C26.2545 20.5421 27.1486 21.6141 27.5069 21.7199L28.1509 19.7011L28.3721 16.5554Z" fill="url(#paint4_linear_83_1212)"/>
<path d="M25.9451 11.4497C26.2937 13.9687 26.7459 16.9797 27.1434 17.6903C27.5059 18.3375 27.5904 19.9987 27.5743 21.5077L27.5068 21.7196C27.1482 21.6131 26.2552 20.5409 26.0917 18.8491C25.887 16.7335 24.5963 15.2481 25.4232 12.4799L25.8936 11.3418L25.9451 11.4497Z" fill="url(#paint5_linear_83_1212)"/>
<path d="M28.2969 49.5852C28.4611 48.9422 28.5369 45.1144 28.5542 43.2809L28.0497 43.5801C25.556 47.3098 25.9102 49.6777 25.681 51.6141C25.4519 53.5505 23.6608 56.809 24.8585 55.9076C26.0562 55.0063 28.0916 50.389 28.2969 49.5852Z" fill="url(#paint6_linear_83_1212)"/>
<path d="M28.5475 43.5604C27.8741 45.6432 26.9688 48.7003 26.7526 50.4109C26.5495 52.0184 25.6975 54.2889 24.9374 55.8507C24.9099 55.8745 24.8836 55.8977 24.8569 55.9178C23.6593 56.8191 25.4497 53.5616 25.6791 51.6251C25.9082 49.6887 25.5542 47.3203 28.0479 43.5906L28.5519 43.2917C28.5511 43.3772 28.5486 43.4669 28.5475 43.5604Z" fill="url(#paint7_linear_83_1212)"/>
<path d="M22.6466 37.1726C22.084 36.0768 20.582 34.1823 19.9014 33.3721C19.644 34.916 20.1601 35.5101 20.1254 37.5904C20.0977 39.2546 22.2047 41.5176 23.2617 42.4411C23.2911 41.1415 23.2092 38.2684 22.6466 37.1726Z" fill="url(#paint8_linear_83_1212)"/>
<path d="M22.6465 37.1764C23.2091 38.2723 23.2912 41.1452 23.2618 42.4447C22.8857 42.1161 22.3779 41.6169 21.8795 41.0364C21.8714 39.5812 22.2334 38.0977 22.584 37.0618C22.6054 37.1011 22.6273 37.1389 22.6465 37.1764Z" fill="url(#paint9_linear_83_1212)"/>
<path d="M22.4436 25.2197C22.1816 24.5021 20.8883 23.0958 20.2744 22.4824C20.2426 23.9926 19.702 25.8637 20.2188 28.2989C20.4324 29.3056 22.8626 32.396 24.1646 33.8016L24.2202 32.7456C23.0045 30.4658 22.771 26.1167 22.4436 25.2197Z" fill="url(#paint10_linear_83_1212)"/>
<path d="M28.0405 31.3402C29.293 30.0299 29.6177 27.4221 29.6235 26.282C27.4507 28.621 26.4843 28.3485 25.0951 31.7096L24.8118 33.6236C25.3662 33.4084 26.7881 32.6505 28.0405 31.3402Z" fill="url(#paint11_linear_83_1212)"/>
<path d="M23.4083 52.8431C21.7655 50.1838 17.9661 48.9645 16.3082 48.8293C19.4669 53.6259 20.3335 52.1434 21.876 53.4792C23.11 54.5478 24.0415 54.9455 24.1904 54.9436L23.4083 52.8431Z" fill="url(#paint12_linear_83_1212)"/>
<path d="M20.7823 47.0684C20.326 46.5752 16.9352 44.0396 15.2969 42.8335C16.8365 46.3261 18.17 48.7815 19.4227 49.7435C20.4248 50.5132 22.782 53.1843 23.8354 54.4237C23.8315 54.1259 23.7864 53.3752 23.6366 52.7547C23.4494 51.9792 21.3526 47.685 20.7823 47.0684Z" fill="url(#paint13_linear_83_1212)"/>
<path d="M30.2094 57.1114C28.9228 59.1185 28.1463 62.5635 27.9189 64.0352L28.4957 66.9394C29.2346 65.5099 30.7352 62.3811 30.826 61.3015C30.9168 60.2219 30.4528 58.0583 30.2094 57.1114Z" fill="url(#paint14_linear_83_1212)"/>
<path d="M23.5137 57.6372C23.2414 57.0677 21.7388 55.9938 21.0215 55.5281C20.9733 56.566 21.1354 59.0915 22.1693 60.8899C23.2032 62.6882 25.4345 63.9955 26.4209 64.4244C26.536 64.1969 26.6433 63.6404 26.1513 63.2339C25.5361 62.7258 23.8542 58.3492 23.5137 57.6372Z" fill="url(#paint15_linear_83_1212)"/>
<path d="M21.0234 55.5388C21.7407 56.0046 23.2438 57.0785 23.5161 57.648C23.8571 58.3615 25.5388 62.736 26.1538 63.244C26.6458 63.6505 26.5384 64.2079 26.4232 64.4353C26.3754 64.4145 26.3257 64.3883 26.2723 64.3634C24.1256 61.9905 22.0872 58.0051 21.022 55.6037C21.0228 55.5815 21.0225 55.5598 21.0234 55.5388Z" fill="url(#paint16_linear_83_1212)"/>
<path d="M27.7641 74.6919C28.2723 74.445 30.3992 74.152 31.399 74.0364L31.4157 73.5354C31.0032 73.4073 29.8657 73.0471 28.6155 72.6319C27.3653 72.2167 25.6217 73.4256 24.9061 74.0819C25.647 74.3881 27.2558 74.9388 27.7641 74.6919Z" fill="url(#paint17_linear_83_1212)"/>
<path d="M31.1888 7.44449C31.5114 6.66386 34.2231 5.0173 35.5386 4.2916L35.0934 7.97936C34.8693 8.52147 34.1809 9.84912 33.2199 10.8229C32.2588 11.7967 30.9999 13.4809 30.698 14.1601L30.3727 14.0257C30.0728 11.6801 30.7854 8.42028 31.1888 7.44449Z" fill="url(#paint18_linear_83_1212)"/>
<path fill-rule="evenodd" clip-rule="evenodd" d="M30.6702 13.8963C30.9781 12.0125 33.7077 7.13265 35.3969 4.36323C35.4425 4.33772 35.4868 4.31312 35.5297 4.2895L35.0844 7.97726C34.8603 8.51936 34.1719 9.84701 33.2109 10.8208C32.2498 11.7945 31.0227 13.5554 30.7208 14.2346L30.6702 13.8963Z" fill="url(#paint19_linear_83_1212)"/>
<g filter="url(#filter0_d_83_1212)">
<path d="M29.2711 17.3676C29.422 17.1253 30.8553 14.8489 34.0748 13.5772C34.0738 14.2962 33.4187 16.2638 32.8301 17.4423C32.2414 18.6208 29.2605 20.5157 27.5905 21.4334C28.3044 19.6551 29.1201 17.6099 29.2711 17.3676Z" fill="url(#paint20_linear_83_1212)"/>
<path d="M34.0717 13.7151C32.5958 15.7346 29.9685 19.1601 27.9882 21.2085C27.8501 21.2874 27.7199 21.3652 27.595 21.4338C28.3085 19.6564 29.123 17.6118 29.2746 17.3677C29.4255 17.1254 30.8596 14.8492 34.0789 13.5775C34.0788 13.6193 34.076 13.6653 34.0717 13.7151Z" fill="url(#paint21_linear_83_1212)"/>
</g>
<path d="M23.7031 19.9224C23.8187 20.2227 23.9342 20.5823 24.0107 20.9678C24.2167 22.005 25.098 30.6211 24.8927 31.4248C24.8802 31.4735 24.8646 31.5144 24.8496 31.5496C24.6319 31.3136 24.2701 30.5145 23.8931 29.8651C23.2491 27.1235 23.4697 26.8969 22.9999 25.1159C22.6881 23.2988 23.2269 21.9563 23.7031 19.9224Z" fill="url(#paint22_linear_83_1212)"/>
<path d="M20.2881 22.4941C20.902 23.1076 22.1957 24.5141 22.4577 25.2317C22.7851 26.1293 23.0186 30.4779 24.2343 32.7574L24.1961 33.476C23.1289 32.223 22.1015 30.395 21.5629 27.8491C20.9769 25.0793 20.5568 23.542 20.2784 22.7427C20.2828 22.6587 20.2864 22.5759 20.2881 22.4941Z" fill="url(#paint23_linear_83_1212)"/>
<path d="M29.6155 26.2785C28.7584 28.1233 26.8447 31.6525 24.9015 33.5751C24.868 33.5892 24.8374 33.6047 24.8085 33.6159L25.0927 31.7013C26.4808 28.3431 27.4461 28.612 29.6155 26.2785Z" fill="url(#paint24_linear_83_1212)"/>
<g filter="url(#filter1_d_83_1212)">
<path d="M24.2098 35.5259C24.4566 35.5432 24.4319 35.4727 25.1256 35.4601C27.6478 35.4142 30.2499 32.6454 31.0541 30.4843L28.6956 30.9693C25.1388 31.8349 24.2243 34.2624 24.2098 35.5259Z" fill="url(#paint25_linear_83_1212)"/>
<path d="M31.0205 30.5704C29.0809 31.6735 25.4834 33.9379 24.2301 35.5251C24.2239 35.5248 24.2174 35.5261 24.2108 35.5256C24.2253 34.2621 25.1401 31.8345 28.6969 30.9689L31.055 30.4843C31.0443 30.5131 31.0318 30.5414 31.0205 30.5704Z" fill="url(#paint26_linear_83_1212)"/>
</g>
<g filter="url(#filter2_d_83_1212)">
<path d="M20.9519 38.4827C20.4598 38.0762 17.1487 36.0644 15.5547 35.1094C16.8521 40.7234 19.7383 41.726 20.4806 42.5406C22.0679 43.7679 23.2608 44.8745 23.6328 45.0494L23.4622 43.773C22.8305 42.1789 21.444 38.8892 20.9519 38.4827Z" fill="url(#paint27_linear_83_1212)"/>
<path d="M15.5732 35.1843C18.2044 37.6872 22.6512 42.355 23.537 45.0053C23.0799 44.7167 21.9493 43.6869 20.4833 42.5533C19.7433 41.7417 16.8774 40.7429 15.5732 35.1843Z" fill="url(#paint28_linear_83_1212)"/>
</g>
<path d="M15.3086 42.8401C16.9511 44.0495 20.3264 46.5733 20.7823 47.0659C21.3526 47.6825 23.4499 51.9771 23.6371 52.7527C23.6779 52.9218 23.7095 53.1009 23.7361 53.2776C21.8596 50.748 17.8187 45.8444 15.3086 42.8401Z" fill="url(#paint29_linear_83_1212)"/>
<g filter="url(#filter3_d_83_1212)">
<path d="M23.7314 51.4516C23.2549 48.9189 24.0547 46.6768 24.5142 45.8723L24.9558 47.2608C27.0086 50.6481 25.5505 54.3192 24.5648 55.7314C24.4855 55.3601 24.2079 53.9843 23.7314 51.4516Z" fill="url(#paint30_linear_83_1212)"/>
<path d="M24.5005 45.8697C24.1713 47.3382 24.1746 49.894 25.1319 54.1795C24.9329 54.7462 24.756 55.2329 24.6021 55.648C24.5856 55.6726 24.5711 55.6981 24.5548 55.7215C24.4756 55.3501 24.1984 53.9744 23.722 51.4421C23.247 48.917 24.0404 46.6803 24.5005 45.8697Z" fill="url(#paint31_linear_83_1212)"/>
</g>
<path d="M16.3457 48.8735C18.5738 50.0815 22.6692 52.6666 24.1148 54.9114C23.8376 54.8343 22.976 54.4167 21.8735 53.4619C20.3377 52.1321 19.4714 53.5964 16.3457 48.8735Z" fill="url(#paint32_linear_83_1212)"/>
<path d="M30.628 13.8689C29.452 16.0487 26.5637 22.535 24.9562 29.7411C23.8024 34.9132 23.1747 36.8753 23.1441 46.2565C23.1369 48.475 23.4533 54.0771 24.7769 58.7372C25.3525 61.7468 27.8504 69.4523 33.2374 76.1981C34.7801 78.1475 38.4694 82.3975 40.8847 83.802" stroke="#FADA81" stroke-width="0.234635"/>
<g filter="url(#filter4_d_83_1212)">
<path d="M26.0947 59.0936C26.3337 57.4787 26.1004 56.3667 26.2168 56.0339C28.0607 58.6368 29.0206 61.382 29.2432 61.9183C29.4213 62.3474 28.5898 65.3931 28.1518 66.8624L25.9313 61.9458C25.8222 60.06 25.8113 61.0076 26.0947 59.0936Z" fill="url(#paint33_linear_83_1212)"/>
<path d="M26.4071 56.3198C27.2438 59.1375 28.482 64.263 28.097 66.7547L25.9259 61.9475C25.8168 60.0618 25.806 61.0089 26.0893 59.0954C26.3284 57.4805 26.0955 56.3679 26.2119 56.0352C26.2787 56.1295 26.3426 56.2252 26.4071 56.3198Z" fill="url(#paint34_linear_83_1212)"/>
</g>
<g filter="url(#filter5_d_83_1212)">
<path d="M22.1305 60.7911C21.0521 59.8376 19.002 59.7096 18.1117 59.7648C17.9325 60.1984 19.9096 62.5813 20.9206 63.7185C21.2427 63.8093 22.1733 64.0967 23.3188 64.5194C24.4643 64.9421 25.9467 64.6112 26.5447 64.3929C25.5227 63.5896 23.209 61.7447 22.1305 60.7911Z" fill="url(#paint35_linear_83_1212)"/>
<path d="M18.1077 59.7801C18.998 59.725 21.0485 59.8529 22.127 60.8063C23.2053 61.7598 25.5188 63.6048 26.5409 64.4081C26.43 64.4486 26.2878 64.49 26.1238 64.5327C21.4281 62.6734 19.0707 60.9089 18.1012 59.8112C18.1031 59.8001 18.1039 59.7895 18.1077 59.7801Z" fill="url(#paint36_linear_83_1212)"/>
</g>
<g filter="url(#filter6_d_83_1212)">
<path d="M29.1819 70.6606C27.9572 70.3067 24.7232 70.9545 23.2592 71.3227C25.8693 73.6075 25.998 72.8355 27.7551 73.4983C29.1608 74.0285 30.3454 73.0668 30.762 72.5196C30.7456 72.0474 30.4067 71.0144 29.1819 70.6606Z" fill="url(#paint37_linear_83_1212)"/>
<path d="M30.7643 72.5301C30.475 72.91 29.8154 73.4882 28.9688 73.6298C28.6588 73.6185 28.3386 73.6045 28.0117 73.5882C27.928 73.5665 27.8428 73.5406 27.7573 73.5083C26.0015 72.8462 25.8718 73.6168 23.2665 71.3373C24.6197 71.1914 27.2645 71.278 30.7464 72.379C30.7545 72.434 30.7627 72.4844 30.7643 72.5301Z" fill="url(#paint38_linear_83_1212)"/>
</g>
<path d="M81.2021 67.4627C80.9419 67.5702 78.8236 70.3076 77.797 71.6629L76.9665 73.3391C78.3984 72.8107 81.4405 71.5406 82.1541 70.6871C82.8676 69.8336 83.4431 67.5096 83.6416 66.4543L81.2021 67.4627Z" fill="url(#paint39_linear_83_1212)"/>
<path d="M85.037 25.12C85.4128 23.6952 84.7934 21.9202 84.3121 19.8343C84.0236 19.7504 82.3583 21.4034 82.5946 28.7319L82.9806 31.0479C82.9314 32.4645 83.5133 30.9546 84.1436 29.8689C84.7876 27.1273 84.5672 26.9011 85.037 25.12Z" fill="url(#paint40_linear_83_1212)"/>
<path d="M78.8258 19.9555C78.4297 19.6114 76.7463 18.1492 73.8927 17.2341L73.8927 17.2341C74.072 17.6679 74.5873 18.9147 76.9357 21.3715C77.3412 21.5847 79.3969 22.2584 80.5295 22.2345C80.7238 22.4589 80.5526 22.0345 80.5353 21.7878C80.0785 20.5802 79.2219 20.2995 78.8258 19.9555Z" fill="url(#paint41_linear_83_1212)"/>
<path fill-rule="evenodd" clip-rule="evenodd" d="M84.9385 46.3423C85.2212 33.2345 81.0977 21.1027 77.4245 13.7631L77.1534 13.8752C80.7712 21.1038 84.279 33.3932 84.0001 46.322C83.7215 59.2379 79.3438 72.8989 66.5757 83.2272L67.166 83.9569C80.1987 73.4145 84.6554 59.4631 84.9385 46.3423Z" fill="url(#paint42_linear_83_1212)"/>
<path d="M79.6543 16.5552L82.1328 11.3416L82.6034 12.48C83.4303 15.2483 82.14 16.7337 81.9355 18.8493C81.7718 20.5419 80.8778 21.6138 80.5195 21.7196L79.8755 19.7008L79.6543 16.5552Z" fill="url(#paint43_linear_83_1212)"/>
<path d="M82.0822 11.4489C81.7335 13.9683 81.281 16.9804 80.8834 17.6907C80.5207 18.3383 80.436 20.0005 80.4523 21.5102L80.5187 21.7195C80.877 21.6137 81.7714 20.5419 81.9351 18.8495C82.1396 16.7338 83.4301 15.2477 82.6032 12.4794L82.1328 11.3413L82.0822 11.4489Z" fill="url(#paint44_linear_83_1212)"/>
<path d="M79.7295 49.585C79.5653 48.942 79.4895 45.1142 79.4722 43.2806L79.9767 43.5799C82.4704 47.3096 82.1162 49.6775 82.3453 51.6139C82.5744 53.5503 84.3656 56.8087 83.1679 55.9074C81.9702 55.006 79.9348 50.3887 79.7295 49.585Z" fill="url(#paint45_linear_83_1212)"/>
<path d="M79.4794 43.5593C80.1529 45.6421 81.0585 48.6998 81.2747 50.4107C81.4778 52.0179 82.3296 54.2878 83.0895 55.8496C83.1175 55.8737 83.1437 55.8981 83.1709 55.9185C84.3681 56.8193 82.5775 53.5612 82.3483 51.6249C82.1191 49.6885 82.4731 47.3201 79.9794 43.5904L79.4755 43.2915C79.4763 43.3766 79.4784 43.4661 79.4794 43.5593Z" fill="url(#paint46_linear_83_1212)"/>
<path d="M85.3798 37.1726C85.9424 36.0768 87.4444 34.1823 88.125 33.3721C88.3823 34.916 87.8662 35.5101 87.9009 37.5904C87.9287 39.2546 85.8216 41.5176 84.7647 42.4411C84.7353 41.1415 84.8171 38.2684 85.3798 37.1726Z" fill="url(#paint47_linear_83_1212)"/>
<path d="M85.3793 37.1763C84.8168 38.2723 84.7346 41.1451 84.764 42.4446C85.1402 42.1159 85.6481 41.6159 86.1468 41.0351C86.1547 39.5798 85.792 38.0965 85.4414 37.0608C85.4199 37.1002 85.3986 37.1387 85.3793 37.1763Z" fill="url(#paint48_linear_83_1212)"/>
<path d="M85.5818 25.2197C85.8438 24.5021 87.1371 23.0958 87.751 22.4824C87.7828 23.9926 88.3234 25.8637 87.8066 28.2989C87.593 29.3056 85.1628 32.396 83.8608 33.8016L83.8052 32.7456C85.0209 30.4658 85.2544 26.1167 85.5818 25.2197Z" fill="url(#paint49_linear_83_1212)"/>
<path d="M79.9858 31.3402C78.7334 30.0299 78.4087 27.4221 78.4029 26.282C80.5757 28.621 81.5421 28.3485 82.9313 31.7096L83.2146 33.6236C82.6602 33.4084 81.2383 32.6505 79.9858 31.3402Z" fill="url(#paint50_linear_83_1212)"/>
<path d="M84.618 52.8409C86.2608 50.1816 90.0603 48.9623 91.7182 48.8271C88.5595 53.6237 87.6929 52.1412 86.1504 53.477C84.9164 54.5456 83.9849 54.9433 83.836 54.9414L84.618 52.8409Z" fill="url(#paint51_linear_83_1212)"/>
<path d="M87.2441 47.0684C87.7003 46.5752 91.0911 44.0396 92.7295 42.8335C91.1899 46.3261 89.8563 48.7815 88.6037 49.7435C87.6016 50.5132 85.2443 53.1843 84.191 54.4237C84.1948 54.1259 84.24 53.3752 84.3897 52.7547C84.5769 51.9792 86.6738 47.685 87.2441 47.0684Z" fill="url(#paint52_linear_83_1212)"/>
<path d="M77.8169 57.1112C79.1035 59.1182 79.8801 62.5633 80.1075 64.0349L79.5307 66.9392C78.7917 65.5097 77.2911 62.3809 77.2004 61.3013C77.1096 60.2217 77.5736 58.058 77.8169 57.1112Z" fill="url(#paint53_linear_83_1212)"/>
<path d="M84.5126 57.637C84.785 57.0674 86.2876 55.9936 87.0049 55.5278C87.0531 56.5658 86.891 59.0913 85.8571 60.8896C84.8232 62.688 82.5919 63.9953 81.6055 64.4241C81.4903 64.1967 81.383 63.6402 81.8751 63.2337C82.4902 62.7255 84.1722 58.3489 84.5126 57.637Z" fill="url(#paint54_linear_83_1212)"/>
<path d="M87.0029 55.5356C86.2857 56.0014 84.7827 57.0753 84.5102 57.6449C84.1698 58.3568 82.4881 62.7334 81.873 63.2417C81.381 63.6481 81.488 64.2046 81.6031 64.4321C81.65 64.4118 81.6983 64.386 81.7505 64.3617C83.8981 61.9894 85.9382 58.0022 87.004 55.5997C87.0032 55.5778 87.0039 55.5563 87.0029 55.5356Z" fill="url(#paint55_linear_83_1212)"/>
<path d="M80.2623 74.6897C79.754 74.4428 77.6272 74.1498 76.6273 74.0342L76.6107 73.5332C77.0232 73.4051 78.1607 73.0449 79.4109 72.6297C80.661 72.2146 82.4047 73.4234 83.1203 74.0797C82.3794 74.3859 80.7706 74.9366 80.2623 74.6897Z" fill="url(#paint56_linear_83_1212)"/>
<path d="M76.8376 7.44424C76.5149 6.66361 73.8032 5.01706 72.4877 4.29136L72.933 7.97912C73.1571 8.52122 73.8455 9.84888 74.8065 10.8226C75.7675 11.7964 77.0265 13.4806 77.3284 14.1598L77.6536 14.0254C77.9536 11.6799 77.2409 8.42003 76.8376 7.44424Z" fill="url(#paint57_linear_83_1212)"/>
<path fill-rule="evenodd" clip-rule="evenodd" d="M77.3562 13.8961C77.0482 12.0123 74.3187 7.1324 72.6295 4.36298C72.5838 4.33747 72.5395 4.31288 72.4967 4.28925L72.942 7.97701C73.166 8.51912 73.8544 9.84677 74.8155 10.8205C75.7765 11.7943 77.0037 13.5551 77.3056 14.2343L77.3562 13.8961Z" fill="url(#paint58_linear_83_1212)"/>
<g filter="url(#filter7_d_83_1212)">
<path d="M78.7553 17.3676C78.6044 17.1253 77.171 14.8489 73.9516 13.5772C73.9525 14.2962 74.6077 16.2638 75.1963 17.4423C75.785 18.6208 78.7659 20.5157 80.4358 21.4334C79.7219 19.6551 78.9062 17.6099 78.7553 17.3676Z" fill="url(#paint59_linear_83_1212)"/>
<path d="M73.9546 13.7155C75.4302 15.7346 78.0556 19.1595 80.0356 21.2079C80.1742 21.2872 80.3055 21.3644 80.4309 21.4334C79.7171 19.6551 78.9014 17.61 78.7504 17.3676C78.5995 17.1253 77.1663 14.8487 73.947 13.5771C73.9471 13.6191 73.9502 13.6653 73.9546 13.7155Z" fill="url(#paint60_linear_83_1212)"/>
</g>
<path d="M84.3232 19.9221C84.2076 20.2224 84.0922 20.5821 84.0157 20.9675C83.8097 22.0047 82.9284 30.6208 83.1337 31.4246C83.1461 31.4733 83.1617 31.5141 83.1768 31.5494C83.3945 31.3134 83.7563 30.5142 84.1332 29.8649C84.7773 27.1233 84.5566 26.8967 85.0265 25.1157C85.3382 23.2986 84.7995 21.9561 84.3232 19.9221Z" fill="url(#paint61_linear_83_1212)"/>
<path d="M87.7383 22.4941C87.1244 23.1076 85.8306 24.5141 85.5687 25.2317C85.2413 26.1293 85.0077 30.4779 83.7921 32.7574L83.8302 33.476C84.8975 32.223 85.9249 30.395 86.4635 27.8491C87.0495 25.0794 87.4695 23.5421 87.748 22.7427C87.7436 22.6587 87.74 22.5759 87.7383 22.4941Z" fill="url(#paint62_linear_83_1212)"/>
<path d="M78.4109 26.2783C79.2676 28.1223 81.1796 31.6498 83.122 33.5729C83.1566 33.5876 83.1877 33.6032 83.2175 33.6148L82.9337 31.7011C81.5455 28.3428 80.5802 28.6117 78.4109 26.2783Z" fill="url(#paint63_linear_83_1212)"/>
<g filter="url(#filter8_d_83_1212)">
<path d="M83.8165 35.5232C83.5698 35.5406 83.5944 35.4701 82.9007 35.4574C80.3785 35.4116 77.7765 32.6428 76.9723 30.4816L79.3308 30.9666C82.8876 31.8323 83.8021 34.2597 83.8165 35.5232Z" fill="url(#paint64_linear_83_1212)"/>
<path d="M77.0085 30.5725C78.9475 31.6754 82.5414 33.9364 83.7961 35.5231C83.8027 35.5227 83.8097 35.5246 83.8166 35.5241C83.802 34.2605 82.8872 31.8339 79.3309 30.9683L76.9725 30.4827C76.9836 30.5127 76.9967 30.5423 77.0085 30.5725Z" fill="url(#paint65_linear_83_1212)"/>
</g>
<g filter="url(#filter9_d_83_1212)">
<path d="M87.0745 38.4778C87.5666 38.0713 90.8776 36.0596 92.4717 35.1045C91.1742 40.7185 88.2881 41.7211 87.5457 42.5357C85.9585 43.763 84.7656 44.8696 84.3936 45.0445L84.5642 43.7681C85.1959 42.174 86.5824 38.8843 87.0745 38.4778Z" fill="url(#paint66_linear_83_1212)"/>
<path d="M92.4541 35.1738C89.8223 37.6772 85.3723 42.3475 84.4884 44.9977C84.945 44.7097 86.0762 43.6795 87.543 42.5453C88.2832 41.7337 91.1503 40.7347 92.4541 35.1738Z" fill="url(#paint67_linear_83_1212)"/>
</g>
<path d="M92.7168 42.8403C91.0739 44.05 87.6996 46.5734 87.244 47.0658C86.6738 47.6822 84.578 51.9755 84.3901 52.7522C84.3493 52.9213 84.3168 53.1007 84.2902 53.2774C86.1665 50.748 90.2067 45.8447 92.7168 42.8403Z" fill="url(#paint68_linear_83_1212)"/>
<g filter="url(#filter10_d_83_1212)">
<path d="M84.2959 51.4445C84.7724 48.9118 83.9726 46.6697 83.5131 45.8652L83.0715 47.2537C81.0187 50.6411 82.4769 54.3122 83.4625 55.7243C83.5418 55.353 83.8195 53.9773 84.2959 51.4445Z" fill="url(#paint69_linear_83_1212)"/>
<path d="M83.5256 45.8595C83.8558 47.3273 83.853 49.8837 82.8948 54.1733C83.0933 54.7387 83.2699 55.2247 83.4235 55.6392C83.4402 55.6641 83.4546 55.6899 83.4711 55.7135C83.5504 55.3422 83.8284 53.9664 84.3048 51.4338C84.7802 48.9065 83.9855 46.6684 83.5256 45.8595Z" fill="url(#paint70_linear_83_1212)"/>
</g>
<path d="M91.6787 48.8755C89.4504 50.0837 85.3562 52.6693 83.9109 54.9139C84.1882 54.8367 85.0498 54.4191 86.1522 53.4644C87.688 52.1346 88.5531 53.598 91.6787 48.8755Z" fill="url(#paint71_linear_83_1212)"/>
<path d="M77.3983 13.8689C78.5743 16.0487 81.4627 22.535 83.0702 29.7411C84.224 34.9132 84.8517 36.8753 84.8823 46.2565C84.8895 48.475 84.5731 54.0771 83.2495 58.7372C82.6739 61.7468 80.1759 69.4523 74.789 76.1981C73.2463 78.1475 69.557 82.3975 67.1417 83.802" stroke="#FADA81" stroke-width="0.234635"/>
<g filter="url(#filter11_d_83_1212)">
<path d="M81.9317 59.0936C81.6927 57.4787 81.9259 56.3667 81.8096 56.0339C79.9657 58.6368 79.0058 61.382 78.7832 61.9183C78.6051 62.3474 79.4366 65.3931 79.8746 66.8624L82.0951 61.9458C82.2042 60.06 82.215 61.0076 81.9317 59.0936Z" fill="url(#paint72_linear_83_1212)"/>
<path d="M81.6203 56.3195C80.7837 59.1367 79.5455 64.2612 79.9299 66.7535L82.1005 61.9476C82.2097 60.0619 82.2204 61.0091 81.9371 59.0955C81.6981 57.4806 81.9318 56.3676 81.8154 56.0349C81.7487 56.1291 81.6847 56.2251 81.6203 56.3195Z" fill="url(#paint73_linear_83_1212)"/>
</g>
<g filter="url(#filter12_d_83_1212)">
<path d="M85.8958 60.7885C86.9743 59.8349 89.0244 59.7069 89.9146 59.7621C90.0939 60.1958 88.1168 62.5786 87.1058 63.7158C86.7837 63.8067 85.853 64.094 84.7075 64.5167C83.562 64.9394 82.0796 64.6085 81.4816 64.3902C82.5037 63.5869 84.8174 61.742 85.8958 60.7885Z" fill="url(#paint74_linear_83_1212)"/>
<path d="M89.9176 59.7774C89.0272 59.7223 86.9776 59.8499 85.8993 60.8032C84.821 61.7567 82.5075 63.6016 81.4853 64.405C81.5966 64.4456 81.7392 64.4873 81.9037 64.5301C86.5984 62.6712 88.9557 60.9067 89.9254 59.809C89.9236 59.7976 89.9216 59.787 89.9176 59.7774Z" fill="url(#paint75_linear_83_1212)"/>
</g>
<g filter="url(#filter13_d_83_1212)">
<path d="M78.8435 70.6603C80.0682 70.3064 83.3022 70.9543 84.7662 71.3224C82.1561 73.6072 82.0274 72.8352 80.2703 73.4981C78.8646 74.0283 77.68 73.0665 77.2634 72.5194C77.2798 72.0471 77.6187 71.0142 78.8435 70.6603Z" fill="url(#paint76_linear_83_1212)"/>
<path d="M77.2593 72.5302C77.5487 72.9104 78.2098 73.4879 79.0574 73.6288C79.3676 73.6175 79.6879 73.6044 80.0149 73.5881C80.0978 73.5666 80.1816 73.5404 80.2662 73.5085C82.0224 72.846 82.1522 73.6169 84.7579 71.337C83.4048 71.1911 80.7596 71.2778 77.2771 72.3791C77.269 72.434 77.2608 72.4846 77.2593 72.5302Z" fill="url(#paint77_linear_83_1212)"/>
</g>
<rect x="17" y="16.5879" width="75.3203" height="75.3203" rx="37.6602" fill="#FF7E1B" fill-opacity="0.18"/>
<g filter="url(#filter14_i_83_1212)">
<rect x="20.2051" y="20.5938" width="68.1088" height="68.1088" rx="34.0544" fill="url(#paint78_linear_83_1212)"/>
</g>
<g opacity="0.7" filter="url(#filter15_f_83_1212)">
<ellipse cx="54.6603" cy="95.785" rx="28.799" ry="1.66148" fill="#6E6E6E"/>
</g>
<mask id="mask0_83_1212" style="mask-type:luminance" maskUnits="userSpaceOnUse" x="19" y="16" width="71" height="81">
<path d="M51.4458 17.5106L22.0409 33.4921C20.1668 34.5107 19 36.4729 19 38.6059L19 75.1851C19 77.3181 20.1668 79.2803 22.0409 80.2988L51.4458 96.2804C53.1789 97.2224 55.2713 97.2224 57.0044 96.2804L86.4093 80.2988C88.2834 79.2803 89.4502 77.3181 89.4502 75.1851L89.4502 38.6059C89.4502 36.4729 88.2834 34.5107 86.4093 33.4921L57.0044 17.5106C55.2713 16.5686 53.1789 16.5686 51.4458 17.5106Z" fill="white"/>
</mask>
<g mask="url(#mask0_83_1212)">
<path d="M54.4151 28.1033C54.4151 25.0685 49.598 20.4561 47.1895 18.5293H54.4151V28.1033Z" fill="url(#paint79_linear_83_1212)"/>
<path d="M54.4072 28.1033C54.4072 25.0685 59.2243 20.4561 61.6328 18.5293H54.4072V28.1033Z" fill="url(#paint80_linear_83_1212)"/>
<rect x="54.4111" y="13.4846" width="7.1584" height="7.1584" transform="rotate(45 54.4111 13.4846)" fill="url(#paint81_linear_83_1212)"/>
<path fill-rule="evenodd" clip-rule="evenodd" d="M54.4111 23.5059L59.4218 18.4953L59.524 18.5975L54.4111 23.7103L49.2983 18.5975L49.4005 18.4953L54.4111 23.5059Z" fill="url(#paint82_linear_83_1212)"/>
<g filter="url(#filter16_d_83_1212)">
<path d="M51.3307 17.6277L48.2598 19.2535V15.6406H60.5434V19.4341L57.4725 17.6277C54.7267 16.4716 52.2339 17.146 51.3307 17.6277Z" fill="#C4C4C4"/>
</g>
</g>
<path fill-rule="evenodd" clip-rule="evenodd" d="M29 91.2832H29.8191V99.6199L53.9834 114.521L78.5537 99.6179V91.2832H79.3728V100.079L53.9799 115.481L29 100.077V91.2832Z" fill="url(#paint83_linear_83_1212)"/>
<path fill-rule="evenodd" clip-rule="evenodd" d="M54.334 97.791V112.651H53.6221V97.791H54.334Z" fill="url(#paint84_linear_83_1212)"/>
<path fill-rule="evenodd" clip-rule="evenodd" d="M51.8421 107.381C50.425 109.016 48.6986 109.379 47.5098 109.181L47.6268 108.479C48.5739 108.637 50.0514 108.36 51.3042 106.915C52.5619 105.464 53.62 102.803 53.62 98.1504H54.332C54.332 102.896 53.2542 105.752 51.8421 107.381Z" fill="url(#paint85_linear_83_1212)"/>
<path fill-rule="evenodd" clip-rule="evenodd" d="M56.1052 107.381C57.5222 109.016 59.2487 109.379 60.4375 109.181L60.3205 108.479C59.3733 108.637 57.8959 108.36 56.6431 106.915C55.3853 105.464 54.3272 102.803 54.3272 98.1504H53.6152C53.6152 102.896 54.693 105.752 56.1052 107.381Z" fill="url(#paint86_linear_83_1212)"/>
<path fill-rule="evenodd" clip-rule="evenodd" d="M53.8263 112.995L45.7871 108.491L47.567 108.491L53.9753 112.28L60.3825 108.459H61.9537L54.122 112.996C54.028 113.038 53.9202 113.038 53.8263 112.995Z" fill="url(#paint87_linear_83_1212)"/>
<g filter="url(#filter17_d_83_1212)">
<mask id="mask1_83_1212" style="mask-type:alpha" maskUnits="userSpaceOnUse" x="45" y="79" width="17" height="17">
<path d="M53.3485 79.2216C53.3485 79.2289 53.353 79.2354 53.3599 79.238L61.0421 82.1188C61.4237 82.2619 61.5802 82.7175 61.367 83.0648L53.6835 95.583C53.5883 95.738 53.3496 95.6714 53.3485 95.4896C53.3485 95.6699 53.1118 95.7368 53.0175 95.5831L45.3314 83.0621C45.1187 82.7157 45.2737 82.2613 45.6538 82.117L53.2364 79.2391C53.2433 79.2364 53.2479 79.2298 53.2479 79.2223C53.2479 79.2099 53.2604 79.2012 53.2721 79.2056L53.2876 79.2114C53.2941 79.2138 53.3013 79.2138 53.3079 79.2114L53.325 79.2052C53.3364 79.201 53.3485 79.2095 53.3485 79.2216Z" fill="url(#paint88_linear_83_1212)"/>
</mask>
<g mask="url(#mask1_83_1212)">
<path d="M53.3 78.9114L44.9473 82.342L53.3 97.4067L53.3 78.9114Z" fill="url(#paint89_linear_83_1212)"/>
<path d="M53.2957 78.9114L61.6484 82.342L53.2957 97.4067L53.2957 78.9114Z" fill="url(#paint90_linear_83_1212)"/>
<path d="M53.3528 91.6356L49.7877 90.3392L51.5703 93.2561L53.3528 96.011L55.1354 93.2561L56.918 90.3392L53.3528 91.6356Z" fill="url(#paint91_linear_83_1212)"/>
<path d="M53.3711 91.6438L56.918 90.3528L53.3711 95.9954L53.3711 91.6438Z" fill="#EED6B3"/>
</g>
</g>
<defs>
<filter id="filter0_d_83_1212" x="27.2809" y="13.5771" width="7.10807" height="8.78638" filterUnits="userSpaceOnUse" color-interpolation-filters="sRGB">
<feFlood flood-opacity="0" result="BackgroundImageFix"/>
<feColorMatrix in="SourceAlpha" type="matrix" values="0 0 0 0 0 0 0 0 0 0 0 0 0 0 0 0 0 0 127 0" result="hardAlpha"/>
<feOffset dy="0.619793"/>
<feGaussianBlur stdDeviation="0.154948"/>
<feColorMatrix type="matrix" values="0 0 0 0 0.541667 0 0 0 0 0.336104 0 0 0 0 0.0947917 0 0 0 0.25 0"/>
<feBlend mode="normal" in2="BackgroundImageFix" result="effect1_dropShadow_83_1212"/>
<feBlend mode="normal" in="SourceGraphic" in2="effect1_dropShadow_83_1212" result="shape"/>
</filter>
<filter id="filter1_d_83_1212" x="23.9001" y="30.4844" width="7.46452" height="5.97388" filterUnits="userSpaceOnUse" color-interpolation-filters="sRGB">
<feFlood flood-opacity="0" result="BackgroundImageFix"/>
<feColorMatrix in="SourceAlpha" type="matrix" values="0 0 0 0 0 0 0 0 0 0 0 0 0 0 0 0 0 0 127 0" result="hardAlpha"/>
<feOffset dy="0.619793"/>
<feGaussianBlur stdDeviation="0.154948"/>
<feColorMatrix type="matrix" values="0 0 0 0 0.541667 0 0 0 0 0.336104 0 0 0 0 0.0947917 0 0 0 0.25 0"/>
<feBlend mode="normal" in2="BackgroundImageFix" result="effect1_dropShadow_83_1212"/>
<feBlend mode="normal" in="SourceGraphic" in2="effect1_dropShadow_83_1212" result="shape"/>
</filter>
<filter id="filter2_d_83_1212" x="15.5547" y="35.1094" width="9.00781" height="10.8696" filterUnits="userSpaceOnUse" color-interpolation-filters="sRGB">
<feFlood flood-opacity="0" result="BackgroundImageFix"/>
<feColorMatrix in="SourceAlpha" type="matrix" values="0 0 0 0 0 0 0 0 0 0 0 0 0 0 0 0 0 0 127 0" result="hardAlpha"/>
<feOffset dx="0.619793" dy="0.619793"/>
<feGaussianBlur stdDeviation="0.154948"/>
<feColorMatrix type="matrix" values="0 0 0 0 0.541667 0 0 0 0 0.336104 0 0 0 0 0.0947917 0 0 0 0.25 0"/>
<feBlend mode="normal" in2="BackgroundImageFix" result="effect1_dropShadow_83_1212"/>
<feBlend mode="normal" in="SourceGraphic" in2="effect1_dropShadow_83_1212" result="shape"/>
</filter>
<filter id="filter3_d_83_1212" x="23.2653" y="45.8696" width="3.03874" height="10.7915" filterUnits="userSpaceOnUse" color-interpolation-filters="sRGB">
<feFlood flood-opacity="0" result="BackgroundImageFix"/>
<feColorMatrix in="SourceAlpha" type="matrix" values="0 0 0 0 0 0 0 0 0 0 0 0 0 0 0 0 0 0 127 0" result="hardAlpha"/>
<feOffset dy="0.619793"/>
<feGaussianBlur stdDeviation="0.154948"/>
<feColorMatrix type="matrix" values="0 0 0 0 0.541667 0 0 0 0 0.336104 0 0 0 0 0.0947917 0 0 0 0.25 0"/>
<feBlend mode="normal" in2="BackgroundImageFix" result="effect1_dropShadow_83_1212"/>
<feBlend mode="normal" in="SourceGraphic" in2="effect1_dropShadow_83_1212" result="shape"/>
</filter>
<filter id="filter4_d_83_1212" x="25.5446" y="56.0339" width="4.03288" height="11.7581" filterUnits="userSpaceOnUse" color-interpolation-filters="sRGB">
<feFlood flood-opacity="0" result="BackgroundImageFix"/>
<feColorMatrix in="SourceAlpha" type="matrix" values="0 0 0 0 0 0 0 0 0 0 0 0 0 0 0 0 0 0 127 0" result="hardAlpha"/>
<feOffset dy="0.619793"/>
<feGaussianBlur stdDeviation="0.154948"/>
<feColorMatrix type="matrix" values="0 0 0 0 0.541667 0 0 0 0 0.336104 0 0 0 0 0.0947917 0 0 0 0.25 0"/>
<feBlend mode="normal" in2="BackgroundImageFix" result="effect1_dropShadow_83_1212"/>
<feBlend mode="normal" in="SourceGraphic" in2="effect1_dropShadow_83_1212" result="shape"/>
</filter>
<filter id="filter5_d_83_1212" x="18.1006" y="59.7539" width="9.37402" height="5.89917" filterUnits="userSpaceOnUse" color-interpolation-filters="sRGB">
<feFlood flood-opacity="0" result="BackgroundImageFix"/>
<feColorMatrix in="SourceAlpha" type="matrix" values="0 0 0 0 0 0 0 0 0 0 0 0 0 0 0 0 0 0 127 0" result="hardAlpha"/>
<feOffset dx="0.619793" dy="0.619793"/>
<feGaussianBlur stdDeviation="0.154948"/>
<feColorMatrix type="matrix" values="0 0 0 0 0.541667 0 0 0 0 0.336104 0 0 0 0 0.0947917 0 0 0 0.25 0"/>
<feBlend mode="normal" in2="BackgroundImageFix" result="effect1_dropShadow_83_1212"/>
<feBlend mode="normal" in="SourceGraphic" in2="effect1_dropShadow_83_1212" result="shape"/>
</filter>
<filter id="filter6_d_83_1212" x="22.9489" y="70.5581" width="8.12565" height="4.02441" filterUnits="userSpaceOnUse" color-interpolation-filters="sRGB">
<feFlood flood-opacity="0" result="BackgroundImageFix"/>
<feColorMatrix in="SourceAlpha" type="matrix" values="0 0 0 0 0 0 0 0 0 0 0 0 0 0 0 0 0 0 127 0" result="hardAlpha"/>
<feOffset dy="0.619792"/>
<feGaussianBlur stdDeviation="0.154948"/>
<feColorMatrix type="matrix" values="0 0 0 0 0.541667 0 0 0 0 0.336104 0 0 0 0 0.0947917 0 0 0 0.25 0"/>
<feBlend mode="normal" in2="BackgroundImageFix" result="effect1_dropShadow_83_1212"/>
<feBlend mode="normal" in="SourceGraphic" in2="effect1_dropShadow_83_1212" result="shape"/>
</filter>
<filter id="filter7_d_83_1212" x="73.6374" y="13.5771" width="7.10807" height="8.78589" filterUnits="userSpaceOnUse" color-interpolation-filters="sRGB">
<feFlood flood-opacity="0" result="BackgroundImageFix"/>
<feColorMatrix in="SourceAlpha" type="matrix" values="0 0 0 0 0 0 0 0 0 0 0 0 0 0 0 0 0 0 127 0" result="hardAlpha"/>
<feOffset dy="0.619793"/>
<feGaussianBlur stdDeviation="0.154948"/>
<feColorMatrix type="matrix" values="0 0 0 0 0.541667 0 0 0 0 0.336104 0 0 0 0 0.0947917 0 0 0 0.25 0"/>
<feBlend mode="normal" in2="BackgroundImageFix" result="effect1_dropShadow_83_1212"/>
<feBlend mode="normal" in="SourceGraphic" in2="effect1_dropShadow_83_1212" result="shape"/>
</filter>
<filter id="filter8_d_83_1212" x="76.6628" y="30.4817" width="7.46354" height="5.97388" filterUnits="userSpaceOnUse" color-interpolation-filters="sRGB">
<feFlood flood-opacity="0" result="BackgroundImageFix"/>
<feColorMatrix in="SourceAlpha" type="matrix" values="0 0 0 0 0 0 0 0 0 0 0 0 0 0 0 0 0 0 127 0" result="hardAlpha"/>
<feOffset dy="0.619793"/>
<feGaussianBlur stdDeviation="0.154948"/>
<feColorMatrix type="matrix" values="0 0 0 0 0.541667 0 0 0 0 0.336104 0 0 0 0 0.0947917 0 0 0 0.25 0"/>
<feBlend mode="normal" in2="BackgroundImageFix" result="effect1_dropShadow_83_1212"/>
<feBlend mode="normal" in="SourceGraphic" in2="effect1_dropShadow_83_1212" result="shape"/>
</filter>
<filter id="filter9_d_83_1212" x="84.3936" y="35.1045" width="9.00781" height="10.8696" filterUnits="userSpaceOnUse" color-interpolation-filters="sRGB">
<feFlood flood-opacity="0" result="BackgroundImageFix"/>
<feColorMatrix in="SourceAlpha" type="matrix" values="0 0 0 0 0 0 0 0 0 0 0 0 0 0 0 0 0 0 127 0" result="hardAlpha"/>
<feOffset dx="0.619793" dy="0.619793"/>
<feGaussianBlur stdDeviation="0.154948"/>
<feColorMatrix type="matrix" values="0 0 0 0 0.541667 0 0 0 0 0.336104 0 0 0 0 0.0947917 0 0 0 0.25 0"/>
<feBlend mode="normal" in2="BackgroundImageFix" result="effect1_dropShadow_83_1212"/>
<feBlend mode="normal" in="SourceGraphic" in2="effect1_dropShadow_83_1212" result="shape"/>
</filter>
<filter id="filter10_d_83_1212" x="81.7233" y="45.8596" width="3.03776" height="10.7944" filterUnits="userSpaceOnUse" color-interpolation-filters="sRGB">
<feFlood flood-opacity="0" result="BackgroundImageFix"/>
<feColorMatrix in="SourceAlpha" type="matrix" values="0 0 0 0 0 0 0 0 0 0 0 0 0 0 0 0 0 0 127 0" result="hardAlpha"/>
<feOffset dy="0.619793"/>
<feGaussianBlur stdDeviation="0.154948"/>
<feColorMatrix type="matrix" values="0 0 0 0 0.541667 0 0 0 0 0.336104 0 0 0 0 0.0947917 0 0 0 0.25 0"/>
<feBlend mode="normal" in2="BackgroundImageFix" result="effect1_dropShadow_83_1212"/>
<feBlend mode="normal" in="SourceGraphic" in2="effect1_dropShadow_83_1212" result="shape"/>
</filter>
<filter id="filter11_d_83_1212" x="78.4489" y="56.0339" width="4.03288" height="11.7581" filterUnits="userSpaceOnUse" color-interpolation-filters="sRGB">
<feFlood flood-opacity="0" result="BackgroundImageFix"/>
<feColorMatrix in="SourceAlpha" type="matrix" values="0 0 0 0 0 0 0 0 0 0 0 0 0 0 0 0 0 0 127 0" result="hardAlpha"/>
<feOffset dy="0.619793"/>
<feGaussianBlur stdDeviation="0.154948"/>
<feColorMatrix type="matrix" values="0 0 0 0 0.541667 0 0 0 0 0.336104 0 0 0 0 0.0947917 0 0 0 0.25 0"/>
<feBlend mode="normal" in2="BackgroundImageFix" result="effect1_dropShadow_83_1212"/>
<feBlend mode="normal" in="SourceGraphic" in2="effect1_dropShadow_83_1212" result="shape"/>
</filter>
<filter id="filter12_d_83_1212" x="81.4814" y="59.7512" width="9.37402" height="5.89917" filterUnits="userSpaceOnUse" color-interpolation-filters="sRGB">
<feFlood flood-opacity="0" result="BackgroundImageFix"/>
<feColorMatrix in="SourceAlpha" type="matrix" values="0 0 0 0 0 0 0 0 0 0 0 0 0 0 0 0 0 0 127 0" result="hardAlpha"/>
<feOffset dx="0.619793" dy="0.619793"/>
<feGaussianBlur stdDeviation="0.154948"/>
<feColorMatrix type="matrix" values="0 0 0 0 0.541667 0 0 0 0 0.336104 0 0 0 0 0.0947917 0 0 0 0.25 0"/>
<feBlend mode="normal" in2="BackgroundImageFix" result="effect1_dropShadow_83_1212"/>
<feBlend mode="normal" in="SourceGraphic" in2="effect1_dropShadow_83_1212" result="shape"/>
</filter>
<filter id="filter13_d_83_1212" x="76.9489" y="70.5579" width="8.1276" height="4.02441" filterUnits="userSpaceOnUse" color-interpolation-filters="sRGB">
<feFlood flood-opacity="0" result="BackgroundImageFix"/>
<feColorMatrix in="SourceAlpha" type="matrix" values="0 0 0 0 0 0 0 0 0 0 0 0 0 0 0 0 0 0 127 0" result="hardAlpha"/>
<feOffset dy="0.619792"/>
<feGaussianBlur stdDeviation="0.154948"/>
<feColorMatrix type="matrix" values="0 0 0 0 0.541667 0 0 0 0 0.336104 0 0 0 0 0.0947917 0 0 0 0.25 0"/>
<feBlend mode="normal" in2="BackgroundImageFix" result="effect1_dropShadow_83_1212"/>
<feBlend mode="normal" in="SourceGraphic" in2="effect1_dropShadow_83_1212" result="shape"/>
</filter>
<filter id="filter14_i_83_1212" x="20.2051" y="20.5938" width="68.1084" height="72.1089" filterUnits="userSpaceOnUse" color-interpolation-filters="sRGB">
<feFlood flood-opacity="0" result="BackgroundImageFix"/>
<feBlend mode="normal" in="SourceGraphic" in2="BackgroundImageFix" result="shape"/>
<feColorMatrix in="SourceAlpha" type="matrix" values="0 0 0 0 0 0 0 0 0 0 0 0 0 0 0 0 0 0 127 0" result="hardAlpha"/>
<feOffset dy="4"/>
<feGaussianBlur stdDeviation="7.65"/>
<feComposite in2="hardAlpha" operator="arithmetic" k2="-1" k3="1"/>
<feColorMatrix type="matrix" values="0 0 0 0 1 0 0 0 0 1 0 0 0 0 1 0 0 0 0.25 0"/>
<feBlend mode="normal" in2="shape" result="effect1_innerShadow_83_1212"/>
</filter>
<filter id="filter15_f_83_1212" x="18.6616" y="86.9238" width="71.9971" height="17.7225" filterUnits="userSpaceOnUse" color-interpolation-filters="sRGB">
<feFlood flood-opacity="0" result="BackgroundImageFix"/>
<feBlend mode="normal" in="SourceGraphic" in2="BackgroundImageFix" result="shape"/>
<feGaussianBlur stdDeviation="3.59987" result="effect1_foregroundBlur_83_1212"/>
</filter>
<filter id="filter16_d_83_1212" x="47.5372" y="15.6406" width="13.7283" height="5.59987" filterUnits="userSpaceOnUse" color-interpolation-filters="sRGB">
<feFlood flood-opacity="0" result="BackgroundImageFix"/>
<feColorMatrix in="SourceAlpha" type="matrix" values="0 0 0 0 0 0 0 0 0 0 0 0 0 0 0 0 0 0 127 0" result="hardAlpha"/>
<feOffset dy="1.08385"/>
<feGaussianBlur stdDeviation="0.361283"/>
<feColorMatrix type="matrix" values="0 0 0 0 0.308611 0 0 0 0 0.319833 0 0 0 0 0.420833 0 0 0 0.36 0"/>
<feBlend mode="normal" in2="BackgroundImageFix" result="effect1_dropShadow_83_1212"/>
<feBlend mode="normal" in="SourceGraphic" in2="effect1_dropShadow_83_1212" result="shape"/>
</filter>
<filter id="filter17_d_83_1212" x="44.9112" y="79.2041" width="18.1722" height="19.0584" filterUnits="userSpaceOnUse" color-interpolation-filters="sRGB">
<feFlood flood-opacity="0" result="BackgroundImageFix"/>
<feColorMatrix in="SourceAlpha" type="matrix" values="0 0 0 0 0 0 0 0 0 0 0 0 0 0 0 0 0 0 127 0" result="hardAlpha"/>
<feOffset dx="0.648207" dy="1.62052"/>
<feGaussianBlur stdDeviation="0.486155"/>
<feColorMatrix type="matrix" values="0 0 0 0 0.0504688 0 0 0 0 0.0958375 0 0 0 0 0.2125 0 0 0 0.36 0"/>
<feBlend mode="normal" in2="BackgroundImageFix" result="effect1_dropShadow_83_1212"/>
<feBlend mode="normal" in="SourceGraphic" in2="effect1_dropShadow_83_1212" result="shape"/>
</filter>
<linearGradient id="paint0_linear_83_1212" x1="28.4496" y1="68.1351" x2="26.9839" y2="71.681" gradientUnits="userSpaceOnUse">
<stop stop-color="#D2AB68"/>
<stop offset="1" stop-color="#B67D3F"/>
</linearGradient>
<linearGradient id="paint1_linear_83_1212" x1="26.3188" y1="20.9043" x2="22.1402" y2="31.0139" gradientUnits="userSpaceOnUse">
<stop stop-color="#D2AB68"/>
<stop offset="1" stop-color="#B67D3F"/>
</linearGradient>
<linearGradient id="paint2_linear_83_1212" x1="32.1534" y1="16.5425" x2="29.2483" y2="23.571" gradientUnits="userSpaceOnUse">
<stop stop-color="#D2AB68"/>
<stop offset="1" stop-color="#B67D3F"/>
</linearGradient>
<linearGradient id="paint3_linear_83_1212" x1="22.4073" y1="45.5667" x2="24.9849" y2="45.9339" gradientUnits="userSpaceOnUse">
<stop stop-color="#D2AB68"/>
<stop offset="1" stop-color="#B67D3F"/>
</linearGradient>
<linearGradient id="paint4_linear_83_1212" x1="31.8632" y1="20.8546" x2="26.4125" y2="14.5395" gradientUnits="userSpaceOnUse">
<stop stop-color="#D2AB68"/>
<stop offset="1" stop-color="#B67D3F"/>
</linearGradient>
<linearGradient id="paint5_linear_83_1212" x1="27.0967" y1="13.3447" x2="27.0762" y2="21.5296" gradientUnits="userSpaceOnUse">
<stop stop-color="#F7E6B3"/>
<stop offset="1" stop-color="#F7E6B3" stop-opacity="0"/>
</linearGradient>
<linearGradient id="paint6_linear_83_1212" x1="29.2702" y1="43.5768" x2="24.1712" y2="55.9131" gradientUnits="userSpaceOnUse">
<stop stop-color="#D2AB68"/>
<stop offset="1" stop-color="#B67D3F"/>
</linearGradient>
<linearGradient id="paint7_linear_83_1212" x1="27.8384" y1="45.2357" x2="31.9011" y2="51.1285" gradientUnits="userSpaceOnUse">
<stop stop-color="#F7E6B3"/>
<stop offset="1" stop-color="#F7E6B3" stop-opacity="0"/>
</linearGradient>
<linearGradient id="paint8_linear_83_1212" x1="22.9372" y1="34.6269" x2="20.2259" y2="41.1863" gradientUnits="userSpaceOnUse">
<stop stop-color="#D2AB68"/>
<stop offset="1" stop-color="#B67D3F"/>
</linearGradient>
<linearGradient id="paint9_linear_83_1212" x1="22.9931" y1="38.0149" x2="22.0201" y2="41.9318" gradientUnits="userSpaceOnUse">
<stop stop-color="#C18E42"/>
<stop offset="1" stop-color="#D2AB68"/>
</linearGradient>
<linearGradient id="paint10_linear_83_1212" x1="23.9336" y1="23.9949" x2="20.5054" y2="32.2891" gradientUnits="userSpaceOnUse">
<stop stop-color="#D2AB68"/>
<stop offset="1" stop-color="#8E573C"/>
</linearGradient>
<linearGradient id="paint11_linear_83_1212" x1="28.8265" y1="25.9526" x2="25.5326" y2="33.9215" gradientUnits="userSpaceOnUse">
<stop stop-color="#D2AB68"/>
<stop offset="1" stop-color="#B67D3F"/>
</linearGradient>
<linearGradient id="paint12_linear_83_1212" x1="20.7808" y1="50.1399" x2="19.5733" y2="53.0612" gradientUnits="userSpaceOnUse">
<stop stop-color="#D2AB68"/>
<stop offset="1" stop-color="#B67D3F"/>
</linearGradient>
<linearGradient id="paint13_linear_83_1212" x1="20.989" y1="45.1862" x2="18.1433" y2="52.071" gradientUnits="userSpaceOnUse">
<stop stop-color="#C28766"/>
<stop offset="1" stop-color="#8E573C"/>
</linearGradient>
<linearGradient id="paint14_linear_83_1212" x1="31.229" y1="57.5328" x2="27.5095" y2="66.5318" gradientUnits="userSpaceOnUse">
<stop stop-color="#D2AB68"/>
<stop offset="1" stop-color="#B67D3F"/>
</linearGradient>
<linearGradient id="paint15_linear_83_1212" x1="24.8985" y1="57.1306" x2="22.5457" y2="62.8227" gradientUnits="userSpaceOnUse">
<stop stop-color="#D2AB68"/>
<stop offset="1" stop-color="#B67D3F"/>
</linearGradient>
<linearGradient id="paint16_linear_83_1212" x1="25.4499" y1="56.6702" x2="22.6814" y2="63.3683" gradientUnits="userSpaceOnUse">
<stop stop-color="#FADA81"/>
<stop offset="1" stop-color="#B67D3F"/>
</linearGradient>
<linearGradient id="paint17_linear_83_1212" x1="28.8136" y1="72.4599" x2="27.6708" y2="75.2246" gradientUnits="userSpaceOnUse">
<stop stop-color="#D2AB68"/>
<stop offset="1" stop-color="#B67D3F"/>
</linearGradient>
<linearGradient id="paint18_linear_83_1212" x1="34.6984" y1="3.94429" x2="30.5979" y2="13.8648" gradientUnits="userSpaceOnUse">
<stop stop-color="#FCF1D5"/>
<stop offset="1" stop-color="#EBCE6A"/>
</linearGradient>
<linearGradient id="paint19_linear_83_1212" x1="35.5334" y1="4.29103" x2="31.4329" y2="14.2116" gradientUnits="userSpaceOnUse">
<stop stop-color="#D2AB68"/>
<stop offset="1" stop-color="#B67D3F"/>
</linearGradient>
<linearGradient id="paint20_linear_83_1212" x1="33.0109" y1="13.1375" x2="29.2913" y2="22.1364" gradientUnits="userSpaceOnUse">
<stop stop-color="#D2AB68"/>
<stop offset="1" stop-color="#B67D3F"/>
</linearGradient>
<linearGradient id="paint21_linear_83_1212" x1="31.6877" y1="14.2224" x2="33.7542" y2="21.4539" gradientUnits="userSpaceOnUse">
<stop stop-color="#F7E6B3"/>
<stop offset="1" stop-color="#F7E6B3" stop-opacity="0"/>
</linearGradient>
<linearGradient id="paint22_linear_83_1212" x1="24.8421" y1="22.1221" x2="25.2583" y2="31.3168" gradientUnits="userSpaceOnUse">
<stop stop-color="#F7E6B3"/>
<stop offset="1" stop-color="#F7E6B3" stop-opacity="0"/>
</linearGradient>
<linearGradient id="paint23_linear_83_1212" x1="22.258" y1="24.7603" x2="21.2561" y2="32.9224" gradientUnits="userSpaceOnUse">
<stop stop-color="#F7E6B3"/>
<stop offset="1" stop-color="#F7E6B3" stop-opacity="0"/>
</linearGradient>
<linearGradient id="paint24_linear_83_1212" x1="27.8272" y1="26.9848" x2="29.216" y2="31.9212" gradientUnits="userSpaceOnUse">
<stop stop-color="#FFDD78"/>
<stop offset="1" stop-color="#FFF1C8" stop-opacity="0.38"/>
</linearGradient>
<linearGradient id="paint25_linear_83_1212" x1="28.9515" y1="29.6152" x2="26.061" y2="36.6084" gradientUnits="userSpaceOnUse">
<stop stop-color="#D2AB68"/>
<stop offset="1" stop-color="#B67D3F"/>
</linearGradient>
<linearGradient id="paint26_linear_83_1212" x1="29.0015" y1="29.5085" x2="25.0511" y2="36.2537" gradientUnits="userSpaceOnUse">
<stop stop-color="#FFDA92"/>
<stop offset="1" stop-color="#DCBA84"/>
</linearGradient>
<linearGradient id="paint27_linear_83_1212" x1="17.4521" y1="35.8936" x2="22.5594" y2="43.6537" gradientUnits="userSpaceOnUse">
<stop stop-color="#F7E6B3"/>
<stop offset="1" stop-color="#BC8647"/>
</linearGradient>
<linearGradient id="paint28_linear_83_1212" x1="20.7076" y1="37.3065" x2="18.4026" y2="42.8831" gradientUnits="userSpaceOnUse">
<stop stop-color="#D2AB68"/>
<stop offset="1" stop-color="#8E573C"/>
</linearGradient>
<linearGradient id="paint29_linear_83_1212" x1="18.6725" y1="45.3085" x2="17.0792" y2="51.3795" gradientUnits="userSpaceOnUse">
<stop stop-color="#F7E6B3"/>
<stop offset="1" stop-color="#F7E6B3" stop-opacity="0"/>
</linearGradient>
<linearGradient id="paint30_linear_83_1212" x1="26.3324" y1="46.6238" x2="22.8593" y2="55.0264" gradientUnits="userSpaceOnUse">
<stop stop-color="#D2AB68"/>
<stop offset="1" stop-color="#B67D3F"/>
</linearGradient>
<linearGradient id="paint31_linear_83_1212" x1="24.4928" y1="45.7396" x2="24.3919" y2="55.2531" gradientUnits="userSpaceOnUse">
<stop stop-color="#E0C087"/>
<stop offset="0.28125" stop-color="#FFE49E"/>
<stop offset="1" stop-color="#753C1D"/>
</linearGradient>
<linearGradient id="paint32_linear_83_1212" x1="19.1692" y1="50.6307" x2="17.692" y2="53.0783" gradientUnits="userSpaceOnUse">
<stop stop-color="#B18253"/>
<stop offset="1" stop-color="#F7E6B3" stop-opacity="0"/>
</linearGradient>
<linearGradient id="paint33_linear_83_1212" x1="28.9544" y1="57.1655" x2="25.4141" y2="65.7308" gradientUnits="userSpaceOnUse">
<stop stop-color="#D2AB68"/>
<stop offset="1" stop-color="#B67D3F"/>
</linearGradient>
<linearGradient id="paint34_linear_83_1212" x1="27.524" y1="58.1184" x2="27.3733" y2="66.5456" gradientUnits="userSpaceOnUse">
<stop stop-color="#F7E6B3"/>
<stop offset="1" stop-color="#F7E6B3" stop-opacity="0"/>
</linearGradient>
<linearGradient id="paint35_linear_83_1212" x1="22.8156" y1="60.8997" x2="21.544" y2="63.9762" gradientUnits="userSpaceOnUse">
<stop stop-color="#D2AB68"/>
<stop offset="1" stop-color="#B67D3F"/>
</linearGradient>
<linearGradient id="paint36_linear_83_1212" x1="21.9005" y1="60.5858" x2="24.4817" y2="64.0038" gradientUnits="userSpaceOnUse">
<stop stop-color="#FADA81"/>
<stop offset="1" stop-color="#9A5E33"/>
</linearGradient>
<linearGradient id="paint37_linear_83_1212" x1="27.7786" y1="70.0632" x2="26.4445" y2="73.2909" gradientUnits="userSpaceOnUse">
<stop stop-color="#FADA81"/>
<stop offset="1" stop-color="#B67D3F"/>
</linearGradient>
<linearGradient id="paint38_linear_83_1212" x1="28.1757" y1="71.2346" x2="26.6595" y2="74.9028" gradientUnits="userSpaceOnUse">
<stop stop-color="#D2AB68"/>
<stop offset="1" stop-color="#B67D3F"/>
</linearGradient>
<linearGradient id="paint39_linear_83_1212" x1="79.5758" y1="68.1349" x2="81.0415" y2="71.6808" gradientUnits="userSpaceOnUse">
<stop stop-color="#D2AB68"/>
<stop offset="1" stop-color="#B67D3F"/>
</linearGradient>
<linearGradient id="paint40_linear_83_1212" x1="81.7075" y1="20.9021" x2="85.8862" y2="31.0117" gradientUnits="userSpaceOnUse">
<stop stop-color="#D2AB68"/>
<stop offset="1" stop-color="#B67D3F"/>
</linearGradient>
<linearGradient id="paint41_linear_83_1212" x1="75.873" y1="16.5425" x2="78.7781" y2="23.571" gradientUnits="userSpaceOnUse">
<stop stop-color="#D2AB68"/>
<stop offset="1" stop-color="#B67D3F"/>
</linearGradient>
<linearGradient id="paint42_linear_83_1212" x1="85.619" y1="45.5665" x2="83.0415" y2="45.9337" gradientUnits="userSpaceOnUse">
<stop stop-color="#D2AB68"/>
<stop offset="1" stop-color="#B67D3F"/>
</linearGradient>
<linearGradient id="paint43_linear_83_1212" x1="76.1631" y1="20.8544" x2="81.6138" y2="14.5392" gradientUnits="userSpaceOnUse">
<stop stop-color="#D2AB68"/>
<stop offset="1" stop-color="#B67D3F"/>
</linearGradient>
<linearGradient id="paint44_linear_83_1212" x1="80.9294" y1="13.3444" x2="80.9503" y2="21.5295" gradientUnits="userSpaceOnUse">
<stop stop-color="#F7E6B3"/>
<stop offset="1" stop-color="#F7E6B3" stop-opacity="0"/>
</linearGradient>
<linearGradient id="paint45_linear_83_1212" x1="78.7561" y1="43.5766" x2="83.8552" y2="55.9129" gradientUnits="userSpaceOnUse">
<stop stop-color="#D2AB68"/>
<stop offset="1" stop-color="#B67D3F"/>
</linearGradient>
<linearGradient id="paint46_linear_83_1212" x1="80.189" y1="45.2356" x2="76.126" y2="51.1284" gradientUnits="userSpaceOnUse">
<stop stop-color="#F7E6B3"/>
<stop offset="1" stop-color="#F7E6B3" stop-opacity="0"/>
</linearGradient>
<linearGradient id="paint47_linear_83_1212" x1="85.0892" y1="34.6269" x2="87.8005" y2="41.1863" gradientUnits="userSpaceOnUse">
<stop stop-color="#D2AB68"/>
<stop offset="1" stop-color="#B67D3F"/>
</linearGradient>
<linearGradient id="paint48_linear_83_1212" x1="85.0324" y1="38.0141" x2="86.0054" y2="41.9318" gradientUnits="userSpaceOnUse">
<stop stop-color="#C18E42"/>
<stop offset="1" stop-color="#D2AB68"/>
</linearGradient>
<linearGradient id="paint49_linear_83_1212" x1="84.0918" y1="23.9949" x2="87.52" y2="32.2891" gradientUnits="userSpaceOnUse">
<stop stop-color="#D2AB68"/>
<stop offset="1" stop-color="#8E573C"/>
</linearGradient>
<linearGradient id="paint50_linear_83_1212" x1="79.1999" y1="25.9526" x2="82.4937" y2="33.9215" gradientUnits="userSpaceOnUse">
<stop stop-color="#D2AB68"/>
<stop offset="1" stop-color="#B67D3F"/>
</linearGradient>
<linearGradient id="paint51_linear_83_1212" x1="87.2456" y1="50.1377" x2="88.4531" y2="53.059" gradientUnits="userSpaceOnUse">
<stop stop-color="#D2AB68"/>
<stop offset="1" stop-color="#B67D3F"/>
</linearGradient>
<linearGradient id="paint52_linear_83_1212" x1="87.0374" y1="45.1862" x2="89.8831" y2="52.071" gradientUnits="userSpaceOnUse">
<stop stop-color="#C28766"/>
<stop offset="1" stop-color="#8E573C"/>
</linearGradient>
<linearGradient id="paint53_linear_83_1212" x1="76.7973" y1="57.5326" x2="80.5169" y2="66.5315" gradientUnits="userSpaceOnUse">
<stop stop-color="#D2AB68"/>
<stop offset="1" stop-color="#B67D3F"/>
</linearGradient>
<linearGradient id="paint54_linear_83_1212" x1="83.1279" y1="57.1303" x2="85.4806" y2="62.8224" gradientUnits="userSpaceOnUse">
<stop stop-color="#D2AB68"/>
<stop offset="1" stop-color="#B67D3F"/>
</linearGradient>
<linearGradient id="paint55_linear_83_1212" x1="82.5765" y1="56.667" x2="85.345" y2="63.3651" gradientUnits="userSpaceOnUse">
<stop stop-color="#FADA81"/>
<stop offset="1" stop-color="#B67D3F"/>
</linearGradient>
<linearGradient id="paint56_linear_83_1212" x1="79.2128" y1="72.4577" x2="80.3556" y2="75.2224" gradientUnits="userSpaceOnUse">
<stop stop-color="#D2AB68"/>
<stop offset="1" stop-color="#B67D3F"/>
</linearGradient>
<linearGradient id="paint57_linear_83_1212" x1="73.328" y1="3.94405" x2="77.4285" y2="13.8646" gradientUnits="userSpaceOnUse">
<stop stop-color="#FCF1D5"/>
<stop offset="1" stop-color="#EBCE6A"/>
</linearGradient>
<linearGradient id="paint58_linear_83_1212" x1="72.493" y1="4.29078" x2="76.5935" y2="14.2113" gradientUnits="userSpaceOnUse">
<stop stop-color="#D2AB68"/>
<stop offset="1" stop-color="#B67D3F"/>
</linearGradient>
<linearGradient id="paint59_linear_83_1212" x1="75.0155" y1="13.1375" x2="78.7351" y2="22.1364" gradientUnits="userSpaceOnUse">
<stop stop-color="#D2AB68"/>
<stop offset="1" stop-color="#B67D3F"/>
</linearGradient>
<linearGradient id="paint60_linear_83_1212" x1="76.3379" y1="14.2221" x2="74.2709" y2="21.4529" gradientUnits="userSpaceOnUse">
<stop stop-color="#F7E6B3"/>
<stop offset="1" stop-color="#F7E6B3" stop-opacity="0"/>
</linearGradient>
<linearGradient id="paint61_linear_83_1212" x1="83.1843" y1="22.1218" x2="82.7681" y2="31.3165" gradientUnits="userSpaceOnUse">
<stop stop-color="#F7E6B3"/>
<stop offset="1" stop-color="#F7E6B3" stop-opacity="0"/>
</linearGradient>
<linearGradient id="paint62_linear_83_1212" x1="85.7684" y1="24.7603" x2="86.7702" y2="32.9224" gradientUnits="userSpaceOnUse">
<stop stop-color="#F7E6B3"/>
<stop offset="1" stop-color="#F7E6B3" stop-opacity="0"/>
</linearGradient>
<linearGradient id="paint63_linear_83_1212" x1="80.1991" y1="26.9844" x2="78.8107" y2="31.9206" gradientUnits="userSpaceOnUse">
<stop stop-color="#FFDD78"/>
<stop offset="1" stop-color="#FFF1C8" stop-opacity="0.38"/>
</linearGradient>
<linearGradient id="paint64_linear_83_1212" x1="79.0749" y1="29.6126" x2="81.9654" y2="36.6057" gradientUnits="userSpaceOnUse">
<stop stop-color="#D2AB68"/>
<stop offset="1" stop-color="#B67D3F"/>
</linearGradient>
<linearGradient id="paint65_linear_83_1212" x1="79.026" y1="29.507" x2="82.9763" y2="36.2521" gradientUnits="userSpaceOnUse">
<stop stop-color="#FFDA92"/>
<stop offset="1" stop-color="#DCBA84"/>
</linearGradient>
<linearGradient id="paint66_linear_83_1212" x1="90.5743" y1="35.8887" x2="85.4669" y2="43.6488" gradientUnits="userSpaceOnUse">
<stop stop-color="#F7E6B3"/>
<stop offset="1" stop-color="#BC8647"/>
</linearGradient>
<linearGradient id="paint67_linear_83_1212" x1="87.3184" y1="37.2966" x2="89.6241" y2="42.875" gradientUnits="userSpaceOnUse">
<stop stop-color="#D2AB68"/>
<stop offset="1" stop-color="#8E573C"/>
</linearGradient>
<linearGradient id="paint68_linear_83_1212" x1="89.3532" y1="45.3086" x2="90.9464" y2="51.3797" gradientUnits="userSpaceOnUse">
<stop stop-color="#F7E6B3"/>
<stop offset="1" stop-color="#F7E6B3" stop-opacity="0"/>
</linearGradient>
<linearGradient id="paint69_linear_83_1212" x1="81.6949" y1="46.6167" x2="85.168" y2="55.0194" gradientUnits="userSpaceOnUse">
<stop stop-color="#D2AB68"/>
<stop offset="1" stop-color="#B67D3F"/>
</linearGradient>
<linearGradient id="paint70_linear_83_1212" x1="83.5336" y1="45.7294" x2="83.6347" y2="55.245" gradientUnits="userSpaceOnUse">
<stop stop-color="#E0C087"/>
<stop offset="0.28125" stop-color="#FFE49E"/>
<stop offset="1" stop-color="#753C1D"/>
</linearGradient>
<linearGradient id="paint71_linear_83_1212" x1="88.8556" y1="50.6327" x2="90.3335" y2="53.0811" gradientUnits="userSpaceOnUse">
<stop stop-color="#B18253"/>
<stop offset="1" stop-color="#F7E6B3" stop-opacity="0"/>
</linearGradient>
<linearGradient id="paint72_linear_83_1212" x1="79.0719" y1="57.1655" x2="82.6123" y2="65.7308" gradientUnits="userSpaceOnUse">
<stop stop-color="#D2AB68"/>
<stop offset="1" stop-color="#B67D3F"/>
</linearGradient>
<linearGradient id="paint73_linear_83_1212" x1="80.5032" y1="58.118" x2="80.6543" y2="66.5444" gradientUnits="userSpaceOnUse">
<stop stop-color="#F7E6B3"/>
<stop offset="1" stop-color="#F7E6B3" stop-opacity="0"/>
</linearGradient>
<linearGradient id="paint74_linear_83_1212" x1="85.2107" y1="60.897" x2="86.4824" y2="63.9735" gradientUnits="userSpaceOnUse">
<stop stop-color="#D2AB68"/>
<stop offset="1" stop-color="#B67D3F"/>
</linearGradient>
<linearGradient id="paint75_linear_83_1212" x1="86.1253" y1="60.583" x2="83.5433" y2="64.0005" gradientUnits="userSpaceOnUse">
<stop stop-color="#FADA81"/>
<stop offset="1" stop-color="#9A5E33"/>
</linearGradient>
<linearGradient id="paint76_linear_83_1212" x1="80.2468" y1="70.063" x2="81.5809" y2="73.2906" gradientUnits="userSpaceOnUse">
<stop stop-color="#FADA81"/>
<stop offset="1" stop-color="#B67D3F"/>
</linearGradient>
<linearGradient id="paint77_linear_83_1212" x1="79.8482" y1="71.2346" x2="81.3644" y2="74.9029" gradientUnits="userSpaceOnUse">
<stop stop-color="#D2AB68"/>
<stop offset="1" stop-color="#B67D3F"/>
</linearGradient>
<linearGradient id="paint78_linear_83_1212" x1="77.0958" y1="137" x2="77.0959" y2="20.5937" gradientUnits="userSpaceOnUse">
<stop offset="0.0104167" stop-color="#FFF0DA"/>
<stop offset="0.0416667" stop-color="#94641E"/>
<stop offset="0.828125" stop-color="#FFF2DB"/>
<stop offset="0.9375" stop-color="#EAC885"/>
<stop offset="0.979167" stop-color="#FBF5D1"/>
<stop offset="0.9999" stop-color="#BD9A4B"/>
<stop offset="1" stop-color="#ECD8A3"/>
</linearGradient>
<linearGradient id="paint79_linear_83_1212" x1="48.0927" y1="19.2519" x2="53.6926" y2="26.8388" gradientUnits="userSpaceOnUse">
<stop offset="0.0245272" stop-color="#DBBA8F"/>
<stop offset="0.344022" stop-color="#FFEFBE"/>
<stop offset="1" stop-color="#DEBD84"/>
</linearGradient>
<linearGradient id="paint80_linear_83_1212" x1="60.3683" y1="18.8906" x2="54.7684" y2="25.755" gradientUnits="userSpaceOnUse">
<stop stop-color="#A06E48"/>
<stop offset="0.368198" stop-color="#BD9666"/>
<stop offset="1" stop-color="#A88255"/>
</linearGradient>
<linearGradient id="paint81_linear_83_1212" x1="54.0252" y1="16.4252" x2="61.6892" y2="16.4252" gradientUnits="userSpaceOnUse">
<stop stop-color="#C08D4E"/>
<stop offset="1" stop-color="#E2C69F"/>
</linearGradient>
<linearGradient id="paint82_linear_83_1212" x1="49.7106" y1="18.5426" x2="54.9492" y2="23.4199" gradientUnits="userSpaceOnUse">
<stop stop-color="#C49357"/>
<stop offset="0.483067" stop-color="white" stop-opacity="0.87"/>
<stop offset="1" stop-color="#DFC299"/>
</linearGradient>
<linearGradient id="paint83_linear_83_1212" x1="76.9956" y1="91.3305" x2="50.3594" y2="78.3015" gradientUnits="userSpaceOnUse">
<stop stop-color="#FAFCFF"/>
<stop offset="0.309893" stop-color="#D7E6FC"/>
<stop offset="0.523799" stop-color="#C1D8F4"/>
<stop offset="0.77229" stop-color="#BBD6FF"/>
<stop offset="1" stop-color="white"/>
</linearGradient>
<linearGradient id="paint84_linear_83_1212" x1="53.9781" y1="97.791" x2="53.9781" y2="111.674" gradientUnits="userSpaceOnUse">
<stop stop-color="#6A88C3"/>
<stop offset="0.479167" stop-color="#E4EFFD"/>
<stop offset="1" stop-color="#E1ECFD"/>
</linearGradient>
<linearGradient id="paint85_linear_83_1212" x1="50.9209" y1="98.1504" x2="50.9209" y2="109.23" gradientUnits="userSpaceOnUse">
<stop stop-color="#E2F5FF" stop-opacity="0"/>
<stop offset="0.479167" stop-color="#F42500"/>
<stop offset="1" stop-color="#CCD7FF"/>
</linearGradient>
<linearGradient id="paint86_linear_83_1212" x1="57.0264" y1="98.1504" x2="57.0264" y2="109.23" gradientUnits="userSpaceOnUse">
<stop stop-color="#E2F5FF" stop-opacity="0"/>
<stop offset="0.479167" stop-color="#F42500"/>
<stop offset="1" stop-color="#CCD7FF"/>
</linearGradient>
<linearGradient id="paint87_linear_83_1212" x1="53.1132" y1="110.021" x2="43.8775" y2="111.114" gradientUnits="userSpaceOnUse">
<stop stop-color="#C9DEFC"/>
<stop offset="0.309893" stop-color="#ECF4FF"/>
<stop offset="0.523799" stop-color="#EAF6FF"/>
<stop offset="0.613641" stop-color="#CCE7FF"/>
<stop offset="1" stop-color="#CEE4F9"/>
</linearGradient>
<linearGradient id="paint88_linear_83_1212" x1="52.5411" y1="91.1971" x2="57.9467" y2="83.2722" gradientUnits="userSpaceOnUse">
<stop stop-color="#D5D7D9"/>
<stop offset="1" stop-color="#E2E3E7"/>
</linearGradient>
<linearGradient id="paint89_linear_83_1212" x1="54.0458" y1="81.2979" x2="44.5506" y2="81.9494" gradientUnits="userSpaceOnUse">
<stop stop-color="#9A9CA5"/>
<stop offset="0.259135" stop-color="#C4C6CF"/>
<stop offset="0.878536" stop-color="#E2E3E7"/>
</linearGradient>
<linearGradient id="paint90_linear_83_1212" x1="58.5768" y1="93.2599" x2="51.2448" y2="94.4502" gradientUnits="userSpaceOnUse">
<stop stop-color="#F4F5F8"/>
<stop offset="1" stop-color="#F5F6F7"/>
</linearGradient>
<linearGradient id="paint91_linear_83_1212" x1="53.839" y1="94.0664" x2="50.4359" y2="93.7423" gradientUnits="userSpaceOnUse">
<stop stop-color="#916437"/>
<stop offset="0.522184" stop-color="#AF8356"/>
<stop offset="1" stop-color="#AF8356"/>
</linearGradient>
</defs>
</svg>
