<svg width="176" height="138" viewBox="0 0 176 138" fill="none" xmlns="http://www.w3.org/2000/svg">
<g opacity="0.5" filter="url(#filter0_f_31_1540)">
<circle cx="87.8633" cy="12.4876" r="4.14167" fill="url(#paint0_radial_31_1540)"/>
</g>
<path fill-rule="evenodd" clip-rule="evenodd" d="M87.1736 133.517C120.341 133.517 147.228 106.629 147.228 73.4623C147.228 40.2952 120.341 13.408 87.1736 13.408C54.0065 13.408 27.1193 40.2952 27.1193 73.4623C27.1193 106.629 54.0065 133.517 87.1736 133.517ZM87.1736 134.897C121.103 134.897 148.608 107.392 148.608 73.4623C148.608 39.5328 121.103 12.0275 87.1736 12.0275C53.2441 12.0275 25.7388 39.5328 25.7388 73.4623C25.7388 107.392 53.2441 134.897 87.1736 134.897Z" fill="url(#paint1_linear_31_1540)"/>
<g filter="url(#filter1_f_31_1540)">
<path d="M87.863 5.58472L88.4551 11.8531L94.3056 12.4875L88.4551 13.1219L87.863 19.3903L87.2709 13.1219L81.4204 12.4875L87.2709 11.8531L87.863 5.58472Z" fill="white"/>
</g>
<path d="M80.2587 54.5815L77.8481 0H97.1325L94.7219 54.5815H80.2587Z" fill="url(#paint2_linear_31_1540)"/>
<path d="M102.814 70.1857L151.289 95.3889L141.646 112.09L95.5827 82.7113L102.814 70.1857Z" fill="url(#paint3_linear_31_1540)"/>
<path d="M79.1443 82.8846L33.0806 112.263L23.4384 95.5622L71.9127 70.3591L79.1443 82.8846Z" fill="url(#paint4_linear_31_1540)"/>
<path d="M102.814 68.1609L151.289 42.9578L141.646 26.257L95.5827 55.6354L102.814 68.1609Z" fill="url(#paint5_linear_31_1540)"/>
<path d="M79.1443 55.465L33.0806 26.0867L23.4384 42.7874L71.9127 67.9906L79.1443 55.465Z" fill="url(#paint6_linear_31_1540)"/>
<g filter="url(#filter2_dd_31_1540)">
<path d="M52.5132 62.5148L52.5132 48.9485L20.4817 48.9485C20.4817 57.4274 26.4759 62.5148 31.3462 62.5148L52.5132 62.5148Z" fill="url(#paint7_linear_31_1540)"/>
<path d="M52.5132 62.5148L52.5132 48.9485L20.4817 48.9485C20.4817 57.4274 26.4759 62.5148 31.3462 62.5148L52.5132 62.5148Z" stroke="url(#paint8_linear_31_1540)" stroke-width="0.753683"/>
<path d="M63.8193 74.5739L63.8193 61.0076L31.7878 61.0076C31.7878 69.4865 37.782 74.5739 42.6523 74.5739L63.8193 74.5739Z" fill="url(#paint9_linear_31_1540)"/>
<path d="M63.8193 74.5739L63.8193 61.0076L31.7878 61.0076C31.7878 69.4865 37.782 74.5739 42.6523 74.5739L63.8193 74.5739Z" stroke="url(#paint10_linear_31_1540)" stroke-width="0.753683"/>
<path d="M123.091 62.5148L123.091 48.9485L155.122 48.9485C155.122 57.4274 149.128 62.5148 144.258 62.5148L123.091 62.5148Z" fill="url(#paint11_linear_31_1540)"/>
<path d="M123.091 62.5148L123.091 48.9485L155.122 48.9485C155.122 57.4274 149.128 62.5148 144.258 62.5148L123.091 62.5148Z" stroke="url(#paint12_linear_31_1540)" stroke-width="0.753683"/>
<path d="M111.785 74.5739L111.785 61.0076L143.816 61.0076C143.816 69.4865 137.822 74.5739 132.952 74.5739L111.785 74.5739Z" fill="url(#paint13_linear_31_1540)"/>
<path d="M111.785 74.5739L111.785 61.0076L143.816 61.0076C143.816 69.4865 137.822 74.5739 132.952 74.5739L111.785 74.5739Z" stroke="url(#paint14_linear_31_1540)" stroke-width="0.753683"/>
<g filter="url(#filter3_d_31_1540)">
<path d="M85.1311 22.8047L49.65 42.106C47.8527 43.0838 46.7339 44.966 46.7339 47.0121L46.7339 91.1328C46.7339 93.1789 47.8527 95.0612 49.65 96.0389L85.1311 115.34C86.7952 116.245 88.8047 116.245 90.4688 115.34L125.95 96.0389C127.747 95.0612 128.866 93.1789 128.866 91.1328L128.866 47.0121C128.866 44.966 127.747 43.0838 125.95 42.1061L90.4688 22.8047C88.8047 21.8995 86.7952 21.8995 85.1311 22.8047Z" fill="url(#paint15_linear_31_1540)"/>
<path d="M85.0925 30.0255L55.8817 45.9158C54.0912 46.8899 52.9766 48.7651 52.9766 50.8034L52.9766 87.1728C52.9766 89.2111 54.0912 91.0863 55.8817 92.0603L85.0925 107.951C86.7504 108.853 88.7523 108.853 90.4101 107.951L119.621 92.0603C121.412 91.0863 122.526 89.2111 122.526 87.1728L122.526 50.8034C122.526 48.7651 121.412 46.8899 119.621 45.9158L90.4101 30.0255C88.7523 29.1236 86.7504 29.1236 85.0925 30.0255Z" fill="url(#paint16_linear_31_1540)"/>
<g filter="url(#filter4_f_31_1540)">
<path d="M85.0925 30.0255L55.8817 45.9158C54.0912 46.8899 52.9766 48.7651 52.9766 50.8034L52.9766 87.1728C52.9766 89.2111 54.0912 91.0863 55.8817 92.0603L85.0925 107.951C86.7504 108.853 88.7523 108.853 90.4101 107.951L119.621 92.0603C121.412 91.0863 122.526 89.2111 122.526 87.1728L122.526 50.8034C122.526 48.7651 121.412 46.8899 119.621 45.9158L90.4101 30.0255C88.7523 29.1236 86.7504 29.1236 85.0925 30.0255Z" stroke="url(#paint17_linear_31_1540)" stroke-width="0.328528"/>
</g>
<g opacity="0.5">
<mask id="mask0_31_1540" style="mask-type:alpha" maskUnits="userSpaceOnUse" x="55" y="32" width="65" height="74">
<path d="M85.4368 33.239L58.6978 47.7716C56.9936 48.6978 55.9326 50.4821 55.9326 52.4217L55.9326 85.6846C55.9326 87.6242 56.9936 89.4085 58.6978 90.3347L85.4368 104.867C87.0128 105.724 88.9154 105.724 90.4915 104.867L117.23 90.3347C118.935 89.4085 119.996 87.6242 119.996 85.6846L119.996 52.4217C119.996 50.4821 118.935 48.6978 117.23 47.7716L90.4915 33.239C88.9154 32.3824 87.0128 32.3824 85.4368 33.239Z" fill="#A6D3DE"/>
</mask>
<g mask="url(#mask0_31_1540)">
<path d="M85.4368 33.239L58.6978 47.7716C56.9936 48.6978 55.9326 50.4821 55.9326 52.4217L55.9326 85.6846C55.9326 87.6242 56.9936 89.4085 58.6978 90.3347L85.4368 104.867C87.0128 105.724 88.9154 105.724 90.4915 104.867L117.23 90.3347C118.935 89.4085 119.996 87.6242 119.996 85.6846L119.996 52.4217C119.996 50.4821 118.935 48.6978 117.23 47.7716L90.4915 33.239C88.9154 32.3824 87.0128 32.3824 85.4368 33.239Z" fill="url(#paint18_radial_31_1540)"/>
<g filter="url(#filter5_i_31_1540)">
<path d="M85.4373 33.2397L58.6983 47.7723C56.9941 48.6986 55.9331 50.4828 55.9331 52.4225L55.9331 85.6853C55.9331 87.625 56.9941 89.4092 58.6983 90.3354L85.4373 104.868C87.0133 105.725 88.9159 105.725 90.492 104.868L117.231 90.3354C118.935 89.4092 119.996 87.625 119.996 85.6853L119.996 52.4225C119.996 50.4828 118.935 48.6986 117.231 47.7723L90.492 33.2397C88.9159 32.3831 87.0133 32.3831 85.4373 33.2397Z" fill="black"/>
</g>
<path opacity="0.5" d="M82.6098 107.71L81.3374 30.3929H94.5918L93.3194 107.71H82.6098Z" fill="url(#paint19_linear_31_1540)"/>
<path opacity="0.5" d="M82.4389 107.026L42.6782 40.7031L54.1569 34.0759L91.7137 101.671L82.4389 107.026Z" fill="url(#paint20_linear_31_1540)"/>
<path opacity="0.5" d="M81.3339 101.671L118.891 34.076L130.369 40.7033L90.6086 107.026L81.3339 101.671Z" fill="url(#paint21_linear_31_1540)"/>
<rect x="55.9326" y="64.6335" width="64.063" height="41.6042" fill="url(#paint22_linear_31_1540)"/>
</g>
</g>
</g>
</g>
<g filter="url(#filter6_i_31_1540)">
<path d="M84.9856 33.3736L58.2467 47.9063C56.5425 48.8325 55.4815 50.6167 55.4815 52.5564L55.4814 85.8192C55.4814 87.7589 56.5425 89.5431 58.2466 90.4694L84.9856 105.002C86.5616 105.859 88.4643 105.859 90.0403 105.002L116.779 90.4694C118.483 89.5431 119.544 87.7589 119.544 85.8192L119.544 52.5564C119.544 50.6167 118.483 48.8325 116.779 47.9063L90.0403 33.3736C88.4643 32.517 86.5616 32.517 84.9856 33.3736Z" fill="black"/>
</g>
<defs>
<filter id="filter0_f_31_1540" x="82.8013" y="7.42558" width="10.1239" height="10.1241" filterUnits="userSpaceOnUse" color-interpolation-filters="sRGB">
<feFlood flood-opacity="0" result="BackgroundImageFix"/>
<feBlend mode="normal" in="SourceGraphic" in2="BackgroundImageFix" result="shape"/>
<feGaussianBlur stdDeviation="0.460186" result="effect1_foregroundBlur_31_1540"/>
</filter>
<filter id="filter1_f_31_1540" x="81.1443" y="5.30861" width="13.4375" height="14.3578" filterUnits="userSpaceOnUse" color-interpolation-filters="sRGB">
<feFlood flood-opacity="0" result="BackgroundImageFix"/>
<feBlend mode="normal" in="SourceGraphic" in2="BackgroundImageFix" result="shape"/>
<feGaussianBlur stdDeviation="0.138056" result="effect1_foregroundBlur_31_1540"/>
</filter>
<filter id="filter2_dd_31_1540" x="0.000211716" y="3.36128" width="175.604" height="134.103" filterUnits="userSpaceOnUse" color-interpolation-filters="sRGB">
<feFlood flood-opacity="0" result="BackgroundImageFix"/>
<feColorMatrix in="SourceAlpha" type="matrix" values="0 0 0 0 0 0 0 0 0 0 0 0 0 0 0 0 0 0 127 0" result="hardAlpha"/>
<feOffset/>
<feGaussianBlur stdDeviation="3.35079"/>
<feColorMatrix type="matrix" values="0 0 0 0 0.558594 0 0 0 0 0.710156 0 0 0 0 0.9375 0 0 0 1 0"/>
<feBlend mode="normal" in2="BackgroundImageFix" result="effect1_dropShadow_31_1540"/>
<feColorMatrix in="SourceAlpha" type="matrix" values="0 0 0 0 0 0 0 0 0 0 0 0 0 0 0 0 0 0 127 0" result="hardAlpha"/>
<feOffset dy="1.34032"/>
<feGaussianBlur stdDeviation="10.0524"/>
<feColorMatrix type="matrix" values="0 0 0 0 0.670833 0 0 0 0 0.8025 0 0 0 0 1 0 0 0 0.6 0"/>
<feBlend mode="normal" in2="effect1_dropShadow_31_1540" result="effect2_dropShadow_31_1540"/>
<feBlend mode="normal" in="SourceGraphic" in2="effect2_dropShadow_31_1540" result="shape"/>
</filter>
<filter id="filter3_d_31_1540" x="44.7627" y="22.1257" width="86.0747" height="98.4928" filterUnits="userSpaceOnUse" color-interpolation-filters="sRGB">
<feFlood flood-opacity="0" result="BackgroundImageFix"/>
<feColorMatrix in="SourceAlpha" type="matrix" values="0 0 0 0 0 0 0 0 0 0 0 0 0 0 0 0 0 0 127 0" result="hardAlpha"/>
<feOffset dy="2.62823"/>
<feGaussianBlur stdDeviation="0.985585"/>
<feColorMatrix type="matrix" values="0 0 0 0 0.141181 0 0 0 0 0.190317 0 0 0 0 0.316667 0 0 0 0.51 0"/>
<feBlend mode="normal" in2="BackgroundImageFix" result="effect1_dropShadow_31_1540"/>
<feBlend mode="normal" in="SourceGraphic" in2="effect1_dropShadow_31_1540" result="shape"/>
</filter>
<filter id="filter4_f_31_1540" x="52.7139" y="29.0863" width="70.075" height="79.8037" filterUnits="userSpaceOnUse" color-interpolation-filters="sRGB">
<feFlood flood-opacity="0" result="BackgroundImageFix"/>
<feBlend mode="normal" in="SourceGraphic" in2="BackgroundImageFix" result="shape"/>
<feGaussianBlur stdDeviation="0.0492793" result="effect1_foregroundBlur_31_1540"/>
</filter>
<filter id="filter5_i_31_1540" x="55.9331" y="32.5973" width="64.063" height="72.9132" filterUnits="userSpaceOnUse" color-interpolation-filters="sRGB">
<feFlood flood-opacity="0" result="BackgroundImageFix"/>
<feBlend mode="normal" in="SourceGraphic" in2="BackgroundImageFix" result="shape"/>
<feColorMatrix in="SourceAlpha" type="matrix" values="0 0 0 0 0 0 0 0 0 0 0 0 0 0 0 0 0 0 127 0" result="hardAlpha"/>
<feOffset/>
<feGaussianBlur stdDeviation="2.20907"/>
<feComposite in2="hardAlpha" operator="arithmetic" k2="-1" k3="1"/>
<feColorMatrix type="matrix" values="0 0 0 0 0.297222 0 0 0 0 0.329917 0 0 0 0 0.445833 0 0 0 1 0"/>
<feBlend mode="normal" in2="shape" result="effect1_innerShadow_31_1540"/>
</filter>
<filter id="filter6_i_31_1540" x="55.4814" y="32.7312" width="64.063" height="72.9132" filterUnits="userSpaceOnUse" color-interpolation-filters="sRGB">
<feFlood flood-opacity="0" result="BackgroundImageFix"/>
<feBlend mode="normal" in="SourceGraphic" in2="BackgroundImageFix" result="shape"/>
<feColorMatrix in="SourceAlpha" type="matrix" values="0 0 0 0 0 0 0 0 0 0 0 0 0 0 0 0 0 0 127 0" result="hardAlpha"/>
<feOffset/>
<feGaussianBlur stdDeviation="2.20907"/>
<feComposite in2="hardAlpha" operator="arithmetic" k2="-1" k3="1"/>
<feColorMatrix type="matrix" values="0 0 0 0 0.297222 0 0 0 0 0.329917 0 0 0 0 0.445833 0 0 0 1 0"/>
<feBlend mode="normal" in2="shape" result="effect1_innerShadow_31_1540"/>
</filter>
<radialGradient id="paint0_radial_31_1540" cx="0" cy="0" r="1" gradientUnits="userSpaceOnUse" gradientTransform="translate(87.8634 12.4876) rotate(90) scale(6.62668)">
<stop stop-color="#E7ECFF"/>
<stop offset="0.979167" stop-color="#ABC3FF" stop-opacity="0.8825"/>
<stop offset="1" stop-color="#AACCFF" stop-opacity="0.88"/>
</radialGradient>
<linearGradient id="paint1_linear_31_1540" x1="87.4037" y1="12.7177" x2="87.4037" y2="111.198" gradientUnits="userSpaceOnUse">
<stop stop-color="#DEE7FF"/>
<stop offset="0.0722622" stop-color="#CCDDFF" stop-opacity="0.33"/>
<stop offset="1" stop-color="#98C6F0" stop-opacity="0"/>
</linearGradient>
<linearGradient id="paint2_linear_31_1540" x1="87.4903" y1="0" x2="87.4903" y2="54.5815" gradientUnits="userSpaceOnUse">
<stop stop-color="#AACCFF" stop-opacity="0"/>
<stop offset="1" stop-color="#AACCFF" stop-opacity="0.3"/>
</linearGradient>
<linearGradient id="paint3_linear_31_1540" x1="146.467" y1="103.739" x2="99.1985" y2="76.4485" gradientUnits="userSpaceOnUse">
<stop stop-color="#AACCFF" stop-opacity="0"/>
<stop offset="1" stop-color="#AACCFF" stop-opacity="0.3"/>
</linearGradient>
<linearGradient id="paint4_linear_31_1540" x1="28.2595" y1="103.913" x2="75.5285" y2="76.6218" gradientUnits="userSpaceOnUse">
<stop stop-color="#AACCFF" stop-opacity="0"/>
<stop offset="1" stop-color="#AACCFF" stop-opacity="0.3"/>
</linearGradient>
<linearGradient id="paint5_linear_31_1540" x1="146.467" y1="34.6074" x2="99.1985" y2="61.8982" gradientUnits="userSpaceOnUse">
<stop stop-color="#AACCFF" stop-opacity="0"/>
<stop offset="1" stop-color="#AACCFF" stop-opacity="0.3"/>
</linearGradient>
<linearGradient id="paint6_linear_31_1540" x1="28.2595" y1="34.437" x2="75.5285" y2="61.7278" gradientUnits="userSpaceOnUse">
<stop stop-color="#AACCFF" stop-opacity="0"/>
<stop offset="1" stop-color="#AACCFF" stop-opacity="0.3"/>
</linearGradient>
<linearGradient id="paint7_linear_31_1540" x1="40.0774" y1="62.5148" x2="28.5838" y2="51.0211" gradientUnits="userSpaceOnUse">
<stop stop-color="#C3C5D1"/>
<stop offset="0.875" stop-color="#F9F9F9"/>
</linearGradient>
<linearGradient id="paint8_linear_31_1540" x1="22.3659" y1="48.9485" x2="33.2943" y2="62.5148" gradientUnits="userSpaceOnUse">
<stop stop-color="#F9F9F9"/>
<stop offset="0.378992" stop-color="#F9F9F9"/>
<stop offset="0.480868" stop-color="#DFDFE6"/>
<stop offset="0.729174" stop-color="#B8BAC6"/>
</linearGradient>
<linearGradient id="paint9_linear_31_1540" x1="47.992" y1="72.8781" x2="36.4983" y2="61.0076" gradientUnits="userSpaceOnUse">
<stop stop-color="#C3C5D1"/>
<stop offset="0.875" stop-color="#F9F9F9"/>
</linearGradient>
<linearGradient id="paint10_linear_31_1540" x1="33.4836" y1="61.0076" x2="39.3247" y2="72.8781" gradientUnits="userSpaceOnUse">
<stop stop-color="#F4F4F5"/>
<stop offset="0.306027" stop-color="#F4F4F5"/>
<stop offset="0.462087" stop-color="#E8E9EC"/>
<stop offset="0.682292" stop-color="#DFDFE6"/>
<stop offset="1" stop-color="#B8BAC6"/>
</linearGradient>
<linearGradient id="paint11_linear_31_1540" x1="135.527" y1="62.5148" x2="147.02" y2="51.0211" gradientUnits="userSpaceOnUse">
<stop stop-color="#C3C5D1"/>
<stop offset="0.875" stop-color="#F9F9F9"/>
</linearGradient>
<linearGradient id="paint12_linear_31_1540" x1="153.238" y1="48.9485" x2="142.31" y2="62.5148" gradientUnits="userSpaceOnUse">
<stop stop-color="#F9F9F9"/>
<stop offset="0.378992" stop-color="#F9F9F9"/>
<stop offset="0.480868" stop-color="#DFDFE6"/>
<stop offset="0.729174" stop-color="#B8BAC6"/>
</linearGradient>
<linearGradient id="paint13_linear_31_1540" x1="127.612" y1="72.8781" x2="139.106" y2="61.0076" gradientUnits="userSpaceOnUse">
<stop stop-color="#C3C5D1"/>
<stop offset="0.875" stop-color="#F9F9F9"/>
</linearGradient>
<linearGradient id="paint14_linear_31_1540" x1="142.12" y1="61.0076" x2="136.279" y2="72.8781" gradientUnits="userSpaceOnUse">
<stop stop-color="#F4F4F5"/>
<stop offset="0.306027" stop-color="#F4F4F5"/>
<stop offset="0.462087" stop-color="#E8E9EC"/>
<stop offset="0.682292" stop-color="#DFDFE6"/>
<stop offset="1" stop-color="#B8BAC6"/>
</linearGradient>
<linearGradient id="paint15_linear_31_1540" x1="70.5522" y1="32.8514" x2="107.512" y2="106.277" gradientUnits="userSpaceOnUse">
<stop stop-color="#FAFAFA"/>
<stop offset="1" stop-color="#C2C4CD"/>
</linearGradient>
<linearGradient id="paint16_linear_31_1540" x1="70.2243" y1="38.9277" x2="102.092" y2="97.7343" gradientUnits="userSpaceOnUse">
<stop stop-color="#CDCFD6"/>
<stop offset="1" stop-color="#EFEFF1"/>
</linearGradient>
<linearGradient id="paint17_linear_31_1540" x1="73.6738" y1="36.7923" x2="108.005" y2="98.5556" gradientUnits="userSpaceOnUse">
<stop stop-color="#DDDFE2"/>
<stop offset="1" stop-color="white"/>
</linearGradient>
<radialGradient id="paint18_radial_31_1540" cx="0" cy="0" r="1" gradientUnits="userSpaceOnUse" gradientTransform="translate(87.9641 69.0532) rotate(90) scale(37.1878 32.0315)">
<stop stop-color="#F5F7FF"/>
<stop offset="1" stop-color="#B3B5C5"/>
</radialGradient>
<linearGradient id="paint19_linear_31_1540" x1="87.9646" y1="30.3929" x2="87.9646" y2="107.71" gradientUnits="userSpaceOnUse">
<stop stop-color="white"/>
<stop offset="1" stop-color="#F2EDED" stop-opacity="0"/>
</linearGradient>
<linearGradient id="paint20_linear_31_1540" x1="48.4176" y1="37.3895" x2="87.0763" y2="104.348" gradientUnits="userSpaceOnUse">
<stop stop-color="white"/>
<stop offset="1" stop-color="#F2EDED" stop-opacity="0"/>
</linearGradient>
<linearGradient id="paint21_linear_31_1540" x1="124.63" y1="37.3897" x2="85.9712" y2="104.349" gradientUnits="userSpaceOnUse">
<stop stop-color="white"/>
<stop offset="1" stop-color="#F2EDED" stop-opacity="0"/>
</linearGradient>
<linearGradient id="paint22_linear_31_1540" x1="87.9641" y1="82.6743" x2="87.7709" y2="103.66" gradientUnits="userSpaceOnUse">
<stop stop-color="white" stop-opacity="0"/>
<stop offset="1" stop-color="#D0DBFF"/>
</linearGradient>
</defs>
</svg>
