<svg width="176" height="157" viewBox="0 0 176 157" fill="none" xmlns="http://www.w3.org/2000/svg">
<g opacity="0.5" filter="url(#filter0_f_1_10986)">
<circle cx="87.8633" cy="12.4876" r="4.14167" fill="url(#paint0_radial_1_10986)"/>
</g>
<path fill-rule="evenodd" clip-rule="evenodd" d="M87.1736 133.517C120.341 133.517 147.228 106.629 147.228 73.4624C147.228 40.2953 120.341 13.4081 87.1736 13.4081C54.0065 13.4081 27.1193 40.2953 27.1193 73.4624C27.1193 106.629 54.0065 133.517 87.1736 133.517ZM87.1736 134.897C121.103 134.897 148.608 107.392 148.608 73.4624C148.608 39.5329 121.103 12.0276 87.1736 12.0276C53.2441 12.0276 25.7388 39.5329 25.7388 73.4624C25.7388 107.392 53.2441 134.897 87.1736 134.897Z" fill="url(#paint1_linear_1_10986)"/>
<g filter="url(#filter1_f_1_10986)">
<path d="M87.863 5.58472L88.4551 11.8531L94.3056 12.4875L88.4551 13.1219L87.863 19.3903L87.2709 13.1219L81.4204 12.4875L87.2709 11.8531L87.863 5.58472Z" fill="white"/>
</g>
<path d="M80.2592 54.5815L77.8486 0H97.133L94.7224 54.5815H80.2592Z" fill="url(#paint2_linear_1_10986)"/>
<path d="M102.815 70.1857L151.289 95.3889L141.647 112.09L95.5832 82.7113L102.815 70.1857Z" fill="url(#paint3_linear_1_10986)"/>
<path d="M94.3785 83.6802L96.7891 138.262H77.5047L79.9153 83.6802H94.3785Z" fill="url(#paint4_linear_1_10986)"/>
<path d="M79.1448 82.8846L33.0811 112.263L23.4389 95.5622L71.9132 70.3591L79.1448 82.8846Z" fill="url(#paint5_linear_1_10986)"/>
<path d="M102.815 68.1609L151.289 42.9578L141.647 26.257L95.5832 55.6354L102.815 68.1609Z" fill="url(#paint6_linear_1_10986)"/>
<path d="M79.1448 55.465L33.0811 26.0867L23.4389 42.7874L71.9132 67.9906L79.1448 55.465Z" fill="url(#paint7_linear_1_10986)"/>
<g filter="url(#filter2_dd_1_10986)">
<path d="M52.5132 62.5149L52.5132 48.9486L20.4817 48.9486C20.4817 57.4275 26.4759 62.5149 31.3462 62.5149L52.5132 62.5149Z" fill="url(#paint8_linear_1_10986)"/>
<path d="M52.5132 62.5149L52.5132 48.9486L20.4817 48.9486C20.4817 57.4275 26.4759 62.5149 31.3462 62.5149L52.5132 62.5149Z" stroke="url(#paint9_linear_1_10986)" stroke-width="0.753683"/>
<path d="M63.8198 74.574L63.8198 61.0077L31.7883 61.0077C31.7883 69.4866 37.7825 74.574 42.6528 74.574L63.8198 74.574Z" fill="url(#paint10_linear_1_10986)"/>
<path d="M63.8198 74.574L63.8198 61.0077L31.7883 61.0077C31.7883 69.4866 37.7825 74.574 42.6528 74.574L63.8198 74.574Z" stroke="url(#paint11_linear_1_10986)" stroke-width="0.753683"/>
<path d="M123.091 62.5149L123.091 48.9486L155.123 48.9486C155.123 57.4275 149.129 62.5149 144.258 62.5149L123.091 62.5149Z" fill="url(#paint12_linear_1_10986)"/>
<path d="M123.091 62.5149L123.091 48.9486L155.123 48.9486C155.123 57.4275 149.129 62.5149 144.258 62.5149L123.091 62.5149Z" stroke="url(#paint13_linear_1_10986)" stroke-width="0.753683"/>
<path d="M111.785 74.574L111.785 61.0077L143.816 61.0077C143.816 69.4866 137.822 74.574 132.952 74.574L111.785 74.574Z" fill="url(#paint14_linear_1_10986)"/>
<path d="M111.785 74.574L111.785 61.0077L143.816 61.0077C143.816 69.4866 137.822 74.574 132.952 74.574L111.785 74.574Z" stroke="url(#paint15_linear_1_10986)" stroke-width="0.753683"/>
<g filter="url(#filter3_d_1_10986)">
<path fill-rule="evenodd" clip-rule="evenodd" d="M69.4033 91.0002V120.187L79.1035 125.4C79.3224 125.517 79.5876 125.36 79.5876 125.112C79.5866 114.236 79.5972 101.823 79.5972 91.0002H69.4033Z" fill="#9CB7ED"/>
<path fill-rule="evenodd" clip-rule="evenodd" d="M69.4033 91.0002V120.187L79.1035 125.4C79.3224 125.517 79.5876 125.36 79.5876 125.112C79.5866 114.236 79.5972 101.823 79.5972 91.0002H69.4033Z" stroke="url(#paint16_linear_1_10986)" stroke-width="0.328528"/>
</g>
<path fill-rule="evenodd" clip-rule="evenodd" d="M70.247 118.882V107.428H70.0607V119.037L70.1385 119.05C70.396 119.093 70.6824 119.246 70.9162 119.468C71.1498 119.691 71.3227 119.975 71.3656 120.276L71.3727 120.325L78.9087 124.183V111.25H78.7224V123.89L71.5417 120.199C71.4805 119.867 71.2878 119.565 71.0447 119.333C70.8114 119.111 70.5247 118.947 70.247 118.882Z" fill="url(#paint17_linear_1_10986)"/>
<path fill-rule="evenodd" clip-rule="evenodd" d="M78.711 123.21C78.9119 122.87 78.9233 122.388 78.9078 122.077L78.7217 122.086C78.7372 122.396 78.7208 122.827 78.5507 123.115C78.4682 123.254 78.3515 123.357 78.1835 123.399C78.0126 123.442 77.7764 123.425 77.4515 123.299L77.384 123.473C77.7296 123.607 78.0073 123.635 78.2289 123.58C78.4535 123.523 78.608 123.384 78.711 123.21Z" fill="#E3EFFB"/>
<g filter="url(#filter4_d_1_10986)">
<path fill-rule="evenodd" clip-rule="evenodd" d="M67.7651 119.529V90.9993H55.9334V113.163C55.9334 113.541 56.1489 113.885 56.4883 114.05L67.7651 119.529Z" fill="#C6D9FF"/>
<path fill-rule="evenodd" clip-rule="evenodd" d="M67.7651 119.529V90.9993H55.9334V113.163C55.9334 113.541 56.1489 113.885 56.4883 114.05L67.7651 119.529Z" stroke="url(#paint18_linear_1_10986)" stroke-width="0.328528"/>
</g>
<path fill-rule="evenodd" clip-rule="evenodd" d="M56.8099 112.401V98.8857H56.5901V112.584L56.682 112.6C56.9858 112.65 57.3237 112.83 57.5996 113.093C57.8753 113.355 58.0793 113.691 58.1299 114.045L58.1383 114.104L67.0308 118.269V103.395H66.811V117.923L58.3378 113.955C58.2655 113.563 58.0381 113.207 57.7512 112.934C57.476 112.671 57.1377 112.478 56.8099 112.401Z" fill="url(#paint19_linear_1_10986)"/>
<path fill-rule="evenodd" clip-rule="evenodd" d="M66.7987 117.118C67.0357 116.717 67.0493 116.149 67.0309 115.781L66.8114 115.792C66.8297 116.158 66.8103 116.667 66.6095 117.006C66.5122 117.17 66.3745 117.292 66.1763 117.341C65.9746 117.392 65.696 117.372 65.3125 117.223L65.2329 117.428C65.6407 117.587 65.9683 117.62 66.2298 117.554C66.4948 117.488 66.6772 117.323 66.7987 117.118Z" fill="#F2F9FF"/>
<g filter="url(#filter5_d_1_10986)">
<path fill-rule="evenodd" clip-rule="evenodd" d="M106.536 91.0002V120.187L96.8359 125.4C96.617 125.517 96.3518 125.36 96.3519 125.112C96.3528 114.236 96.3423 101.823 96.3423 91.0002H106.536Z" fill="#9CB7ED"/>
<path fill-rule="evenodd" clip-rule="evenodd" d="M106.536 91.0002V120.187L96.8359 125.4C96.617 125.517 96.3518 125.36 96.3519 125.112C96.3528 114.236 96.3423 101.823 96.3423 91.0002H106.536Z" stroke="url(#paint20_linear_1_10986)" stroke-width="0.328528"/>
</g>
<path fill-rule="evenodd" clip-rule="evenodd" d="M105.692 118.882V107.428H105.879V119.037L105.801 119.05C105.543 119.093 105.257 119.246 105.023 119.468C104.79 119.691 104.617 119.975 104.574 120.276L104.567 120.325L97.0308 124.183V111.25H97.217V123.89L104.398 120.199C104.459 119.867 104.652 119.565 104.895 119.333C105.128 119.111 105.415 118.947 105.692 118.882Z" fill="url(#paint21_linear_1_10986)"/>
<path fill-rule="evenodd" clip-rule="evenodd" d="M97.229 123.21C97.0281 122.87 97.0166 122.388 97.0322 122.077L97.2182 122.086C97.2027 122.396 97.2192 122.827 97.3893 123.115C97.4717 123.254 97.5885 123.357 97.7564 123.399C97.9273 123.442 98.1635 123.425 98.4884 123.299L98.5559 123.473C98.2103 123.607 97.9327 123.635 97.7111 123.58C97.4865 123.523 97.332 123.384 97.229 123.21Z" fill="#E3EFFB"/>
<g filter="url(#filter6_d_1_10986)">
<path fill-rule="evenodd" clip-rule="evenodd" d="M108.174 119.529V90.9993H120.006V113.163C120.006 113.541 119.79 113.885 119.451 114.05L108.174 119.529Z" fill="#C6D9FF"/>
<path fill-rule="evenodd" clip-rule="evenodd" d="M108.174 119.529V90.9993H120.006V113.163C120.006 113.541 119.79 113.885 119.451 114.05L108.174 119.529Z" stroke="url(#paint22_linear_1_10986)" stroke-width="0.328528"/>
</g>
<path fill-rule="evenodd" clip-rule="evenodd" d="M119.13 112.401V98.8857H119.349V112.584L119.257 112.6C118.954 112.65 118.616 112.83 118.34 113.093C118.064 113.355 117.86 113.691 117.81 114.045L117.801 114.104L108.909 118.269V103.395H109.128V117.923L117.602 113.955C117.674 113.563 117.901 113.207 118.188 112.934C118.463 112.671 118.802 112.478 119.13 112.401Z" fill="url(#paint23_linear_1_10986)"/>
<path fill-rule="evenodd" clip-rule="evenodd" d="M109.141 117.118C108.904 116.717 108.891 116.149 108.909 115.781L109.129 115.792C109.11 116.158 109.13 116.667 109.33 117.006C109.428 117.17 109.565 117.292 109.764 117.341C109.965 117.392 110.244 117.372 110.627 117.223L110.707 117.428C110.299 117.587 109.972 117.62 109.71 117.554C109.445 117.488 109.263 117.323 109.141 117.118Z" fill="#F2F9FF"/>
<g filter="url(#filter7_d_1_10986)">
<path d="M76.6313 82.4585H99.2998V128.349L88.3151 135.05C88.012 135.235 87.6309 135.235 87.328 135.05L76.6313 128.507V82.4585Z" fill="#6A88C4"/>
<path d="M76.6313 82.4585H99.2998V128.349L88.3151 135.05C88.012 135.235 87.6309 135.235 87.328 135.05L76.6313 128.507V82.4585Z" stroke="url(#paint24_linear_1_10986)" stroke-width="0.657057"/>
</g>
<path fill-rule="evenodd" clip-rule="evenodd" d="M77.7817 111.041H78.1103V127.54L87.8026 133.517L97.6577 127.539V111.041H97.9862V127.724L87.8011 133.902L77.7817 127.724V111.041Z" fill="url(#paint25_linear_1_10986)"/>
<path fill-rule="evenodd" clip-rule="evenodd" d="M87.9443 126.809V132.77H87.6587V126.809H87.9443Z" fill="url(#paint26_linear_1_10986)"/>
<path fill-rule="evenodd" clip-rule="evenodd" d="M86.9447 130.653C86.3763 131.308 85.6839 131.454 85.207 131.375L85.254 131.093C85.6339 131.156 86.2265 131.045 86.729 130.466C87.2335 129.884 87.6579 128.816 87.6579 126.95H87.9434C87.9434 128.854 87.5111 129.999 86.9447 130.653Z" fill="url(#paint27_linear_1_10986)"/>
<path fill-rule="evenodd" clip-rule="evenodd" d="M88.6568 130.653C89.2252 131.308 89.9177 131.454 90.3945 131.375L90.3476 131.093C89.9677 131.156 89.3751 131.045 88.8726 130.466C88.3681 129.884 87.9437 128.816 87.9437 126.95H87.6581C87.6581 128.854 88.0904 129.999 88.6568 130.653Z" fill="url(#paint28_linear_1_10986)"/>
<path fill-rule="evenodd" clip-rule="evenodd" d="M87.7402 132.898L84.5156 131.091L85.2296 131.091L87.7999 132.611L90.3698 131.078H91L87.8587 132.898C87.8211 132.915 87.7778 132.915 87.7402 132.898Z" fill="url(#paint29_linear_1_10986)"/>
<g filter="url(#filter8_d_1_10986)">
<path d="M85.1321 22.8048L49.651 42.1062C47.8537 43.0839 46.7349 44.9662 46.7349 47.0122L46.7349 91.133C46.7349 93.179 47.8537 95.0613 49.651 96.039L85.1321 115.34C86.7962 116.246 88.8057 116.246 90.4697 115.34L125.951 96.039C127.748 95.0613 128.867 93.179 128.867 91.133L128.867 47.0122C128.867 44.9662 127.748 43.0839 125.951 42.1062L90.4697 22.8048C88.8057 21.8996 86.7962 21.8996 85.1321 22.8048Z" fill="url(#paint30_linear_1_10986)"/>
<path d="M85.0935 30.0257L55.8827 45.9161C54.0922 46.8901 52.9775 48.7653 52.9775 50.8037L52.9775 87.173C52.9775 89.2114 54.0921 91.0865 55.8827 92.0606L85.0935 107.951C86.7513 108.853 88.7533 108.853 90.4111 107.951L119.622 92.0606C121.412 91.0865 122.527 89.2114 122.527 87.173L122.527 50.8037C122.527 48.7653 121.412 46.8901 119.622 45.9161L90.4111 30.0257C88.7533 29.1239 86.7513 29.1239 85.0935 30.0257Z" fill="url(#paint31_linear_1_10986)"/>
<g filter="url(#filter9_f_1_10986)">
<path d="M85.0935 30.0257L55.8827 45.9161C54.0922 46.8901 52.9775 48.7653 52.9775 50.8037L52.9775 87.173C52.9775 89.2114 54.0921 91.0865 55.8827 92.0606L85.0935 107.951C86.7513 108.853 88.7533 108.853 90.4111 107.951L119.622 92.0606C121.412 91.0865 122.527 89.2114 122.527 87.173L122.527 50.8037C122.527 48.7653 121.412 46.8901 119.622 45.9161L90.4111 30.0257C88.7533 29.1239 86.7513 29.1239 85.0935 30.0257Z" stroke="url(#paint32_linear_1_10986)" stroke-width="0.328528"/>
</g>
<g opacity="0.5">
<mask id="mask0_1_10986" style="mask-type:alpha" maskUnits="userSpaceOnUse" x="55" y="32" width="65" height="74">
<path d="M85.4378 33.2391L58.6988 47.7717C56.9946 48.698 55.9336 50.4822 55.9336 52.4219L55.9336 85.6847C55.9336 87.6244 56.9946 89.4086 58.6988 90.3348L85.4378 104.867C87.0138 105.724 88.9164 105.724 90.4925 104.867L117.231 90.3348C118.936 89.4086 119.997 87.6244 119.997 85.6847L119.997 52.4219C119.997 50.4822 118.936 48.698 117.231 47.7717L90.4925 33.2391C88.9164 32.3825 87.0138 32.3825 85.4378 33.2391Z" fill="#A6D3DE"/>
</mask>
<g mask="url(#mask0_1_10986)">
<path d="M85.4378 33.2391L58.6988 47.7717C56.9946 48.698 55.9336 50.4822 55.9336 52.4219L55.9336 85.6847C55.9336 87.6244 56.9946 89.4086 58.6988 90.3348L85.4378 104.867C87.0138 105.724 88.9164 105.724 90.4925 104.867L117.231 90.3348C118.936 89.4086 119.997 87.6244 119.997 85.6847L119.997 52.4219C119.997 50.4822 118.936 48.698 117.231 47.7717L90.4925 33.2391C88.9164 32.3825 87.0138 32.3825 85.4378 33.2391Z" fill="url(#paint33_radial_1_10986)"/>
<g filter="url(#filter10_i_1_10986)">
<path d="M85.4383 33.2398L58.6993 47.7725C56.9951 48.6987 55.9341 50.4829 55.9341 52.4226L55.9341 85.6855C55.9341 87.6251 56.9951 89.4093 58.6993 90.3356L85.4382 104.868C87.0143 105.725 88.9169 105.725 90.4929 104.868L117.232 90.3356C118.936 89.4093 119.997 87.6251 119.997 85.6854L119.997 52.4226C119.997 50.4829 118.936 48.6987 117.232 47.7725L90.4929 33.2398C88.9169 32.3833 87.0143 32.3832 85.4383 33.2398Z" fill="black"/>
</g>
<path opacity="0.5" d="M82.6108 107.711L81.3384 30.3931H94.5928L93.3204 107.711H82.6108Z" fill="url(#paint34_linear_1_10986)"/>
<path opacity="0.5" d="M82.4404 107.026L42.6797 40.7034L54.1584 34.0762L91.7151 101.671L82.4404 107.026Z" fill="url(#paint35_linear_1_10986)"/>
<path opacity="0.5" d="M81.3353 101.671L118.892 34.0762L130.371 40.7034L90.6101 107.026L81.3353 101.671Z" fill="url(#paint36_linear_1_10986)"/>
<rect x="55.9341" y="64.6338" width="64.063" height="41.6042" fill="url(#paint37_linear_1_10986)"/>
</g>
</g>
</g>
</g>
<g filter="url(#filter11_i_1_10986)">
<path d="M84.9861 33.3736L58.2471 47.9063C56.543 48.8325 55.4819 50.6167 55.4819 52.5564L55.4819 85.8192C55.4819 87.7589 56.5429 89.5431 58.2471 90.4694L84.9861 105.002C86.5621 105.859 88.4648 105.859 90.0408 105.002L116.78 90.4694C118.484 89.5431 119.545 87.7589 119.545 85.8192L119.545 52.5564C119.545 50.6167 118.484 48.8325 116.78 47.9063L90.0408 33.3736C88.4648 32.517 86.5621 32.517 84.9861 33.3736Z" fill="black"/>
</g>
<defs>
<filter id="filter0_f_1_10986" x="82.8013" y="7.42558" width="10.1239" height="10.1242" filterUnits="userSpaceOnUse" color-interpolation-filters="sRGB">
<feFlood flood-opacity="0" result="BackgroundImageFix"/>
<feBlend mode="normal" in="SourceGraphic" in2="BackgroundImageFix" result="shape"/>
<feGaussianBlur stdDeviation="0.460186" result="effect1_foregroundBlur_1_10986"/>
</filter>
<filter id="filter1_f_1_10986" x="81.1443" y="5.30861" width="13.4375" height="14.3579" filterUnits="userSpaceOnUse" color-interpolation-filters="sRGB">
<feFlood flood-opacity="0" result="BackgroundImageFix"/>
<feBlend mode="normal" in="SourceGraphic" in2="BackgroundImageFix" result="shape"/>
<feGaussianBlur stdDeviation="0.138056" result="effect1_foregroundBlur_1_10986"/>
</filter>
<filter id="filter2_dd_1_10986" x="0.000211716" y="3.36153" width="175.604" height="153.601" filterUnits="userSpaceOnUse" color-interpolation-filters="sRGB">
<feFlood flood-opacity="0" result="BackgroundImageFix"/>
<feColorMatrix in="SourceAlpha" type="matrix" values="0 0 0 0 0 0 0 0 0 0 0 0 0 0 0 0 0 0 127 0" result="hardAlpha"/>
<feOffset/>
<feGaussianBlur stdDeviation="3.35079"/>
<feColorMatrix type="matrix" values="0 0 0 0 0.558594 0 0 0 0 0.710156 0 0 0 0 0.9375 0 0 0 1 0"/>
<feBlend mode="normal" in2="BackgroundImageFix" result="effect1_dropShadow_1_10986"/>
<feColorMatrix in="SourceAlpha" type="matrix" values="0 0 0 0 0 0 0 0 0 0 0 0 0 0 0 0 0 0 127 0" result="hardAlpha"/>
<feOffset dy="1.34032"/>
<feGaussianBlur stdDeviation="10.0524"/>
<feColorMatrix type="matrix" values="0 0 0 0 0.670833 0 0 0 0 0.8025 0 0 0 0 1 0 0 0 0.6 0"/>
<feBlend mode="normal" in2="effect1_dropShadow_1_10986" result="effect2_dropShadow_1_10986"/>
<feBlend mode="normal" in="SourceGraphic" in2="effect2_dropShadow_1_10986" result="shape"/>
</filter>
<filter id="filter3_d_1_10986" x="66.611" y="88.2077" width="15.7784" height="40.0245" filterUnits="userSpaceOnUse" color-interpolation-filters="sRGB">
<feFlood flood-opacity="0" result="BackgroundImageFix"/>
<feColorMatrix in="SourceAlpha" type="matrix" values="0 0 0 0 0 0 0 0 0 0 0 0 0 0 0 0 0 0 127 0" result="hardAlpha"/>
<feOffset/>
<feGaussianBlur stdDeviation="1.31411"/>
<feColorMatrix type="matrix" values="0 0 0 0 0.288889 0 0 0 0 0.357333 0 0 0 0 0.533333 0 0 0 0.74 0"/>
<feBlend mode="normal" in2="BackgroundImageFix" result="effect1_dropShadow_1_10986"/>
<feBlend mode="normal" in="SourceGraphic" in2="effect1_dropShadow_1_10986" result="shape"/>
</filter>
<filter id="filter4_d_1_10986" x="53.1408" y="88.2067" width="17.4166" height="34.2132" filterUnits="userSpaceOnUse" color-interpolation-filters="sRGB">
<feFlood flood-opacity="0" result="BackgroundImageFix"/>
<feColorMatrix in="SourceAlpha" type="matrix" values="0 0 0 0 0 0 0 0 0 0 0 0 0 0 0 0 0 0 127 0" result="hardAlpha"/>
<feOffset/>
<feGaussianBlur stdDeviation="1.31411"/>
<feColorMatrix type="matrix" values="0 0 0 0 0.288889 0 0 0 0 0.357333 0 0 0 0 0.533333 0 0 0 0.74 0"/>
<feBlend mode="normal" in2="BackgroundImageFix" result="effect1_dropShadow_1_10986"/>
<feBlend mode="normal" in="SourceGraphic" in2="effect1_dropShadow_1_10986" result="shape"/>
</filter>
<filter id="filter5_d_1_10986" x="93.55" y="88.2077" width="15.7784" height="40.0245" filterUnits="userSpaceOnUse" color-interpolation-filters="sRGB">
<feFlood flood-opacity="0" result="BackgroundImageFix"/>
<feColorMatrix in="SourceAlpha" type="matrix" values="0 0 0 0 0 0 0 0 0 0 0 0 0 0 0 0 0 0 127 0" result="hardAlpha"/>
<feOffset/>
<feGaussianBlur stdDeviation="1.31411"/>
<feColorMatrix type="matrix" values="0 0 0 0 0.288889 0 0 0 0 0.357333 0 0 0 0 0.533333 0 0 0 0.74 0"/>
<feBlend mode="normal" in2="BackgroundImageFix" result="effect1_dropShadow_1_10986"/>
<feBlend mode="normal" in="SourceGraphic" in2="effect1_dropShadow_1_10986" result="shape"/>
</filter>
<filter id="filter6_d_1_10986" x="105.382" y="88.2067" width="17.4166" height="34.2132" filterUnits="userSpaceOnUse" color-interpolation-filters="sRGB">
<feFlood flood-opacity="0" result="BackgroundImageFix"/>
<feColorMatrix in="SourceAlpha" type="matrix" values="0 0 0 0 0 0 0 0 0 0 0 0 0 0 0 0 0 0 127 0" result="hardAlpha"/>
<feOffset/>
<feGaussianBlur stdDeviation="1.31411"/>
<feColorMatrix type="matrix" values="0 0 0 0 0.288889 0 0 0 0 0.357333 0 0 0 0 0.533333 0 0 0 0.74 0"/>
<feBlend mode="normal" in2="BackgroundImageFix" result="effect1_dropShadow_1_10986"/>
<feBlend mode="normal" in="SourceGraphic" in2="effect1_dropShadow_1_10986" result="shape"/>
</filter>
<filter id="filter7_d_1_10986" x="73.6745" y="79.5017" width="28.5821" height="58.6439" filterUnits="userSpaceOnUse" color-interpolation-filters="sRGB">
<feFlood flood-opacity="0" result="BackgroundImageFix"/>
<feColorMatrix in="SourceAlpha" type="matrix" values="0 0 0 0 0 0 0 0 0 0 0 0 0 0 0 0 0 0 127 0" result="hardAlpha"/>
<feOffset/>
<feGaussianBlur stdDeviation="1.31411"/>
<feColorMatrix type="matrix" values="0 0 0 0 0.288889 0 0 0 0 0.357333 0 0 0 0 0.533333 0 0 0 0.8 0"/>
<feBlend mode="normal" in2="BackgroundImageFix" result="effect1_dropShadow_1_10986"/>
<feBlend mode="normal" in="SourceGraphic" in2="effect1_dropShadow_1_10986" result="shape"/>
</filter>
<filter id="filter8_d_1_10986" x="44.7637" y="22.126" width="86.0747" height="98.4927" filterUnits="userSpaceOnUse" color-interpolation-filters="sRGB">
<feFlood flood-opacity="0" result="BackgroundImageFix"/>
<feColorMatrix in="SourceAlpha" type="matrix" values="0 0 0 0 0 0 0 0 0 0 0 0 0 0 0 0 0 0 127 0" result="hardAlpha"/>
<feOffset dy="2.62823"/>
<feGaussianBlur stdDeviation="0.985585"/>
<feColorMatrix type="matrix" values="0 0 0 0 0.141181 0 0 0 0 0.190317 0 0 0 0 0.316667 0 0 0 0.51 0"/>
<feBlend mode="normal" in2="BackgroundImageFix" result="effect1_dropShadow_1_10986"/>
<feBlend mode="normal" in="SourceGraphic" in2="effect1_dropShadow_1_10986" result="shape"/>
</filter>
<filter id="filter9_f_1_10986" x="52.7149" y="29.0865" width="70.075" height="79.8036" filterUnits="userSpaceOnUse" color-interpolation-filters="sRGB">
<feFlood flood-opacity="0" result="BackgroundImageFix"/>
<feBlend mode="normal" in="SourceGraphic" in2="BackgroundImageFix" result="shape"/>
<feGaussianBlur stdDeviation="0.0492793" result="effect1_foregroundBlur_1_10986"/>
</filter>
<filter id="filter10_i_1_10986" x="55.9341" y="32.5974" width="64.063" height="72.9133" filterUnits="userSpaceOnUse" color-interpolation-filters="sRGB">
<feFlood flood-opacity="0" result="BackgroundImageFix"/>
<feBlend mode="normal" in="SourceGraphic" in2="BackgroundImageFix" result="shape"/>
<feColorMatrix in="SourceAlpha" type="matrix" values="0 0 0 0 0 0 0 0 0 0 0 0 0 0 0 0 0 0 127 0" result="hardAlpha"/>
<feOffset/>
<feGaussianBlur stdDeviation="2.20907"/>
<feComposite in2="hardAlpha" operator="arithmetic" k2="-1" k3="1"/>
<feColorMatrix type="matrix" values="0 0 0 0 0.297222 0 0 0 0 0.329917 0 0 0 0 0.445833 0 0 0 1 0"/>
<feBlend mode="normal" in2="shape" result="effect1_innerShadow_1_10986"/>
</filter>
<filter id="filter11_i_1_10986" x="55.4819" y="32.7312" width="64.063" height="72.9133" filterUnits="userSpaceOnUse" color-interpolation-filters="sRGB">
<feFlood flood-opacity="0" result="BackgroundImageFix"/>
<feBlend mode="normal" in="SourceGraphic" in2="BackgroundImageFix" result="shape"/>
<feColorMatrix in="SourceAlpha" type="matrix" values="0 0 0 0 0 0 0 0 0 0 0 0 0 0 0 0 0 0 127 0" result="hardAlpha"/>
<feOffset/>
<feGaussianBlur stdDeviation="2.20907"/>
<feComposite in2="hardAlpha" operator="arithmetic" k2="-1" k3="1"/>
<feColorMatrix type="matrix" values="0 0 0 0 0.297222 0 0 0 0 0.329917 0 0 0 0 0.445833 0 0 0 1 0"/>
<feBlend mode="normal" in2="shape" result="effect1_innerShadow_1_10986"/>
</filter>
<radialGradient id="paint0_radial_1_10986" cx="0" cy="0" r="1" gradientUnits="userSpaceOnUse" gradientTransform="translate(87.8634 12.4876) rotate(90) scale(6.62668)">
<stop stop-color="#E7ECFF"/>
<stop offset="0.979167" stop-color="#ABC3FF" stop-opacity="0.8825"/>
<stop offset="1" stop-color="#AACCFF" stop-opacity="0.88"/>
</radialGradient>
<linearGradient id="paint1_linear_1_10986" x1="87.4037" y1="12.7179" x2="87.4037" y2="111.198" gradientUnits="userSpaceOnUse">
<stop stop-color="#DEE7FF"/>
<stop offset="0.0722622" stop-color="#CCDDFF" stop-opacity="0.33"/>
<stop offset="1" stop-color="#98C6F0" stop-opacity="0"/>
</linearGradient>
<linearGradient id="paint2_linear_1_10986" x1="87.4908" y1="0" x2="87.4908" y2="54.5815" gradientUnits="userSpaceOnUse">
<stop stop-color="#AACCFF" stop-opacity="0"/>
<stop offset="1" stop-color="#AACCFF" stop-opacity="0.3"/>
</linearGradient>
<linearGradient id="paint3_linear_1_10986" x1="146.468" y1="103.739" x2="99.199" y2="76.4485" gradientUnits="userSpaceOnUse">
<stop stop-color="#AACCFF" stop-opacity="0"/>
<stop offset="1" stop-color="#AACCFF" stop-opacity="0.3"/>
</linearGradient>
<linearGradient id="paint4_linear_1_10986" x1="87.1469" y1="138.262" x2="87.1469" y2="83.6802" gradientUnits="userSpaceOnUse">
<stop stop-color="#AACCFF" stop-opacity="0"/>
<stop offset="1" stop-color="#AACCFF" stop-opacity="0.3"/>
</linearGradient>
<linearGradient id="paint5_linear_1_10986" x1="28.26" y1="103.913" x2="75.529" y2="76.6218" gradientUnits="userSpaceOnUse">
<stop stop-color="#AACCFF" stop-opacity="0"/>
<stop offset="1" stop-color="#AACCFF" stop-opacity="0.3"/>
</linearGradient>
<linearGradient id="paint6_linear_1_10986" x1="146.468" y1="34.6074" x2="99.199" y2="61.8982" gradientUnits="userSpaceOnUse">
<stop stop-color="#AACCFF" stop-opacity="0"/>
<stop offset="1" stop-color="#AACCFF" stop-opacity="0.3"/>
</linearGradient>
<linearGradient id="paint7_linear_1_10986" x1="28.26" y1="34.437" x2="75.529" y2="61.7278" gradientUnits="userSpaceOnUse">
<stop stop-color="#AACCFF" stop-opacity="0"/>
<stop offset="1" stop-color="#AACCFF" stop-opacity="0.3"/>
</linearGradient>
<linearGradient id="paint8_linear_1_10986" x1="40.0774" y1="62.5149" x2="28.5838" y2="51.0212" gradientUnits="userSpaceOnUse">
<stop stop-color="#C3C5D1"/>
<stop offset="0.875" stop-color="#F9F9F9"/>
</linearGradient>
<linearGradient id="paint9_linear_1_10986" x1="22.3659" y1="48.9486" x2="33.2943" y2="62.5149" gradientUnits="userSpaceOnUse">
<stop stop-color="#F9F9F9"/>
<stop offset="0.378992" stop-color="#F9F9F9"/>
<stop offset="0.480868" stop-color="#DFDFE6"/>
<stop offset="0.729174" stop-color="#B8BAC6"/>
</linearGradient>
<linearGradient id="paint10_linear_1_10986" x1="47.9925" y1="72.8782" x2="36.4988" y2="61.0077" gradientUnits="userSpaceOnUse">
<stop stop-color="#C3C5D1"/>
<stop offset="0.875" stop-color="#F9F9F9"/>
</linearGradient>
<linearGradient id="paint11_linear_1_10986" x1="33.4841" y1="61.0077" x2="39.3251" y2="72.8782" gradientUnits="userSpaceOnUse">
<stop stop-color="#F4F4F5"/>
<stop offset="0.306027" stop-color="#F4F4F5"/>
<stop offset="0.462087" stop-color="#E8E9EC"/>
<stop offset="0.682292" stop-color="#DFDFE6"/>
<stop offset="1" stop-color="#B8BAC6"/>
</linearGradient>
<linearGradient id="paint12_linear_1_10986" x1="135.527" y1="62.5149" x2="147.021" y2="51.0212" gradientUnits="userSpaceOnUse">
<stop stop-color="#C3C5D1"/>
<stop offset="0.875" stop-color="#F9F9F9"/>
</linearGradient>
<linearGradient id="paint13_linear_1_10986" x1="153.239" y1="48.9486" x2="142.31" y2="62.5149" gradientUnits="userSpaceOnUse">
<stop stop-color="#F9F9F9"/>
<stop offset="0.378992" stop-color="#F9F9F9"/>
<stop offset="0.480868" stop-color="#DFDFE6"/>
<stop offset="0.729174" stop-color="#B8BAC6"/>
</linearGradient>
<linearGradient id="paint14_linear_1_10986" x1="127.612" y1="72.8782" x2="139.106" y2="61.0077" gradientUnits="userSpaceOnUse">
<stop stop-color="#C3C5D1"/>
<stop offset="0.875" stop-color="#F9F9F9"/>
</linearGradient>
<linearGradient id="paint15_linear_1_10986" x1="142.12" y1="61.0077" x2="136.279" y2="72.8782" gradientUnits="userSpaceOnUse">
<stop stop-color="#F4F4F5"/>
<stop offset="0.306027" stop-color="#F4F4F5"/>
<stop offset="0.462087" stop-color="#E8E9EC"/>
<stop offset="0.682292" stop-color="#DFDFE6"/>
<stop offset="1" stop-color="#B8BAC6"/>
</linearGradient>
<linearGradient id="paint16_linear_1_10986" x1="79.5972" y1="114.336" x2="68.8545" y2="115.999" gradientUnits="userSpaceOnUse">
<stop stop-color="#91B1E3"/>
<stop offset="0.208702" stop-color="#F0F6FF"/>
<stop offset="0.514766" stop-color="#A4BFE9"/>
<stop offset="0.728274" stop-color="#8BADE0"/>
<stop offset="0.971703" stop-color="#D0DEF3"/>
</linearGradient>
<linearGradient id="paint17_linear_1_10986" x1="70.4782" y1="116.895" x2="75.8031" y2="115.307" gradientUnits="userSpaceOnUse">
<stop stop-color="#FAFCFF"/>
<stop offset="0.309893" stop-color="#D7E6FC"/>
<stop offset="0.523799" stop-color="#C1D8F4"/>
<stop offset="0.77229" stop-color="#BBD6FF"/>
<stop offset="1" stop-color="white"/>
</linearGradient>
<linearGradient id="paint18_linear_1_10986" x1="55.6048" y1="107.426" x2="68.289" y2="121.637" gradientUnits="userSpaceOnUse">
<stop stop-color="#91B1E3"/>
<stop offset="0.208702" stop-color="#F0F6FF"/>
<stop offset="0.648432" stop-color="#A4BFE9"/>
<stop offset="0.780206" stop-color="#8BADE0"/>
<stop offset="0.971703" stop-color="#93B3E4"/>
</linearGradient>
<linearGradient id="paint19_linear_1_10986" x1="57.0828" y1="110.056" x2="63.3662" y2="108.183" gradientUnits="userSpaceOnUse">
<stop stop-color="#FAFCFF"/>
<stop offset="0.309893" stop-color="#D7E6FC"/>
<stop offset="0.523799" stop-color="#C1D8F4"/>
<stop offset="0.77229" stop-color="#BBD6FF"/>
<stop offset="1" stop-color="white"/>
</linearGradient>
<linearGradient id="paint20_linear_1_10986" x1="96.3423" y1="114.336" x2="107.085" y2="115.999" gradientUnits="userSpaceOnUse">
<stop stop-color="#91B1E3"/>
<stop offset="0.208702" stop-color="#F0F6FF"/>
<stop offset="0.514766" stop-color="#A4BFE9"/>
<stop offset="0.728274" stop-color="#8BADE0"/>
<stop offset="0.971703" stop-color="#D0DEF3"/>
</linearGradient>
<linearGradient id="paint21_linear_1_10986" x1="105.461" y1="116.895" x2="100.136" y2="115.307" gradientUnits="userSpaceOnUse">
<stop stop-color="#FAFCFF"/>
<stop offset="0.309893" stop-color="#D7E6FC"/>
<stop offset="0.523799" stop-color="#C1D8F4"/>
<stop offset="0.77229" stop-color="#BBD6FF"/>
<stop offset="1" stop-color="white"/>
</linearGradient>
<linearGradient id="paint22_linear_1_10986" x1="120.334" y1="107.426" x2="107.65" y2="121.637" gradientUnits="userSpaceOnUse">
<stop stop-color="#91B1E3"/>
<stop offset="0.208702" stop-color="#F0F6FF"/>
<stop offset="0.648432" stop-color="#A4BFE9"/>
<stop offset="0.780206" stop-color="#8BADE0"/>
<stop offset="0.971703" stop-color="#93B3E4"/>
</linearGradient>
<linearGradient id="paint23_linear_1_10986" x1="118.857" y1="110.056" x2="112.573" y2="108.183" gradientUnits="userSpaceOnUse">
<stop stop-color="#FAFCFF"/>
<stop offset="0.309893" stop-color="#D7E6FC"/>
<stop offset="0.523799" stop-color="#C1D8F4"/>
<stop offset="0.77229" stop-color="#BBD6FF"/>
<stop offset="1" stop-color="white"/>
</linearGradient>
<linearGradient id="paint24_linear_1_10986" x1="76.6313" y1="120.075" x2="100.026" y2="125.07" gradientUnits="userSpaceOnUse">
<stop stop-color="#91B1E3"/>
<stop offset="0.208702" stop-color="#F0F6FF"/>
<stop offset="0.648432" stop-color="#A4BFE9"/>
<stop offset="0.780206" stop-color="#8BADE0"/>
<stop offset="0.971703" stop-color="#93B3E4"/>
</linearGradient>
<linearGradient id="paint25_linear_1_10986" x1="97.0328" y1="124.215" x2="86.349" y2="118.989" gradientUnits="userSpaceOnUse">
<stop stop-color="#FAFCFF"/>
<stop offset="0.309893" stop-color="#D7E6FC"/>
<stop offset="0.523799" stop-color="#C1D8F4"/>
<stop offset="0.77229" stop-color="#BBD6FF"/>
<stop offset="1" stop-color="white"/>
</linearGradient>
<linearGradient id="paint26_linear_1_10986" x1="87.8015" y1="126.809" x2="87.8015" y2="132.378" gradientUnits="userSpaceOnUse">
<stop stop-color="#6A88C3"/>
<stop offset="0.479167" stop-color="#E4EFFD"/>
<stop offset="1" stop-color="#E1ECFD"/>
</linearGradient>
<linearGradient id="paint27_linear_1_10986" x1="86.5752" y1="126.95" x2="86.5752" y2="131.394" gradientUnits="userSpaceOnUse">
<stop stop-color="#E2F5FF" stop-opacity="0"/>
<stop offset="0.479167" stop-color="#B6CAFE"/>
<stop offset="1" stop-color="#CCD7FF"/>
</linearGradient>
<linearGradient id="paint28_linear_1_10986" x1="89.0263" y1="126.95" x2="89.0263" y2="131.394" gradientUnits="userSpaceOnUse">
<stop stop-color="#E2F5FF" stop-opacity="0"/>
<stop offset="0.479167" stop-color="#B6CAFE"/>
<stop offset="1" stop-color="#CCD7FF"/>
</linearGradient>
<linearGradient id="paint29_linear_1_10986" x1="87.4541" y1="131.705" x2="83.7497" y2="132.143" gradientUnits="userSpaceOnUse">
<stop stop-color="#C9DEFC"/>
<stop offset="0.309893" stop-color="#ECF4FF"/>
<stop offset="0.523799" stop-color="#EAF6FF"/>
<stop offset="0.613641" stop-color="#CCE7FF"/>
<stop offset="1" stop-color="#CEE4F9"/>
</linearGradient>
<linearGradient id="paint30_linear_1_10986" x1="70.5532" y1="32.8515" x2="107.513" y2="106.278" gradientUnits="userSpaceOnUse">
<stop stop-color="#FAFAFA"/>
<stop offset="1" stop-color="#C2C4CD"/>
</linearGradient>
<linearGradient id="paint31_linear_1_10986" x1="70.2253" y1="38.928" x2="102.093" y2="97.7346" gradientUnits="userSpaceOnUse">
<stop stop-color="#CDCFD6"/>
<stop offset="1" stop-color="#EFEFF1"/>
</linearGradient>
<linearGradient id="paint32_linear_1_10986" x1="73.6748" y1="36.7926" x2="108.006" y2="98.5559" gradientUnits="userSpaceOnUse">
<stop stop-color="#DDDFE2"/>
<stop offset="1" stop-color="white"/>
</linearGradient>
<radialGradient id="paint33_radial_1_10986" cx="0" cy="0" r="1" gradientUnits="userSpaceOnUse" gradientTransform="translate(87.9651 69.0533) rotate(90) scale(37.1878 32.0315)">
<stop stop-color="#F5F7FF"/>
<stop offset="1" stop-color="#B3B5C5"/>
</radialGradient>
<linearGradient id="paint34_linear_1_10986" x1="87.9656" y1="30.3931" x2="87.9656" y2="107.711" gradientUnits="userSpaceOnUse">
<stop stop-color="white"/>
<stop offset="1" stop-color="#F2EDED" stop-opacity="0"/>
</linearGradient>
<linearGradient id="paint35_linear_1_10986" x1="48.419" y1="37.3898" x2="87.0777" y2="104.349" gradientUnits="userSpaceOnUse">
<stop stop-color="white"/>
<stop offset="1" stop-color="#F2EDED" stop-opacity="0"/>
</linearGradient>
<linearGradient id="paint36_linear_1_10986" x1="124.631" y1="37.3898" x2="85.9727" y2="104.349" gradientUnits="userSpaceOnUse">
<stop stop-color="white"/>
<stop offset="1" stop-color="#F2EDED" stop-opacity="0"/>
</linearGradient>
<linearGradient id="paint37_linear_1_10986" x1="87.9656" y1="82.6745" x2="87.7723" y2="103.66" gradientUnits="userSpaceOnUse">
<stop stop-color="white" stop-opacity="0"/>
<stop offset="1" stop-color="#D0DBFF"/>
</linearGradient>
</defs>
</svg>
