<svg preserveAspectRatio="none" overflow="visible" style="display: block;" width="15.4286" height="15.4286" viewBox="0 0 15.4286 15.4286" fill="none" xmlns="http://www.w3.org/2000/svg">
<g id="Group">
<path id="Vector" d="M7.71429 15.4286C11.9748 15.4286 15.4286 11.9748 15.4286 7.71429C15.4286 3.4538 11.9748 0 7.71429 0C3.4538 0 0 3.4538 0 7.71429C0 11.9748 3.4538 15.4286 7.71429 15.4286Z" fill="#66D966"/>
<g id="Group_2">
<path id="Vector_2" d="M6.77612 9.91916C6.61164 9.91916 6.44716 9.85638 6.3216 9.73082L5.07418 8.4834C4.82307 8.23228 4.82307 7.82547 5.07418 7.57436C5.3253 7.32324 5.73211 7.32324 5.98322 7.57436L6.77612 8.36726L9.44549 5.69789C9.6966 5.44678 10.1034 5.44678 10.3545 5.69789C10.6056 5.94901 10.6056 6.35582 10.3545 6.60693L7.23064 9.73082C7.10508 9.85638 6.9406 9.91916 6.77612 9.91916Z" fill="white"/>
</g>
</g>
</svg>
