<svg preserveAspectRatio="none" overflow="visible" style="display: block;" width="12.5417" height="12.5417" viewBox="0 0 12.5417 12.5417" fill="none" xmlns="http://www.w3.org/2000/svg">
<g id="Group">
<path id="Vector" d="M5.97917 5.83333H7.4375C7.67958 5.83333 7.875 5.63792 7.875 5.39583C7.875 5.15375 7.67958 4.95833 7.4375 4.95833H6.70833V4.8125C6.70833 4.57042 6.51292 4.375 6.27083 4.375C6.02875 4.375 5.83333 4.57042 5.83333 4.8125V4.97292C5.18 5.04583 4.66667 5.59708 4.66667 6.27083C4.66667 6.99417 5.25583 7.58333 5.97917 7.58333H6.5625C6.80458 7.58333 7 7.77875 7 8.02083C7 8.26292 6.80458 8.45833 6.5625 8.45833H5.10417C4.86208 8.45833 4.66667 8.65375 4.66667 8.89583C4.66667 9.13792 4.86208 9.33333 5.10417 9.33333H5.83333V9.47917C5.83333 9.72125 6.02875 9.91667 6.27083 9.91667C6.51292 9.91667 6.70833 9.72125 6.70833 9.47917V9.31875C7.36167 9.24583 7.875 8.69458 7.875 8.02083C7.875 7.2975 7.28583 6.70833 6.5625 6.70833H5.97917C5.73708 6.70833 5.54167 6.51292 5.54167 6.27083C5.54167 6.02875 5.73708 5.83333 5.97917 5.83333Z" fill="#78738F"/>
<path id="Vector_2" d="M0.877917 12.0663C0.86625 12.1888 0.907083 12.3083 0.991667 12.3988C1.07333 12.4892 1.19 12.5417 1.3125 12.5417H11.2292C11.3517 12.5417 11.4683 12.4892 11.5529 12.3988C11.6346 12.3083 11.6754 12.1858 11.6667 12.0663L10.9871 4.375H12.1042C12.3463 4.375 12.5417 4.17958 12.5417 3.9375V0.4375C12.5417 0.195417 12.3463 0 12.1042 0H0.4375C0.195417 0 0 0.195417 0 0.4375V3.9375C0 4.17958 0.195417 4.375 0.4375 4.375H1.55458L0.877917 12.0663ZM1.79083 11.6667L2.59 2.625H9.95458L10.7538 11.6667H1.79083ZM0.875 3.5V0.875H11.6667V3.5H10.9083L10.7888 2.14958C10.7713 1.92208 10.5817 1.75 10.3542 1.75H2.1875C1.96 1.75 1.77042 1.92208 1.75292 2.14958L1.63333 3.5H0.875Z" fill="#78738F"/>
</g>
</svg>
