<svg width="32" height="36" viewBox="0 0 32 36" fill="none" xmlns="http://www.w3.org/2000/svg">
<path d="M30.1924 8.11778L16.5919 0.265918C15.9792 -0.0886394 15.215 -0.0886394 14.5988 0.265918L0.998268 8.11778C0.382097 8.47233 0 9.13329 0 9.84584V25.5496C0 26.2588 0.382097 26.9196 0.998268 27.2776L14.5988 35.1297C14.9017 35.3053 15.2459 35.3948 15.5971 35.3948C15.9482 35.3948 16.2924 35.3018 16.5953 35.1297L30.1959 27.2776C30.8121 26.9231 31.1941 26.2622 31.1941 25.5496V9.84584C31.1941 9.13673 30.8121 8.47578 30.1959 8.11778H30.1924ZM15.9034 16.7235C15.7141 16.8337 15.4766 16.8337 15.2872 16.7235L2.06538 9.09194L15.2872 1.4604C15.4731 1.35369 15.7176 1.35369 15.9034 1.4604L29.1253 9.09194L15.9034 16.7235ZM14.5988 17.9146C14.6952 17.9697 14.7984 18.0178 14.9086 18.0557V33.7113L1.68673 26.0832C1.4974 25.973 1.37692 25.77 1.37692 25.5496V10.283L14.5988 17.9146Z" fill="black"/>
</svg>
