<svg width="351" height="115" viewBox="0 0 351 115" fill="none" xmlns="http://www.w3.org/2000/svg">
<g clip-path="url(#clip0_1_2206)">
<path d="M61.4632 31.2066V8.65236C61.4632 2.03958 54.2807 -2.21147 48.5113 1.213C34.8526 9.1247 13.894 21.2875 4.70983 26.6014C1.76619 28.2544 0 31.3248 0 34.7493C0 45.495 0 69.7024 0 85.5259C0 92.1387 7.18248 96.3897 12.952 92.9652L30.7317 82.6919L52.397 69.9386C58.0485 66.6321 61.5811 60.6098 61.5811 53.997L61.4632 31.2066Z" fill="#FDC651"/>
<path d="M79.3635 20.934L61.5839 31.2074C52.9884 36.167 44.9816 40.8904 38.859 44.4328C33.3248 47.6212 29.9102 53.5254 29.9102 59.9021L30.7345 82.6925V105.365C30.7345 111.978 37.917 116.229 43.6864 112.804L87.1345 87.6521C90.3137 85.8808 92.1977 82.4563 92.1977 78.7956V28.4914C92.1977 21.7605 85.0153 17.5095 79.3635 20.934Z" fill="#9457F6"/>
<path d="M61.5839 53.9974C61.5839 60.61 58.0513 66.6325 52.3998 69.9388L30.7345 82.6921L29.9102 59.9017C29.9102 53.5251 33.3248 47.6208 38.859 44.4325C44.9816 40.89 52.8705 36.2846 61.5839 31.207V53.9974Z" fill="#976B7A"/>
<path d="M105.617 57.4208V17.8623H132.228V25.3016H114.448V33.0954H130.226V40.4165H114.448V49.9815H133.523V57.4208H105.617Z" fill="white"/>
<path d="M166.492 57.4237C163.902 52.9365 161.194 48.4491 158.25 43.9619C155.306 39.5929 152.127 35.3416 148.83 31.445V57.3055H140.117V17.7471H147.3C148.595 19.046 149.89 20.5811 151.421 22.3524C152.951 24.1236 154.482 26.131 156.013 28.2567C157.543 30.3821 159.192 32.5077 160.723 34.7513C162.253 36.9949 163.784 39.1205 165.079 41.128V17.7471H173.91V57.3055H166.492V57.4237Z" fill="white"/>
<path d="M217.593 37.5832C217.593 41.0077 217.004 43.9599 215.945 46.5576C214.885 49.1556 213.354 51.163 211.47 52.9343C209.469 54.5876 207.114 55.8864 204.288 56.7129C201.462 57.5397 198.283 58.0121 194.868 58.0121C193.22 58.0121 191.454 57.8939 189.334 57.7759C187.215 57.6577 185.095 57.4215 183.094 56.9491V18.4534C185.095 18.0991 187.333 17.863 189.452 17.6268C191.689 17.5087 193.573 17.3906 195.222 17.3906C198.636 17.3906 201.697 17.7449 204.406 18.5715C207.114 19.3981 209.469 20.5789 211.47 22.114C213.472 23.7672 215.003 25.8929 216.062 28.3726C217.122 30.9704 217.593 34.0408 217.593 37.5832ZM191.925 50.1003C192.395 50.1003 192.866 50.2183 193.337 50.2183C193.926 50.2183 194.515 50.2183 195.339 50.2183C199.814 50.2183 203.11 49.0374 205.23 46.7938C207.349 44.5502 208.409 41.4801 208.409 37.465C208.409 33.3322 207.349 30.1439 205.348 28.0183C203.346 25.8929 200.049 24.8299 195.575 24.8299C194.986 24.8299 194.397 24.8299 193.691 24.8299C193.102 24.8299 192.395 24.9481 191.925 24.9481V50.1003Z" fill="white"/>
<path d="M251.387 49.7454V57.4209H225.012V17.8623H233.842V49.7454H251.387Z" fill="white"/>
<path d="M257.039 57.4209V17.8623H283.649V25.3017H265.869V33.0952H281.647V40.4166H265.869V49.9816H284.944V57.4209H257.039Z" fill="white"/>
<path d="M302.25 50.5733C303.545 50.5733 304.487 50.4553 305.312 50.2191C306.137 49.9829 306.725 49.7467 307.314 49.3923C307.785 49.0382 308.139 48.5658 308.374 48.0935C308.608 47.6211 308.608 47.0308 308.608 46.4402C308.608 45.1413 308.02 44.0786 306.842 43.2519C305.665 42.4254 303.545 41.4806 300.602 40.5359C299.307 40.0636 298.012 39.5914 296.717 39.0009C295.422 38.4105 294.244 37.702 293.302 36.7573C292.242 35.8125 291.419 34.7498 290.828 33.451C290.24 32.1518 289.887 30.6168 289.887 28.8455C289.887 27.0743 290.24 25.421 290.947 23.886C291.654 22.4689 292.595 21.17 293.89 20.1073C295.185 19.0445 296.717 18.336 298.482 17.7456C300.248 17.1551 302.25 16.9189 304.487 16.9189C307.195 16.9189 309.434 17.1551 311.317 17.7456C313.2 18.336 314.848 18.9264 316.145 19.6349L313.553 26.6019C312.496 26.0116 311.198 25.5392 309.903 25.0669C308.608 24.5945 306.96 24.3583 305.077 24.3583C302.957 24.3583 301.427 24.5945 300.483 25.1849C299.542 25.7754 299.072 26.7199 299.072 27.9008C299.072 28.6094 299.188 29.1997 299.542 29.6721C299.895 30.1444 300.367 30.6168 300.955 30.9712C301.543 31.3253 302.25 31.6795 303.075 32.0339C303.898 32.388 304.84 32.7424 305.784 32.9786C307.785 33.6871 309.669 34.5137 311.082 35.2222C312.612 35.9307 313.907 36.8755 314.848 37.82C315.908 38.7647 316.615 39.9456 317.087 41.2445C317.557 42.5436 317.794 44.1966 317.794 46.0861C317.794 49.7467 316.499 52.5807 313.907 54.7063C311.317 56.7137 307.432 57.7764 302.25 57.7764C300.483 57.7764 298.954 57.6584 297.54 57.4223C296.129 57.1861 294.95 56.9499 293.774 56.5955C292.714 56.2414 291.772 56.0052 290.947 55.6508C290.122 55.2966 289.533 54.9425 288.945 54.7063L291.419 47.6211C292.595 48.2114 294.009 48.802 295.776 49.3923C297.659 50.3371 299.779 50.5733 302.25 50.5733Z" fill="white"/>
<path d="M335.457 50.5733C336.752 50.5733 337.694 50.4553 338.519 50.2191C339.344 49.9829 339.932 49.7467 340.521 49.3923C340.992 49.0382 341.346 48.5658 341.581 48.0935C341.815 47.6211 341.815 47.0308 341.815 46.4402C341.815 45.1413 341.227 44.0786 340.049 43.2519C338.872 42.4254 336.752 41.4806 333.809 40.5359C332.514 40.0636 331.219 39.5914 329.924 39.0009C328.629 38.4105 327.451 37.702 326.509 36.7573C325.449 35.8125 324.626 34.7498 324.035 33.451C323.447 32.1518 323.094 30.6168 323.094 28.8455C323.094 27.0743 323.447 25.421 324.154 23.886C324.861 22.4689 325.802 21.17 327.097 20.1073C328.392 19.0445 329.924 18.336 331.689 17.7456C333.455 17.1551 335.457 16.9189 337.694 16.9189C340.402 16.9189 342.641 17.1551 344.524 17.7456C346.407 18.336 348.055 18.9264 349.352 19.6349L346.76 26.6019C345.7 26.0116 344.405 25.5392 343.11 25.0669C341.815 24.5945 340.167 24.3583 338.284 24.3583C336.164 24.3583 334.634 24.5945 333.69 25.1849C332.749 25.7754 332.279 26.7199 332.279 27.9008C332.279 28.6094 332.395 29.1997 332.749 29.6721C333.102 30.1444 333.574 30.6168 334.162 30.9712C334.75 31.3253 335.457 31.6795 336.282 32.0339C337.105 32.388 338.047 32.7424 338.991 32.9786C340.993 33.6871 342.876 34.5137 344.289 35.2222C345.819 35.9307 347.114 36.8755 348.055 37.82C349.115 38.7647 349.822 39.9456 350.294 41.2445C350.764 42.5436 351.001 44.1966 351.001 46.0861C351.001 49.7467 349.706 52.5807 347.114 54.7063C344.524 56.7137 340.639 57.7764 335.457 57.7764C333.69 57.7764 332.161 57.6584 330.747 57.4223C329.334 57.1861 328.157 56.9499 326.979 56.5955C325.921 56.2414 324.977 56.0052 324.154 55.6508C323.329 55.2966 322.741 54.9425 322.152 54.7063L324.626 47.6211C325.802 48.2114 327.216 48.802 328.983 49.3923C330.866 50.3371 332.867 50.5733 335.457 50.5733Z" fill="white"/>
<path d="M128.929 82.1015C128.929 84.5813 128.575 86.8251 127.751 88.5964C126.927 90.4856 125.867 92.0206 124.454 93.2015C123.041 94.3824 121.275 95.3272 119.273 95.9175C117.272 96.5081 115.035 96.8622 112.562 96.8622C111.384 96.8622 110.089 96.8622 108.676 96.7442C107.263 96.626 105.851 96.3899 104.438 96.1537V68.1675C105.733 67.8134 107.146 67.6952 108.676 67.5772C110.207 67.459 111.502 67.459 112.68 67.459C115.035 67.459 117.272 67.6952 119.273 68.2855C121.275 68.8761 122.924 69.7026 124.454 71.0015C125.867 72.1824 126.927 73.7174 127.751 75.6069C128.458 77.3781 128.929 79.6217 128.929 82.1015ZM109.736 92.2568C110.089 92.2568 110.442 92.2568 110.913 92.375C111.384 92.375 112.091 92.375 112.915 92.375C116.448 92.375 119.038 91.4303 120.804 89.659C122.57 87.8878 123.395 85.408 123.395 82.1015C123.395 78.7952 122.57 76.3154 120.804 74.5442C119.156 72.7729 116.448 71.9462 112.915 71.9462C111.384 71.9462 110.207 71.9462 109.618 72.0644V92.2568H109.736Z" fill="white"/>
<path d="M161.312 82.1014C161.312 84.5812 160.959 86.7066 160.253 88.596C159.546 90.4852 158.487 92.0205 157.309 93.3194C156.014 94.6183 154.601 95.563 152.835 96.1533C151.069 96.7439 149.302 97.0981 147.418 97.0981C145.534 97.0981 143.651 96.7439 142.002 96.1533C140.354 95.563 138.823 94.6183 137.528 93.3194C136.233 92.0205 135.291 90.4852 134.466 88.596C133.76 86.7066 133.289 84.5812 133.289 82.1014C133.289 79.6214 133.642 77.496 134.466 75.6065C135.291 73.7173 136.233 72.182 137.528 70.8832C138.823 69.5843 140.354 68.6395 142.002 68.0492C143.651 67.4586 145.417 67.1045 147.301 67.1045C149.185 67.1045 150.951 67.4586 152.599 68.0492C154.248 68.6395 155.778 69.7022 157.074 70.8832C158.369 72.182 159.311 73.7173 160.135 75.6065C160.959 77.496 161.312 79.7396 161.312 82.1014ZM138.823 82.1014C138.823 83.6365 139.059 85.1715 139.412 86.3524C139.765 87.6513 140.354 88.714 141.06 89.6587C141.767 90.6034 142.709 91.312 143.768 91.7844C144.828 92.2567 146.005 92.4927 147.301 92.4927C148.596 92.4927 149.773 92.2567 150.833 91.7844C151.893 91.312 152.835 90.6034 153.541 89.6587C154.248 88.714 154.836 87.6513 155.19 86.3524C155.543 85.0533 155.778 83.6365 155.778 82.1014C155.778 80.5661 155.543 79.031 155.19 77.8501C154.836 76.5513 154.248 75.4886 153.541 74.5438C152.835 73.5991 151.893 72.8906 150.833 72.4182C149.773 71.9458 148.596 71.7097 147.301 71.7097C146.005 71.7097 144.828 71.9458 143.768 72.4182C142.709 72.8906 141.767 73.5991 141.06 74.5438C140.354 75.4886 139.765 76.5513 139.412 77.8501C139.059 79.1493 138.823 80.5661 138.823 82.1014Z" fill="white"/>
<path d="M173.318 67.8125C173.907 68.8754 174.614 70.1743 175.32 71.7094C176.027 73.2444 176.851 74.7795 177.557 76.551C178.382 78.204 179.088 79.9752 179.912 81.6285C180.619 83.3997 181.325 84.935 182.032 86.4701C182.62 85.053 183.327 83.3997 184.151 81.6285C184.858 79.8573 185.682 78.204 186.388 76.551C187.213 74.8977 187.919 73.2444 188.625 71.7094C189.332 70.1743 190.038 68.8754 190.627 67.8125H195.337C195.572 69.9381 195.808 72.1817 196.043 74.5433C196.279 76.9051 196.514 79.3849 196.632 81.8647C196.868 84.3445 196.985 86.8242 197.103 89.304C197.221 91.7838 197.339 94.2636 197.456 96.6254H192.276C192.158 93.3189 192.04 89.7764 191.922 86.2339C191.805 82.6914 191.569 79.2669 191.216 75.9604C190.863 76.551 190.509 77.3775 190.156 78.204C189.685 79.1487 189.332 80.0934 188.861 81.0382C188.39 82.1009 187.919 83.1636 187.448 84.2265C186.977 85.2892 186.506 86.4701 186.035 87.4148C185.564 88.4775 185.211 89.4222 184.74 90.367C184.387 91.3114 184.033 92.02 183.798 92.7285H179.912C179.677 92.1382 179.324 91.3114 178.97 90.367C178.617 89.4222 178.146 88.4775 177.675 87.4148C177.204 86.3519 176.733 85.2892 176.262 84.2265C175.791 83.1636 175.32 82.1009 174.849 81.0382C174.378 79.9752 173.907 79.0307 173.554 78.204C173.083 77.2593 172.73 76.551 172.494 75.9604C172.141 79.2669 171.905 82.6914 171.788 86.2339C171.67 89.7764 171.552 93.2009 171.435 96.6254H166.254C166.372 94.2636 166.489 91.7838 166.607 89.1861C166.725 86.5881 166.96 84.1083 167.078 81.6285C167.314 79.1487 167.431 76.6689 167.667 74.3074C167.902 71.9455 168.138 69.8199 168.373 67.8125H173.318Z" fill="white"/>
<path d="M222.891 96.6272C222.537 95.4463 222.066 94.3836 221.713 93.2027C221.36 92.0218 220.889 90.9591 220.536 89.7782H208.408C208.055 90.9591 207.584 92.14 207.231 93.2027C206.877 94.3836 206.406 95.4463 206.053 96.509H200.637C201.696 93.4388 202.756 90.6047 203.698 88.0069C204.64 85.4089 205.582 82.9291 206.524 80.5676C207.466 78.2057 208.408 75.9622 209.232 73.9547C210.174 71.8291 211.116 69.8217 212.058 67.6963H217.003C217.945 69.7037 218.887 71.8291 219.829 73.9547C220.771 76.0804 221.713 78.324 222.537 80.5676C223.362 82.8112 224.421 85.4089 225.363 88.0069C226.305 90.6047 227.365 93.4388 228.425 96.509H222.891V96.6272ZM214.413 73.3644C213.824 74.7812 213 76.6707 212.293 78.6781C211.469 80.8037 210.645 83.0473 209.703 85.5271H219.123C218.181 83.0473 217.357 80.8037 216.533 78.5601C215.708 76.5527 215.002 74.7812 214.413 73.3644Z" fill="white"/>
<path d="M232.078 67.8125H237.259V96.6254H232.078V67.8125Z" fill="white"/>
<path d="M263.631 96.6254C262.688 95.0903 261.63 93.3191 260.451 91.5476C259.275 89.7764 258.096 87.8869 256.801 85.9977C255.506 84.1083 254.328 82.337 253.033 80.6838C251.738 78.9125 250.561 77.3775 249.383 75.9604V96.6254H244.203V67.8125H248.441C249.501 68.9934 250.678 70.4105 251.975 71.9455C253.27 73.5988 254.565 75.2518 255.86 76.9051C257.155 78.6764 258.331 80.3296 259.628 82.1009C260.804 83.8721 261.865 85.4072 262.806 86.9425V67.8125H267.988V96.6254H263.631Z" fill="white"/>
<path d="M281.885 92.7291C283.768 92.7291 285.181 92.3747 286.006 91.7844C286.829 91.1938 287.301 90.249 287.301 89.0684C287.301 88.3598 287.183 87.7693 286.829 87.2971C286.595 86.8248 286.123 86.3524 285.534 85.998C284.946 85.6439 284.356 85.1715 283.533 84.8171C282.707 84.463 281.885 84.1088 280.824 83.7544C279.883 83.4003 278.823 83.0459 278 82.5735C277.056 82.1012 276.233 81.629 275.526 80.9205C274.819 80.3299 274.231 79.5034 273.878 78.6769C273.406 77.7322 273.29 76.6695 273.29 75.4886C273.29 72.8906 274.231 70.8832 275.998 69.3481C277.763 67.813 280.236 67.1045 283.298 67.1045C285.062 67.1045 286.711 67.3407 288.124 67.6948C289.538 68.0492 290.598 68.5216 291.421 68.9937L289.773 73.245C288.831 72.7726 287.771 72.3002 286.711 72.0641C285.534 71.8279 284.474 71.5917 283.298 71.5917C281.885 71.5917 280.824 71.8279 280.001 72.4182C279.176 73.0088 278.823 73.8353 278.823 74.898C278.823 75.4886 278.941 76.0789 279.176 76.5513C279.411 77.0236 279.764 77.3778 280.352 77.7322C280.824 78.0863 281.413 78.4407 282.003 78.6769C282.707 79.031 283.414 79.2672 284.121 79.5034C285.534 79.9758 286.711 80.5661 287.771 81.0385C288.831 81.5108 289.773 82.2194 290.479 82.8097C291.186 83.5182 291.774 84.345 292.128 85.2895C292.481 86.2342 292.716 87.4151 292.716 88.714C292.716 91.312 291.774 93.3194 290.01 94.7365C288.243 96.1533 285.534 96.8619 281.885 96.8619C280.706 96.8619 279.648 96.7439 278.588 96.6257C277.646 96.5077 276.703 96.2716 275.998 96.0354C275.291 95.7992 274.585 95.563 273.996 95.3268C273.406 95.0906 273.053 94.8545 272.699 94.7365L274.231 90.4852C274.938 90.9576 275.998 91.312 277.293 91.7844C278.588 92.4927 280.118 92.7291 281.885 92.7291Z" fill="white"/>
</g>
<defs>
<clipPath id="clip0_1_2206">
<rect width="351" height="114.166" fill="white"/>
</clipPath>
</defs>
</svg>
