<svg width="148" height="50" viewBox="0 0 148 50" fill="none" xmlns="http://www.w3.org/2000/svg">
<g clip-path="url(#clip0_1_2108)">
<path d="M59.0828 34.548H53.9216V20.2026H58.9455C63.1843 20.2026 66.1083 23.1266 66.1083 27.4047C66.1083 31.624 63.2432 34.548 59.0828 34.548ZM58.71 22.5183H56.4335V32.2323H58.8473C61.7125 32.2323 63.459 30.3876 63.459 27.4047C63.459 24.363 61.6732 22.5183 58.71 22.5183ZM81.8613 27.3655C81.8613 31.7221 78.9962 34.7835 74.8751 34.7835C70.7736 34.7835 67.9477 31.7417 67.9477 27.3655C67.9477 23.0089 70.7932 19.9475 74.8947 19.9475C78.9962 19.9475 81.8613 22.9893 81.8613 27.3655ZM79.212 27.3655C79.212 24.3041 77.5244 22.3613 74.8947 22.3613C72.265 22.3613 70.5774 24.3041 70.5774 27.3655C70.5774 30.4269 72.265 32.3697 74.8947 32.3697C77.5244 32.3697 79.212 30.3876 79.212 27.3655ZM86.9565 34.548H84.5231V20.2026H86.9565L91.5878 31.624L96.2192 20.2026H98.6918V34.548H96.2584V30.1325C96.2584 27.2478 96.2584 26.4039 96.3958 25.3834L92.7457 34.548H90.43L86.7995 25.4031C86.9369 26.2665 86.9565 27.6206 86.9565 29.4064V34.548ZM103.427 34.548H100.817L105.998 20.2026H108.569L113.749 34.548H111.1L109.942 31.2315H104.585L103.427 34.548ZM106.959 24.4807L105.331 29.1121H109.216L107.568 24.4807C107.45 24.1079 107.313 23.6761 107.273 23.3818C107.215 23.6565 107.097 24.0882 106.959 24.4807ZM118.384 20.2026V34.548H115.872V20.2026H118.384ZM124.36 34.548H121.888V20.2026H124.38L131.111 30.368V20.2026H133.584V34.548H131.111L124.36 24.3826V34.548ZM136.105 24.206C136.105 21.6941 138.186 19.9475 141.208 19.9475C144.112 19.9475 145.957 21.5567 146.035 24.1471H143.523C143.465 22.9108 142.581 22.1847 141.168 22.1847C139.618 22.1847 138.617 22.9304 138.617 24.1275C138.617 25.148 139.167 25.7171 140.364 25.9918L142.621 26.4824C145.074 27.0123 146.271 28.2682 146.271 30.4073C146.271 33.0762 144.191 34.8031 141.031 34.8031C137.97 34.8031 135.968 33.1743 135.909 30.6035H138.421C138.441 31.8202 139.422 32.5463 141.031 32.5463C142.699 32.5463 143.759 31.8202 143.759 30.6231C143.759 29.6615 143.268 29.0924 142.091 28.8373L139.814 28.3271C137.381 27.7972 136.105 26.4039 136.105 24.206Z" fill="black"/>
<path d="M135.41 4.59379C135.41 2.00434 137.638 0.203857 140.875 0.203857C143.985 0.203857 145.961 1.86273 146.045 4.5331H143.355C143.292 3.25861 142.346 2.5101 140.833 2.5101C139.172 2.5101 138.101 3.27884 138.101 4.51289C138.101 5.56485 138.689 6.15152 139.971 6.43474L142.388 6.94049C145.015 7.4867 146.297 8.78144 146.297 10.9865C146.297 13.7378 144.069 15.5181 140.686 15.5181C137.407 15.5181 135.263 13.839 135.2 11.1888H137.89C137.911 12.4431 138.962 13.1916 140.686 13.1916C142.472 13.1916 143.607 12.4431 143.607 11.2091C143.607 10.2178 143.081 9.63111 141.821 9.36812L139.382 8.84213C136.776 8.29592 135.41 6.85959 135.41 4.59379Z" fill="black"/>
<path d="M122.481 4.59379C122.481 2.00434 124.709 0.203857 127.946 0.203857C131.056 0.203857 133.032 1.86273 133.116 4.5331H130.426C130.363 3.25861 129.417 2.5101 127.904 2.5101C126.243 2.5101 125.172 3.27884 125.172 4.51289C125.172 5.56485 125.76 6.15152 127.042 6.43474L129.459 6.94049C132.086 7.4867 133.368 8.78144 133.368 10.9865C133.368 13.7378 131.14 15.5181 127.757 15.5181C124.478 15.5181 122.334 13.839 122.271 11.1888H124.961C124.982 12.4431 126.033 13.1916 127.757 13.1916C129.543 13.1916 130.678 12.4431 130.678 11.2091C130.678 10.2178 130.152 9.63111 128.891 9.36812L126.453 8.84213C123.848 8.29592 122.481 6.85959 122.481 4.59379Z" fill="black"/>
<path d="M120.101 15.2563H110.559V0.468018H120.101V2.85518H113.249V6.65845H119.386V8.94446H113.249V12.8691H120.101V15.2563Z" fill="black"/>
<path d="M101.593 0.468018V12.8691H108.025V15.2563H98.9031V0.468018H101.593Z" fill="black"/>
<path d="M88.528 15.2563H83.0005V0.468018H88.3808C92.9206 0.468018 96.0521 3.4823 96.0521 7.89247C96.0521 12.242 92.9835 15.2563 88.528 15.2563ZM88.1288 2.85518H85.6907V12.8691H88.2757C91.3443 12.8691 93.2147 10.9675 93.2147 7.89247C93.2147 4.75682 91.3022 2.85518 88.1288 2.85518Z" fill="black"/>
<path d="M69.3736 15.2563H66.7256V0.468018H69.3947L76.6036 10.9472V0.468018H79.2516V15.2563H76.6036L69.3736 4.77703V15.2563Z" fill="black"/>
<path d="M63.4633 15.2563H53.9216V0.468018H63.4633V2.85518H56.6118V6.65845H62.7487V8.94446H56.6118V12.8691H63.4633V15.2563Z" fill="black"/>
<path d="M52.3308 44.514C52.3308 43.4191 52.3308 42.8717 52.4531 42.423C52.7766 41.2353 53.7045 40.3074 54.8922 39.9838C55.3409 39.8616 55.8883 39.8616 56.9832 39.8616H143.262C144.357 39.8616 144.905 39.8616 145.353 39.9838C146.541 40.3074 147.469 41.2353 147.792 42.423C147.915 42.8717 147.915 43.4191 147.915 44.514C147.915 45.6086 147.915 46.1561 147.792 46.6048C147.469 47.7925 146.541 48.7203 145.353 49.0439C144.905 49.1662 144.357 49.1662 143.262 49.1662H56.9832C55.8883 49.1662 55.3409 49.1662 54.8922 49.0439C53.7045 48.7203 52.7766 47.7925 52.4531 46.6048C52.3308 46.1561 52.3308 45.6086 52.3308 44.514Z" fill="url(#paint0_linear_1_2108)"/>
<path d="M52.3308 44.5993C52.3308 43.5044 52.3308 42.957 52.4531 42.5083C52.7766 41.3206 53.7045 40.3927 54.8922 40.0691C55.3409 39.9469 55.8883 39.9469 56.9832 39.9469H143.262C144.357 39.9469 144.905 39.9469 145.353 40.0691C146.541 40.3927 147.469 41.3206 147.792 42.5083C147.915 42.957 147.915 43.5044 147.915 44.5993C147.915 45.694 147.915 46.2414 147.792 46.6901C147.469 47.8778 146.541 48.8056 145.353 49.1292C144.905 49.2515 144.357 49.2515 143.262 49.2515H56.9832C55.8883 49.2515 55.3409 49.2515 54.8922 49.1292C53.7045 48.8056 52.7766 47.8778 52.4531 46.6901C52.3308 46.2414 52.3308 45.694 52.3308 44.5993Z" fill="white" fill-opacity="0.1"/>
<path d="M27.9366 13.4628V3.73279C27.9366 0.880006 24.6718 -0.953916 22.0498 0.523414C15.8415 3.93655 6.31518 9.18364 2.14075 11.4761C0.802777 12.1892 0 13.5138 0 14.991C0 19.6268 0 30.0701 0 36.8963C0 39.7492 3.26463 41.583 5.88703 40.1057L13.9683 35.6736L23.8157 30.1719C26.3845 28.7454 27.9902 26.1475 27.9902 23.2946L27.9366 13.4628Z" fill="url(#paint1_linear_1_2108)"/>
<path d="M36.0719 9.03025L27.9907 13.4623C24.0839 15.6018 20.4446 17.6396 17.6616 19.1678C15.1462 20.5433 13.5942 23.0904 13.5942 25.8413L13.9689 35.673V45.4541C13.9689 48.307 17.2336 50.1409 19.8558 48.6635L39.6042 37.8127C41.0491 37.0486 41.9056 35.5712 41.9056 33.9921V12.2906C41.9056 9.38684 38.6408 7.55291 36.0719 9.03025Z" fill="url(#paint2_linear_1_2108)"/>
<path d="M27.9907 23.2953C27.9907 26.148 26.3852 28.7459 23.8163 30.1724L13.9689 35.6741L13.5942 25.8424C13.5942 23.0915 15.1462 20.5442 17.6616 19.1688C20.4446 17.6406 24.0303 15.6538 27.9907 13.4634V23.2953Z" fill="url(#paint3_linear_1_2108)"/>
<path d="M60.7294 46.6948C60.202 46.6948 59.7829 46.5476 59.4722 46.2532C59.1615 45.9548 59.0061 45.5255 59.0061 44.9654V43.9596C59.0061 43.3995 59.1615 42.9723 59.4722 42.6779C59.7829 42.3795 60.202 42.2302 60.7294 42.2302C61.2568 42.2302 61.6758 42.3795 61.9865 42.6779C62.3014 42.9723 62.4588 43.3995 62.4588 43.9596V44.9654C62.4588 45.5255 62.3014 45.9548 61.9865 46.2532C61.6758 46.5476 61.2568 46.6948 60.7294 46.6948ZM60.7294 46.0999C61.0687 46.0999 61.3304 46.0018 61.5143 45.8055C61.6983 45.6052 61.7903 45.3333 61.7903 44.9899V43.9351C61.7903 43.5917 61.6983 43.3218 61.5143 43.1256C61.3304 42.9253 61.0687 42.8251 60.7294 42.8251C60.3982 42.8251 60.1386 42.9253 59.9505 43.1256C59.7625 43.3218 59.6684 43.5917 59.6684 43.9351V44.9899C59.6684 45.3333 59.7625 45.6052 59.9505 45.8055C60.1386 46.0018 60.3982 46.0999 60.7294 46.0999ZM65.1931 46.6948C64.8701 46.6948 64.5839 46.6375 64.3345 46.523C64.0851 46.4086 63.8889 46.2409 63.7458 46.0202C63.6068 45.7953 63.5373 45.5234 63.5373 45.2045V45.0512H64.1935V45.2045C64.1935 45.5071 64.2834 45.734 64.4633 45.8853C64.6473 46.0365 64.8905 46.1122 65.1931 46.1122C65.4997 46.1122 65.7307 46.0488 65.8861 45.922C66.0414 45.7912 66.1191 45.6236 66.1191 45.4192C66.1191 45.2843 66.0823 45.1739 66.0087 45.088C65.9351 45.0022 65.8309 44.9347 65.696 44.8856C65.561 44.8325 65.3995 44.7834 65.2115 44.7385L64.9846 44.6833C64.7106 44.6178 64.4715 44.5381 64.2671 44.4441C64.0667 44.346 63.9114 44.2172 63.801 44.0577C63.6906 43.8983 63.6354 43.6939 63.6354 43.4445C63.6354 43.191 63.6967 42.9743 63.8194 42.7944C63.9461 42.6145 64.1199 42.4755 64.3406 42.3774C64.5614 42.2793 64.821 42.2302 65.1195 42.2302C65.4179 42.2302 65.6837 42.2813 65.9167 42.3835C66.1538 42.4857 66.3399 42.637 66.4748 42.8374C66.6097 43.0377 66.6772 43.2891 66.6772 43.5917V43.8124H66.021V43.5917C66.021 43.4077 65.9821 43.2585 65.9045 43.144C65.8309 43.0295 65.7266 42.9457 65.5917 42.8925C65.4568 42.8394 65.2994 42.8128 65.1195 42.8128C64.8578 42.8128 64.6534 42.868 64.5062 42.9784C64.3631 43.0847 64.2916 43.2339 64.2916 43.4261C64.2916 43.5569 64.3222 43.6653 64.3836 43.7511C64.449 43.8329 64.543 43.9003 64.6657 43.9535C64.7883 44.0066 64.9416 44.0536 65.1256 44.0945L65.3525 44.1497C65.6305 44.2111 65.8758 44.2908 66.0884 44.3889C66.301 44.4829 66.4687 44.6117 66.5913 44.7753C66.714 44.9388 66.7753 45.1493 66.7753 45.4069C66.7753 45.6645 66.7099 45.8893 66.579 46.0815C66.4523 46.2736 66.2704 46.4249 66.0332 46.5353C65.7961 46.6416 65.5161 46.6948 65.1931 46.6948ZM70.5789 46.6089V44.1191H69.7326V43.5855H70.5789V42.9232C70.5789 42.7392 70.6341 42.592 70.7445 42.4817C70.8549 42.3713 71.0021 42.3161 71.1861 42.3161H71.9649V42.8496H71.3884C71.2699 42.8496 71.2106 42.9109 71.2106 43.0336V43.5855H72.0814V44.1191H71.2106V46.6089H70.5789ZM74.5097 46.6948C74.2072 46.6948 73.9373 46.6334 73.7002 46.5108C73.4672 46.384 73.2832 46.2041 73.1483 45.9711C73.0134 45.7381 72.9459 45.4621 72.9459 45.1432V45.0512C72.9459 44.7323 73.0134 44.4584 73.1483 44.2295C73.2832 43.9964 73.4672 43.8165 73.7002 43.6898C73.9373 43.563 74.2072 43.4997 74.5097 43.4997C74.8123 43.4997 75.0821 43.563 75.3192 43.6898C75.5563 43.8165 75.7424 43.9964 75.8773 44.2295C76.0122 44.4584 76.0797 44.7323 76.0797 45.0512V45.1432C76.0797 45.4621 76.0122 45.7381 75.8773 45.9711C75.7424 46.2041 75.5563 46.384 75.3192 46.5108C75.0821 46.6334 74.8123 46.6948 74.5097 46.6948ZM74.5097 46.1306C74.7877 46.1306 75.0126 46.0427 75.1843 45.8669C75.3601 45.687 75.448 45.4396 75.448 45.1248V45.0696C75.448 44.7548 75.3621 44.5095 75.1904 44.3337C75.0187 44.1538 74.7918 44.0639 74.5097 44.0639C74.2358 44.0639 74.0109 44.1538 73.8351 44.3337C73.6634 44.5095 73.5776 44.7548 73.5776 45.0696V45.1248C73.5776 45.4396 73.6634 45.687 73.8351 45.8669C74.0109 46.0427 74.2358 46.1306 74.5097 46.1306ZM77.3567 46.6089V43.5855H77.9761V43.9412H78.0742C78.1232 43.8145 78.2009 43.7225 78.3072 43.6653C78.4176 43.6039 78.5525 43.5733 78.712 43.5733H79.0738V44.1436H78.6874C78.483 44.1436 78.3154 44.2008 78.1846 44.3153C78.0537 44.4257 77.9883 44.5974 77.9883 44.8304V46.6089H77.3567ZM83.6892 46.6948C83.3867 46.6948 83.1168 46.6334 82.8797 46.5108C82.6467 46.384 82.4627 46.2041 82.3278 45.9711C82.1928 45.7381 82.1254 45.4621 82.1254 45.1432V45.0512C82.1254 44.7323 82.1928 44.4584 82.3278 44.2295C82.4627 43.9964 82.6467 43.8165 82.8797 43.6898C83.1168 43.563 83.3867 43.4997 83.6892 43.4997C83.9917 43.4997 84.2616 43.563 84.4987 43.6898C84.7358 43.8165 84.9218 43.9964 85.0568 44.2295C85.1917 44.4584 85.2591 44.7323 85.2591 45.0512V45.1432C85.2591 45.4621 85.1917 45.7381 85.0568 45.9711C84.9218 46.2041 84.7358 46.384 84.4987 46.5108C84.2616 46.6334 83.9917 46.6948 83.6892 46.6948ZM83.6892 46.1306C83.9672 46.1306 84.1921 46.0427 84.3638 45.8669C84.5396 45.687 84.6275 45.4396 84.6275 45.1248V45.0696C84.6275 44.7548 84.5416 44.5095 84.3699 44.3337C84.1982 44.1538 83.9713 44.0639 83.6892 44.0639C83.4153 44.0639 83.1904 44.1538 83.0146 44.3337C82.8429 44.5095 82.757 44.7548 82.757 45.0696V45.1248C82.757 45.4396 82.8429 45.687 83.0146 45.8669C83.1904 46.0427 83.4153 46.1306 83.6892 46.1306ZM86.5361 46.6089V43.5855H87.1555V44.0393H87.2537C87.3109 43.9167 87.4131 43.8022 87.5603 43.6959C87.7075 43.5896 87.9262 43.5365 88.2165 43.5365C88.4454 43.5365 88.6478 43.5876 88.8236 43.6898C89.0035 43.792 89.1446 43.9371 89.2468 44.1252C89.349 44.3092 89.4001 44.532 89.4001 44.7936V46.6089H88.7684V44.8427C88.7684 44.5811 88.703 44.3889 88.5722 44.2662C88.4413 44.1395 88.2615 44.0761 88.0325 44.0761C87.7708 44.0761 87.5603 44.162 87.4008 44.3337C87.2455 44.5054 87.1678 44.7548 87.1678 45.0819V46.6089H86.5361ZM90.7875 45.3272V44.7507H92.6027V45.3272H90.7875ZM95.4137 46.6948C95.1234 46.6948 94.8597 46.6334 94.6226 46.5108C94.3895 46.3881 94.2035 46.2103 94.0645 45.9772C93.9296 45.7442 93.8621 45.4641 93.8621 45.1371V45.0574C93.8621 44.7303 93.9296 44.4523 94.0645 44.2233C94.2035 43.9903 94.3895 43.8124 94.6226 43.6898C94.8597 43.563 95.1234 43.4997 95.4137 43.4997C95.704 43.4997 95.9513 43.5528 96.1557 43.6591C96.3602 43.7654 96.5237 43.9065 96.6464 44.0823C96.7731 44.2581 96.8549 44.4523 96.8917 44.6649L96.2784 44.7936C96.2579 44.6587 96.215 44.5361 96.1496 44.4257C96.0842 44.3153 95.9922 44.2274 95.8736 44.162C95.7551 44.0966 95.6059 44.0639 95.426 44.0639C95.2502 44.0639 95.0907 44.1048 94.9476 44.1865C94.8086 44.2642 94.6982 44.3787 94.6165 44.5299C94.5347 44.6771 94.4938 44.857 94.4938 45.0696V45.1248C94.4938 45.3374 94.5347 45.5193 94.6165 45.6706C94.6982 45.8219 94.8086 45.9364 94.9476 46.014C95.0907 46.0917 95.2502 46.1306 95.426 46.1306C95.6917 46.1306 95.8941 46.0631 96.0331 45.9282C96.1721 45.7892 96.26 45.6134 96.2968 45.4008L96.91 45.5418C96.861 45.7503 96.7731 45.9425 96.6464 46.1183C96.5237 46.2941 96.3602 46.4351 96.1557 46.5414C95.9513 46.6436 95.704 46.6948 95.4137 46.6948ZM98.129 46.6089V42.3161H98.7607V44.0148H98.8588C98.8997 43.9371 98.9569 43.8615 99.0305 43.7879C99.1082 43.7143 99.2083 43.655 99.331 43.6101C99.4577 43.561 99.6172 43.5365 99.8093 43.5365C100.038 43.5365 100.241 43.5876 100.416 43.6898C100.596 43.792 100.737 43.9371 100.84 44.1252C100.942 44.3092 100.993 44.532 100.993 44.7936V46.6089H100.361V44.8427C100.361 44.5811 100.296 44.3889 100.165 44.2662C100.034 44.1395 99.8543 44.0761 99.6254 44.0761C99.3637 44.0761 99.1532 44.162 98.9937 44.3337C98.8383 44.5054 98.7607 44.7548 98.7607 45.0819V46.6089H98.129ZM103.331 46.6948C103.114 46.6948 102.92 46.658 102.748 46.5844C102.581 46.5108 102.446 46.4024 102.344 46.2593C102.246 46.1162 102.197 45.9425 102.197 45.7381C102.197 45.5296 102.246 45.3578 102.344 45.2229C102.446 45.0839 102.583 44.9797 102.755 44.9102C102.93 44.8407 103.129 44.8059 103.349 44.8059H104.269V44.6097C104.269 44.4339 104.216 44.2928 104.11 44.1865C104.004 44.0802 103.84 44.0271 103.619 44.0271C103.403 44.0271 103.237 44.0782 103.123 44.1804C103.008 44.2826 102.932 44.4155 102.896 44.579L102.307 44.3889C102.356 44.2254 102.434 44.0782 102.54 43.9474C102.65 43.8124 102.796 43.7041 102.975 43.6223C103.155 43.5406 103.372 43.4997 103.625 43.4997C104.018 43.4997 104.327 43.5998 104.551 43.8002C104.776 44.0005 104.889 44.2846 104.889 44.6526V45.8975C104.889 46.0202 104.946 46.0815 105.06 46.0815H105.318V46.6089H104.846C104.703 46.6089 104.586 46.5721 104.496 46.4985C104.406 46.4249 104.361 46.3248 104.361 46.198V46.1796H104.269C104.237 46.2409 104.188 46.3125 104.122 46.3943C104.057 46.476 103.961 46.5476 103.834 46.6089C103.707 46.6661 103.54 46.6948 103.331 46.6948ZM103.423 46.1735C103.677 46.1735 103.881 46.1019 104.036 45.9588C104.192 45.8117 104.269 45.6113 104.269 45.3578V45.2965H103.386C103.219 45.2965 103.084 45.3333 102.982 45.4069C102.879 45.4764 102.828 45.5807 102.828 45.7197C102.828 45.8587 102.881 45.9691 102.988 46.0508C103.094 46.1326 103.239 46.1735 103.423 46.1735ZM106.423 46.6089V43.5855H107.054V46.6089H106.423ZM106.742 43.1746C106.619 43.1746 106.515 43.1358 106.429 43.0581C106.347 42.9764 106.306 42.8721 106.306 42.7454C106.306 42.6186 106.347 42.5164 106.429 42.4387C106.515 42.357 106.619 42.3161 106.742 42.3161C106.868 42.3161 106.973 42.357 107.054 42.4387C107.136 42.5164 107.177 42.6186 107.177 42.7454C107.177 42.8721 107.136 42.9764 107.054 43.0581C106.973 43.1358 106.868 43.1746 106.742 43.1746ZM108.482 46.6089V43.5855H109.102V44.0393H109.2C109.257 43.9167 109.359 43.8022 109.507 43.6959C109.654 43.5896 109.873 43.5365 110.163 43.5365C110.392 43.5365 110.594 43.5876 110.77 43.6898C110.95 43.792 111.091 43.9371 111.193 44.1252C111.295 44.3092 111.346 44.532 111.346 44.7936V46.6089H110.715V44.8427C110.715 44.5811 110.649 44.3889 110.518 44.2662C110.388 44.1395 110.208 44.0761 109.979 44.0761C109.717 44.0761 109.507 44.162 109.347 44.3337C109.192 44.5054 109.114 44.7548 109.114 45.0819V46.6089H108.482ZM114.8 46.6089V43.5855H115.431V46.6089H114.8ZM115.119 43.1746C114.996 43.1746 114.892 43.1358 114.806 43.0581C114.724 42.9764 114.683 42.8721 114.683 42.7454C114.683 42.6186 114.724 42.5164 114.806 42.4387C114.892 42.357 114.996 42.3161 115.119 42.3161C115.245 42.3161 115.35 42.357 115.431 42.4387C115.513 42.5164 115.554 42.6186 115.554 42.7454C115.554 42.8721 115.513 42.9764 115.431 43.0581C115.35 43.1358 115.245 43.1746 115.119 43.1746ZM118.11 46.6948C117.861 46.6948 117.63 46.6334 117.417 46.5108C117.205 46.3881 117.033 46.2123 116.902 45.9834C116.776 45.7503 116.712 45.4703 116.712 45.1432V45.0512C116.712 44.7282 116.776 44.4502 116.902 44.2172C117.029 43.9841 117.199 43.8063 117.411 43.6837C117.624 43.561 117.857 43.4997 118.11 43.4997C118.307 43.4997 118.47 43.5242 118.601 43.5733C118.736 43.6223 118.846 43.6857 118.932 43.7634C119.018 43.837 119.083 43.9146 119.128 43.9964H119.227V42.3161H119.858V46.6089H119.239V46.1796H119.141C119.063 46.3104 118.944 46.429 118.785 46.5353C118.63 46.6416 118.405 46.6948 118.11 46.6948ZM118.288 46.1428C118.562 46.1428 118.787 46.0549 118.963 45.8791C119.143 45.7033 119.233 45.4519 119.233 45.1248V45.0696C119.233 44.7466 119.145 44.4972 118.969 44.3214C118.793 44.1456 118.566 44.0577 118.288 44.0577C118.018 44.0577 117.794 44.1456 117.614 44.3214C117.438 44.4972 117.35 44.7466 117.35 45.0696V45.1248C117.35 45.4519 117.438 45.7033 117.614 45.8791C117.794 46.0549 118.018 46.1428 118.288 46.1428ZM122.665 46.6948C122.358 46.6948 122.09 46.6314 121.861 46.5046C121.632 46.3738 121.453 46.1919 121.322 45.9588C121.195 45.7217 121.132 45.4478 121.132 45.1371V45.0635C121.132 44.7487 121.195 44.4748 121.322 44.2417C121.448 44.0046 121.624 43.8227 121.849 43.6959C122.078 43.5651 122.342 43.4997 122.64 43.4997C122.93 43.4997 123.184 43.5651 123.401 43.6959C123.621 43.8227 123.793 44.0005 123.916 44.2295C124.038 44.4584 124.1 44.7262 124.1 45.0328V45.272H121.775C121.784 45.5377 121.872 45.7503 122.039 45.9098C122.211 46.0651 122.423 46.1428 122.677 46.1428C122.914 46.1428 123.092 46.0897 123.211 45.9834C123.333 45.8771 123.427 45.7544 123.493 45.6154L124.014 45.8853C123.957 45.9997 123.873 46.1203 123.762 46.2471C123.656 46.3738 123.515 46.4801 123.339 46.566C123.163 46.6518 122.939 46.6948 122.665 46.6948ZM121.782 44.7875H123.456C123.439 44.5586 123.358 44.3807 123.211 44.254C123.063 44.1232 122.871 44.0577 122.634 44.0577C122.397 44.0577 122.203 44.1232 122.051 44.254C121.904 44.3807 121.814 44.5586 121.782 44.7875ZM125.351 46.6089V43.5855H125.97V44.0393H126.068C126.125 43.9167 126.228 43.8022 126.375 43.6959C126.522 43.5896 126.741 43.5365 127.031 43.5365C127.26 43.5365 127.462 43.5876 127.638 43.6898C127.818 43.792 127.959 43.9371 128.061 44.1252C128.163 44.3092 128.215 44.532 128.215 44.7936V46.6089H127.583V44.8427C127.583 44.5811 127.517 44.3889 127.387 44.2662C127.256 44.1395 127.076 44.0761 126.847 44.0761C126.585 44.0761 126.375 44.162 126.215 44.3337C126.06 44.5054 125.982 44.7548 125.982 45.0819V46.6089H125.351ZM130.665 46.6089C130.481 46.6089 130.334 46.5537 130.223 46.4433C130.117 46.3329 130.064 46.1857 130.064 46.0018V44.1191H129.23V43.5855H130.064V42.5859H130.696V43.5855H131.597V44.1191H130.696V45.8914C130.696 46.014 130.753 46.0754 130.867 46.0754H131.499V46.6089H130.665ZM132.83 46.6089V43.5855H133.461V46.6089H132.83ZM133.149 43.1746C133.026 43.1746 132.922 43.1358 132.836 43.0581C132.754 42.9764 132.713 42.8721 132.713 42.7454C132.713 42.6186 132.754 42.5164 132.836 42.4387C132.922 42.357 133.026 42.3161 133.149 42.3161C133.275 42.3161 133.38 42.357 133.461 42.4387C133.543 42.5164 133.584 42.6186 133.584 42.7454C133.584 42.8721 133.543 42.9764 133.461 43.0581C133.38 43.1358 133.275 43.1746 133.149 43.1746ZM136.024 46.6089C135.84 46.6089 135.693 46.5537 135.582 46.4433C135.476 46.3329 135.423 46.1857 135.423 46.0018V44.1191H134.589V43.5855H135.423V42.5859H136.055V43.5855H136.956V44.1191H136.055V45.8914C136.055 46.014 136.112 46.0754 136.226 46.0754H136.858V46.6089H136.024ZM138.538 47.8354V47.2835H140.225C140.339 47.2835 140.396 47.2222 140.396 47.0995V46.1674H140.298C140.262 46.2491 140.204 46.3288 140.127 46.4065C140.053 46.4801 139.953 46.5414 139.826 46.5905C139.699 46.6396 139.54 46.6641 139.348 46.6641C139.119 46.6641 138.914 46.613 138.735 46.5108C138.555 46.4086 138.414 46.2634 138.311 46.0754C138.209 45.8873 138.158 45.6645 138.158 45.4069V43.5855H138.79V45.3578C138.79 45.6195 138.855 45.8137 138.986 45.9404C139.117 46.0631 139.299 46.1244 139.532 46.1244C139.789 46.1244 139.996 46.0386 140.151 45.8669C140.311 45.6951 140.39 45.4458 140.39 45.1187V43.5855H141.022V47.2283C141.022 47.4123 140.967 47.5595 140.856 47.6698C140.75 47.7802 140.603 47.8354 140.415 47.8354H138.538Z" fill="white"/>
</g>
<defs>
<linearGradient id="paint0_linear_1_2108" x1="52.3308" y1="44.514" x2="147.982" y2="23.8479" gradientUnits="userSpaceOnUse">
<stop stop-color="#9945FF"/>
<stop offset="1" stop-color="#6200FF"/>
</linearGradient>
<linearGradient id="paint1_linear_1_2108" x1="29.0039" y1="119.71" x2="-24.6843" y2="113.609" gradientUnits="userSpaceOnUse">
<stop stop-color="white"/>
<stop offset="0.0528846" stop-color="#FEF0D2"/>
<stop offset="0.6809" stop-color="#FDC651"/>
<stop offset="1" stop-color="#6200FF"/>
</linearGradient>
<linearGradient id="paint2_linear_1_2108" x1="42.9308" y1="128.366" x2="-11.1611" y2="122.219" gradientUnits="userSpaceOnUse">
<stop stop-color="white"/>
<stop offset="0.5" stop-color="#832AFF"/>
<stop offset="1" stop-color="#6200FF"/>
</linearGradient>
<linearGradient id="paint3_linear_1_2108" x1="28.512" y1="78.9059" x2="-0.826778" y2="75.2386" gradientUnits="userSpaceOnUse">
<stop stop-color="white"/>
<stop offset="0.836538" stop-color="#832AFF" stop-opacity="0.57"/>
<stop offset="1" stop-color="#6200FF" stop-opacity="0.78"/>
</linearGradient>
<clipPath id="clip0_1_2108">
<rect width="148" height="49.2652" fill="white"/>
</clipPath>
</defs>
</svg>
