<svg preserveAspectRatio="none" width="100%" height="100%" overflow="visible" style="display: block;" viewBox="0 0 39 39" fill="none" xmlns="http://www.w3.org/2000/svg">
<g id="fi_9278608">
<path id="Vector" d="M5.62184 27.1458C5.54185 27.0078 5.411 26.9067 5.25735 26.8641C5.10369 26.8216 4.93947 26.8409 4.79989 26.9179C4.66031 26.995 4.55649 27.1237 4.51068 27.2764C4.46488 27.4292 4.48074 27.5938 4.55487 27.7349C10.8985 39.4346 28.1038 39.4319 34.4451 27.7347C34.5229 27.5932 34.5414 27.4267 34.4964 27.2716C34.4515 27.1165 34.3469 26.9856 34.2056 26.9076C34.0643 26.8296 33.8977 26.8109 33.7426 26.8555C33.5875 26.9002 33.4564 27.0046 33.3781 27.1458C32.0098 29.6288 30.0003 31.6992 27.5593 33.1412C25.1183 34.5831 22.3351 35.3438 19.5 35.3438C16.6649 35.3438 13.8817 34.5831 11.4407 33.1412C8.99963 31.6992 6.99019 29.6288 5.62184 27.1458Z" fill="var(--fill-0, white)"/>
<path id="Vector_2" d="M31.5167 9.18913C31.6228 9.3082 31.7712 9.38097 31.9303 9.39182C32.0894 9.40267 32.2464 9.35074 32.3676 9.24718C32.4889 9.14361 32.5647 8.99665 32.5788 8.83783C32.593 8.679 32.5443 8.52097 32.4432 8.39762C25.9235 0.504716 13.0758 0.505295 6.55674 8.39786C6.45543 8.52118 6.40655 8.67932 6.4206 8.83829C6.43465 8.99727 6.51051 9.14439 6.63188 9.24802C6.75324 9.35166 6.91042 9.40355 7.06964 9.39253C7.22885 9.38151 7.37739 9.30846 7.48332 9.1891C13.5367 1.86189 25.4642 1.86267 31.5167 9.18913Z" fill="var(--fill-0, white)"/>
<path id="Vector_3" d="M11.5317 8.72465C11.4054 8.82227 11.3225 8.96552 11.3007 9.12363C11.2789 9.28173 11.32 9.44208 11.4152 9.5702C11.5104 9.69833 11.652 9.78401 11.8097 9.80883C11.9673 9.83366 12.1284 9.79564 12.2584 9.70296C14.356 8.15628 16.8938 7.32185 19.5 7.32186C22.1063 7.32188 24.644 8.15634 26.7417 9.70305C26.8716 9.79546 27.0326 9.83326 27.1901 9.80833C27.3477 9.7834 27.4891 9.69774 27.5842 9.56971C27.6793 9.44168 27.7204 9.2815 27.6987 9.12351C27.677 8.96553 27.5943 8.82233 27.4683 8.72463C25.1603 7.0224 22.3678 6.10401 19.5 6.10402C16.6322 6.10402 13.8397 7.02241 11.5317 8.72465Z" fill="var(--fill-0, white)"/>
<path id="Vector_4" d="M19.5 32.9063C21.5218 32.9104 23.518 32.4545 25.3375 31.5731C27.157 30.6917 28.7522 29.4079 30.0022 27.8188C30.0988 27.6917 30.1417 27.5319 30.1217 27.3735C30.1017 27.2152 30.0204 27.071 29.8953 26.9719C29.7702 26.8728 29.6112 26.8267 29.4525 26.8436C29.2938 26.8604 29.148 26.9388 29.0465 27.0619C24.3723 33.1904 14.6271 33.1897 9.95353 27.0617C9.8519 26.9387 9.70612 26.8604 9.54745 26.8437C9.38878 26.8269 9.22986 26.873 9.1048 26.9721C8.97974 27.0712 8.8985 27.2154 8.8785 27.3737C8.8585 27.5319 8.90134 27.6918 8.99784 27.8188C10.2478 29.4079 11.843 30.6917 13.6625 31.5731C15.482 32.4545 17.4782 32.9104 19.5 32.9063Z" fill="var(--fill-0, white)"/>
<path id="Vector_5" d="M2.75914 21.0651C2.54485 21.4723 2.4387 21.9278 2.45088 22.3878C2.46305 22.8478 2.59313 23.2969 2.82866 23.6922C3.0642 24.0876 3.39729 24.4158 3.79603 24.6455C4.19478 24.8751 4.64582 24.9986 5.10595 25.004L11.8868 25.004C11.8845 25.4062 11.9614 25.805 12.1133 26.1774C12.2651 26.5498 12.4889 26.8887 12.7717 27.1747C13.0546 27.4606 13.391 27.688 13.7618 27.8439C14.1326 27.9997 14.5305 28.081 14.9327 28.083L24.0673 28.083C24.47 28.0828 24.8687 28.0027 25.2403 27.8475C25.6119 27.6923 25.949 27.4649 26.2323 27.1786C26.5155 26.8923 26.7391 26.5527 26.8903 26.1795C27.0415 25.8062 27.1173 25.4067 27.1132 25.004H33.8941C34.3542 24.9986 34.8053 24.8752 35.204 24.6455C35.6028 24.4158 35.9358 24.0875 36.1714 23.6922C36.4069 23.2969 36.537 22.8477 36.5491 22.3877C36.5613 21.9277 36.4551 21.4723 36.2408 21.0651C35.4077 19.5216 34.0283 18.345 32.3728 17.7657C32.8355 17.4093 33.2103 16.9515 33.4684 16.4276C33.7265 15.9037 33.8609 15.3275 33.8614 14.7434C33.6797 9.67984 26.3899 9.67969 26.2091 14.7435C26.2096 15.3277 26.3441 15.9039 26.6022 16.4279C26.8604 16.9519 27.2354 17.4097 27.6982 17.7661C26.2046 18.2921 24.9327 19.3076 24.089 20.6476C23.4567 20.223 22.7685 19.8885 22.0441 19.6536C22.6224 19.2467 23.0945 18.7067 23.4206 18.0792C23.7466 17.4517 23.9171 16.7551 23.9177 16.0479C23.7113 10.2031 15.2894 10.2007 15.0823 16.048C15.0829 16.7551 15.2534 17.4518 15.5794 18.0793C15.9055 18.7067 16.3776 19.2467 16.9559 19.6536C16.2312 19.8886 15.5427 20.2233 14.9102 20.6482C14.065 19.3095 12.7937 18.2944 11.3012 17.7664C11.7643 17.4101 12.1394 16.9523 12.3976 16.4282C12.6559 15.9041 12.7905 15.3277 12.7909 14.7434C12.6155 9.68471 5.31757 9.67701 5.13861 14.7435C5.13907 15.3275 5.27352 15.9037 5.53159 16.4276C5.78967 16.9515 6.1645 17.4093 6.62724 17.7656C4.97173 18.345 3.59225 19.5217 2.75914 21.0651ZM27.4278 14.7435C27.4344 14.0562 27.712 13.3994 28.2003 12.9158C28.6885 12.4322 29.348 12.1608 30.0353 12.1609C30.7225 12.1609 31.3819 12.4322 31.8702 12.9158C32.3585 13.3995 32.6361 14.0563 32.6426 14.7435C32.636 15.4307 32.3584 16.0876 31.8702 16.5712C31.3819 17.0548 30.7224 17.3261 30.0352 17.3261C29.3479 17.3261 28.6885 17.0548 28.2002 16.5711C27.712 16.0875 27.4344 15.4307 27.4278 14.7435ZM30.0309 18.5694C31.0851 18.5686 32.1197 18.854 33.0243 19.3952C33.9289 19.9364 34.6696 20.7131 35.1673 21.6424C35.2841 21.8636 35.3421 22.1111 35.3357 22.3612C35.3294 22.6113 35.259 22.8556 35.1312 23.0706C35.0034 23.2857 34.8225 23.4643 34.6059 23.5895C34.3893 23.7146 34.1442 23.782 33.894 23.7853H26.8423C26.4038 22.8832 25.7959 22.0739 25.0517 21.4016C25.5677 20.5408 26.2971 19.8278 27.1694 19.3316C28.0417 18.8355 29.0274 18.5729 30.0309 18.5694ZM16.3011 16.0479C16.4355 11.8204 22.5651 11.8213 22.6989 16.048C22.5645 20.2758 16.4348 20.2749 16.3011 16.0479ZM25.6756 24.159C25.8232 24.4383 25.8966 24.7509 25.8886 25.0668C25.8807 25.3827 25.7917 25.6912 25.6303 25.9628C25.4688 26.2343 25.2403 26.4599 24.9666 26.6178C24.6929 26.7756 24.3832 26.8605 24.0673 26.8643L14.9327 26.8643C14.6155 26.8636 14.304 26.7807 14.0285 26.6236C13.753 26.4665 13.523 26.2406 13.3609 25.968C13.1989 25.6954 13.1103 25.3854 13.1039 25.0683C13.0975 24.7513 13.1735 24.4379 13.3244 24.159C15.8783 19.2702 23.1223 19.2706 25.6756 24.159ZM6.35738 14.7434C6.36386 14.0562 6.64143 13.3993 7.12971 12.9156C7.61799 12.4319 8.2775 12.1605 8.9648 12.1605C9.6521 12.1605 10.3116 12.4319 10.7999 12.9156C11.2882 13.3993 11.5657 14.0562 11.5722 14.7435C11.5657 15.4308 11.2881 16.0877 10.7998 16.5714C10.3116 17.0551 9.65205 17.3264 8.96475 17.3264C8.27745 17.3264 7.61795 17.055 7.12967 16.5713C6.6414 16.0876 6.36385 15.4307 6.35738 14.7434ZM8.95908 18.5693C9.96414 18.5721 10.9514 18.8343 11.8254 19.3306C12.6994 19.8269 13.4305 20.5404 13.9478 21.402C13.2038 22.0743 12.5961 22.8834 12.1577 23.7853H5.1059C4.85576 23.782 4.61065 23.7146 4.39404 23.5894C4.17743 23.4643 3.99658 23.2856 3.8688 23.0706C3.74103 22.8555 3.67061 22.6112 3.6643 22.3611C3.65798 22.1111 3.71597 21.8636 3.83273 21.6423C4.32966 20.7146 5.06878 19.9389 5.97147 19.3978C6.87415 18.8566 7.90664 18.5703 8.95908 18.5693Z" fill="var(--fill-0, white)"/>
</g>
</svg>
