<svg preserveAspectRatio="none" width="100%" height="100%" overflow="visible" style="display: block;" viewBox="0 0 30.6667 30.6667" fill="none" xmlns="http://www.w3.org/2000/svg">
<g id="fi_1421876" clip-path="url(#clip0_0_5)">
<path id="Vector" d="M0.898438 16.2318H29.7682C30.2645 16.2318 30.6667 15.8296 30.6667 15.3333C30.6667 6.82275 23.7078 0 15.3333 0C6.89037 0 0 6.88686 0 15.3333C0 15.8296 0.402191 16.2318 0.898438 16.2318ZM3.38131 8.98368H7.95469C7.55413 10.6856 7.31806 12.529 7.2612 14.4349H1.82753C1.95644 12.4759 2.50393 10.6289 3.38131 8.98368ZM28.8392 14.4349H23.4651C23.4074 12.5306 23.1675 10.6877 22.7611 8.98438H27.2854C28.1628 10.6296 28.7102 12.4759 28.8392 14.4349ZM21.6676 14.4349H16.2318V8.98438H20.9104C21.3473 10.6636 21.606 12.5112 21.6676 14.4349ZM16.2318 7.1875V1.94942C18.2378 2.62372 19.6208 5.19901 20.3513 7.1875H16.2318ZM14.4349 1.95059V7.1875H10.3545C11.0732 5.20392 12.4371 2.6277 14.4349 1.95059ZM14.4349 8.98438V14.4349H9.05878C9.11938 12.5096 9.37394 10.6619 9.8035 8.98438H14.4349ZM26.1373 7.1875H22.2527C21.7237 5.58459 20.9593 3.93067 19.9072 2.59284C22.405 3.49244 24.5643 5.10636 26.1373 7.1875ZM10.7845 2.58418C9.73589 3.92388 8.97877 5.58201 8.45608 7.1875H4.52939C6.10774 5.09957 8.27616 3.48168 10.7845 2.58418Z" fill="var(--fill-0, white)"/>
<path id="Vector_2" d="M7.2474 20.724C7.2474 19.2378 6.03825 18.0286 4.55209 18.0286C3.06311 18.0286 1.79688 19.2322 1.79688 20.724C1.79688 22.2129 3.06054 23.4193 4.55209 23.4193C6.03825 23.4193 7.2474 22.2101 7.2474 20.724ZM4.55209 21.6224C4.04157 21.6224 3.59375 21.2027 3.59375 20.724C3.59375 20.2453 4.04157 19.8255 4.55209 19.8255C5.0474 19.8255 5.45052 20.2286 5.45052 20.724C5.45052 21.2193 5.0474 21.6224 4.55209 21.6224Z" fill="var(--fill-0, white)"/>
<path id="Vector_3" d="M28.8698 20.724C28.8698 19.2378 27.6607 18.0286 26.1745 18.0286C24.6883 18.0286 23.4792 19.2378 23.4792 20.724C23.4792 22.2101 24.6883 23.4193 26.1745 23.4193C27.6607 23.4193 28.8698 22.2101 28.8698 20.724ZM26.1745 21.6224C25.6792 21.6224 25.2761 21.2193 25.2761 20.724C25.2761 20.2286 25.6792 19.8255 26.1745 19.8255C26.6698 19.8255 27.0729 20.2286 27.0729 20.724C27.0729 21.2193 26.6698 21.6224 26.1745 21.6224Z" fill="var(--fill-0, white)"/>
<path id="Vector_4" d="M18.0287 20.724C18.0287 19.2378 16.8195 18.0286 15.3333 18.0286C13.8472 18.0286 12.638 19.2378 12.638 20.724C12.638 22.2101 13.8472 23.4193 15.3333 23.4193C16.8195 23.4193 18.0287 22.2101 18.0287 20.724ZM15.3333 21.6224C14.838 21.6224 14.4349 21.2193 14.4349 20.724C14.4349 20.2286 14.838 19.8255 15.3333 19.8255C15.8287 19.8255 16.2318 20.2286 16.2318 20.724C16.2318 21.2193 15.8287 21.6224 15.3333 21.6224Z" fill="var(--fill-0, white)"/>
<path id="Vector_5" d="M0.898438 30.6667H8.14584C8.64209 30.6667 9.04428 30.2645 9.04428 29.7682V26.1146C9.04428 24.6284 7.83513 23.4193 6.34896 23.4193H2.69531C1.20915 23.4193 0 24.6284 0 26.1146V29.7682C0 30.2645 0.402191 30.6667 0.898438 30.6667ZM1.79688 26.1146C1.79688 25.6193 2.2 25.2161 2.69531 25.2161H6.34896C6.84427 25.2161 7.2474 25.6193 7.2474 26.1146V28.8698H1.79688V26.1146Z" fill="var(--fill-0, white)"/>
<path id="Vector_6" d="M10.8411 26.1146V29.7682C10.8411 30.2645 11.2433 30.6667 11.7396 30.6667H18.9271C19.4233 30.6667 19.8255 30.2645 19.8255 29.7682V26.1146C19.8255 24.6284 18.6164 23.4193 17.1302 23.4193H13.5365C12.0503 23.4193 10.8411 24.6284 10.8411 26.1146ZM17.1302 25.2161C17.6255 25.2161 18.0287 25.6193 18.0287 26.1146V28.8698H12.638V26.1146C12.638 25.6193 13.0412 25.2161 13.5365 25.2161H17.1302Z" fill="var(--fill-0, white)"/>
<path id="Vector_7" d="M21.6823 26.1146V29.7682C21.6823 30.2645 22.0845 30.6667 22.5807 30.6667H29.7683C30.2645 30.6667 30.6667 30.2645 30.6667 29.7682V26.1146C30.6667 24.6284 29.4575 23.4193 27.9714 23.4193H24.3776C22.8915 23.4193 21.6823 24.6284 21.6823 26.1146ZM27.9714 25.2161C28.4667 25.2161 28.8698 25.6193 28.8698 26.1146V28.8698H23.4792V26.1146C23.4792 25.6193 23.8823 25.2161 24.3776 25.2161H27.9714Z" fill="var(--fill-0, white)"/>
</g>
<defs>
<clipPath id="clip0_0_5">
<rect width="30.6667" height="30.6667" fill="white"/>
</clipPath>
</defs>
</svg>
