<svg preserveAspectRatio="none" width="100%" height="100%" overflow="visible" style="display: block;" viewBox="0 0 32 32" fill="none" xmlns="http://www.w3.org/2000/svg">
<g id="fi_8569777">
<path id="Vector" d="M31.0625 21.5896H29.9916V7.46455C29.9916 5.85461 28.6909 4.51874 27.0458 4.51874H4.95419C3.33794 4.51874 2.00837 5.82543 2.00837 7.46455V21.5896H0.9375C0.41975 21.5896 0 22.0093 0 22.5271V24.5354C0 26.145 1.30025 27.4812 2.94581 27.4812H29.0541C30.6701 27.4812 32 26.175 32 24.5354V22.5271C32 22.0093 31.5803 21.5896 31.0625 21.5896ZM3.88331 7.46455C3.88331 6.87461 4.36069 6.39374 4.95412 6.39374H27.0458C27.6371 6.39374 28.1166 6.8723 28.1166 7.46455V21.5896H23.4059C23.0726 18.9416 21.3466 16.7214 18.987 15.6869C21.59 13.0879 19.7184 8.52655 15.9999 8.53543C12.2816 8.52655 10.4098 13.0886 13.013 15.6869C10.6534 16.7213 8.92744 18.9416 8.59419 21.5896H3.88331V7.46455ZM16 16.9375C18.7627 16.9375 21.0633 18.9523 21.5106 21.5896H19.0125C18.7639 21.5896 18.5254 21.6883 18.3496 21.8641C18.205 22.0087 18.0048 22.0917 17.8004 22.0917H14.1996C13.9953 22.0917 13.7951 22.0087 13.6503 21.864C13.4744 21.6882 13.2361 21.5896 12.9875 21.5896H10.4895C10.9368 18.9523 13.2373 16.9375 16 16.9375ZM13.6739 12.7364C13.6739 11.4539 14.7174 10.4104 16 10.4104C19.0816 10.5274 19.0807 14.9461 16 15.0625C14.7174 15.0625 13.6739 14.0191 13.6739 12.7364ZM30.125 24.5354C30.125 25.1254 29.6476 25.6062 29.0541 25.6062H2.94581C2.35456 25.6062 1.875 25.1276 1.875 24.5354V23.4646H12.6461C13.0953 23.7906 13.6339 23.9667 14.1996 23.9667H17.8004C18.366 23.9667 18.9047 23.7907 19.3539 23.4646H30.125V24.5354Z" fill="var(--fill-0, white)"/>
</g>
</svg>
