<svg preserveAspectRatio="none" width="100%" height="100%" overflow="visible" style="display: block;" viewBox="0 0 35.5098 35.5098" fill="none" xmlns="http://www.w3.org/2000/svg">
<g id="fi_15886140">
<path id="Vector" fill-rule="evenodd" clip-rule="evenodd" d="M3.24318 11.996C2.25477 12.3379 2.24495 13.7323 3.22848 14.0882L9.15508 16.2324V23.293C9.15508 24.0382 9.58156 24.7178 10.2526 25.0418L15.4662 27.5592C16.9148 28.2586 18.6036 28.2584 20.0519 27.5582L25.2583 25.0418C25.929 24.7176 26.3551 24.0383 26.3551 23.2933V16.1158L29.4067 15.0016V23.1529C28.2813 23.5065 27.4648 24.558 27.4648 25.8001V26.6324C27.4648 27.858 28.4585 28.8518 29.6842 28.8518H30.7938C32.0195 28.8518 33.0132 27.858 33.0132 26.6324V25.8001C33.0132 24.558 32.1968 23.5065 31.0713 23.1529V14.3939L32.2778 13.9534C33.2634 13.5935 33.2451 12.1933 32.2506 11.8591L18.7219 7.31343C18.0824 7.09856 17.3897 7.10167 16.7522 7.32225L3.24318 11.996ZM27.6458 12.0679L18.1917 8.89128C17.9011 8.7936 17.5862 8.79501 17.2964 8.89527L5.26918 13.0564L17.1572 17.3575C17.4635 17.4683 17.799 17.4678 18.1049 17.3561L28.0296 13.7324H17.8938C17.4342 13.7324 17.0616 13.3598 17.0616 12.9001C17.0616 12.4405 17.4342 12.0679 17.8938 12.0679H27.6458ZM30.239 24.6905C29.6262 24.6905 29.1293 25.1873 29.1293 25.8001V26.6324C29.1293 26.9388 29.3776 27.1872 29.6842 27.1872H30.7938C31.1004 27.1872 31.3487 26.9388 31.3487 26.6324V25.8001C31.3487 25.1873 30.8518 24.6905 30.239 24.6905ZM10.8196 23.293V16.8346L16.5909 18.9227C17.2647 19.1665 18.0028 19.1654 18.6758 18.9197L24.6906 16.7235V23.2933C24.6906 23.3998 24.6297 23.4968 24.5339 23.5431L19.3276 26.0596C18.3366 26.5386 17.1811 26.5388 16.19 26.0602L10.9764 23.5429C10.8805 23.4966 10.8196 23.3995 10.8196 23.293Z" fill="var(--fill-0, white)"/>
</g>
</svg>
