<svg width="1508" height="171" viewBox="0 0 1508 171" fill="none" xmlns="http://www.w3.org/2000/svg">
<mask id="path-1-inside-1_48_5985" fill="white">
<path d="M1.49117e-05 -4.88162e-06L573.872 4.52879e-05L605.61 34L754 34.0001L754 122.773L408.113 122.773L357.244 170.57L0 170.57L1.49117e-05 -4.88162e-06Z"/>
</mask>
<path d="M1.49117e-05 -4.88162e-06L573.872 4.52879e-05L605.61 34L754 34.0001L754 122.773L408.113 122.773L357.244 170.57L0 170.57L1.49117e-05 -4.88162e-06Z" fill="white"/>
<path d="M1.49117e-05 -4.88162e-06L1.50012e-05 -1.02308L-1.02306 -1.02308L-1.02306 -4.97106e-06L1.49117e-05 -4.88162e-06ZM573.872 4.52879e-05L574.62 -0.698075L574.317 -1.02303L573.872 -1.02303L573.872 4.52879e-05ZM605.61 34L604.862 34.6982L605.166 35.0231L605.61 35.0231L605.61 34ZM754 34.0001L755.023 34.0001L755.023 32.977L754 32.977L754 34.0001ZM754 122.773L754 123.797L755.023 123.797L755.023 122.773L754 122.773ZM408.113 122.773L408.113 121.75L407.708 121.75L407.413 122.028L408.113 122.773ZM357.244 170.57L357.244 171.593L357.649 171.593L357.945 171.316L357.244 170.57ZM0 170.57L-1.02307 170.57L-1.02307 171.593L-8.94394e-08 171.593L0 170.57ZM1.49117e-05 -4.88162e-06L1.48223e-05 1.02307L573.872 1.02312L573.872 4.52879e-05L573.872 -1.02303L1.50012e-05 -1.02308L1.49117e-05 -4.88162e-06ZM573.872 4.52879e-05L573.124 0.698165L604.862 34.6982L605.61 34L606.358 33.3019L574.62 -0.698075L573.872 4.52879e-05ZM605.61 34L605.61 35.0231L754 35.0231L754 34.0001L754 32.977L605.61 32.977L605.61 34ZM754 34.0001L752.977 34.0001L752.977 122.773L754 122.773L755.023 122.773L755.023 34.0001L754 34.0001ZM754 122.773L754 121.75L408.113 121.75L408.113 122.773L408.113 123.797L754 123.797L754 122.773ZM408.113 122.773L407.413 122.028L356.544 169.825L357.244 170.57L357.945 171.316L408.814 123.519L408.113 122.773ZM357.244 170.57L357.244 169.547L8.94394e-08 169.547L0 170.57L-8.94394e-08 171.593L357.244 171.593L357.244 170.57ZM0 170.57L1.02307 170.57L1.02309 -4.79218e-06L1.49117e-05 -4.88162e-06L-1.02306 -4.97106e-06L-1.02307 170.57L0 170.57Z" fill="url(#paint0_linear_48_5985)" fill-opacity="0.2" mask="url(#path-1-inside-1_48_5985)"/>
<mask id="path-3-inside-2_48_5985" fill="white">
<path d="M1508 5.61535e-05L934.128 0.000106323L902.39 34.0001L754 34.0001L754 122.774L1099.89 122.774L1150.76 170.57L1508 170.57L1508 5.61535e-05Z"/>
</mask>
<path d="M1508 5.61535e-05L934.128 0.000106323L902.39 34.0001L754 34.0001L754 122.774L1099.89 122.774L1150.76 170.57L1508 170.57L1508 5.61535e-05Z" fill="white"/>
<path d="M1508 5.61535e-05L1508 -1.02302L1509.02 -1.02302L1509.02 5.60641e-05L1508 5.61535e-05ZM934.128 0.000106323L933.38 -0.698014L933.683 -1.02296L934.128 -1.02296L934.128 0.000106323ZM902.39 34.0001L903.138 34.6982L902.834 35.0232L902.39 35.0232L902.39 34.0001ZM754 34.0001L752.977 34.0001L752.977 32.9771L754 32.9771L754 34.0001ZM754 122.774L754 123.797L752.977 123.797L752.977 122.774L754 122.774ZM1099.89 122.774L1099.89 121.75L1100.29 121.75L1100.59 122.028L1099.89 122.774ZM1150.76 170.57L1150.76 171.593L1150.35 171.593L1150.06 171.316L1150.76 170.57ZM1508 170.57L1509.02 170.57L1509.02 171.593L1508 171.593L1508 170.57ZM1508 5.61535e-05L1508 1.02313L934.128 1.02318L934.128 0.000106323L934.128 -1.02296L1508 -1.02302L1508 5.61535e-05ZM934.128 0.000106323L934.876 0.698226L903.138 34.6982L902.39 34.0001L901.642 33.302L933.38 -0.698014L934.128 0.000106323ZM902.39 34.0001L902.39 35.0232L754 35.0232L754 34.0001L754 32.9771L902.39 32.977L902.39 34.0001ZM754 34.0001L755.023 34.0001L755.023 122.774L754 122.774L752.977 122.774L752.977 34.0001L754 34.0001ZM754 122.774L754 121.75L1099.89 121.75L1099.89 122.774L1099.89 123.797L754 123.797L754 122.774ZM1099.89 122.774L1100.59 122.028L1151.46 169.825L1150.76 170.57L1150.06 171.316L1099.19 123.519L1099.89 122.774ZM1150.76 170.57L1150.76 169.547L1508 169.547L1508 170.57L1508 171.593L1150.76 171.593L1150.76 170.57ZM1508 170.57L1506.98 170.57L1506.98 5.6243e-05L1508 5.61535e-05L1509.02 5.60641e-05L1509.02 170.57L1508 170.57Z" fill="url(#paint1_linear_48_5985)" fill-opacity="0.2" mask="url(#path-3-inside-2_48_5985)"/>
<rect x="694" y="35" width="122" height="87" fill="white"/>
<defs>
<linearGradient id="paint0_linear_48_5985" x1="739.166" y1="142.671" x2="443.934" y2="-250.67" gradientUnits="userSpaceOnUse">
<stop/>
<stop offset="1" stop-opacity="0"/>
</linearGradient>
<linearGradient id="paint1_linear_48_5985" x1="768.834" y1="142.671" x2="1064.07" y2="-250.67" gradientUnits="userSpaceOnUse">
<stop/>
<stop offset="1" stop-opacity="0"/>
</linearGradient>
</defs>
</svg>
