<svg width="293" height="117" viewBox="0 0 293 117" fill="none" xmlns="http://www.w3.org/2000/svg">
<g filter="url(#filter0_ii_6_700)">
<path d="M0 40H0.87793V77H1V117H99.8779L118.028 84H292.878V33H117.028L98.8779 0H0V40Z" fill="url(#paint0_linear_6_700)"/>
</g>
<mask id="mask0_6_700" style="mask-type:alpha" maskUnits="userSpaceOnUse" x="0" y="0" width="293" height="117">
<path d="M0 40H0.87793V77H1V117H99.8779L118.028 84H292.878V33H117.028L98.8779 0H0V40Z" fill="url(#paint1_linear_6_700)"/>
</mask>
<g mask="url(#mask0_6_700)">
<g filter="url(#filter1_f_6_700)">
<path d="M-193.122 58.5C-193.122 125.05 -139.172 179 -72.6221 179C-6.07176 179 47.8779 125.05 47.8779 58.5C47.8779 -8.05031 -6.07176 -62 -72.6221 -62C-139.172 -62 -193.122 -8.05031 -193.122 58.5ZM-9.30379 58.5C-9.30379 93.4697 -37.6523 121.818 -72.6221 121.818C-107.592 121.818 -135.94 93.4697 -135.94 58.5C-135.94 23.5303 -107.592 -4.81828 -72.6221 -4.81828C-37.6523 -4.81828 -9.30379 23.5303 -9.30379 58.5Z" fill="white"/>
</g>
</g>
<defs>
<filter id="filter0_ii_6_700" x="0" y="0" width="292.878" height="117" filterUnits="userSpaceOnUse" color-interpolation-filters="sRGB">
<feFlood flood-opacity="0" result="BackgroundImageFix"/>
<feBlend mode="normal" in="SourceGraphic" in2="BackgroundImageFix" result="shape"/>
<feColorMatrix in="SourceAlpha" type="matrix" values="0 0 0 0 0 0 0 0 0 0 0 0 0 0 0 0 0 0 127 0" result="hardAlpha"/>
<feOffset/>
<feGaussianBlur stdDeviation="10.1"/>
<feComposite in2="hardAlpha" operator="arithmetic" k2="-1" k3="1"/>
<feColorMatrix type="matrix" values="0 0 0 0 1 0 0 0 0 1 0 0 0 0 1 0 0 0 1 0"/>
<feBlend mode="normal" in2="shape" result="effect1_innerShadow_6_700"/>
<feColorMatrix in="SourceAlpha" type="matrix" values="0 0 0 0 0 0 0 0 0 0 0 0 0 0 0 0 0 0 127 0" result="hardAlpha"/>
<feOffset/>
<feGaussianBlur stdDeviation="4.45"/>
<feComposite in2="hardAlpha" operator="arithmetic" k2="-1" k3="1"/>
<feColorMatrix type="matrix" values="0 0 0 0 1 0 0 0 0 1 0 0 0 0 1 0 0 0 1 0"/>
<feBlend mode="normal" in2="effect1_innerShadow_6_700" result="effect2_innerShadow_6_700"/>
</filter>
<filter id="filter1_f_6_700" x="-245.922" y="-114.8" width="346.6" height="346.6" filterUnits="userSpaceOnUse" color-interpolation-filters="sRGB">
<feFlood flood-opacity="0" result="BackgroundImageFix"/>
<feBlend mode="normal" in="SourceGraphic" in2="BackgroundImageFix" result="shape"/>
<feGaussianBlur stdDeviation="26.4" result="effect1_foregroundBlur_6_700"/>
</filter>
<linearGradient id="paint0_linear_6_700" x1="0" y1="58.5" x2="292.878" y2="58.5" gradientUnits="userSpaceOnUse">
<stop offset="0.279733" stop-color="#6573FF"/>
<stop offset="1" stop-color="#2639ED" stop-opacity="0"/>
</linearGradient>
<linearGradient id="paint1_linear_6_700" x1="0" y1="58.5" x2="292.878" y2="58.5" gradientUnits="userSpaceOnUse">
<stop offset="0.279733" stop-color="#6573FF"/>
<stop offset="1" stop-color="#2639ED" stop-opacity="0"/>
</linearGradient>
</defs>
</svg>
