<svg width="293" height="117" viewBox="0 0 293 117" fill="none" xmlns="http://www.w3.org/2000/svg">
<g filter="url(#filter0_ii_6_705)">
<path d="M292.878 40H292V77H291.878V117H193L174.85 84H0V33H175.85L194 0H292.878V40Z" fill="url(#paint0_linear_6_705)"/>
</g>
<mask id="mask0_6_705" style="mask-type:alpha" maskUnits="userSpaceOnUse" x="0" y="0" width="293" height="117">
<path d="M292.878 40H292V77H291.878V117H193L174.85 84H0V33H175.85L194 0H292.878V40Z" fill="url(#paint1_linear_6_705)"/>
</mask>
<g mask="url(#mask0_6_705)">
<g filter="url(#filter1_f_6_705)">
<path d="M486 58.5C486 125.05 432.05 179 365.5 179C298.95 179 245 125.05 245 58.5C245 -8.05031 298.95 -62 365.5 -62C432.05 -62 486 -8.05031 486 58.5ZM302.182 58.5C302.182 93.4697 330.53 121.818 365.5 121.818C400.47 121.818 428.818 93.4697 428.818 58.5C428.818 23.5303 400.47 -4.81828 365.5 -4.81828C330.53 -4.81828 302.182 23.5303 302.182 58.5Z" fill="white"/>
</g>
</g>
<defs>
<filter id="filter0_ii_6_705" x="0" y="0" width="292.878" height="117" filterUnits="userSpaceOnUse" color-interpolation-filters="sRGB">
<feFlood flood-opacity="0" result="BackgroundImageFix"/>
<feBlend mode="normal" in="SourceGraphic" in2="BackgroundImageFix" result="shape"/>
<feColorMatrix in="SourceAlpha" type="matrix" values="0 0 0 0 0 0 0 0 0 0 0 0 0 0 0 0 0 0 127 0" result="hardAlpha"/>
<feOffset/>
<feGaussianBlur stdDeviation="10.1"/>
<feComposite in2="hardAlpha" operator="arithmetic" k2="-1" k3="1"/>
<feColorMatrix type="matrix" values="0 0 0 0 1 0 0 0 0 1 0 0 0 0 1 0 0 0 1 0"/>
<feBlend mode="normal" in2="shape" result="effect1_innerShadow_6_705"/>
<feColorMatrix in="SourceAlpha" type="matrix" values="0 0 0 0 0 0 0 0 0 0 0 0 0 0 0 0 0 0 127 0" result="hardAlpha"/>
<feOffset/>
<feGaussianBlur stdDeviation="4.45"/>
<feComposite in2="hardAlpha" operator="arithmetic" k2="-1" k3="1"/>
<feColorMatrix type="matrix" values="0 0 0 0 1 0 0 0 0 1 0 0 0 0 1 0 0 0 1 0"/>
<feBlend mode="normal" in2="effect1_innerShadow_6_705" result="effect2_innerShadow_6_705"/>
</filter>
<filter id="filter1_f_6_705" x="192.2" y="-114.8" width="346.6" height="346.6" filterUnits="userSpaceOnUse" color-interpolation-filters="sRGB">
<feFlood flood-opacity="0" result="BackgroundImageFix"/>
<feBlend mode="normal" in="SourceGraphic" in2="BackgroundImageFix" result="shape"/>
<feGaussianBlur stdDeviation="26.4" result="effect1_foregroundBlur_6_705"/>
</filter>
<linearGradient id="paint0_linear_6_705" x1="292.878" y1="58.5" x2="0" y2="58.5" gradientUnits="userSpaceOnUse">
<stop offset="0.279733" stop-color="#6573FF"/>
<stop offset="1" stop-color="#2639ED" stop-opacity="0"/>
</linearGradient>
<linearGradient id="paint1_linear_6_705" x1="292.878" y1="58.5" x2="0" y2="58.5" gradientUnits="userSpaceOnUse">
<stop offset="0.279733" stop-color="#6573FF"/>
<stop offset="1" stop-color="#2639ED" stop-opacity="0"/>
</linearGradient>
</defs>
</svg>
