<svg width="763" height="174" viewBox="0 0 763 174" fill="none" xmlns="http://www.w3.org/2000/svg">
<defs>
  <filter id="filter0_fn_10_179" x="22.3429" y="44.358" width="717.653" height="111.041" filterUnits="userSpaceOnUse" color-interpolation-filters="sRGB">
    <feFlood flood-opacity="0" result="BackgroundImageFix"/>
    <feBlend mode="normal" in="SourceGraphic" in2="BackgroundImageFix" result="shape"/>
    <feGaussianBlur stdDeviation="10.2" result="effect1_foregroundBlur_10_179"/>
    <feTurbulence type="fractalNoise" baseFrequency="0.27027025818824768 0.43478262424468994" stitchTiles="stitch" numOctaves="3" result="noise" seed="4246" />
    <feComponentTransfer in="noise" result="coloredNoise1">
      <feFuncR type="linear" slope="2" intercept="-0.5" />
      <feFuncG type="linear" slope="2" intercept="-0.5" />
      <feFuncB type="linear" slope="2" intercept="-0.5" />
      <feFuncA type="discrete" tableValues="0 0 0 0 0 0 0 0 0 0 0 0 0 0 1 1 1 1 1 1 1 1 1 1 1 1 1 1 1 1 1 1 1 1 1 1 1 0 0 0 0 0 0 0 0 0 0 0 0 0 0 0 0 0 0 0 0 0 0 0 0 0 0 0 0 0 0 0 0 0 0 0 0 0 0 0 0 0 0 0 0 0 0 0 0 0 0 0 0 0 0 0 0 0 0 0 0 0 0 0 "/>
    </feComponentTransfer>
    <feComposite operator="in" in2="effect1_foregroundBlur_10_179" in="coloredNoise1" result="noise1Clipped" />
    <feComponentTransfer in="noise1Clipped" result="color1">
      <feFuncA type="table" tableValues="0 0.23" />
    </feComponentTransfer>
    <feMerge result="effect2_noise_10_179">
      <feMergeNode in="effect1_foregroundBlur_10_179" />
      <feMergeNode in="color1" />
    </feMerge>
  </filter>
  <filter id="filter1_f_10_179" x="315.8" y="118.8" width="131.4" height="28.4" filterUnits="userSpaceOnUse" color-interpolation-filters="sRGB">
    <feFlood flood-opacity="0" result="BackgroundImageFix"/>
    <feBlend mode="normal" in="SourceGraphic" in2="BackgroundImageFix" result="shape"/>
    <feGaussianBlur stdDeviation="0" result="effect1_foregroundBlur_10_179"/>
  </filter>
  <filter id="filter2_f_10_179" x="289.1" y="92.1" width="184.8" height="81.8" filterUnits="userSpaceOnUse" color-interpolation-filters="sRGB">
    <feFlood flood-opacity="0" result="BackgroundImageFix"/>
    <feBlend mode="normal" in="SourceGraphic" in2="BackgroundImageFix" result="shape"/>
    <feGaussianBlur stdDeviation="0" result="effect1_foregroundBlur_10_179"/>
  </filter>
  <linearGradient id="paint0_linear_10_179" x1="381.5" y1="17" x2="381.5" y2="113" gradientUnits="userSpaceOnUse">
    <stop offset="0.387027" stop-color="white" stop-opacity="0"/>
    <stop offset="1" stop-color="white"/>
  </linearGradient>
  <linearGradient id="paint1_linear_10_179" x1="381.5" y1="29" x2="381.5" y2="135" gradientUnits="userSpaceOnUse">
    <stop offset="0.387027" stop-color="white" stop-opacity="0"/>
    <stop offset="1" stop-color="white"/>
  </linearGradient>
  <linearGradient id="paint2_linear_10_179" x1="381" y1="0" x2="381" y2="90" gradientUnits="userSpaceOnUse">
    <stop offset="0.387027" stop-color="white" stop-opacity="0"/>
    <stop offset="1" stop-color="white"/>
  </linearGradient>
  <linearGradient id="paint3_linear_10_179" x1="32" y1="98.2477" x2="730.339" y2="98.2477" gradientUnits="userSpaceOnUse">
    <stop offset="0.0731822" stop-color="white" stop-opacity="0"/>
    <stop offset="0.210654" stop-color="white"/>
    <stop offset="0.805359" stop-color="white"/>
    <stop offset="0.939617" stop-color="white" stop-opacity="0"/>
  </linearGradient>
  <linearGradient id="paint4_linear_10_179" x1="32" y1="98.2477" x2="730.339" y2="98.2477" gradientUnits="userSpaceOnUse">
    <stop offset="0.0731822" stop-color="white" stop-opacity="0"/>
    <stop offset="0.210654" stop-color="white"/>
    <stop offset="0.805359" stop-color="white"/>
    <stop offset="0.939617" stop-color="white" stop-opacity="0"/>
  </linearGradient>
  <linearGradient id="paint5_linear_10_179" x1="88" y1="58.5004" x2="675" y2="58.5004" gradientUnits="userSpaceOnUse">
    <stop offset="0.0731822" stop-color="#2639ED" stop-opacity="0"/>
    <stop offset="0.210654" stop-color="#2639ED"/>
    <stop offset="0.805359" stop-color="#2639ED"/>
    <stop offset="0.939617" stop-color="#2639ED" stop-opacity="0"/>
  </linearGradient>

  <!-- clip paths matching each trapezoid shape so the glow stays inside -->
  <clipPath id="clip_outer1">
    <path d="M54.9775 29.25H708.022C730.701 29.25 743.804 54.9771 730.468 73.3193L694.113 123.319C688.892 130.501 680.548 134.75 671.669 134.75H91.3311C82.4517 134.75 74.1085 130.501 68.8867 123.319L32.5322 73.3193C19.1959 54.9771 32.2994 29.25 54.9775 29.25Z"/>
  </clipPath>
  <clipPath id="clip_inner">
    <path d="M620.967 61.2512L638.995 36.3435C642.849 31.018 649.732 28.8379 655.95 30.973C665.433 34.2292 669.08 45.7169 663.212 53.847L644.442 79.8549C640.013 85.9913 632.937 89.622 625.406 89.622H137.594C130.063 89.622 122.987 85.9913 118.558 79.8549L99.7875 53.847C93.9199 45.7169 97.5673 34.2292 107.05 30.973C113.268 28.8379 120.151 31.018 124.005 36.3436L142.033 61.2512C146.464 67.3723 153.531 70.9922 161.05 70.9922H601.95C609.469 70.9922 616.536 67.3723 620.967 61.2512Z"/>
  </clipPath>
</defs>

<!-- original static shapes -->
<path d="M90.0693 17.25H672.931C695.626 17.2504 708.724 43.0116 695.353 61.3496L666.186 101.35C660.962 108.513 652.63 112.75 643.764 112.75H119.236C110.37 112.75 102.038 108.513 96.8145 101.35L67.6475 61.3496C54.276 43.0116 67.3742 17.2504 90.0693 17.25Z" stroke="url(#paint0_linear_10_179)" stroke-opacity="0.24" stroke-width="0.5"/>
<path d="M54.9775 29.25H708.022C730.701 29.25 743.804 54.9771 730.468 73.3193L694.113 123.319C688.892 130.501 680.548 134.75 671.669 134.75H91.3311C82.4517 134.75 74.1085 130.501 68.8867 123.319L32.5322 73.3193C19.1959 54.9771 32.2994 29.25 54.9775 29.25Z" stroke="url(#paint1_linear_10_179)" stroke-opacity="0.5" stroke-width="0.5"/>
<path d="M113.786 0.25H648.214C670.856 0.25 683.968 25.9051 670.704 44.2559L646.13 78.2559C640.912 85.4746 632.547 89.7499 623.64 89.75H138.36C129.453 89.7499 121.088 85.4746 115.87 78.2559L91.2959 44.2559C78.0323 25.9051 91.1439 0.25 113.786 0.25Z" stroke="url(#paint2_linear_10_179)" stroke-opacity="0.1" stroke-width="0.5"/>
<path d="M666.057 101.496L687.534 72.0428C692.108 65.77 700.231 63.2026 707.579 65.7073C718.881 69.5596 723.22 83.2565 716.198 92.9141L693.985 123.465C688.716 130.712 680.298 134.999 671.338 134.999H91.0008C82.0413 134.999 73.6229 130.712 68.3541 123.465L46.1409 92.9141C39.119 83.2565 43.4584 69.5596 54.7605 65.7073C62.1086 63.2026 70.2316 65.77 74.8055 72.0428L96.2819 101.496C101.553 108.725 109.96 112.999 118.906 112.999H643.433C652.379 112.999 660.787 108.725 666.057 101.496Z" fill="url(#paint3_linear_10_179)" fill-opacity="0.07"/>
<g filter="url(#filter0_fn_10_179)" style="mix-blend-mode:plus-lighter">
  <path d="M666.057 101.496L687.534 72.0428C692.108 65.77 700.231 63.2026 707.579 65.7073C718.881 69.5596 723.22 83.2565 716.198 92.9141L693.985 123.465C688.716 130.712 680.298 134.999 671.338 134.999H91.0008C82.0413 134.999 73.6229 130.712 68.3541 123.465L46.1409 92.9141C39.119 83.2565 43.4584 69.5596 54.7605 65.7073C62.1086 63.2026 70.2316 65.77 74.8055 72.0428L96.2819 101.496C101.553 108.725 109.96 112.999 118.906 112.999H643.433C652.379 112.999 660.787 108.725 666.057 101.496Z" fill="url(#paint4_linear_10_179)" fill-opacity="0.2"/>
</g>
<path d="M620.967 61.2512L638.995 36.3435C642.849 31.018 649.732 28.8379 655.95 30.973C665.433 34.2292 669.08 45.7169 663.212 53.847L644.442 79.8549C640.013 85.9913 632.937 89.622 625.406 89.622H137.594C130.063 89.622 122.987 85.9913 118.558 79.8549L99.7875 53.847C93.9199 45.7169 97.5673 34.2292 107.05 30.973C113.268 28.8379 120.151 31.018 124.005 36.3436L142.033 61.2512C146.464 67.3723 153.531 70.9922 161.05 70.9922H601.95C609.469 70.9922 616.536 67.3723 620.967 61.2512Z" fill="url(#paint5_linear_10_179)" fill-opacity="0.07"/>


<g filter="url(#filter1_f_10_179)">
  <path d="M358 131H405L435 135H328L358 131Z" fill="#D9D9D9"/>
</g>
<g filter="url(#filter2_f_10_179)" style="mix-blend-mode:plus-lighter">
  <path d="M358 131H405L435 135H328L358 131Z" fill="#D9D9D9"/>
</g>
</svg>
