<svg width="570" height="60" viewBox="0 0 570 60" fill="none" xmlns="http://www.w3.org/2000/svg">
<path d="M524.012 31.0892L542.04 6.18155C545.895 0.85603 552.777 -1.3241 558.995 0.810979C568.478 4.06723 572.125 15.555 566.258 23.685L547.487 49.6929C543.058 55.8293 535.982 59.46 528.451 59.46H40.6391C33.1081 59.46 26.0319 55.8293 21.6031 49.6929L2.83265 23.685C-3.03499 15.5549 0.612378 4.06723 10.0952 0.810972C16.3129 -1.32411 23.1957 0.856041 27.0503 6.18157L45.0782 31.0892C49.5086 37.2103 56.5756 40.8302 64.0953 40.8302H504.995C512.515 40.8302 519.582 37.2103 524.012 31.0892Z" fill="url(#paint0_linear_10_185)" fill-opacity="0.07"/>
<defs>
<linearGradient id="paint0_linear_10_185" x1="-8.9549" y1="28.3385" x2="578.045" y2="28.3385" gradientUnits="userSpaceOnUse">
<stop offset="0.0731822" stop-color="#2639ED" stop-opacity="0"/>
<stop offset="0.210654" stop-color="#2639ED"/>
<stop offset="0.805359" stop-color="#2639ED"/>
<stop offset="0.939617" stop-color="#2639ED" stop-opacity="0"/>
</linearGradient>
</defs>
</svg>
