<svg width="718" height="112" viewBox="0 0 718 112" fill="none" xmlns="http://www.w3.org/2000/svg">
<g filter="url(#filter0_fn_10_184)" style="mix-blend-mode:plus-lighter">
<path d="M643.714 57.1381L665.191 27.6848C669.765 21.412 677.888 18.8446 685.236 21.3493C696.538 25.2016 700.877 38.8985 693.855 48.5562L671.642 79.1073C666.373 86.3538 657.955 90.6413 648.995 90.6413H68.6579C59.6984 90.6413 51.28 86.3538 46.0112 79.1073L23.798 48.5561C16.7761 38.8985 21.1155 25.2016 32.4175 21.3493C39.7657 18.8446 47.8887 21.412 52.4626 27.6848L73.9389 57.1381C79.2097 64.3666 87.6171 68.6413 96.5631 68.6413H621.09C630.036 68.6413 638.444 64.3666 643.714 57.1381Z" fill="url(#paint0_linear_10_184)" fill-opacity="0.2"/>
</g>
<defs>
<filter id="filter0_fn_10_184" x="-5.72205e-06" y="-5.72205e-06" width="717.653" height="111.041" filterUnits="userSpaceOnUse" color-interpolation-filters="sRGB">
<feFlood flood-opacity="0" result="BackgroundImageFix"/>
<feBlend mode="normal" in="SourceGraphic" in2="BackgroundImageFix" result="shape"/>
<feGaussianBlur stdDeviation="10.2" result="effect1_foregroundBlur_10_184"/>
<feTurbulence type="fractalNoise" baseFrequency="0.27027025818824768 0.43478262424468994" stitchTiles="stitch" numOctaves="3" result="noise" seed="4246" />
<feComponentTransfer in="noise" result="coloredNoise1">
<feFuncR type="linear" slope="2" intercept="-0.5" />
<feFuncG type="linear" slope="2" intercept="-0.5" />
<feFuncB type="linear" slope="2" intercept="-0.5" />
<feFuncA type="discrete" tableValues="0 0 0 0 0 0 0 0 0 0 0 0 0 0 1 1 1 1 1 1 1 1 1 1 1 1 1 1 1 1 1 1 1 1 1 1 1 0 0 0 0 0 0 0 0 0 0 0 0 0 0 0 0 0 0 0 0 0 0 0 0 0 0 0 0 0 0 0 0 0 0 0 0 0 0 0 0 0 0 0 0 0 0 0 0 0 0 0 0 0 0 0 0 0 0 0 0 0 0 0 "/>
</feComponentTransfer>
<feComposite operator="in" in2="effect1_foregroundBlur_10_184" in="coloredNoise1" result="noise1Clipped" />
<feComponentTransfer in="noise1Clipped" result="color1">
<feFuncA type="table" tableValues="0 0.23" />
</feComponentTransfer>
<feMerge result="effect2_noise_10_184">
<feMergeNode in="effect1_foregroundBlur_10_184" />
<feMergeNode in="color1" />
</feMerge>
</filter>
<linearGradient id="paint0_linear_10_184" x1="9.65709" y1="53.8897" x2="707.996" y2="53.8897" gradientUnits="userSpaceOnUse">
<stop offset="0.0731822" stop-color="white" stop-opacity="0"/>
<stop offset="0.210654" stop-color="white"/>
<stop offset="0.805359" stop-color="white"/>
<stop offset="0.939617" stop-color="white" stop-opacity="0"/>
</linearGradient>
</defs>
</svg>
