<svg width="190" height="30" viewBox="0 0 190 30" fill="none" xmlns="http://www.w3.org/2000/svg">
<g clip-path="url(#clip0_2409_32837)">
<path d="M47.0612 3.00132L44.052 7.36928C43.1325 6.94928 42.0459 6.69728 40.9592 6.69728C40.2904 6.69728 39.7054 6.78128 39.1202 6.94928C39.0366 6.94928 38.953 6.94928 38.8694 7.03329C37.9499 7.28528 37.0304 7.62127 36.2781 8.20927C36.1946 8.29327 36.1109 8.29327 36.0274 8.37727C35.3586 8.88126 34.6899 9.46926 34.1884 10.2253C32.2658 12.6613 30.7612 16.1891 28.1699 19.9692C27.9191 20.3051 27.6684 20.7251 27.3339 21.0612C25.3278 23.8331 22.6529 26.1011 19.5601 27.613C19.3929 27.6971 19.2258 27.7811 19.0586 27.8651C18.6406 28.0331 18.1391 28.201 17.7211 28.3691C17.3868 28.4531 17.136 28.5371 16.8016 28.6211C15.9658 28.789 15.0463 28.9571 14.2103 28.9571C14.0431 28.9571 13.876 28.9571 13.6251 28.9571C6.10208 28.9571 0 22.8252 0 15.2652C0 7.70527 6.10208 1.57333 13.6251 1.57333C17.136 1.57333 20.5631 2.91731 23.0709 5.43729L20.0616 9.80525C17.0524 6.10929 11.7026 5.68929 8.19184 8.79727C4.59745 11.8212 4.17951 17.1972 7.18875 20.8091C8.77697 22.7411 11.2011 23.8331 13.6251 23.8331C13.7923 23.8331 13.9596 23.8331 14.2103 23.8331C15.3806 23.7491 16.4673 23.4972 17.4703 22.9092C17.4703 22.9092 17.4703 22.9092 17.5539 22.9092C20.4796 21.5651 22.8201 18.5411 26.8324 11.5692C26.9996 11.3172 27.1668 10.9812 27.3339 10.6453C28.6714 8.20927 30.5104 6.10929 32.6837 4.3453C32.7674 4.26131 32.8509 4.26131 32.9346 4.1773C33.0181 4.09331 33.1852 4.0093 33.2689 3.92531C33.5197 3.75731 33.7704 3.58931 34.0212 3.42132C34.3556 3.25331 34.6899 3.08531 35.0242 2.91731L35.2751 2.74931C35.4422 2.66532 35.6094 2.58132 35.693 2.58132C35.8602 2.49732 36.1109 2.41332 36.2781 2.32933C39.8725 1.06933 43.7177 1.32133 47.0612 3.00132Z" fill="#5022ED"/>
<path d="M54.5834 12.6597V15.2636C54.5834 15.7677 54.5834 16.1877 54.4998 16.6916C54.4163 17.1116 54.4163 17.4477 54.3326 17.8676C52.9116 25.3436 45.8065 30.2155 38.367 28.7875C35.8592 28.2836 33.6023 27.1076 31.6797 25.4276L34.689 21.0596C37.8653 24.5035 43.2151 24.7556 46.6423 21.5635C47.729 20.5556 48.565 19.2956 48.9829 17.8676H40.5403L44.1346 12.6597H54.5834Z" fill="#5022ED"/>
<path d="M84.9666 12.4612C84.2143 11.7052 83.2114 11.2853 81.9575 11.2853C79.5334 11.2853 78.2794 13.0492 78.2794 14.9812C78.2794 17.1652 79.8677 18.6771 82.1246 18.6771C82.9606 18.6771 84.0472 18.4252 85.0502 17.5011V21.1131C84.298 21.4492 83.2112 21.9532 81.7067 21.9532C79.6169 21.9532 77.8616 21.1971 76.6912 20.0211C75.6882 19.0971 74.6016 17.4171 74.6016 14.9812C74.6016 12.7132 75.5209 10.7813 76.8584 9.60528C78.4466 8.1773 80.2857 7.92529 81.5395 7.92529C82.877 7.92529 84.0472 8.17721 85.0502 8.6812V12.4612H84.9666Z" fill="#000000"/>
<path d="M100.604 9.86161C101.942 11.0376 102.778 12.8856 102.778 14.9855C102.778 17.0855 101.858 18.9336 100.604 20.1096C99.5174 21.1176 97.7622 21.9575 95.3381 21.9575C92.8304 21.9575 91.1586 21.1176 90.0718 20.1096C88.7344 18.9336 87.8984 17.0855 87.8984 14.9855C87.8984 12.8016 88.8179 11.0376 90.0718 9.86161C91.1586 8.85362 92.9139 8.01367 95.3381 8.01367C97.8457 8.01367 99.5174 8.85362 100.604 9.86161ZM99.0159 14.9855C99.0159 12.8856 97.4279 11.2897 95.3381 11.2897C93.2482 11.2897 91.6599 12.9696 91.6599 14.9855C91.6599 17.0016 93.1647 18.6816 95.3381 18.6816C97.5114 18.6816 99.0159 17.0016 99.0159 14.9855Z" fill="#000000"/>
<path d="M108.288 0.617676C109.458 0.617676 110.461 1.62565 110.461 2.80163C110.461 3.97763 109.458 4.9857 108.288 4.9857C107.117 4.9857 106.114 3.97763 106.114 2.80163C106.031 1.62565 107.034 0.617676 108.288 0.617676ZM110.127 8.42965V21.6174H106.448V8.42965H110.127Z" fill="#000000"/>
<path d="M114.396 8.43366H118.074V10.1136C118.743 9.10565 119.997 8.01367 122.086 8.01367C123.257 8.01367 124.929 8.34968 125.931 9.60967C126.851 10.7017 126.934 12.0456 126.934 13.3056V21.5375H123.257V14.3975C123.257 13.6416 123.257 12.5496 122.588 11.7936C122.003 11.2056 121.25 11.1216 120.832 11.1216C119.829 11.1216 119.077 11.4576 118.575 12.2976C117.99 13.1376 117.99 14.0616 117.99 14.8176V21.5375H114.312V8.43366H114.396Z" fill="#000000"/>
<path d="M141.225 8.42927H144.903V20.9452C144.903 22.9611 144.735 25.0611 143.064 26.657C142.144 27.5811 140.557 28.5051 137.882 28.5051C135.374 28.5051 133.87 27.7491 132.95 26.9931C131.946 26.1532 131.111 24.5572 130.86 23.0451H134.872C135.04 23.6331 135.374 24.2211 135.793 24.6411C136.544 25.3131 137.547 25.3131 138.049 25.3131C139.136 25.3131 139.804 24.9772 140.306 24.4731C141.141 23.6331 141.225 22.6252 141.225 21.5332V19.6852C139.971 21.6172 138.215 21.8691 137.213 21.8691C135.458 21.8691 133.953 21.2811 132.699 20.1051C131.695 19.0972 130.609 17.4172 130.609 14.8972C130.609 12.7972 131.362 10.9493 132.616 9.68926C133.786 8.59727 135.374 7.92529 137.129 7.92529C139.554 7.92529 140.724 9.26929 141.225 10.0253V8.42927ZM135.624 12.2092C135.04 12.7972 134.454 13.6372 134.454 14.9812C134.454 16.1572 134.872 16.9972 135.458 17.5852C136.21 18.4252 137.213 18.7611 138.133 18.7611C139.052 18.7611 139.971 18.4252 140.557 17.8372C141.309 17.1652 141.727 16.0732 141.727 14.9812C141.727 13.7212 141.141 12.8811 140.64 12.3772C139.888 11.6212 139.052 11.2853 138.049 11.2853C136.879 11.2853 136.043 11.7892 135.624 12.2092Z" fill="#000000"/>
<path d="M159.195 8.43366H162.873V21.6215H159.195V19.9416C157.858 21.8735 156.102 22.0415 155.183 22.0415C151.17 22.0415 148.496 18.8495 148.496 14.9855C148.496 11.1216 151.087 8.01367 155.016 8.01367C156.018 8.01367 157.941 8.18167 159.195 10.1136V8.43366ZM152.341 14.9855C152.341 17.0855 153.845 18.6816 155.935 18.6816C158.025 18.6816 159.53 17.0016 159.53 14.9855C159.53 12.9696 158.025 11.2897 155.935 11.2897C153.845 11.2897 152.341 12.8856 152.341 14.9855Z" fill="#000000"/>
<path d="M170.9 11.6239V21.6198H167.223V11.6239H165.801V8.43198H167.223V3.896H170.9V8.43198H173.408V11.6239H170.9Z" fill="#000000"/>
<path d="M188.956 17.9216C188.538 18.9297 187.116 22.0376 182.518 22.0376C180.429 22.0376 178.84 21.4497 177.503 20.1897C176.082 18.8456 175.414 17.0817 175.414 15.0657C175.414 12.4618 176.5 10.8657 177.419 9.9417C178.924 8.42971 180.764 8.09375 182.352 8.09375C185.027 8.09375 186.532 9.18572 187.451 10.2777C188.872 11.9577 189.038 13.9736 189.038 15.4017V15.7376H179.259C179.259 16.4937 179.51 17.4176 179.928 17.9216C180.345 18.5096 181.098 19.1816 182.518 19.1816C183.939 19.1816 184.943 18.5096 185.612 17.4176L188.956 17.9216ZM185.528 13.2177C185.193 11.4537 183.773 10.6137 182.436 10.6137C181.098 10.6137 179.677 11.4537 179.343 13.2177H185.528Z" fill="#000000"/>
</g>
<defs>
<clipPath id="clip0_2409_32837">
<rect width="189.039" height="29.6532" fill="#000000"/>
</clipPath>
</defs>
</svg>
