<svg width="64" height="72" viewBox="0 0 64 72" fill="none" xmlns="http://www.w3.org/2000/svg">
<path d="M60.4815 15.9394L34.3003 0.73643C33.4512 0.251593 32.5261 0 31.5852 0C30.6444 0 29.7192 0.248972 28.8858 0.73643L2.69937 15.9525C1.03782 16.9221 0 18.7121 0 20.6462V51.0809C0 53.015 1.03782 54.826 2.69937 55.7904L7.40884 58.5265L14.2778 62.5152L15.8162 58.2775L29.963 19.2598C30.0914 18.8798 29.8188 18.471 29.3943 18.471H22.7612C22.2685 18.471 21.8125 18.7829 21.6552 19.2441L8.95508 54.2887L4.92176 51.9458C4.61775 51.7702 4.42906 51.4452 4.42906 51.0966V20.6488C4.42906 20.3003 4.61775 19.9753 4.92176 19.7997L31.1109 4.58368C31.255 4.49196 31.4306 4.45526 31.5957 4.45526C31.7608 4.45526 31.9285 4.49982 32.0884 4.58368L58.2827 19.7997C58.5867 19.9753 58.7754 20.3003 58.7754 20.6488V51.0835C58.7754 51.4321 58.5867 51.7571 58.2827 51.9327L54.294 54.252L43.8005 25.298C43.6118 24.766 42.8832 24.766 42.6945 25.298L39.2378 34.8218C39.1382 35.0865 39.1382 35.3827 39.2378 35.6395L47.425 58.2408L44.702 59.8263L38.0008 41.3186C37.8121 40.7866 37.0835 40.7866 36.8948 41.3186L33.4381 50.8424C33.3385 51.1071 33.3385 51.4033 33.4381 51.6601L37.8435 63.8151L32.0962 67.1592C31.9521 67.2509 31.7791 67.2876 31.6035 67.2876C31.428 67.2876 31.2707 67.243 31.1109 67.1592L25.4317 63.8544L41.5886 19.273C41.7327 18.8798 41.4444 18.4605 41.0356 18.4605H34.4025C33.9098 18.4605 33.4538 18.7724 33.2966 19.2336L18.5653 59.8578L17.027 64.0955L23.8959 68.0843L28.9068 70.9959C29.7402 71.4808 30.6732 71.7324 31.6062 71.7324C32.5392 71.7324 33.4721 71.4834 34.3055 70.9959L60.4999 55.7799C62.1745 54.8102 63.1992 53.0203 63.1992 51.0704V20.6515C63.1992 18.7174 62.1614 16.9064 60.4999 15.942H60.4841L60.4815 15.9394Z" fill="white"/>
</svg>
