<svg width="37" height="43" viewBox="0 0 37 43" fill="none" xmlns="http://www.w3.org/2000/svg">
<path d="M7.13107 6.54721L18.474 0L29.817 6.54721L25.6467 8.96593L18.474 4.83743L11.3013 8.96593L7.13107 6.54721ZM29.817 14.8042L25.6467 12.3855L18.474 16.514L11.3013 12.3855L7.13107 14.8042V19.6416L14.3038 23.7701V32.0271L18.474 34.4459L22.6443 32.0271V23.7701L29.817 19.6416V14.8042ZM29.817 27.8986V23.0612L25.6467 25.4798V30.3173L29.817 27.8986ZM32.7777 29.6084L25.605 33.7368V38.5743L36.948 32.0271V18.9326L32.7777 21.3514V29.6084ZM28.6077 10.6757L32.7777 13.0944V17.9319L36.948 15.5131V10.6757L32.7777 8.257L28.6077 10.6757ZM14.3038 35.4885V40.3259L18.474 42.7445L22.6443 40.3259V35.4885L18.474 37.9071L14.3038 35.4885ZM7.13107 27.8986L11.3013 30.3173V25.4798L7.13107 23.0612V27.8986ZM14.3038 10.6757L18.474 13.0944L22.6443 10.6757L18.474 8.257L14.3038 10.6757ZM4.17019 13.0944L8.3404 10.6757L4.17019 8.257L0 10.6757V15.5131L4.17019 17.9319V13.0944ZM4.17019 21.3514L0 18.9326V32.0271L11.3429 38.5743V33.7368L4.17019 29.6084V21.3514Z" fill="white"/>
</svg>
