<svg width="43" height="38" viewBox="0 0 43 38" fill="none" xmlns="http://www.w3.org/2000/svg">
<path d="M42.1359 29.8677L35.1436 37.3651C34.8379 37.6944 34.4091 37.8814 33.96 37.882H0.812392C0.363261 37.882 -0.000564289 37.5176 6.57044e-07 37.0685C6.57044e-07 36.864 0.0773979 36.6668 0.216374 36.5165L7.2008 29.0191C7.50643 28.6898 7.93523 28.5028 8.38436 28.5022H41.5314C41.9783 28.4932 42.3478 28.8474 42.3568 29.2942C42.3619 29.5072 42.2822 29.7134 42.1359 29.8677ZM35.1436 14.7661C34.8368 14.4384 34.4086 14.2514 33.96 14.2492H0.812392C0.363261 14.2492 -0.000564289 14.6136 6.57044e-07 15.0627C6.57044e-07 15.2672 0.0773979 15.4644 0.216374 15.6147L7.2008 23.116C7.50756 23.4437 7.93579 23.6307 8.38436 23.6329H41.5314C41.9805 23.6307 42.3421 23.2646 42.3398 22.8155C42.3387 22.6121 42.2613 22.4166 42.1235 22.2675L35.1436 14.7661ZM0.812392 9.37992H33.9594C34.4086 9.37935 34.8374 9.19235 35.143 8.86299L42.1353 1.3656C42.4427 1.04075 42.4285 0.528348 42.1037 0.221018C42.0664 0.185991 42.0257 0.154359 41.9828 0.126677C41.8483 0.0408048 41.6913 -0.00269543 41.532 0.000129293H8.38492C7.93579 0.000694239 7.507 0.187687 7.20136 0.517051L0.21694 8.01444C-0.0881304 8.3438 -0.0683578 8.85791 0.261005 9.16298C0.410716 9.30252 0.607882 9.37992 0.812392 9.37992Z" fill="white"/>
</svg>
